G04 #@! TF.GenerationSoftware,KiCad,Pcbnew,(5.0.0)*
G04 #@! TF.CreationDate,2018-08-09T10:22:05+01:00*
G04 #@! TF.ProjectId,domenode,646F6D656E6F64652E6B696361645F70,rev?*
G04 #@! TF.SameCoordinates,Original*
G04 #@! TF.FileFunction,Legend,Bot*
G04 #@! TF.FilePolarity,Positive*
%FSLAX46Y46*%
G04 Gerber Fmt 4.6, Leading zero omitted, Abs format (unit mm)*
G04 Created by KiCad (PCBNEW (5.0.0)) date 08/09/18 10:22:05*
%MOMM*%
%LPD*%
G01*
G04 APERTURE LIST*
%ADD10C,0.150000*%
%ADD11C,0.500000*%
%ADD12C,0.120000*%
G04 APERTURE END LIST*
D10*
G04 #@! TO.C,J19*
X146876000Y-101600000D02*
X132266000Y-101600000D01*
X132266000Y-101600000D02*
X132266000Y-82930000D01*
X132266000Y-82930000D02*
X146876000Y-82930000D01*
X146876000Y-82930000D02*
X146876000Y-101600000D01*
X131316000Y-102360000D02*
X131316000Y-82040000D01*
X131316000Y-82040000D02*
X147826000Y-82040000D01*
X147826000Y-82040000D02*
X147826000Y-102360000D01*
X147826000Y-102360000D02*
X131316000Y-102360000D01*
X143381000Y-101725000D02*
X143381000Y-95375000D01*
X143381000Y-95375000D02*
X135761000Y-95375000D01*
X135761000Y-95375000D02*
X135761000Y-101725000D01*
G04 #@! TO.C,J20*
X164660000Y-101600000D02*
X150050000Y-101600000D01*
X150050000Y-101600000D02*
X150050000Y-82930000D01*
X150050000Y-82930000D02*
X164660000Y-82930000D01*
X164660000Y-82930000D02*
X164660000Y-101600000D01*
X149100000Y-102360000D02*
X149100000Y-82040000D01*
X149100000Y-82040000D02*
X165610000Y-82040000D01*
X165610000Y-82040000D02*
X165610000Y-102360000D01*
X165610000Y-102360000D02*
X149100000Y-102360000D01*
X161165000Y-101725000D02*
X161165000Y-95375000D01*
X161165000Y-95375000D02*
X153545000Y-95375000D01*
X153545000Y-95375000D02*
X153545000Y-101725000D01*
D11*
G04 #@! TO.C,U3*
X126627981Y-139554000D02*
G75*
G03X126627981Y-139554000I-283981J0D01*
G01*
D10*
X145250000Y-139700000D02*
X127250000Y-139700000D01*
X127250000Y-145700000D02*
X127250000Y-120200000D01*
X145250000Y-145700000D02*
X145250000Y-120200000D01*
X145250000Y-120200000D02*
X127250000Y-120200000D01*
X145250000Y-145700000D02*
X127250000Y-145700000D01*
D12*
G04 #@! TO.C,LDR2*
X150113963Y-114859242D02*
G75*
G02X150100000Y-110650000I1386037J2109242D01*
G01*
X152886037Y-110640758D02*
G75*
G02X152900000Y-114850000I-1386037J-2109242D01*
G01*
X150100000Y-114850000D02*
X152900000Y-114850000D01*
X150100000Y-110650000D02*
X152900000Y-110650000D01*
G04 #@! TO.C,C14*
X184203733Y-100260000D02*
X184546267Y-100260000D01*
X184203733Y-99240000D02*
X184546267Y-99240000D01*
G04 #@! TO.C,R1*
X145304252Y-117042000D02*
X144781748Y-117042000D01*
X145304252Y-115622000D02*
X144781748Y-115622000D01*
G04 #@! TO.C,R2*
X109210000Y-123011252D02*
X109210000Y-122488748D01*
X107790000Y-123011252D02*
X107790000Y-122488748D01*
G04 #@! TO.C,R3*
X114329000Y-122463748D02*
X114329000Y-122986252D01*
X112909000Y-122463748D02*
X112909000Y-122986252D01*
G04 #@! TO.C,R4*
X150738748Y-117042000D02*
X151261252Y-117042000D01*
X150738748Y-115622000D02*
X151261252Y-115622000D01*
G04 #@! TO.C,R15*
X154238748Y-119210000D02*
X154761252Y-119210000D01*
X154238748Y-117790000D02*
X154761252Y-117790000D01*
G04 #@! TO.C,R16*
X157710000Y-121988748D02*
X157710000Y-122511252D01*
X156290000Y-121988748D02*
X156290000Y-122511252D01*
G04 #@! TO.C,R17*
X185786252Y-105960000D02*
X185263748Y-105960000D01*
X185786252Y-104540000D02*
X185263748Y-104540000D01*
G04 #@! TO.C,Q2*
X160830000Y-118510000D02*
X159900000Y-118510000D01*
X157670000Y-118510000D02*
X158600000Y-118510000D01*
X157670000Y-118510000D02*
X157670000Y-115350000D01*
X160830000Y-118510000D02*
X160830000Y-117050000D01*
G04 #@! TO.C,Q1*
X115970000Y-119990000D02*
X116900000Y-119990000D01*
X119130000Y-119990000D02*
X118200000Y-119990000D01*
X119130000Y-119990000D02*
X119130000Y-123150000D01*
X115970000Y-119990000D02*
X115970000Y-121450000D01*
G04 #@! TO.C,J19*
D10*
X140380523Y-99272380D02*
X140380523Y-99986666D01*
X140428142Y-100129523D01*
X140523380Y-100224761D01*
X140666238Y-100272380D01*
X140761476Y-100272380D01*
X139380523Y-100272380D02*
X139951952Y-100272380D01*
X139666238Y-100272380D02*
X139666238Y-99272380D01*
X139761476Y-99415238D01*
X139856714Y-99510476D01*
X139951952Y-99558095D01*
X138904333Y-100272380D02*
X138713857Y-100272380D01*
X138618619Y-100224761D01*
X138571000Y-100177142D01*
X138475761Y-100034285D01*
X138428142Y-99843809D01*
X138428142Y-99462857D01*
X138475761Y-99367619D01*
X138523380Y-99320000D01*
X138618619Y-99272380D01*
X138809095Y-99272380D01*
X138904333Y-99320000D01*
X138951952Y-99367619D01*
X138999571Y-99462857D01*
X138999571Y-99700952D01*
X138951952Y-99796190D01*
X138904333Y-99843809D01*
X138809095Y-99891428D01*
X138618619Y-99891428D01*
X138523380Y-99843809D01*
X138475761Y-99796190D01*
X138428142Y-99700952D01*
G04 #@! TO.C,J20*
X158164523Y-99272380D02*
X158164523Y-99986666D01*
X158212142Y-100129523D01*
X158307380Y-100224761D01*
X158450238Y-100272380D01*
X158545476Y-100272380D01*
X157735952Y-99367619D02*
X157688333Y-99320000D01*
X157593095Y-99272380D01*
X157355000Y-99272380D01*
X157259761Y-99320000D01*
X157212142Y-99367619D01*
X157164523Y-99462857D01*
X157164523Y-99558095D01*
X157212142Y-99700952D01*
X157783571Y-100272380D01*
X157164523Y-100272380D01*
X156545476Y-99272380D02*
X156450238Y-99272380D01*
X156355000Y-99320000D01*
X156307380Y-99367619D01*
X156259761Y-99462857D01*
X156212142Y-99653333D01*
X156212142Y-99891428D01*
X156259761Y-100081904D01*
X156307380Y-100177142D01*
X156355000Y-100224761D01*
X156450238Y-100272380D01*
X156545476Y-100272380D01*
X156640714Y-100224761D01*
X156688333Y-100177142D01*
X156735952Y-100081904D01*
X156783571Y-99891428D01*
X156783571Y-99653333D01*
X156735952Y-99462857D01*
X156688333Y-99367619D01*
X156640714Y-99320000D01*
X156545476Y-99272380D01*
G04 #@! TO.C,U3*
X148568904Y-138452380D02*
X148568904Y-139261904D01*
X148521285Y-139357142D01*
X148473666Y-139404761D01*
X148378428Y-139452380D01*
X148187952Y-139452380D01*
X148092714Y-139404761D01*
X148045095Y-139357142D01*
X147997476Y-139261904D01*
X147997476Y-138452380D01*
X147616523Y-138452380D02*
X146997476Y-138452380D01*
X147330809Y-138833333D01*
X147187952Y-138833333D01*
X147092714Y-138880952D01*
X147045095Y-138928571D01*
X146997476Y-139023809D01*
X146997476Y-139261904D01*
X147045095Y-139357142D01*
X147092714Y-139404761D01*
X147187952Y-139452380D01*
X147473666Y-139452380D01*
X147568904Y-139404761D01*
X147616523Y-139357142D01*
X143036571Y-125489571D02*
X143036571Y-125822904D01*
X143560380Y-125965761D02*
X143560380Y-125489571D01*
X142560380Y-125489571D01*
X142560380Y-125965761D01*
X143512761Y-126346714D02*
X143560380Y-126441952D01*
X143560380Y-126632428D01*
X143512761Y-126727666D01*
X143417523Y-126775285D01*
X143369904Y-126775285D01*
X143274666Y-126727666D01*
X143227047Y-126632428D01*
X143227047Y-126489571D01*
X143179428Y-126394333D01*
X143084190Y-126346714D01*
X143036571Y-126346714D01*
X142941333Y-126394333D01*
X142893714Y-126489571D01*
X142893714Y-126632428D01*
X142941333Y-126727666D01*
X142893714Y-127203857D02*
X143893714Y-127203857D01*
X142941333Y-127203857D02*
X142893714Y-127299095D01*
X142893714Y-127489571D01*
X142941333Y-127584809D01*
X142988952Y-127632428D01*
X143084190Y-127680047D01*
X143369904Y-127680047D01*
X143465142Y-127632428D01*
X143512761Y-127584809D01*
X143560380Y-127489571D01*
X143560380Y-127299095D01*
X143512761Y-127203857D01*
X143560380Y-128108619D02*
X142893714Y-128108619D01*
X143084190Y-128108619D02*
X142988952Y-128156238D01*
X142941333Y-128203857D01*
X142893714Y-128299095D01*
X142893714Y-128394333D01*
X143512761Y-129108619D02*
X143560380Y-129013380D01*
X143560380Y-128822904D01*
X143512761Y-128727666D01*
X143417523Y-128680047D01*
X143036571Y-128680047D01*
X142941333Y-128727666D01*
X142893714Y-128822904D01*
X142893714Y-129013380D01*
X142941333Y-129108619D01*
X143036571Y-129156238D01*
X143131809Y-129156238D01*
X143227047Y-128680047D01*
X143512761Y-129537190D02*
X143560380Y-129632428D01*
X143560380Y-129822904D01*
X143512761Y-129918142D01*
X143417523Y-129965761D01*
X143369904Y-129965761D01*
X143274666Y-129918142D01*
X143227047Y-129822904D01*
X143227047Y-129680047D01*
X143179428Y-129584809D01*
X143084190Y-129537190D01*
X143036571Y-129537190D01*
X142941333Y-129584809D01*
X142893714Y-129680047D01*
X142893714Y-129822904D01*
X142941333Y-129918142D01*
X143512761Y-130346714D02*
X143560380Y-130441952D01*
X143560380Y-130632428D01*
X143512761Y-130727666D01*
X143417523Y-130775285D01*
X143369904Y-130775285D01*
X143274666Y-130727666D01*
X143227047Y-130632428D01*
X143227047Y-130489571D01*
X143179428Y-130394333D01*
X143084190Y-130346714D01*
X143036571Y-130346714D01*
X142941333Y-130394333D01*
X142893714Y-130489571D01*
X142893714Y-130632428D01*
X142941333Y-130727666D01*
X143560380Y-131203857D02*
X142893714Y-131203857D01*
X142560380Y-131203857D02*
X142608000Y-131156238D01*
X142655619Y-131203857D01*
X142608000Y-131251476D01*
X142560380Y-131203857D01*
X142655619Y-131203857D01*
X142893714Y-131537190D02*
X142893714Y-131918142D01*
X143560380Y-131680047D02*
X142703238Y-131680047D01*
X142608000Y-131727666D01*
X142560380Y-131822904D01*
X142560380Y-131918142D01*
X143512761Y-132965761D02*
X143560380Y-133108619D01*
X143560380Y-133346714D01*
X143512761Y-133441952D01*
X143465142Y-133489571D01*
X143369904Y-133537190D01*
X143274666Y-133537190D01*
X143179428Y-133489571D01*
X143131809Y-133441952D01*
X143084190Y-133346714D01*
X143036571Y-133156238D01*
X142988952Y-133061000D01*
X142941333Y-133013380D01*
X142846095Y-132965761D01*
X142750857Y-132965761D01*
X142655619Y-133013380D01*
X142608000Y-133061000D01*
X142560380Y-133156238D01*
X142560380Y-133394333D01*
X142608000Y-133537190D01*
X142893714Y-133870523D02*
X143560380Y-134108619D01*
X142893714Y-134346714D02*
X143560380Y-134108619D01*
X143798476Y-134013380D01*
X143846095Y-133965761D01*
X143893714Y-133870523D01*
X143512761Y-134680047D02*
X143560380Y-134775285D01*
X143560380Y-134965761D01*
X143512761Y-135061000D01*
X143417523Y-135108619D01*
X143369904Y-135108619D01*
X143274666Y-135061000D01*
X143227047Y-134965761D01*
X143227047Y-134822904D01*
X143179428Y-134727666D01*
X143084190Y-134680047D01*
X143036571Y-134680047D01*
X142941333Y-134727666D01*
X142893714Y-134822904D01*
X142893714Y-134965761D01*
X142941333Y-135061000D01*
X142893714Y-135394333D02*
X142893714Y-135775285D01*
X142560380Y-135537190D02*
X143417523Y-135537190D01*
X143512761Y-135584809D01*
X143560380Y-135680047D01*
X143560380Y-135775285D01*
X143512761Y-136489571D02*
X143560380Y-136394333D01*
X143560380Y-136203857D01*
X143512761Y-136108619D01*
X143417523Y-136061000D01*
X143036571Y-136061000D01*
X142941333Y-136108619D01*
X142893714Y-136203857D01*
X142893714Y-136394333D01*
X142941333Y-136489571D01*
X143036571Y-136537190D01*
X143131809Y-136537190D01*
X143227047Y-136061000D01*
X143560380Y-136965761D02*
X142893714Y-136965761D01*
X142988952Y-136965761D02*
X142941333Y-137013380D01*
X142893714Y-137108619D01*
X142893714Y-137251476D01*
X142941333Y-137346714D01*
X143036571Y-137394333D01*
X143560380Y-137394333D01*
X143036571Y-137394333D02*
X142941333Y-137441952D01*
X142893714Y-137537190D01*
X142893714Y-137680047D01*
X142941333Y-137775285D01*
X143036571Y-137822904D01*
X143560380Y-137822904D01*
X143512761Y-138251476D02*
X143560380Y-138346714D01*
X143560380Y-138537190D01*
X143512761Y-138632428D01*
X143417523Y-138680047D01*
X143369904Y-138680047D01*
X143274666Y-138632428D01*
X143227047Y-138537190D01*
X143227047Y-138394333D01*
X143179428Y-138299095D01*
X143084190Y-138251476D01*
X143036571Y-138251476D01*
X142941333Y-138299095D01*
X142893714Y-138394333D01*
X142893714Y-138537190D01*
X142941333Y-138632428D01*
X141385571Y-127751619D02*
X141385571Y-128084952D01*
X141909380Y-128227809D02*
X141909380Y-127751619D01*
X140909380Y-127751619D01*
X140909380Y-128227809D01*
X141861761Y-128608761D02*
X141909380Y-128751619D01*
X141909380Y-128989714D01*
X141861761Y-129084952D01*
X141814142Y-129132571D01*
X141718904Y-129180190D01*
X141623666Y-129180190D01*
X141528428Y-129132571D01*
X141480809Y-129084952D01*
X141433190Y-128989714D01*
X141385571Y-128799238D01*
X141337952Y-128704000D01*
X141290333Y-128656380D01*
X141195095Y-128608761D01*
X141099857Y-128608761D01*
X141004619Y-128656380D01*
X140957000Y-128704000D01*
X140909380Y-128799238D01*
X140909380Y-129037333D01*
X140957000Y-129180190D01*
X141909380Y-129608761D02*
X140909380Y-129608761D01*
X140909380Y-129989714D01*
X140957000Y-130084952D01*
X141004619Y-130132571D01*
X141099857Y-130180190D01*
X141242714Y-130180190D01*
X141337952Y-130132571D01*
X141385571Y-130084952D01*
X141433190Y-129989714D01*
X141433190Y-129608761D01*
X140909380Y-130513523D02*
X140909380Y-131132571D01*
X141290333Y-130799238D01*
X141290333Y-130942095D01*
X141337952Y-131037333D01*
X141385571Y-131084952D01*
X141480809Y-131132571D01*
X141718904Y-131132571D01*
X141814142Y-131084952D01*
X141861761Y-131037333D01*
X141909380Y-130942095D01*
X141909380Y-130656380D01*
X141861761Y-130561142D01*
X141814142Y-130513523D01*
X141004619Y-131513523D02*
X140957000Y-131561142D01*
X140909380Y-131656380D01*
X140909380Y-131894476D01*
X140957000Y-131989714D01*
X141004619Y-132037333D01*
X141099857Y-132084952D01*
X141195095Y-132084952D01*
X141337952Y-132037333D01*
X141909380Y-131465904D01*
X141909380Y-132084952D01*
X141528428Y-132513523D02*
X141528428Y-133275428D01*
X140909380Y-133656380D02*
X141909380Y-133894476D01*
X141195095Y-134084952D01*
X141909380Y-134275428D01*
X140909380Y-134513523D01*
X141909380Y-135465904D02*
X141433190Y-135132571D01*
X141909380Y-134894476D02*
X140909380Y-134894476D01*
X140909380Y-135275428D01*
X140957000Y-135370666D01*
X141004619Y-135418285D01*
X141099857Y-135465904D01*
X141242714Y-135465904D01*
X141337952Y-135418285D01*
X141385571Y-135370666D01*
X141433190Y-135275428D01*
X141433190Y-134894476D01*
X140909380Y-136084952D02*
X140909380Y-136275428D01*
X140957000Y-136370666D01*
X141052238Y-136465904D01*
X141242714Y-136513523D01*
X141576047Y-136513523D01*
X141766523Y-136465904D01*
X141861761Y-136370666D01*
X141909380Y-136275428D01*
X141909380Y-136084952D01*
X141861761Y-135989714D01*
X141766523Y-135894476D01*
X141576047Y-135846857D01*
X141242714Y-135846857D01*
X141052238Y-135894476D01*
X140957000Y-135989714D01*
X140909380Y-136084952D01*
X140909380Y-137132571D02*
X140909380Y-137323047D01*
X140957000Y-137418285D01*
X141052238Y-137513523D01*
X141242714Y-137561142D01*
X141576047Y-137561142D01*
X141766523Y-137513523D01*
X141861761Y-137418285D01*
X141909380Y-137323047D01*
X141909380Y-137132571D01*
X141861761Y-137037333D01*
X141766523Y-136942095D01*
X141576047Y-136894476D01*
X141242714Y-136894476D01*
X141052238Y-136942095D01*
X140957000Y-137037333D01*
X140909380Y-137132571D01*
X141909380Y-137989714D02*
X140909380Y-137989714D01*
X141623666Y-138323047D01*
X140909380Y-138656380D01*
X141909380Y-138656380D01*
G04 #@! TO.C,LDR2*
X152395238Y-110202380D02*
X152728571Y-109726190D01*
X152966666Y-110202380D02*
X152966666Y-109202380D01*
X152585714Y-109202380D01*
X152490476Y-109250000D01*
X152442857Y-109297619D01*
X152395238Y-109392857D01*
X152395238Y-109535714D01*
X152442857Y-109630952D01*
X152490476Y-109678571D01*
X152585714Y-109726190D01*
X152966666Y-109726190D01*
X151490476Y-110202380D02*
X151966666Y-110202380D01*
X151966666Y-109202380D01*
X151157142Y-110202380D02*
X151157142Y-109202380D01*
X150919047Y-109202380D01*
X150776190Y-109250000D01*
X150680952Y-109345238D01*
X150633333Y-109440476D01*
X150585714Y-109630952D01*
X150585714Y-109773809D01*
X150633333Y-109964285D01*
X150680952Y-110059523D01*
X150776190Y-110154761D01*
X150919047Y-110202380D01*
X151157142Y-110202380D01*
X149585714Y-110202380D02*
X149919047Y-109726190D01*
X150157142Y-110202380D02*
X150157142Y-109202380D01*
X149776190Y-109202380D01*
X149680952Y-109250000D01*
X149633333Y-109297619D01*
X149585714Y-109392857D01*
X149585714Y-109535714D01*
X149633333Y-109630952D01*
X149680952Y-109678571D01*
X149776190Y-109726190D01*
X150157142Y-109726190D01*
G04 #@! TO.C,C14*
X185017857Y-101537142D02*
X185065476Y-101584761D01*
X185208333Y-101632380D01*
X185303571Y-101632380D01*
X185446428Y-101584761D01*
X185541666Y-101489523D01*
X185589285Y-101394285D01*
X185636904Y-101203809D01*
X185636904Y-101060952D01*
X185589285Y-100870476D01*
X185541666Y-100775238D01*
X185446428Y-100680000D01*
X185303571Y-100632380D01*
X185208333Y-100632380D01*
X185065476Y-100680000D01*
X185017857Y-100727619D01*
X184065476Y-101632380D02*
X184636904Y-101632380D01*
X184351190Y-101632380D02*
X184351190Y-100632380D01*
X184446428Y-100775238D01*
X184541666Y-100870476D01*
X184636904Y-100918095D01*
X183208333Y-100965714D02*
X183208333Y-101632380D01*
X183446428Y-100584761D02*
X183684523Y-101299047D01*
X183065476Y-101299047D01*
G04 #@! TO.C,R1*
X145209666Y-115134380D02*
X145543000Y-114658190D01*
X145781095Y-115134380D02*
X145781095Y-114134380D01*
X145400142Y-114134380D01*
X145304904Y-114182000D01*
X145257285Y-114229619D01*
X145209666Y-114324857D01*
X145209666Y-114467714D01*
X145257285Y-114562952D01*
X145304904Y-114610571D01*
X145400142Y-114658190D01*
X145781095Y-114658190D01*
X144257285Y-115134380D02*
X144828714Y-115134380D01*
X144543000Y-115134380D02*
X144543000Y-114134380D01*
X144638238Y-114277238D01*
X144733476Y-114372476D01*
X144828714Y-114420095D01*
G04 #@! TO.C,R2*
X110602380Y-122583333D02*
X110126190Y-122250000D01*
X110602380Y-122011904D02*
X109602380Y-122011904D01*
X109602380Y-122392857D01*
X109650000Y-122488095D01*
X109697619Y-122535714D01*
X109792857Y-122583333D01*
X109935714Y-122583333D01*
X110030952Y-122535714D01*
X110078571Y-122488095D01*
X110126190Y-122392857D01*
X110126190Y-122011904D01*
X109697619Y-122964285D02*
X109650000Y-123011904D01*
X109602380Y-123107142D01*
X109602380Y-123345238D01*
X109650000Y-123440476D01*
X109697619Y-123488095D01*
X109792857Y-123535714D01*
X109888095Y-123535714D01*
X110030952Y-123488095D01*
X110602380Y-122916666D01*
X110602380Y-123535714D01*
G04 #@! TO.C,R3*
X112421380Y-122558333D02*
X111945190Y-122225000D01*
X112421380Y-121986904D02*
X111421380Y-121986904D01*
X111421380Y-122367857D01*
X111469000Y-122463095D01*
X111516619Y-122510714D01*
X111611857Y-122558333D01*
X111754714Y-122558333D01*
X111849952Y-122510714D01*
X111897571Y-122463095D01*
X111945190Y-122367857D01*
X111945190Y-121986904D01*
X111421380Y-122891666D02*
X111421380Y-123510714D01*
X111802333Y-123177380D01*
X111802333Y-123320238D01*
X111849952Y-123415476D01*
X111897571Y-123463095D01*
X111992809Y-123510714D01*
X112230904Y-123510714D01*
X112326142Y-123463095D01*
X112373761Y-123415476D01*
X112421380Y-123320238D01*
X112421380Y-123034523D01*
X112373761Y-122939285D01*
X112326142Y-122891666D01*
G04 #@! TO.C,R4*
X151166666Y-118434380D02*
X151500000Y-117958190D01*
X151738095Y-118434380D02*
X151738095Y-117434380D01*
X151357142Y-117434380D01*
X151261904Y-117482000D01*
X151214285Y-117529619D01*
X151166666Y-117624857D01*
X151166666Y-117767714D01*
X151214285Y-117862952D01*
X151261904Y-117910571D01*
X151357142Y-117958190D01*
X151738095Y-117958190D01*
X150309523Y-117767714D02*
X150309523Y-118434380D01*
X150547619Y-117386761D02*
X150785714Y-118101047D01*
X150166666Y-118101047D01*
G04 #@! TO.C,R15*
X155142857Y-117452380D02*
X155476190Y-116976190D01*
X155714285Y-117452380D02*
X155714285Y-116452380D01*
X155333333Y-116452380D01*
X155238095Y-116500000D01*
X155190476Y-116547619D01*
X155142857Y-116642857D01*
X155142857Y-116785714D01*
X155190476Y-116880952D01*
X155238095Y-116928571D01*
X155333333Y-116976190D01*
X155714285Y-116976190D01*
X154190476Y-117452380D02*
X154761904Y-117452380D01*
X154476190Y-117452380D02*
X154476190Y-116452380D01*
X154571428Y-116595238D01*
X154666666Y-116690476D01*
X154761904Y-116738095D01*
X153285714Y-116452380D02*
X153761904Y-116452380D01*
X153809523Y-116928571D01*
X153761904Y-116880952D01*
X153666666Y-116833333D01*
X153428571Y-116833333D01*
X153333333Y-116880952D01*
X153285714Y-116928571D01*
X153238095Y-117023809D01*
X153238095Y-117261904D01*
X153285714Y-117357142D01*
X153333333Y-117404761D01*
X153428571Y-117452380D01*
X153666666Y-117452380D01*
X153761904Y-117404761D01*
X153809523Y-117357142D01*
G04 #@! TO.C,R16*
X156942857Y-125152380D02*
X157276190Y-124676190D01*
X157514285Y-125152380D02*
X157514285Y-124152380D01*
X157133333Y-124152380D01*
X157038095Y-124200000D01*
X156990476Y-124247619D01*
X156942857Y-124342857D01*
X156942857Y-124485714D01*
X156990476Y-124580952D01*
X157038095Y-124628571D01*
X157133333Y-124676190D01*
X157514285Y-124676190D01*
X155990476Y-125152380D02*
X156561904Y-125152380D01*
X156276190Y-125152380D02*
X156276190Y-124152380D01*
X156371428Y-124295238D01*
X156466666Y-124390476D01*
X156561904Y-124438095D01*
X155133333Y-124152380D02*
X155323809Y-124152380D01*
X155419047Y-124200000D01*
X155466666Y-124247619D01*
X155561904Y-124390476D01*
X155609523Y-124580952D01*
X155609523Y-124961904D01*
X155561904Y-125057142D01*
X155514285Y-125104761D01*
X155419047Y-125152380D01*
X155228571Y-125152380D01*
X155133333Y-125104761D01*
X155085714Y-125057142D01*
X155038095Y-124961904D01*
X155038095Y-124723809D01*
X155085714Y-124628571D01*
X155133333Y-124580952D01*
X155228571Y-124533333D01*
X155419047Y-124533333D01*
X155514285Y-124580952D01*
X155561904Y-124628571D01*
X155609523Y-124723809D01*
G04 #@! TO.C,R17*
X186167857Y-104052380D02*
X186501190Y-103576190D01*
X186739285Y-104052380D02*
X186739285Y-103052380D01*
X186358333Y-103052380D01*
X186263095Y-103100000D01*
X186215476Y-103147619D01*
X186167857Y-103242857D01*
X186167857Y-103385714D01*
X186215476Y-103480952D01*
X186263095Y-103528571D01*
X186358333Y-103576190D01*
X186739285Y-103576190D01*
X185215476Y-104052380D02*
X185786904Y-104052380D01*
X185501190Y-104052380D02*
X185501190Y-103052380D01*
X185596428Y-103195238D01*
X185691666Y-103290476D01*
X185786904Y-103338095D01*
X184882142Y-103052380D02*
X184215476Y-103052380D01*
X184644047Y-104052380D01*
G04 #@! TO.C,Q2*
X162095238Y-118447619D02*
X162190476Y-118400000D01*
X162285714Y-118304761D01*
X162428571Y-118161904D01*
X162523809Y-118114285D01*
X162619047Y-118114285D01*
X162571428Y-118352380D02*
X162666666Y-118304761D01*
X162761904Y-118209523D01*
X162809523Y-118019047D01*
X162809523Y-117685714D01*
X162761904Y-117495238D01*
X162666666Y-117400000D01*
X162571428Y-117352380D01*
X162380952Y-117352380D01*
X162285714Y-117400000D01*
X162190476Y-117495238D01*
X162142857Y-117685714D01*
X162142857Y-118019047D01*
X162190476Y-118209523D01*
X162285714Y-118304761D01*
X162380952Y-118352380D01*
X162571428Y-118352380D01*
X161761904Y-117447619D02*
X161714285Y-117400000D01*
X161619047Y-117352380D01*
X161380952Y-117352380D01*
X161285714Y-117400000D01*
X161238095Y-117447619D01*
X161190476Y-117542857D01*
X161190476Y-117638095D01*
X161238095Y-117780952D01*
X161809523Y-118352380D01*
X161190476Y-118352380D01*
G04 #@! TO.C,Q1*
X120597619Y-120654761D02*
X120550000Y-120559523D01*
X120454761Y-120464285D01*
X120311904Y-120321428D01*
X120264285Y-120226190D01*
X120264285Y-120130952D01*
X120502380Y-120178571D02*
X120454761Y-120083333D01*
X120359523Y-119988095D01*
X120169047Y-119940476D01*
X119835714Y-119940476D01*
X119645238Y-119988095D01*
X119550000Y-120083333D01*
X119502380Y-120178571D01*
X119502380Y-120369047D01*
X119550000Y-120464285D01*
X119645238Y-120559523D01*
X119835714Y-120607142D01*
X120169047Y-120607142D01*
X120359523Y-120559523D01*
X120454761Y-120464285D01*
X120502380Y-120369047D01*
X120502380Y-120178571D01*
X120502380Y-121559523D02*
X120502380Y-120988095D01*
X120502380Y-121273809D02*
X119502380Y-121273809D01*
X119645238Y-121178571D01*
X119740476Y-121083333D01*
X119788095Y-120988095D01*
G04 #@! TD*
M02*
