G04 #@! TF.GenerationSoftware,KiCad,Pcbnew,(5.0.0)*
G04 #@! TF.CreationDate,2018-08-09T10:22:05+01:00*
G04 #@! TF.ProjectId,domenode,646F6D656E6F64652E6B696361645F70,rev?*
G04 #@! TF.SameCoordinates,Original*
G04 #@! TF.FileFunction,Soldermask,Top*
G04 #@! TF.FilePolarity,Negative*
%FSLAX46Y46*%
G04 Gerber Fmt 4.6, Leading zero omitted, Abs format (unit mm)*
G04 Created by KiCad (PCBNEW (5.0.0)) date 08/09/18 10:22:05*
%MOMM*%
%LPD*%
G01*
G04 APERTURE LIST*
%ADD10R,1.900000X1.900000*%
%ADD11C,1.900000*%
%ADD12C,3.650000*%
%ADD13C,2.400000*%
%ADD14R,4.200000X2.400000*%
%ADD15R,1.900000X2.400000*%
%ADD16C,6.800000*%
%ADD17R,3.400000X2.400000*%
%ADD18R,1.400000X1.900000*%
%ADD19O,2.600000X2.600000*%
%ADD20R,2.600000X2.600000*%
%ADD21C,2.200000*%
%ADD22R,2.200000X2.200000*%
%ADD23C,2.000000*%
%ADD24R,2.100000X2.100000*%
%ADD25O,2.100000X2.100000*%
%ADD26R,1.000000X1.950000*%
%ADD27C,0.100000*%
%ADD28C,1.350000*%
%ADD29C,1.550000*%
%ADD30R,1.300000X2.100000*%
%ADD31C,1.825000*%
G04 APERTURE END LIST*
D10*
G04 #@! TO.C,J19*
X144016000Y-87120000D03*
D11*
X141476000Y-87120000D03*
X138936000Y-87120000D03*
X136396000Y-87120000D03*
X142746000Y-84580000D03*
X140206000Y-84580000D03*
X137666000Y-84580000D03*
X135126000Y-84580000D03*
D12*
X133856000Y-93470000D03*
X145286000Y-93470000D03*
D13*
X147066000Y-96520000D03*
X132076000Y-96520000D03*
G04 #@! TD*
D10*
G04 #@! TO.C,J20*
X161800000Y-87120000D03*
D11*
X159260000Y-87120000D03*
X156720000Y-87120000D03*
X154180000Y-87120000D03*
X160530000Y-84580000D03*
X157990000Y-84580000D03*
X155450000Y-84580000D03*
X152910000Y-84580000D03*
D12*
X151640000Y-93470000D03*
X163070000Y-93470000D03*
D13*
X164850000Y-96520000D03*
X149860000Y-96520000D03*
G04 #@! TD*
D14*
G04 #@! TO.C,U2*
X113500000Y-91500000D03*
D15*
X113500000Y-85200000D03*
X111200000Y-85200000D03*
X115800000Y-85200000D03*
G04 #@! TD*
D16*
G04 #@! TO.C,MH8*
X114000000Y-76000000D03*
G04 #@! TD*
D17*
G04 #@! TO.C,U1*
X137484000Y-81868000D03*
X137484000Y-72216000D03*
X120990000Y-72216000D03*
X120959000Y-81868000D03*
G04 #@! TD*
D18*
G04 #@! TO.C,D9*
X146900000Y-89450000D03*
X150100000Y-89450000D03*
X146900000Y-84550000D03*
X150100000Y-84550000D03*
G04 #@! TD*
D19*
G04 #@! TO.C,D10*
X141224000Y-80645000D03*
D20*
X141224000Y-73025000D03*
G04 #@! TD*
D16*
G04 #@! TO.C,MH6*
X114000000Y-134000000D03*
G04 #@! TD*
D21*
G04 #@! TO.C,D13*
X159250000Y-124240000D03*
D22*
X159250000Y-121700000D03*
G04 #@! TD*
D18*
G04 #@! TO.C,D7*
X146900000Y-125450000D03*
X150100000Y-125450000D03*
X146900000Y-120550000D03*
X150100000Y-120550000D03*
G04 #@! TD*
G04 #@! TO.C,D5*
X136900000Y-100950000D03*
X140100000Y-100950000D03*
X136900000Y-96050000D03*
X140100000Y-96050000D03*
G04 #@! TD*
G04 #@! TO.C,D4*
X156900000Y-100950000D03*
X160100000Y-100950000D03*
X156900000Y-96050000D03*
X160100000Y-96050000D03*
G04 #@! TD*
D23*
G04 #@! TO.C,LDR1*
X144000000Y-112750000D03*
X147000000Y-112750000D03*
G04 #@! TD*
G04 #@! TO.C,LDR2*
X153000000Y-112750000D03*
X150000000Y-112750000D03*
G04 #@! TD*
D18*
G04 #@! TO.C,D8*
X168100000Y-102550000D03*
X164900000Y-102550000D03*
X168100000Y-107450000D03*
X164900000Y-107450000D03*
G04 #@! TD*
G04 #@! TO.C,D6*
X128900000Y-107450000D03*
X132100000Y-107450000D03*
X128900000Y-102550000D03*
X132100000Y-102550000D03*
G04 #@! TD*
G04 #@! TO.C,D3*
X160100000Y-109050000D03*
X156900000Y-109050000D03*
X160100000Y-113950000D03*
X156900000Y-113950000D03*
G04 #@! TD*
G04 #@! TO.C,D2*
X136900000Y-113950000D03*
X140100000Y-113950000D03*
X136900000Y-109050000D03*
X140100000Y-109050000D03*
G04 #@! TD*
G04 #@! TO.C,D1*
X150100000Y-102550000D03*
X146900000Y-102550000D03*
X150100000Y-107450000D03*
X146900000Y-107450000D03*
G04 #@! TD*
D24*
G04 #@! TO.C,J9*
X119500000Y-132500000D03*
D25*
X122040000Y-132500000D03*
X119500000Y-135040000D03*
X122040000Y-135040000D03*
X119500000Y-137580000D03*
X122040000Y-137580000D03*
G04 #@! TD*
G04 #@! TO.C,J11*
X109670000Y-113540000D03*
X109670000Y-111000000D03*
X112210000Y-113540000D03*
X112210000Y-111000000D03*
X114750000Y-113540000D03*
D24*
X114750000Y-111000000D03*
G04 #@! TD*
G04 #@! TO.C,J21*
X159000000Y-133000000D03*
D25*
X159000000Y-130460000D03*
X161540000Y-133000000D03*
X161540000Y-130460000D03*
X164080000Y-133000000D03*
X164080000Y-130460000D03*
X166620000Y-133000000D03*
X166620000Y-130460000D03*
G04 #@! TD*
D26*
G04 #@! TO.C,U6*
X186405000Y-99800000D03*
X185135000Y-99800000D03*
X183865000Y-99800000D03*
X182595000Y-99800000D03*
X182595000Y-105200000D03*
X183865000Y-105200000D03*
X185135000Y-105200000D03*
X186405000Y-105200000D03*
G04 #@! TD*
D27*
G04 #@! TO.C,C2*
G36*
X107670581Y-81826625D02*
X107703343Y-81831485D01*
X107735471Y-81839533D01*
X107766656Y-81850691D01*
X107796596Y-81864852D01*
X107825005Y-81881879D01*
X107851608Y-81901609D01*
X107876149Y-81923851D01*
X107898391Y-81948392D01*
X107918121Y-81974995D01*
X107935148Y-82003404D01*
X107949309Y-82033344D01*
X107960467Y-82064529D01*
X107968515Y-82096657D01*
X107973375Y-82129419D01*
X107975000Y-82162500D01*
X107975000Y-82837500D01*
X107973375Y-82870581D01*
X107968515Y-82903343D01*
X107960467Y-82935471D01*
X107949309Y-82966656D01*
X107935148Y-82996596D01*
X107918121Y-83025005D01*
X107898391Y-83051608D01*
X107876149Y-83076149D01*
X107851608Y-83098391D01*
X107825005Y-83118121D01*
X107796596Y-83135148D01*
X107766656Y-83149309D01*
X107735471Y-83160467D01*
X107703343Y-83168515D01*
X107670581Y-83173375D01*
X107637500Y-83175000D01*
X106862500Y-83175000D01*
X106829419Y-83173375D01*
X106796657Y-83168515D01*
X106764529Y-83160467D01*
X106733344Y-83149309D01*
X106703404Y-83135148D01*
X106674995Y-83118121D01*
X106648392Y-83098391D01*
X106623851Y-83076149D01*
X106601609Y-83051608D01*
X106581879Y-83025005D01*
X106564852Y-82996596D01*
X106550691Y-82966656D01*
X106539533Y-82935471D01*
X106531485Y-82903343D01*
X106526625Y-82870581D01*
X106525000Y-82837500D01*
X106525000Y-82162500D01*
X106526625Y-82129419D01*
X106531485Y-82096657D01*
X106539533Y-82064529D01*
X106550691Y-82033344D01*
X106564852Y-82003404D01*
X106581879Y-81974995D01*
X106601609Y-81948392D01*
X106623851Y-81923851D01*
X106648392Y-81901609D01*
X106674995Y-81881879D01*
X106703404Y-81864852D01*
X106733344Y-81850691D01*
X106764529Y-81839533D01*
X106796657Y-81831485D01*
X106829419Y-81826625D01*
X106862500Y-81825000D01*
X107637500Y-81825000D01*
X107670581Y-81826625D01*
X107670581Y-81826625D01*
G37*
D28*
X107250000Y-82500000D03*
D27*
G36*
X109420581Y-81826625D02*
X109453343Y-81831485D01*
X109485471Y-81839533D01*
X109516656Y-81850691D01*
X109546596Y-81864852D01*
X109575005Y-81881879D01*
X109601608Y-81901609D01*
X109626149Y-81923851D01*
X109648391Y-81948392D01*
X109668121Y-81974995D01*
X109685148Y-82003404D01*
X109699309Y-82033344D01*
X109710467Y-82064529D01*
X109718515Y-82096657D01*
X109723375Y-82129419D01*
X109725000Y-82162500D01*
X109725000Y-82837500D01*
X109723375Y-82870581D01*
X109718515Y-82903343D01*
X109710467Y-82935471D01*
X109699309Y-82966656D01*
X109685148Y-82996596D01*
X109668121Y-83025005D01*
X109648391Y-83051608D01*
X109626149Y-83076149D01*
X109601608Y-83098391D01*
X109575005Y-83118121D01*
X109546596Y-83135148D01*
X109516656Y-83149309D01*
X109485471Y-83160467D01*
X109453343Y-83168515D01*
X109420581Y-83173375D01*
X109387500Y-83175000D01*
X108612500Y-83175000D01*
X108579419Y-83173375D01*
X108546657Y-83168515D01*
X108514529Y-83160467D01*
X108483344Y-83149309D01*
X108453404Y-83135148D01*
X108424995Y-83118121D01*
X108398392Y-83098391D01*
X108373851Y-83076149D01*
X108351609Y-83051608D01*
X108331879Y-83025005D01*
X108314852Y-82996596D01*
X108300691Y-82966656D01*
X108289533Y-82935471D01*
X108281485Y-82903343D01*
X108276625Y-82870581D01*
X108275000Y-82837500D01*
X108275000Y-82162500D01*
X108276625Y-82129419D01*
X108281485Y-82096657D01*
X108289533Y-82064529D01*
X108300691Y-82033344D01*
X108314852Y-82003404D01*
X108331879Y-81974995D01*
X108351609Y-81948392D01*
X108373851Y-81923851D01*
X108398392Y-81901609D01*
X108424995Y-81881879D01*
X108453404Y-81864852D01*
X108483344Y-81850691D01*
X108514529Y-81839533D01*
X108546657Y-81831485D01*
X108579419Y-81826625D01*
X108612500Y-81825000D01*
X109387500Y-81825000D01*
X109420581Y-81826625D01*
X109420581Y-81826625D01*
G37*
D28*
X109000000Y-82500000D03*
G04 #@! TD*
D27*
G04 #@! TO.C,C4*
G36*
X111545581Y-81826625D02*
X111578343Y-81831485D01*
X111610471Y-81839533D01*
X111641656Y-81850691D01*
X111671596Y-81864852D01*
X111700005Y-81881879D01*
X111726608Y-81901609D01*
X111751149Y-81923851D01*
X111773391Y-81948392D01*
X111793121Y-81974995D01*
X111810148Y-82003404D01*
X111824309Y-82033344D01*
X111835467Y-82064529D01*
X111843515Y-82096657D01*
X111848375Y-82129419D01*
X111850000Y-82162500D01*
X111850000Y-82837500D01*
X111848375Y-82870581D01*
X111843515Y-82903343D01*
X111835467Y-82935471D01*
X111824309Y-82966656D01*
X111810148Y-82996596D01*
X111793121Y-83025005D01*
X111773391Y-83051608D01*
X111751149Y-83076149D01*
X111726608Y-83098391D01*
X111700005Y-83118121D01*
X111671596Y-83135148D01*
X111641656Y-83149309D01*
X111610471Y-83160467D01*
X111578343Y-83168515D01*
X111545581Y-83173375D01*
X111512500Y-83175000D01*
X110737500Y-83175000D01*
X110704419Y-83173375D01*
X110671657Y-83168515D01*
X110639529Y-83160467D01*
X110608344Y-83149309D01*
X110578404Y-83135148D01*
X110549995Y-83118121D01*
X110523392Y-83098391D01*
X110498851Y-83076149D01*
X110476609Y-83051608D01*
X110456879Y-83025005D01*
X110439852Y-82996596D01*
X110425691Y-82966656D01*
X110414533Y-82935471D01*
X110406485Y-82903343D01*
X110401625Y-82870581D01*
X110400000Y-82837500D01*
X110400000Y-82162500D01*
X110401625Y-82129419D01*
X110406485Y-82096657D01*
X110414533Y-82064529D01*
X110425691Y-82033344D01*
X110439852Y-82003404D01*
X110456879Y-81974995D01*
X110476609Y-81948392D01*
X110498851Y-81923851D01*
X110523392Y-81901609D01*
X110549995Y-81881879D01*
X110578404Y-81864852D01*
X110608344Y-81850691D01*
X110639529Y-81839533D01*
X110671657Y-81831485D01*
X110704419Y-81826625D01*
X110737500Y-81825000D01*
X111512500Y-81825000D01*
X111545581Y-81826625D01*
X111545581Y-81826625D01*
G37*
D28*
X111125000Y-82500000D03*
D27*
G36*
X113295581Y-81826625D02*
X113328343Y-81831485D01*
X113360471Y-81839533D01*
X113391656Y-81850691D01*
X113421596Y-81864852D01*
X113450005Y-81881879D01*
X113476608Y-81901609D01*
X113501149Y-81923851D01*
X113523391Y-81948392D01*
X113543121Y-81974995D01*
X113560148Y-82003404D01*
X113574309Y-82033344D01*
X113585467Y-82064529D01*
X113593515Y-82096657D01*
X113598375Y-82129419D01*
X113600000Y-82162500D01*
X113600000Y-82837500D01*
X113598375Y-82870581D01*
X113593515Y-82903343D01*
X113585467Y-82935471D01*
X113574309Y-82966656D01*
X113560148Y-82996596D01*
X113543121Y-83025005D01*
X113523391Y-83051608D01*
X113501149Y-83076149D01*
X113476608Y-83098391D01*
X113450005Y-83118121D01*
X113421596Y-83135148D01*
X113391656Y-83149309D01*
X113360471Y-83160467D01*
X113328343Y-83168515D01*
X113295581Y-83173375D01*
X113262500Y-83175000D01*
X112487500Y-83175000D01*
X112454419Y-83173375D01*
X112421657Y-83168515D01*
X112389529Y-83160467D01*
X112358344Y-83149309D01*
X112328404Y-83135148D01*
X112299995Y-83118121D01*
X112273392Y-83098391D01*
X112248851Y-83076149D01*
X112226609Y-83051608D01*
X112206879Y-83025005D01*
X112189852Y-82996596D01*
X112175691Y-82966656D01*
X112164533Y-82935471D01*
X112156485Y-82903343D01*
X112151625Y-82870581D01*
X112150000Y-82837500D01*
X112150000Y-82162500D01*
X112151625Y-82129419D01*
X112156485Y-82096657D01*
X112164533Y-82064529D01*
X112175691Y-82033344D01*
X112189852Y-82003404D01*
X112206879Y-81974995D01*
X112226609Y-81948392D01*
X112248851Y-81923851D01*
X112273392Y-81901609D01*
X112299995Y-81881879D01*
X112328404Y-81864852D01*
X112358344Y-81850691D01*
X112389529Y-81839533D01*
X112421657Y-81831485D01*
X112454419Y-81826625D01*
X112487500Y-81825000D01*
X113262500Y-81825000D01*
X113295581Y-81826625D01*
X113295581Y-81826625D01*
G37*
D28*
X112875000Y-82500000D03*
G04 #@! TD*
D27*
G04 #@! TO.C,C5*
G36*
X111145581Y-94326625D02*
X111178343Y-94331485D01*
X111210471Y-94339533D01*
X111241656Y-94350691D01*
X111271596Y-94364852D01*
X111300005Y-94381879D01*
X111326608Y-94401609D01*
X111351149Y-94423851D01*
X111373391Y-94448392D01*
X111393121Y-94474995D01*
X111410148Y-94503404D01*
X111424309Y-94533344D01*
X111435467Y-94564529D01*
X111443515Y-94596657D01*
X111448375Y-94629419D01*
X111450000Y-94662500D01*
X111450000Y-95337500D01*
X111448375Y-95370581D01*
X111443515Y-95403343D01*
X111435467Y-95435471D01*
X111424309Y-95466656D01*
X111410148Y-95496596D01*
X111393121Y-95525005D01*
X111373391Y-95551608D01*
X111351149Y-95576149D01*
X111326608Y-95598391D01*
X111300005Y-95618121D01*
X111271596Y-95635148D01*
X111241656Y-95649309D01*
X111210471Y-95660467D01*
X111178343Y-95668515D01*
X111145581Y-95673375D01*
X111112500Y-95675000D01*
X110337500Y-95675000D01*
X110304419Y-95673375D01*
X110271657Y-95668515D01*
X110239529Y-95660467D01*
X110208344Y-95649309D01*
X110178404Y-95635148D01*
X110149995Y-95618121D01*
X110123392Y-95598391D01*
X110098851Y-95576149D01*
X110076609Y-95551608D01*
X110056879Y-95525005D01*
X110039852Y-95496596D01*
X110025691Y-95466656D01*
X110014533Y-95435471D01*
X110006485Y-95403343D01*
X110001625Y-95370581D01*
X110000000Y-95337500D01*
X110000000Y-94662500D01*
X110001625Y-94629419D01*
X110006485Y-94596657D01*
X110014533Y-94564529D01*
X110025691Y-94533344D01*
X110039852Y-94503404D01*
X110056879Y-94474995D01*
X110076609Y-94448392D01*
X110098851Y-94423851D01*
X110123392Y-94401609D01*
X110149995Y-94381879D01*
X110178404Y-94364852D01*
X110208344Y-94350691D01*
X110239529Y-94339533D01*
X110271657Y-94331485D01*
X110304419Y-94326625D01*
X110337500Y-94325000D01*
X111112500Y-94325000D01*
X111145581Y-94326625D01*
X111145581Y-94326625D01*
G37*
D28*
X110725000Y-95000000D03*
D27*
G36*
X112895581Y-94326625D02*
X112928343Y-94331485D01*
X112960471Y-94339533D01*
X112991656Y-94350691D01*
X113021596Y-94364852D01*
X113050005Y-94381879D01*
X113076608Y-94401609D01*
X113101149Y-94423851D01*
X113123391Y-94448392D01*
X113143121Y-94474995D01*
X113160148Y-94503404D01*
X113174309Y-94533344D01*
X113185467Y-94564529D01*
X113193515Y-94596657D01*
X113198375Y-94629419D01*
X113200000Y-94662500D01*
X113200000Y-95337500D01*
X113198375Y-95370581D01*
X113193515Y-95403343D01*
X113185467Y-95435471D01*
X113174309Y-95466656D01*
X113160148Y-95496596D01*
X113143121Y-95525005D01*
X113123391Y-95551608D01*
X113101149Y-95576149D01*
X113076608Y-95598391D01*
X113050005Y-95618121D01*
X113021596Y-95635148D01*
X112991656Y-95649309D01*
X112960471Y-95660467D01*
X112928343Y-95668515D01*
X112895581Y-95673375D01*
X112862500Y-95675000D01*
X112087500Y-95675000D01*
X112054419Y-95673375D01*
X112021657Y-95668515D01*
X111989529Y-95660467D01*
X111958344Y-95649309D01*
X111928404Y-95635148D01*
X111899995Y-95618121D01*
X111873392Y-95598391D01*
X111848851Y-95576149D01*
X111826609Y-95551608D01*
X111806879Y-95525005D01*
X111789852Y-95496596D01*
X111775691Y-95466656D01*
X111764533Y-95435471D01*
X111756485Y-95403343D01*
X111751625Y-95370581D01*
X111750000Y-95337500D01*
X111750000Y-94662500D01*
X111751625Y-94629419D01*
X111756485Y-94596657D01*
X111764533Y-94564529D01*
X111775691Y-94533344D01*
X111789852Y-94503404D01*
X111806879Y-94474995D01*
X111826609Y-94448392D01*
X111848851Y-94423851D01*
X111873392Y-94401609D01*
X111899995Y-94381879D01*
X111928404Y-94364852D01*
X111958344Y-94350691D01*
X111989529Y-94339533D01*
X112021657Y-94331485D01*
X112054419Y-94326625D01*
X112087500Y-94325000D01*
X112862500Y-94325000D01*
X112895581Y-94326625D01*
X112895581Y-94326625D01*
G37*
D28*
X112475000Y-95000000D03*
G04 #@! TD*
D27*
G04 #@! TO.C,C6*
G36*
X144545581Y-88826625D02*
X144578343Y-88831485D01*
X144610471Y-88839533D01*
X144641656Y-88850691D01*
X144671596Y-88864852D01*
X144700005Y-88881879D01*
X144726608Y-88901609D01*
X144751149Y-88923851D01*
X144773391Y-88948392D01*
X144793121Y-88974995D01*
X144810148Y-89003404D01*
X144824309Y-89033344D01*
X144835467Y-89064529D01*
X144843515Y-89096657D01*
X144848375Y-89129419D01*
X144850000Y-89162500D01*
X144850000Y-89837500D01*
X144848375Y-89870581D01*
X144843515Y-89903343D01*
X144835467Y-89935471D01*
X144824309Y-89966656D01*
X144810148Y-89996596D01*
X144793121Y-90025005D01*
X144773391Y-90051608D01*
X144751149Y-90076149D01*
X144726608Y-90098391D01*
X144700005Y-90118121D01*
X144671596Y-90135148D01*
X144641656Y-90149309D01*
X144610471Y-90160467D01*
X144578343Y-90168515D01*
X144545581Y-90173375D01*
X144512500Y-90175000D01*
X143737500Y-90175000D01*
X143704419Y-90173375D01*
X143671657Y-90168515D01*
X143639529Y-90160467D01*
X143608344Y-90149309D01*
X143578404Y-90135148D01*
X143549995Y-90118121D01*
X143523392Y-90098391D01*
X143498851Y-90076149D01*
X143476609Y-90051608D01*
X143456879Y-90025005D01*
X143439852Y-89996596D01*
X143425691Y-89966656D01*
X143414533Y-89935471D01*
X143406485Y-89903343D01*
X143401625Y-89870581D01*
X143400000Y-89837500D01*
X143400000Y-89162500D01*
X143401625Y-89129419D01*
X143406485Y-89096657D01*
X143414533Y-89064529D01*
X143425691Y-89033344D01*
X143439852Y-89003404D01*
X143456879Y-88974995D01*
X143476609Y-88948392D01*
X143498851Y-88923851D01*
X143523392Y-88901609D01*
X143549995Y-88881879D01*
X143578404Y-88864852D01*
X143608344Y-88850691D01*
X143639529Y-88839533D01*
X143671657Y-88831485D01*
X143704419Y-88826625D01*
X143737500Y-88825000D01*
X144512500Y-88825000D01*
X144545581Y-88826625D01*
X144545581Y-88826625D01*
G37*
D28*
X144125000Y-89500000D03*
D27*
G36*
X142795581Y-88826625D02*
X142828343Y-88831485D01*
X142860471Y-88839533D01*
X142891656Y-88850691D01*
X142921596Y-88864852D01*
X142950005Y-88881879D01*
X142976608Y-88901609D01*
X143001149Y-88923851D01*
X143023391Y-88948392D01*
X143043121Y-88974995D01*
X143060148Y-89003404D01*
X143074309Y-89033344D01*
X143085467Y-89064529D01*
X143093515Y-89096657D01*
X143098375Y-89129419D01*
X143100000Y-89162500D01*
X143100000Y-89837500D01*
X143098375Y-89870581D01*
X143093515Y-89903343D01*
X143085467Y-89935471D01*
X143074309Y-89966656D01*
X143060148Y-89996596D01*
X143043121Y-90025005D01*
X143023391Y-90051608D01*
X143001149Y-90076149D01*
X142976608Y-90098391D01*
X142950005Y-90118121D01*
X142921596Y-90135148D01*
X142891656Y-90149309D01*
X142860471Y-90160467D01*
X142828343Y-90168515D01*
X142795581Y-90173375D01*
X142762500Y-90175000D01*
X141987500Y-90175000D01*
X141954419Y-90173375D01*
X141921657Y-90168515D01*
X141889529Y-90160467D01*
X141858344Y-90149309D01*
X141828404Y-90135148D01*
X141799995Y-90118121D01*
X141773392Y-90098391D01*
X141748851Y-90076149D01*
X141726609Y-90051608D01*
X141706879Y-90025005D01*
X141689852Y-89996596D01*
X141675691Y-89966656D01*
X141664533Y-89935471D01*
X141656485Y-89903343D01*
X141651625Y-89870581D01*
X141650000Y-89837500D01*
X141650000Y-89162500D01*
X141651625Y-89129419D01*
X141656485Y-89096657D01*
X141664533Y-89064529D01*
X141675691Y-89033344D01*
X141689852Y-89003404D01*
X141706879Y-88974995D01*
X141726609Y-88948392D01*
X141748851Y-88923851D01*
X141773392Y-88901609D01*
X141799995Y-88881879D01*
X141828404Y-88864852D01*
X141858344Y-88850691D01*
X141889529Y-88839533D01*
X141921657Y-88831485D01*
X141954419Y-88826625D01*
X141987500Y-88825000D01*
X142762500Y-88825000D01*
X142795581Y-88826625D01*
X142795581Y-88826625D01*
G37*
D28*
X142375000Y-89500000D03*
G04 #@! TD*
D27*
G04 #@! TO.C,C7*
G36*
X135670581Y-115576625D02*
X135703343Y-115581485D01*
X135735471Y-115589533D01*
X135766656Y-115600691D01*
X135796596Y-115614852D01*
X135825005Y-115631879D01*
X135851608Y-115651609D01*
X135876149Y-115673851D01*
X135898391Y-115698392D01*
X135918121Y-115724995D01*
X135935148Y-115753404D01*
X135949309Y-115783344D01*
X135960467Y-115814529D01*
X135968515Y-115846657D01*
X135973375Y-115879419D01*
X135975000Y-115912500D01*
X135975000Y-116587500D01*
X135973375Y-116620581D01*
X135968515Y-116653343D01*
X135960467Y-116685471D01*
X135949309Y-116716656D01*
X135935148Y-116746596D01*
X135918121Y-116775005D01*
X135898391Y-116801608D01*
X135876149Y-116826149D01*
X135851608Y-116848391D01*
X135825005Y-116868121D01*
X135796596Y-116885148D01*
X135766656Y-116899309D01*
X135735471Y-116910467D01*
X135703343Y-116918515D01*
X135670581Y-116923375D01*
X135637500Y-116925000D01*
X134862500Y-116925000D01*
X134829419Y-116923375D01*
X134796657Y-116918515D01*
X134764529Y-116910467D01*
X134733344Y-116899309D01*
X134703404Y-116885148D01*
X134674995Y-116868121D01*
X134648392Y-116848391D01*
X134623851Y-116826149D01*
X134601609Y-116801608D01*
X134581879Y-116775005D01*
X134564852Y-116746596D01*
X134550691Y-116716656D01*
X134539533Y-116685471D01*
X134531485Y-116653343D01*
X134526625Y-116620581D01*
X134525000Y-116587500D01*
X134525000Y-115912500D01*
X134526625Y-115879419D01*
X134531485Y-115846657D01*
X134539533Y-115814529D01*
X134550691Y-115783344D01*
X134564852Y-115753404D01*
X134581879Y-115724995D01*
X134601609Y-115698392D01*
X134623851Y-115673851D01*
X134648392Y-115651609D01*
X134674995Y-115631879D01*
X134703404Y-115614852D01*
X134733344Y-115600691D01*
X134764529Y-115589533D01*
X134796657Y-115581485D01*
X134829419Y-115576625D01*
X134862500Y-115575000D01*
X135637500Y-115575000D01*
X135670581Y-115576625D01*
X135670581Y-115576625D01*
G37*
D28*
X135250000Y-116250000D03*
D27*
G36*
X137420581Y-115576625D02*
X137453343Y-115581485D01*
X137485471Y-115589533D01*
X137516656Y-115600691D01*
X137546596Y-115614852D01*
X137575005Y-115631879D01*
X137601608Y-115651609D01*
X137626149Y-115673851D01*
X137648391Y-115698392D01*
X137668121Y-115724995D01*
X137685148Y-115753404D01*
X137699309Y-115783344D01*
X137710467Y-115814529D01*
X137718515Y-115846657D01*
X137723375Y-115879419D01*
X137725000Y-115912500D01*
X137725000Y-116587500D01*
X137723375Y-116620581D01*
X137718515Y-116653343D01*
X137710467Y-116685471D01*
X137699309Y-116716656D01*
X137685148Y-116746596D01*
X137668121Y-116775005D01*
X137648391Y-116801608D01*
X137626149Y-116826149D01*
X137601608Y-116848391D01*
X137575005Y-116868121D01*
X137546596Y-116885148D01*
X137516656Y-116899309D01*
X137485471Y-116910467D01*
X137453343Y-116918515D01*
X137420581Y-116923375D01*
X137387500Y-116925000D01*
X136612500Y-116925000D01*
X136579419Y-116923375D01*
X136546657Y-116918515D01*
X136514529Y-116910467D01*
X136483344Y-116899309D01*
X136453404Y-116885148D01*
X136424995Y-116868121D01*
X136398392Y-116848391D01*
X136373851Y-116826149D01*
X136351609Y-116801608D01*
X136331879Y-116775005D01*
X136314852Y-116746596D01*
X136300691Y-116716656D01*
X136289533Y-116685471D01*
X136281485Y-116653343D01*
X136276625Y-116620581D01*
X136275000Y-116587500D01*
X136275000Y-115912500D01*
X136276625Y-115879419D01*
X136281485Y-115846657D01*
X136289533Y-115814529D01*
X136300691Y-115783344D01*
X136314852Y-115753404D01*
X136331879Y-115724995D01*
X136351609Y-115698392D01*
X136373851Y-115673851D01*
X136398392Y-115651609D01*
X136424995Y-115631879D01*
X136453404Y-115614852D01*
X136483344Y-115600691D01*
X136514529Y-115589533D01*
X136546657Y-115581485D01*
X136579419Y-115576625D01*
X136612500Y-115575000D01*
X137387500Y-115575000D01*
X137420581Y-115576625D01*
X137420581Y-115576625D01*
G37*
D28*
X137000000Y-116250000D03*
G04 #@! TD*
D27*
G04 #@! TO.C,C8*
G36*
X163420581Y-108826625D02*
X163453343Y-108831485D01*
X163485471Y-108839533D01*
X163516656Y-108850691D01*
X163546596Y-108864852D01*
X163575005Y-108881879D01*
X163601608Y-108901609D01*
X163626149Y-108923851D01*
X163648391Y-108948392D01*
X163668121Y-108974995D01*
X163685148Y-109003404D01*
X163699309Y-109033344D01*
X163710467Y-109064529D01*
X163718515Y-109096657D01*
X163723375Y-109129419D01*
X163725000Y-109162500D01*
X163725000Y-109837500D01*
X163723375Y-109870581D01*
X163718515Y-109903343D01*
X163710467Y-109935471D01*
X163699309Y-109966656D01*
X163685148Y-109996596D01*
X163668121Y-110025005D01*
X163648391Y-110051608D01*
X163626149Y-110076149D01*
X163601608Y-110098391D01*
X163575005Y-110118121D01*
X163546596Y-110135148D01*
X163516656Y-110149309D01*
X163485471Y-110160467D01*
X163453343Y-110168515D01*
X163420581Y-110173375D01*
X163387500Y-110175000D01*
X162612500Y-110175000D01*
X162579419Y-110173375D01*
X162546657Y-110168515D01*
X162514529Y-110160467D01*
X162483344Y-110149309D01*
X162453404Y-110135148D01*
X162424995Y-110118121D01*
X162398392Y-110098391D01*
X162373851Y-110076149D01*
X162351609Y-110051608D01*
X162331879Y-110025005D01*
X162314852Y-109996596D01*
X162300691Y-109966656D01*
X162289533Y-109935471D01*
X162281485Y-109903343D01*
X162276625Y-109870581D01*
X162275000Y-109837500D01*
X162275000Y-109162500D01*
X162276625Y-109129419D01*
X162281485Y-109096657D01*
X162289533Y-109064529D01*
X162300691Y-109033344D01*
X162314852Y-109003404D01*
X162331879Y-108974995D01*
X162351609Y-108948392D01*
X162373851Y-108923851D01*
X162398392Y-108901609D01*
X162424995Y-108881879D01*
X162453404Y-108864852D01*
X162483344Y-108850691D01*
X162514529Y-108839533D01*
X162546657Y-108831485D01*
X162579419Y-108826625D01*
X162612500Y-108825000D01*
X163387500Y-108825000D01*
X163420581Y-108826625D01*
X163420581Y-108826625D01*
G37*
D28*
X163000000Y-109500000D03*
D27*
G36*
X165170581Y-108826625D02*
X165203343Y-108831485D01*
X165235471Y-108839533D01*
X165266656Y-108850691D01*
X165296596Y-108864852D01*
X165325005Y-108881879D01*
X165351608Y-108901609D01*
X165376149Y-108923851D01*
X165398391Y-108948392D01*
X165418121Y-108974995D01*
X165435148Y-109003404D01*
X165449309Y-109033344D01*
X165460467Y-109064529D01*
X165468515Y-109096657D01*
X165473375Y-109129419D01*
X165475000Y-109162500D01*
X165475000Y-109837500D01*
X165473375Y-109870581D01*
X165468515Y-109903343D01*
X165460467Y-109935471D01*
X165449309Y-109966656D01*
X165435148Y-109996596D01*
X165418121Y-110025005D01*
X165398391Y-110051608D01*
X165376149Y-110076149D01*
X165351608Y-110098391D01*
X165325005Y-110118121D01*
X165296596Y-110135148D01*
X165266656Y-110149309D01*
X165235471Y-110160467D01*
X165203343Y-110168515D01*
X165170581Y-110173375D01*
X165137500Y-110175000D01*
X164362500Y-110175000D01*
X164329419Y-110173375D01*
X164296657Y-110168515D01*
X164264529Y-110160467D01*
X164233344Y-110149309D01*
X164203404Y-110135148D01*
X164174995Y-110118121D01*
X164148392Y-110098391D01*
X164123851Y-110076149D01*
X164101609Y-110051608D01*
X164081879Y-110025005D01*
X164064852Y-109996596D01*
X164050691Y-109966656D01*
X164039533Y-109935471D01*
X164031485Y-109903343D01*
X164026625Y-109870581D01*
X164025000Y-109837500D01*
X164025000Y-109162500D01*
X164026625Y-109129419D01*
X164031485Y-109096657D01*
X164039533Y-109064529D01*
X164050691Y-109033344D01*
X164064852Y-109003404D01*
X164081879Y-108974995D01*
X164101609Y-108948392D01*
X164123851Y-108923851D01*
X164148392Y-108901609D01*
X164174995Y-108881879D01*
X164203404Y-108864852D01*
X164233344Y-108850691D01*
X164264529Y-108839533D01*
X164296657Y-108831485D01*
X164329419Y-108826625D01*
X164362500Y-108825000D01*
X165137500Y-108825000D01*
X165170581Y-108826625D01*
X165170581Y-108826625D01*
G37*
D28*
X164750000Y-109500000D03*
G04 #@! TD*
D27*
G04 #@! TO.C,C9*
G36*
X157170581Y-115576625D02*
X157203343Y-115581485D01*
X157235471Y-115589533D01*
X157266656Y-115600691D01*
X157296596Y-115614852D01*
X157325005Y-115631879D01*
X157351608Y-115651609D01*
X157376149Y-115673851D01*
X157398391Y-115698392D01*
X157418121Y-115724995D01*
X157435148Y-115753404D01*
X157449309Y-115783344D01*
X157460467Y-115814529D01*
X157468515Y-115846657D01*
X157473375Y-115879419D01*
X157475000Y-115912500D01*
X157475000Y-116587500D01*
X157473375Y-116620581D01*
X157468515Y-116653343D01*
X157460467Y-116685471D01*
X157449309Y-116716656D01*
X157435148Y-116746596D01*
X157418121Y-116775005D01*
X157398391Y-116801608D01*
X157376149Y-116826149D01*
X157351608Y-116848391D01*
X157325005Y-116868121D01*
X157296596Y-116885148D01*
X157266656Y-116899309D01*
X157235471Y-116910467D01*
X157203343Y-116918515D01*
X157170581Y-116923375D01*
X157137500Y-116925000D01*
X156362500Y-116925000D01*
X156329419Y-116923375D01*
X156296657Y-116918515D01*
X156264529Y-116910467D01*
X156233344Y-116899309D01*
X156203404Y-116885148D01*
X156174995Y-116868121D01*
X156148392Y-116848391D01*
X156123851Y-116826149D01*
X156101609Y-116801608D01*
X156081879Y-116775005D01*
X156064852Y-116746596D01*
X156050691Y-116716656D01*
X156039533Y-116685471D01*
X156031485Y-116653343D01*
X156026625Y-116620581D01*
X156025000Y-116587500D01*
X156025000Y-115912500D01*
X156026625Y-115879419D01*
X156031485Y-115846657D01*
X156039533Y-115814529D01*
X156050691Y-115783344D01*
X156064852Y-115753404D01*
X156081879Y-115724995D01*
X156101609Y-115698392D01*
X156123851Y-115673851D01*
X156148392Y-115651609D01*
X156174995Y-115631879D01*
X156203404Y-115614852D01*
X156233344Y-115600691D01*
X156264529Y-115589533D01*
X156296657Y-115581485D01*
X156329419Y-115576625D01*
X156362500Y-115575000D01*
X157137500Y-115575000D01*
X157170581Y-115576625D01*
X157170581Y-115576625D01*
G37*
D28*
X156750000Y-116250000D03*
D27*
G36*
X155420581Y-115576625D02*
X155453343Y-115581485D01*
X155485471Y-115589533D01*
X155516656Y-115600691D01*
X155546596Y-115614852D01*
X155575005Y-115631879D01*
X155601608Y-115651609D01*
X155626149Y-115673851D01*
X155648391Y-115698392D01*
X155668121Y-115724995D01*
X155685148Y-115753404D01*
X155699309Y-115783344D01*
X155710467Y-115814529D01*
X155718515Y-115846657D01*
X155723375Y-115879419D01*
X155725000Y-115912500D01*
X155725000Y-116587500D01*
X155723375Y-116620581D01*
X155718515Y-116653343D01*
X155710467Y-116685471D01*
X155699309Y-116716656D01*
X155685148Y-116746596D01*
X155668121Y-116775005D01*
X155648391Y-116801608D01*
X155626149Y-116826149D01*
X155601608Y-116848391D01*
X155575005Y-116868121D01*
X155546596Y-116885148D01*
X155516656Y-116899309D01*
X155485471Y-116910467D01*
X155453343Y-116918515D01*
X155420581Y-116923375D01*
X155387500Y-116925000D01*
X154612500Y-116925000D01*
X154579419Y-116923375D01*
X154546657Y-116918515D01*
X154514529Y-116910467D01*
X154483344Y-116899309D01*
X154453404Y-116885148D01*
X154424995Y-116868121D01*
X154398392Y-116848391D01*
X154373851Y-116826149D01*
X154351609Y-116801608D01*
X154331879Y-116775005D01*
X154314852Y-116746596D01*
X154300691Y-116716656D01*
X154289533Y-116685471D01*
X154281485Y-116653343D01*
X154276625Y-116620581D01*
X154275000Y-116587500D01*
X154275000Y-115912500D01*
X154276625Y-115879419D01*
X154281485Y-115846657D01*
X154289533Y-115814529D01*
X154300691Y-115783344D01*
X154314852Y-115753404D01*
X154331879Y-115724995D01*
X154351609Y-115698392D01*
X154373851Y-115673851D01*
X154398392Y-115651609D01*
X154424995Y-115631879D01*
X154453404Y-115614852D01*
X154483344Y-115600691D01*
X154514529Y-115589533D01*
X154546657Y-115581485D01*
X154579419Y-115576625D01*
X154612500Y-115575000D01*
X155387500Y-115575000D01*
X155420581Y-115576625D01*
X155420581Y-115576625D01*
G37*
D28*
X155000000Y-116250000D03*
G04 #@! TD*
D27*
G04 #@! TO.C,C10*
G36*
X145045581Y-124826625D02*
X145078343Y-124831485D01*
X145110471Y-124839533D01*
X145141656Y-124850691D01*
X145171596Y-124864852D01*
X145200005Y-124881879D01*
X145226608Y-124901609D01*
X145251149Y-124923851D01*
X145273391Y-124948392D01*
X145293121Y-124974995D01*
X145310148Y-125003404D01*
X145324309Y-125033344D01*
X145335467Y-125064529D01*
X145343515Y-125096657D01*
X145348375Y-125129419D01*
X145350000Y-125162500D01*
X145350000Y-125837500D01*
X145348375Y-125870581D01*
X145343515Y-125903343D01*
X145335467Y-125935471D01*
X145324309Y-125966656D01*
X145310148Y-125996596D01*
X145293121Y-126025005D01*
X145273391Y-126051608D01*
X145251149Y-126076149D01*
X145226608Y-126098391D01*
X145200005Y-126118121D01*
X145171596Y-126135148D01*
X145141656Y-126149309D01*
X145110471Y-126160467D01*
X145078343Y-126168515D01*
X145045581Y-126173375D01*
X145012500Y-126175000D01*
X144237500Y-126175000D01*
X144204419Y-126173375D01*
X144171657Y-126168515D01*
X144139529Y-126160467D01*
X144108344Y-126149309D01*
X144078404Y-126135148D01*
X144049995Y-126118121D01*
X144023392Y-126098391D01*
X143998851Y-126076149D01*
X143976609Y-126051608D01*
X143956879Y-126025005D01*
X143939852Y-125996596D01*
X143925691Y-125966656D01*
X143914533Y-125935471D01*
X143906485Y-125903343D01*
X143901625Y-125870581D01*
X143900000Y-125837500D01*
X143900000Y-125162500D01*
X143901625Y-125129419D01*
X143906485Y-125096657D01*
X143914533Y-125064529D01*
X143925691Y-125033344D01*
X143939852Y-125003404D01*
X143956879Y-124974995D01*
X143976609Y-124948392D01*
X143998851Y-124923851D01*
X144023392Y-124901609D01*
X144049995Y-124881879D01*
X144078404Y-124864852D01*
X144108344Y-124850691D01*
X144139529Y-124839533D01*
X144171657Y-124831485D01*
X144204419Y-124826625D01*
X144237500Y-124825000D01*
X145012500Y-124825000D01*
X145045581Y-124826625D01*
X145045581Y-124826625D01*
G37*
D28*
X144625000Y-125500000D03*
D27*
G36*
X143295581Y-124826625D02*
X143328343Y-124831485D01*
X143360471Y-124839533D01*
X143391656Y-124850691D01*
X143421596Y-124864852D01*
X143450005Y-124881879D01*
X143476608Y-124901609D01*
X143501149Y-124923851D01*
X143523391Y-124948392D01*
X143543121Y-124974995D01*
X143560148Y-125003404D01*
X143574309Y-125033344D01*
X143585467Y-125064529D01*
X143593515Y-125096657D01*
X143598375Y-125129419D01*
X143600000Y-125162500D01*
X143600000Y-125837500D01*
X143598375Y-125870581D01*
X143593515Y-125903343D01*
X143585467Y-125935471D01*
X143574309Y-125966656D01*
X143560148Y-125996596D01*
X143543121Y-126025005D01*
X143523391Y-126051608D01*
X143501149Y-126076149D01*
X143476608Y-126098391D01*
X143450005Y-126118121D01*
X143421596Y-126135148D01*
X143391656Y-126149309D01*
X143360471Y-126160467D01*
X143328343Y-126168515D01*
X143295581Y-126173375D01*
X143262500Y-126175000D01*
X142487500Y-126175000D01*
X142454419Y-126173375D01*
X142421657Y-126168515D01*
X142389529Y-126160467D01*
X142358344Y-126149309D01*
X142328404Y-126135148D01*
X142299995Y-126118121D01*
X142273392Y-126098391D01*
X142248851Y-126076149D01*
X142226609Y-126051608D01*
X142206879Y-126025005D01*
X142189852Y-125996596D01*
X142175691Y-125966656D01*
X142164533Y-125935471D01*
X142156485Y-125903343D01*
X142151625Y-125870581D01*
X142150000Y-125837500D01*
X142150000Y-125162500D01*
X142151625Y-125129419D01*
X142156485Y-125096657D01*
X142164533Y-125064529D01*
X142175691Y-125033344D01*
X142189852Y-125003404D01*
X142206879Y-124974995D01*
X142226609Y-124948392D01*
X142248851Y-124923851D01*
X142273392Y-124901609D01*
X142299995Y-124881879D01*
X142328404Y-124864852D01*
X142358344Y-124850691D01*
X142389529Y-124839533D01*
X142421657Y-124831485D01*
X142454419Y-124826625D01*
X142487500Y-124825000D01*
X143262500Y-124825000D01*
X143295581Y-124826625D01*
X143295581Y-124826625D01*
G37*
D28*
X142875000Y-125500000D03*
G04 #@! TD*
D27*
G04 #@! TO.C,C11*
G36*
X155420581Y-102326625D02*
X155453343Y-102331485D01*
X155485471Y-102339533D01*
X155516656Y-102350691D01*
X155546596Y-102364852D01*
X155575005Y-102381879D01*
X155601608Y-102401609D01*
X155626149Y-102423851D01*
X155648391Y-102448392D01*
X155668121Y-102474995D01*
X155685148Y-102503404D01*
X155699309Y-102533344D01*
X155710467Y-102564529D01*
X155718515Y-102596657D01*
X155723375Y-102629419D01*
X155725000Y-102662500D01*
X155725000Y-103337500D01*
X155723375Y-103370581D01*
X155718515Y-103403343D01*
X155710467Y-103435471D01*
X155699309Y-103466656D01*
X155685148Y-103496596D01*
X155668121Y-103525005D01*
X155648391Y-103551608D01*
X155626149Y-103576149D01*
X155601608Y-103598391D01*
X155575005Y-103618121D01*
X155546596Y-103635148D01*
X155516656Y-103649309D01*
X155485471Y-103660467D01*
X155453343Y-103668515D01*
X155420581Y-103673375D01*
X155387500Y-103675000D01*
X154612500Y-103675000D01*
X154579419Y-103673375D01*
X154546657Y-103668515D01*
X154514529Y-103660467D01*
X154483344Y-103649309D01*
X154453404Y-103635148D01*
X154424995Y-103618121D01*
X154398392Y-103598391D01*
X154373851Y-103576149D01*
X154351609Y-103551608D01*
X154331879Y-103525005D01*
X154314852Y-103496596D01*
X154300691Y-103466656D01*
X154289533Y-103435471D01*
X154281485Y-103403343D01*
X154276625Y-103370581D01*
X154275000Y-103337500D01*
X154275000Y-102662500D01*
X154276625Y-102629419D01*
X154281485Y-102596657D01*
X154289533Y-102564529D01*
X154300691Y-102533344D01*
X154314852Y-102503404D01*
X154331879Y-102474995D01*
X154351609Y-102448392D01*
X154373851Y-102423851D01*
X154398392Y-102401609D01*
X154424995Y-102381879D01*
X154453404Y-102364852D01*
X154483344Y-102350691D01*
X154514529Y-102339533D01*
X154546657Y-102331485D01*
X154579419Y-102326625D01*
X154612500Y-102325000D01*
X155387500Y-102325000D01*
X155420581Y-102326625D01*
X155420581Y-102326625D01*
G37*
D28*
X155000000Y-103000000D03*
D27*
G36*
X157170581Y-102326625D02*
X157203343Y-102331485D01*
X157235471Y-102339533D01*
X157266656Y-102350691D01*
X157296596Y-102364852D01*
X157325005Y-102381879D01*
X157351608Y-102401609D01*
X157376149Y-102423851D01*
X157398391Y-102448392D01*
X157418121Y-102474995D01*
X157435148Y-102503404D01*
X157449309Y-102533344D01*
X157460467Y-102564529D01*
X157468515Y-102596657D01*
X157473375Y-102629419D01*
X157475000Y-102662500D01*
X157475000Y-103337500D01*
X157473375Y-103370581D01*
X157468515Y-103403343D01*
X157460467Y-103435471D01*
X157449309Y-103466656D01*
X157435148Y-103496596D01*
X157418121Y-103525005D01*
X157398391Y-103551608D01*
X157376149Y-103576149D01*
X157351608Y-103598391D01*
X157325005Y-103618121D01*
X157296596Y-103635148D01*
X157266656Y-103649309D01*
X157235471Y-103660467D01*
X157203343Y-103668515D01*
X157170581Y-103673375D01*
X157137500Y-103675000D01*
X156362500Y-103675000D01*
X156329419Y-103673375D01*
X156296657Y-103668515D01*
X156264529Y-103660467D01*
X156233344Y-103649309D01*
X156203404Y-103635148D01*
X156174995Y-103618121D01*
X156148392Y-103598391D01*
X156123851Y-103576149D01*
X156101609Y-103551608D01*
X156081879Y-103525005D01*
X156064852Y-103496596D01*
X156050691Y-103466656D01*
X156039533Y-103435471D01*
X156031485Y-103403343D01*
X156026625Y-103370581D01*
X156025000Y-103337500D01*
X156025000Y-102662500D01*
X156026625Y-102629419D01*
X156031485Y-102596657D01*
X156039533Y-102564529D01*
X156050691Y-102533344D01*
X156064852Y-102503404D01*
X156081879Y-102474995D01*
X156101609Y-102448392D01*
X156123851Y-102423851D01*
X156148392Y-102401609D01*
X156174995Y-102381879D01*
X156203404Y-102364852D01*
X156233344Y-102350691D01*
X156264529Y-102339533D01*
X156296657Y-102331485D01*
X156329419Y-102326625D01*
X156362500Y-102325000D01*
X157137500Y-102325000D01*
X157170581Y-102326625D01*
X157170581Y-102326625D01*
G37*
D28*
X156750000Y-103000000D03*
G04 #@! TD*
D27*
G04 #@! TO.C,C12*
G36*
X129120581Y-108776625D02*
X129153343Y-108781485D01*
X129185471Y-108789533D01*
X129216656Y-108800691D01*
X129246596Y-108814852D01*
X129275005Y-108831879D01*
X129301608Y-108851609D01*
X129326149Y-108873851D01*
X129348391Y-108898392D01*
X129368121Y-108924995D01*
X129385148Y-108953404D01*
X129399309Y-108983344D01*
X129410467Y-109014529D01*
X129418515Y-109046657D01*
X129423375Y-109079419D01*
X129425000Y-109112500D01*
X129425000Y-109887500D01*
X129423375Y-109920581D01*
X129418515Y-109953343D01*
X129410467Y-109985471D01*
X129399309Y-110016656D01*
X129385148Y-110046596D01*
X129368121Y-110075005D01*
X129348391Y-110101608D01*
X129326149Y-110126149D01*
X129301608Y-110148391D01*
X129275005Y-110168121D01*
X129246596Y-110185148D01*
X129216656Y-110199309D01*
X129185471Y-110210467D01*
X129153343Y-110218515D01*
X129120581Y-110223375D01*
X129087500Y-110225000D01*
X128412500Y-110225000D01*
X128379419Y-110223375D01*
X128346657Y-110218515D01*
X128314529Y-110210467D01*
X128283344Y-110199309D01*
X128253404Y-110185148D01*
X128224995Y-110168121D01*
X128198392Y-110148391D01*
X128173851Y-110126149D01*
X128151609Y-110101608D01*
X128131879Y-110075005D01*
X128114852Y-110046596D01*
X128100691Y-110016656D01*
X128089533Y-109985471D01*
X128081485Y-109953343D01*
X128076625Y-109920581D01*
X128075000Y-109887500D01*
X128075000Y-109112500D01*
X128076625Y-109079419D01*
X128081485Y-109046657D01*
X128089533Y-109014529D01*
X128100691Y-108983344D01*
X128114852Y-108953404D01*
X128131879Y-108924995D01*
X128151609Y-108898392D01*
X128173851Y-108873851D01*
X128198392Y-108851609D01*
X128224995Y-108831879D01*
X128253404Y-108814852D01*
X128283344Y-108800691D01*
X128314529Y-108789533D01*
X128346657Y-108781485D01*
X128379419Y-108776625D01*
X128412500Y-108775000D01*
X129087500Y-108775000D01*
X129120581Y-108776625D01*
X129120581Y-108776625D01*
G37*
D28*
X128750000Y-109500000D03*
D27*
G36*
X129120581Y-110526625D02*
X129153343Y-110531485D01*
X129185471Y-110539533D01*
X129216656Y-110550691D01*
X129246596Y-110564852D01*
X129275005Y-110581879D01*
X129301608Y-110601609D01*
X129326149Y-110623851D01*
X129348391Y-110648392D01*
X129368121Y-110674995D01*
X129385148Y-110703404D01*
X129399309Y-110733344D01*
X129410467Y-110764529D01*
X129418515Y-110796657D01*
X129423375Y-110829419D01*
X129425000Y-110862500D01*
X129425000Y-111637500D01*
X129423375Y-111670581D01*
X129418515Y-111703343D01*
X129410467Y-111735471D01*
X129399309Y-111766656D01*
X129385148Y-111796596D01*
X129368121Y-111825005D01*
X129348391Y-111851608D01*
X129326149Y-111876149D01*
X129301608Y-111898391D01*
X129275005Y-111918121D01*
X129246596Y-111935148D01*
X129216656Y-111949309D01*
X129185471Y-111960467D01*
X129153343Y-111968515D01*
X129120581Y-111973375D01*
X129087500Y-111975000D01*
X128412500Y-111975000D01*
X128379419Y-111973375D01*
X128346657Y-111968515D01*
X128314529Y-111960467D01*
X128283344Y-111949309D01*
X128253404Y-111935148D01*
X128224995Y-111918121D01*
X128198392Y-111898391D01*
X128173851Y-111876149D01*
X128151609Y-111851608D01*
X128131879Y-111825005D01*
X128114852Y-111796596D01*
X128100691Y-111766656D01*
X128089533Y-111735471D01*
X128081485Y-111703343D01*
X128076625Y-111670581D01*
X128075000Y-111637500D01*
X128075000Y-110862500D01*
X128076625Y-110829419D01*
X128081485Y-110796657D01*
X128089533Y-110764529D01*
X128100691Y-110733344D01*
X128114852Y-110703404D01*
X128131879Y-110674995D01*
X128151609Y-110648392D01*
X128173851Y-110623851D01*
X128198392Y-110601609D01*
X128224995Y-110581879D01*
X128253404Y-110564852D01*
X128283344Y-110550691D01*
X128314529Y-110539533D01*
X128346657Y-110531485D01*
X128379419Y-110526625D01*
X128412500Y-110525000D01*
X129087500Y-110525000D01*
X129120581Y-110526625D01*
X129120581Y-110526625D01*
G37*
D28*
X128750000Y-111250000D03*
G04 #@! TD*
D27*
G04 #@! TO.C,C13*
G36*
X135420581Y-102326625D02*
X135453343Y-102331485D01*
X135485471Y-102339533D01*
X135516656Y-102350691D01*
X135546596Y-102364852D01*
X135575005Y-102381879D01*
X135601608Y-102401609D01*
X135626149Y-102423851D01*
X135648391Y-102448392D01*
X135668121Y-102474995D01*
X135685148Y-102503404D01*
X135699309Y-102533344D01*
X135710467Y-102564529D01*
X135718515Y-102596657D01*
X135723375Y-102629419D01*
X135725000Y-102662500D01*
X135725000Y-103337500D01*
X135723375Y-103370581D01*
X135718515Y-103403343D01*
X135710467Y-103435471D01*
X135699309Y-103466656D01*
X135685148Y-103496596D01*
X135668121Y-103525005D01*
X135648391Y-103551608D01*
X135626149Y-103576149D01*
X135601608Y-103598391D01*
X135575005Y-103618121D01*
X135546596Y-103635148D01*
X135516656Y-103649309D01*
X135485471Y-103660467D01*
X135453343Y-103668515D01*
X135420581Y-103673375D01*
X135387500Y-103675000D01*
X134612500Y-103675000D01*
X134579419Y-103673375D01*
X134546657Y-103668515D01*
X134514529Y-103660467D01*
X134483344Y-103649309D01*
X134453404Y-103635148D01*
X134424995Y-103618121D01*
X134398392Y-103598391D01*
X134373851Y-103576149D01*
X134351609Y-103551608D01*
X134331879Y-103525005D01*
X134314852Y-103496596D01*
X134300691Y-103466656D01*
X134289533Y-103435471D01*
X134281485Y-103403343D01*
X134276625Y-103370581D01*
X134275000Y-103337500D01*
X134275000Y-102662500D01*
X134276625Y-102629419D01*
X134281485Y-102596657D01*
X134289533Y-102564529D01*
X134300691Y-102533344D01*
X134314852Y-102503404D01*
X134331879Y-102474995D01*
X134351609Y-102448392D01*
X134373851Y-102423851D01*
X134398392Y-102401609D01*
X134424995Y-102381879D01*
X134453404Y-102364852D01*
X134483344Y-102350691D01*
X134514529Y-102339533D01*
X134546657Y-102331485D01*
X134579419Y-102326625D01*
X134612500Y-102325000D01*
X135387500Y-102325000D01*
X135420581Y-102326625D01*
X135420581Y-102326625D01*
G37*
D28*
X135000000Y-103000000D03*
D27*
G36*
X137170581Y-102326625D02*
X137203343Y-102331485D01*
X137235471Y-102339533D01*
X137266656Y-102350691D01*
X137296596Y-102364852D01*
X137325005Y-102381879D01*
X137351608Y-102401609D01*
X137376149Y-102423851D01*
X137398391Y-102448392D01*
X137418121Y-102474995D01*
X137435148Y-102503404D01*
X137449309Y-102533344D01*
X137460467Y-102564529D01*
X137468515Y-102596657D01*
X137473375Y-102629419D01*
X137475000Y-102662500D01*
X137475000Y-103337500D01*
X137473375Y-103370581D01*
X137468515Y-103403343D01*
X137460467Y-103435471D01*
X137449309Y-103466656D01*
X137435148Y-103496596D01*
X137418121Y-103525005D01*
X137398391Y-103551608D01*
X137376149Y-103576149D01*
X137351608Y-103598391D01*
X137325005Y-103618121D01*
X137296596Y-103635148D01*
X137266656Y-103649309D01*
X137235471Y-103660467D01*
X137203343Y-103668515D01*
X137170581Y-103673375D01*
X137137500Y-103675000D01*
X136362500Y-103675000D01*
X136329419Y-103673375D01*
X136296657Y-103668515D01*
X136264529Y-103660467D01*
X136233344Y-103649309D01*
X136203404Y-103635148D01*
X136174995Y-103618121D01*
X136148392Y-103598391D01*
X136123851Y-103576149D01*
X136101609Y-103551608D01*
X136081879Y-103525005D01*
X136064852Y-103496596D01*
X136050691Y-103466656D01*
X136039533Y-103435471D01*
X136031485Y-103403343D01*
X136026625Y-103370581D01*
X136025000Y-103337500D01*
X136025000Y-102662500D01*
X136026625Y-102629419D01*
X136031485Y-102596657D01*
X136039533Y-102564529D01*
X136050691Y-102533344D01*
X136064852Y-102503404D01*
X136081879Y-102474995D01*
X136101609Y-102448392D01*
X136123851Y-102423851D01*
X136148392Y-102401609D01*
X136174995Y-102381879D01*
X136203404Y-102364852D01*
X136233344Y-102350691D01*
X136264529Y-102339533D01*
X136296657Y-102331485D01*
X136329419Y-102326625D01*
X136362500Y-102325000D01*
X137137500Y-102325000D01*
X137170581Y-102326625D01*
X137170581Y-102326625D01*
G37*
D28*
X136750000Y-103000000D03*
G04 #@! TD*
D27*
G04 #@! TO.C,D11*
G36*
X137796071Y-123676623D02*
X137828781Y-123681475D01*
X137860857Y-123689509D01*
X137891991Y-123700649D01*
X137921884Y-123714787D01*
X137950247Y-123731787D01*
X137976807Y-123751485D01*
X138001308Y-123773692D01*
X138023515Y-123798193D01*
X138043213Y-123824753D01*
X138060213Y-123853116D01*
X138074351Y-123883009D01*
X138085491Y-123914143D01*
X138093525Y-123946219D01*
X138098377Y-123978929D01*
X138100000Y-124011956D01*
X138100000Y-124888044D01*
X138098377Y-124921071D01*
X138093525Y-124953781D01*
X138085491Y-124985857D01*
X138074351Y-125016991D01*
X138060213Y-125046884D01*
X138043213Y-125075247D01*
X138023515Y-125101807D01*
X138001308Y-125126308D01*
X137976807Y-125148515D01*
X137950247Y-125168213D01*
X137921884Y-125185213D01*
X137891991Y-125199351D01*
X137860857Y-125210491D01*
X137828781Y-125218525D01*
X137796071Y-125223377D01*
X137763044Y-125225000D01*
X136636956Y-125225000D01*
X136603929Y-125223377D01*
X136571219Y-125218525D01*
X136539143Y-125210491D01*
X136508009Y-125199351D01*
X136478116Y-125185213D01*
X136449753Y-125168213D01*
X136423193Y-125148515D01*
X136398692Y-125126308D01*
X136376485Y-125101807D01*
X136356787Y-125075247D01*
X136339787Y-125046884D01*
X136325649Y-125016991D01*
X136314509Y-124985857D01*
X136306475Y-124953781D01*
X136301623Y-124921071D01*
X136300000Y-124888044D01*
X136300000Y-124011956D01*
X136301623Y-123978929D01*
X136306475Y-123946219D01*
X136314509Y-123914143D01*
X136325649Y-123883009D01*
X136339787Y-123853116D01*
X136356787Y-123824753D01*
X136376485Y-123798193D01*
X136398692Y-123773692D01*
X136423193Y-123751485D01*
X136449753Y-123731787D01*
X136478116Y-123714787D01*
X136508009Y-123700649D01*
X136539143Y-123689509D01*
X136571219Y-123681475D01*
X136603929Y-123676623D01*
X136636956Y-123675000D01*
X137763044Y-123675000D01*
X137796071Y-123676623D01*
X137796071Y-123676623D01*
G37*
D29*
X137200000Y-124450000D03*
D27*
G36*
X137796071Y-125726623D02*
X137828781Y-125731475D01*
X137860857Y-125739509D01*
X137891991Y-125750649D01*
X137921884Y-125764787D01*
X137950247Y-125781787D01*
X137976807Y-125801485D01*
X138001308Y-125823692D01*
X138023515Y-125848193D01*
X138043213Y-125874753D01*
X138060213Y-125903116D01*
X138074351Y-125933009D01*
X138085491Y-125964143D01*
X138093525Y-125996219D01*
X138098377Y-126028929D01*
X138100000Y-126061956D01*
X138100000Y-126938044D01*
X138098377Y-126971071D01*
X138093525Y-127003781D01*
X138085491Y-127035857D01*
X138074351Y-127066991D01*
X138060213Y-127096884D01*
X138043213Y-127125247D01*
X138023515Y-127151807D01*
X138001308Y-127176308D01*
X137976807Y-127198515D01*
X137950247Y-127218213D01*
X137921884Y-127235213D01*
X137891991Y-127249351D01*
X137860857Y-127260491D01*
X137828781Y-127268525D01*
X137796071Y-127273377D01*
X137763044Y-127275000D01*
X136636956Y-127275000D01*
X136603929Y-127273377D01*
X136571219Y-127268525D01*
X136539143Y-127260491D01*
X136508009Y-127249351D01*
X136478116Y-127235213D01*
X136449753Y-127218213D01*
X136423193Y-127198515D01*
X136398692Y-127176308D01*
X136376485Y-127151807D01*
X136356787Y-127125247D01*
X136339787Y-127096884D01*
X136325649Y-127066991D01*
X136314509Y-127035857D01*
X136306475Y-127003781D01*
X136301623Y-126971071D01*
X136300000Y-126938044D01*
X136300000Y-126061956D01*
X136301623Y-126028929D01*
X136306475Y-125996219D01*
X136314509Y-125964143D01*
X136325649Y-125933009D01*
X136339787Y-125903116D01*
X136356787Y-125874753D01*
X136376485Y-125848193D01*
X136398692Y-125823692D01*
X136423193Y-125801485D01*
X136449753Y-125781787D01*
X136478116Y-125764787D01*
X136508009Y-125750649D01*
X136539143Y-125739509D01*
X136571219Y-125731475D01*
X136603929Y-125726623D01*
X136636956Y-125725000D01*
X137763044Y-125725000D01*
X137796071Y-125726623D01*
X137796071Y-125726623D01*
G37*
D29*
X137200000Y-126500000D03*
G04 #@! TD*
D27*
G04 #@! TO.C,D12*
G36*
X135196071Y-123701623D02*
X135228781Y-123706475D01*
X135260857Y-123714509D01*
X135291991Y-123725649D01*
X135321884Y-123739787D01*
X135350247Y-123756787D01*
X135376807Y-123776485D01*
X135401308Y-123798692D01*
X135423515Y-123823193D01*
X135443213Y-123849753D01*
X135460213Y-123878116D01*
X135474351Y-123908009D01*
X135485491Y-123939143D01*
X135493525Y-123971219D01*
X135498377Y-124003929D01*
X135500000Y-124036956D01*
X135500000Y-124913044D01*
X135498377Y-124946071D01*
X135493525Y-124978781D01*
X135485491Y-125010857D01*
X135474351Y-125041991D01*
X135460213Y-125071884D01*
X135443213Y-125100247D01*
X135423515Y-125126807D01*
X135401308Y-125151308D01*
X135376807Y-125173515D01*
X135350247Y-125193213D01*
X135321884Y-125210213D01*
X135291991Y-125224351D01*
X135260857Y-125235491D01*
X135228781Y-125243525D01*
X135196071Y-125248377D01*
X135163044Y-125250000D01*
X134036956Y-125250000D01*
X134003929Y-125248377D01*
X133971219Y-125243525D01*
X133939143Y-125235491D01*
X133908009Y-125224351D01*
X133878116Y-125210213D01*
X133849753Y-125193213D01*
X133823193Y-125173515D01*
X133798692Y-125151308D01*
X133776485Y-125126807D01*
X133756787Y-125100247D01*
X133739787Y-125071884D01*
X133725649Y-125041991D01*
X133714509Y-125010857D01*
X133706475Y-124978781D01*
X133701623Y-124946071D01*
X133700000Y-124913044D01*
X133700000Y-124036956D01*
X133701623Y-124003929D01*
X133706475Y-123971219D01*
X133714509Y-123939143D01*
X133725649Y-123908009D01*
X133739787Y-123878116D01*
X133756787Y-123849753D01*
X133776485Y-123823193D01*
X133798692Y-123798692D01*
X133823193Y-123776485D01*
X133849753Y-123756787D01*
X133878116Y-123739787D01*
X133908009Y-123725649D01*
X133939143Y-123714509D01*
X133971219Y-123706475D01*
X134003929Y-123701623D01*
X134036956Y-123700000D01*
X135163044Y-123700000D01*
X135196071Y-123701623D01*
X135196071Y-123701623D01*
G37*
D29*
X134600000Y-124475000D03*
D27*
G36*
X135196071Y-125751623D02*
X135228781Y-125756475D01*
X135260857Y-125764509D01*
X135291991Y-125775649D01*
X135321884Y-125789787D01*
X135350247Y-125806787D01*
X135376807Y-125826485D01*
X135401308Y-125848692D01*
X135423515Y-125873193D01*
X135443213Y-125899753D01*
X135460213Y-125928116D01*
X135474351Y-125958009D01*
X135485491Y-125989143D01*
X135493525Y-126021219D01*
X135498377Y-126053929D01*
X135500000Y-126086956D01*
X135500000Y-126963044D01*
X135498377Y-126996071D01*
X135493525Y-127028781D01*
X135485491Y-127060857D01*
X135474351Y-127091991D01*
X135460213Y-127121884D01*
X135443213Y-127150247D01*
X135423515Y-127176807D01*
X135401308Y-127201308D01*
X135376807Y-127223515D01*
X135350247Y-127243213D01*
X135321884Y-127260213D01*
X135291991Y-127274351D01*
X135260857Y-127285491D01*
X135228781Y-127293525D01*
X135196071Y-127298377D01*
X135163044Y-127300000D01*
X134036956Y-127300000D01*
X134003929Y-127298377D01*
X133971219Y-127293525D01*
X133939143Y-127285491D01*
X133908009Y-127274351D01*
X133878116Y-127260213D01*
X133849753Y-127243213D01*
X133823193Y-127223515D01*
X133798692Y-127201308D01*
X133776485Y-127176807D01*
X133756787Y-127150247D01*
X133739787Y-127121884D01*
X133725649Y-127091991D01*
X133714509Y-127060857D01*
X133706475Y-127028781D01*
X133701623Y-126996071D01*
X133700000Y-126963044D01*
X133700000Y-126086956D01*
X133701623Y-126053929D01*
X133706475Y-126021219D01*
X133714509Y-125989143D01*
X133725649Y-125958009D01*
X133739787Y-125928116D01*
X133756787Y-125899753D01*
X133776485Y-125873193D01*
X133798692Y-125848692D01*
X133823193Y-125826485D01*
X133849753Y-125806787D01*
X133878116Y-125789787D01*
X133908009Y-125775649D01*
X133939143Y-125764509D01*
X133971219Y-125756475D01*
X134003929Y-125751623D01*
X134036956Y-125750000D01*
X135163044Y-125750000D01*
X135196071Y-125751623D01*
X135196071Y-125751623D01*
G37*
D29*
X134600000Y-126525000D03*
G04 #@! TD*
D24*
G04 #@! TO.C,J1*
X104500000Y-119000000D03*
D25*
X104500000Y-121540000D03*
G04 #@! TD*
D24*
G04 #@! TO.C,J2*
X113619000Y-119139000D03*
D25*
X111079000Y-119139000D03*
X108539000Y-119139000D03*
G04 #@! TD*
G04 #@! TO.C,J3*
X154000000Y-120710000D03*
D24*
X154000000Y-123250000D03*
G04 #@! TD*
G04 #@! TO.C,J13*
X179500000Y-105500000D03*
D25*
X179500000Y-108040000D03*
X179500000Y-110580000D03*
X179500000Y-113120000D03*
X179500000Y-115660000D03*
X179500000Y-118200000D03*
G04 #@! TD*
G04 #@! TO.C,J15*
X172500000Y-110160000D03*
X172500000Y-107620000D03*
X172500000Y-105080000D03*
X172500000Y-102540000D03*
D24*
X172500000Y-100000000D03*
G04 #@! TD*
G04 #@! TO.C,J16*
X124500000Y-100000000D03*
D25*
X124500000Y-102540000D03*
X124500000Y-105080000D03*
X124500000Y-107620000D03*
X124500000Y-110160000D03*
G04 #@! TD*
G04 #@! TO.C,J17*
X120250000Y-110880000D03*
X120250000Y-113420000D03*
X120250000Y-115960000D03*
D24*
X120250000Y-118500000D03*
G04 #@! TD*
G04 #@! TO.C,J18*
X150500000Y-136600000D03*
D25*
X150500000Y-134060000D03*
X150500000Y-131520000D03*
X150500000Y-128980000D03*
G04 #@! TD*
D16*
G04 #@! TO.C,MH1*
X126000000Y-93500000D03*
G04 #@! TD*
G04 #@! TO.C,MH2*
X171000000Y-93500000D03*
G04 #@! TD*
G04 #@! TO.C,MH3*
X171000000Y-116500000D03*
G04 #@! TD*
G04 #@! TO.C,MH4*
X126000000Y-116500000D03*
G04 #@! TD*
G04 #@! TO.C,MH5*
X183000000Y-134000000D03*
G04 #@! TD*
G04 #@! TO.C,MH7*
X183000000Y-76000000D03*
G04 #@! TD*
D22*
G04 #@! TO.C,U5*
X164000000Y-122250000D03*
D21*
X166540000Y-122250000D03*
X169080000Y-122250000D03*
G04 #@! TD*
D27*
G04 #@! TO.C,C3*
G36*
X128389372Y-134001525D02*
X128420112Y-134006085D01*
X128450257Y-134013636D01*
X128479516Y-134024105D01*
X128507609Y-134037392D01*
X128534264Y-134053368D01*
X128559224Y-134071880D01*
X128582250Y-134092750D01*
X128603120Y-134115776D01*
X128621632Y-134140736D01*
X128637608Y-134167391D01*
X128650895Y-134195484D01*
X128661364Y-134224743D01*
X128668915Y-134254888D01*
X128673475Y-134285628D01*
X128675000Y-134316667D01*
X128675000Y-135583333D01*
X128673475Y-135614372D01*
X128668915Y-135645112D01*
X128661364Y-135675257D01*
X128650895Y-135704516D01*
X128637608Y-135732609D01*
X128621632Y-135759264D01*
X128603120Y-135784224D01*
X128582250Y-135807250D01*
X128559224Y-135828120D01*
X128534264Y-135846632D01*
X128507609Y-135862608D01*
X128479516Y-135875895D01*
X128450257Y-135886364D01*
X128420112Y-135893915D01*
X128389372Y-135898475D01*
X128358333Y-135900000D01*
X126241667Y-135900000D01*
X126210628Y-135898475D01*
X126179888Y-135893915D01*
X126149743Y-135886364D01*
X126120484Y-135875895D01*
X126092391Y-135862608D01*
X126065736Y-135846632D01*
X126040776Y-135828120D01*
X126017750Y-135807250D01*
X125996880Y-135784224D01*
X125978368Y-135759264D01*
X125962392Y-135732609D01*
X125949105Y-135704516D01*
X125938636Y-135675257D01*
X125931085Y-135645112D01*
X125926525Y-135614372D01*
X125925000Y-135583333D01*
X125925000Y-134316667D01*
X125926525Y-134285628D01*
X125931085Y-134254888D01*
X125938636Y-134224743D01*
X125949105Y-134195484D01*
X125962392Y-134167391D01*
X125978368Y-134140736D01*
X125996880Y-134115776D01*
X126017750Y-134092750D01*
X126040776Y-134071880D01*
X126065736Y-134053368D01*
X126092391Y-134037392D01*
X126120484Y-134024105D01*
X126149743Y-134013636D01*
X126179888Y-134006085D01*
X126210628Y-134001525D01*
X126241667Y-134000000D01*
X128358333Y-134000000D01*
X128389372Y-134001525D01*
X128389372Y-134001525D01*
G37*
D11*
X127300000Y-134950000D03*
D27*
G36*
X128389372Y-137251525D02*
X128420112Y-137256085D01*
X128450257Y-137263636D01*
X128479516Y-137274105D01*
X128507609Y-137287392D01*
X128534264Y-137303368D01*
X128559224Y-137321880D01*
X128582250Y-137342750D01*
X128603120Y-137365776D01*
X128621632Y-137390736D01*
X128637608Y-137417391D01*
X128650895Y-137445484D01*
X128661364Y-137474743D01*
X128668915Y-137504888D01*
X128673475Y-137535628D01*
X128675000Y-137566667D01*
X128675000Y-138833333D01*
X128673475Y-138864372D01*
X128668915Y-138895112D01*
X128661364Y-138925257D01*
X128650895Y-138954516D01*
X128637608Y-138982609D01*
X128621632Y-139009264D01*
X128603120Y-139034224D01*
X128582250Y-139057250D01*
X128559224Y-139078120D01*
X128534264Y-139096632D01*
X128507609Y-139112608D01*
X128479516Y-139125895D01*
X128450257Y-139136364D01*
X128420112Y-139143915D01*
X128389372Y-139148475D01*
X128358333Y-139150000D01*
X126241667Y-139150000D01*
X126210628Y-139148475D01*
X126179888Y-139143915D01*
X126149743Y-139136364D01*
X126120484Y-139125895D01*
X126092391Y-139112608D01*
X126065736Y-139096632D01*
X126040776Y-139078120D01*
X126017750Y-139057250D01*
X125996880Y-139034224D01*
X125978368Y-139009264D01*
X125962392Y-138982609D01*
X125949105Y-138954516D01*
X125938636Y-138925257D01*
X125931085Y-138895112D01*
X125926525Y-138864372D01*
X125925000Y-138833333D01*
X125925000Y-137566667D01*
X125926525Y-137535628D01*
X125931085Y-137504888D01*
X125938636Y-137474743D01*
X125949105Y-137445484D01*
X125962392Y-137417391D01*
X125978368Y-137390736D01*
X125996880Y-137365776D01*
X126017750Y-137342750D01*
X126040776Y-137321880D01*
X126065736Y-137303368D01*
X126092391Y-137287392D01*
X126120484Y-137274105D01*
X126149743Y-137263636D01*
X126179888Y-137256085D01*
X126210628Y-137251525D01*
X126241667Y-137250000D01*
X128358333Y-137250000D01*
X128389372Y-137251525D01*
X128389372Y-137251525D01*
G37*
D11*
X127300000Y-138200000D03*
G04 #@! TD*
D24*
G04 #@! TO.C,J4*
X186000000Y-109000000D03*
D25*
X186000000Y-111540000D03*
G04 #@! TD*
G04 #@! TO.C,J5*
X114540000Y-104480000D03*
X112000000Y-104480000D03*
X114540000Y-101940000D03*
X112000000Y-101940000D03*
X114540000Y-99400000D03*
D24*
X112000000Y-99400000D03*
G04 #@! TD*
G04 #@! TO.C,J10*
X105660000Y-99400000D03*
D25*
X108200000Y-99400000D03*
X105660000Y-101940000D03*
X108200000Y-101940000D03*
X105660000Y-104480000D03*
X108200000Y-104480000D03*
G04 #@! TD*
D24*
G04 #@! TO.C,J12*
X162500000Y-72750000D03*
D25*
X162500000Y-75290000D03*
X159960000Y-72750000D03*
X159960000Y-75290000D03*
X157420000Y-72750000D03*
X157420000Y-75290000D03*
G04 #@! TD*
D27*
G04 #@! TO.C,R5*
G36*
X138921071Y-132601623D02*
X138953781Y-132606475D01*
X138985857Y-132614509D01*
X139016991Y-132625649D01*
X139046884Y-132639787D01*
X139075247Y-132656787D01*
X139101807Y-132676485D01*
X139126308Y-132698692D01*
X139148515Y-132723193D01*
X139168213Y-132749753D01*
X139185213Y-132778116D01*
X139199351Y-132808009D01*
X139210491Y-132839143D01*
X139218525Y-132871219D01*
X139223377Y-132903929D01*
X139225000Y-132936956D01*
X139225000Y-134063044D01*
X139223377Y-134096071D01*
X139218525Y-134128781D01*
X139210491Y-134160857D01*
X139199351Y-134191991D01*
X139185213Y-134221884D01*
X139168213Y-134250247D01*
X139148515Y-134276807D01*
X139126308Y-134301308D01*
X139101807Y-134323515D01*
X139075247Y-134343213D01*
X139046884Y-134360213D01*
X139016991Y-134374351D01*
X138985857Y-134385491D01*
X138953781Y-134393525D01*
X138921071Y-134398377D01*
X138888044Y-134400000D01*
X138011956Y-134400000D01*
X137978929Y-134398377D01*
X137946219Y-134393525D01*
X137914143Y-134385491D01*
X137883009Y-134374351D01*
X137853116Y-134360213D01*
X137824753Y-134343213D01*
X137798193Y-134323515D01*
X137773692Y-134301308D01*
X137751485Y-134276807D01*
X137731787Y-134250247D01*
X137714787Y-134221884D01*
X137700649Y-134191991D01*
X137689509Y-134160857D01*
X137681475Y-134128781D01*
X137676623Y-134096071D01*
X137675000Y-134063044D01*
X137675000Y-132936956D01*
X137676623Y-132903929D01*
X137681475Y-132871219D01*
X137689509Y-132839143D01*
X137700649Y-132808009D01*
X137714787Y-132778116D01*
X137731787Y-132749753D01*
X137751485Y-132723193D01*
X137773692Y-132698692D01*
X137798193Y-132676485D01*
X137824753Y-132656787D01*
X137853116Y-132639787D01*
X137883009Y-132625649D01*
X137914143Y-132614509D01*
X137946219Y-132606475D01*
X137978929Y-132601623D01*
X138011956Y-132600000D01*
X138888044Y-132600000D01*
X138921071Y-132601623D01*
X138921071Y-132601623D01*
G37*
D29*
X138450000Y-133500000D03*
D27*
G36*
X140971071Y-132601623D02*
X141003781Y-132606475D01*
X141035857Y-132614509D01*
X141066991Y-132625649D01*
X141096884Y-132639787D01*
X141125247Y-132656787D01*
X141151807Y-132676485D01*
X141176308Y-132698692D01*
X141198515Y-132723193D01*
X141218213Y-132749753D01*
X141235213Y-132778116D01*
X141249351Y-132808009D01*
X141260491Y-132839143D01*
X141268525Y-132871219D01*
X141273377Y-132903929D01*
X141275000Y-132936956D01*
X141275000Y-134063044D01*
X141273377Y-134096071D01*
X141268525Y-134128781D01*
X141260491Y-134160857D01*
X141249351Y-134191991D01*
X141235213Y-134221884D01*
X141218213Y-134250247D01*
X141198515Y-134276807D01*
X141176308Y-134301308D01*
X141151807Y-134323515D01*
X141125247Y-134343213D01*
X141096884Y-134360213D01*
X141066991Y-134374351D01*
X141035857Y-134385491D01*
X141003781Y-134393525D01*
X140971071Y-134398377D01*
X140938044Y-134400000D01*
X140061956Y-134400000D01*
X140028929Y-134398377D01*
X139996219Y-134393525D01*
X139964143Y-134385491D01*
X139933009Y-134374351D01*
X139903116Y-134360213D01*
X139874753Y-134343213D01*
X139848193Y-134323515D01*
X139823692Y-134301308D01*
X139801485Y-134276807D01*
X139781787Y-134250247D01*
X139764787Y-134221884D01*
X139750649Y-134191991D01*
X139739509Y-134160857D01*
X139731475Y-134128781D01*
X139726623Y-134096071D01*
X139725000Y-134063044D01*
X139725000Y-132936956D01*
X139726623Y-132903929D01*
X139731475Y-132871219D01*
X139739509Y-132839143D01*
X139750649Y-132808009D01*
X139764787Y-132778116D01*
X139781787Y-132749753D01*
X139801485Y-132723193D01*
X139823692Y-132698692D01*
X139848193Y-132676485D01*
X139874753Y-132656787D01*
X139903116Y-132639787D01*
X139933009Y-132625649D01*
X139964143Y-132614509D01*
X139996219Y-132606475D01*
X140028929Y-132601623D01*
X140061956Y-132600000D01*
X140938044Y-132600000D01*
X140971071Y-132601623D01*
X140971071Y-132601623D01*
G37*
D29*
X140500000Y-133500000D03*
G04 #@! TD*
D27*
G04 #@! TO.C,R6*
G36*
X172271071Y-137601623D02*
X172303781Y-137606475D01*
X172335857Y-137614509D01*
X172366991Y-137625649D01*
X172396884Y-137639787D01*
X172425247Y-137656787D01*
X172451807Y-137676485D01*
X172476308Y-137698692D01*
X172498515Y-137723193D01*
X172518213Y-137749753D01*
X172535213Y-137778116D01*
X172549351Y-137808009D01*
X172560491Y-137839143D01*
X172568525Y-137871219D01*
X172573377Y-137903929D01*
X172575000Y-137936956D01*
X172575000Y-139063044D01*
X172573377Y-139096071D01*
X172568525Y-139128781D01*
X172560491Y-139160857D01*
X172549351Y-139191991D01*
X172535213Y-139221884D01*
X172518213Y-139250247D01*
X172498515Y-139276807D01*
X172476308Y-139301308D01*
X172451807Y-139323515D01*
X172425247Y-139343213D01*
X172396884Y-139360213D01*
X172366991Y-139374351D01*
X172335857Y-139385491D01*
X172303781Y-139393525D01*
X172271071Y-139398377D01*
X172238044Y-139400000D01*
X171361956Y-139400000D01*
X171328929Y-139398377D01*
X171296219Y-139393525D01*
X171264143Y-139385491D01*
X171233009Y-139374351D01*
X171203116Y-139360213D01*
X171174753Y-139343213D01*
X171148193Y-139323515D01*
X171123692Y-139301308D01*
X171101485Y-139276807D01*
X171081787Y-139250247D01*
X171064787Y-139221884D01*
X171050649Y-139191991D01*
X171039509Y-139160857D01*
X171031475Y-139128781D01*
X171026623Y-139096071D01*
X171025000Y-139063044D01*
X171025000Y-137936956D01*
X171026623Y-137903929D01*
X171031475Y-137871219D01*
X171039509Y-137839143D01*
X171050649Y-137808009D01*
X171064787Y-137778116D01*
X171081787Y-137749753D01*
X171101485Y-137723193D01*
X171123692Y-137698692D01*
X171148193Y-137676485D01*
X171174753Y-137656787D01*
X171203116Y-137639787D01*
X171233009Y-137625649D01*
X171264143Y-137614509D01*
X171296219Y-137606475D01*
X171328929Y-137601623D01*
X171361956Y-137600000D01*
X172238044Y-137600000D01*
X172271071Y-137601623D01*
X172271071Y-137601623D01*
G37*
D29*
X171800000Y-138500000D03*
D27*
G36*
X170221071Y-137601623D02*
X170253781Y-137606475D01*
X170285857Y-137614509D01*
X170316991Y-137625649D01*
X170346884Y-137639787D01*
X170375247Y-137656787D01*
X170401807Y-137676485D01*
X170426308Y-137698692D01*
X170448515Y-137723193D01*
X170468213Y-137749753D01*
X170485213Y-137778116D01*
X170499351Y-137808009D01*
X170510491Y-137839143D01*
X170518525Y-137871219D01*
X170523377Y-137903929D01*
X170525000Y-137936956D01*
X170525000Y-139063044D01*
X170523377Y-139096071D01*
X170518525Y-139128781D01*
X170510491Y-139160857D01*
X170499351Y-139191991D01*
X170485213Y-139221884D01*
X170468213Y-139250247D01*
X170448515Y-139276807D01*
X170426308Y-139301308D01*
X170401807Y-139323515D01*
X170375247Y-139343213D01*
X170346884Y-139360213D01*
X170316991Y-139374351D01*
X170285857Y-139385491D01*
X170253781Y-139393525D01*
X170221071Y-139398377D01*
X170188044Y-139400000D01*
X169311956Y-139400000D01*
X169278929Y-139398377D01*
X169246219Y-139393525D01*
X169214143Y-139385491D01*
X169183009Y-139374351D01*
X169153116Y-139360213D01*
X169124753Y-139343213D01*
X169098193Y-139323515D01*
X169073692Y-139301308D01*
X169051485Y-139276807D01*
X169031787Y-139250247D01*
X169014787Y-139221884D01*
X169000649Y-139191991D01*
X168989509Y-139160857D01*
X168981475Y-139128781D01*
X168976623Y-139096071D01*
X168975000Y-139063044D01*
X168975000Y-137936956D01*
X168976623Y-137903929D01*
X168981475Y-137871219D01*
X168989509Y-137839143D01*
X169000649Y-137808009D01*
X169014787Y-137778116D01*
X169031787Y-137749753D01*
X169051485Y-137723193D01*
X169073692Y-137698692D01*
X169098193Y-137676485D01*
X169124753Y-137656787D01*
X169153116Y-137639787D01*
X169183009Y-137625649D01*
X169214143Y-137614509D01*
X169246219Y-137606475D01*
X169278929Y-137601623D01*
X169311956Y-137600000D01*
X170188044Y-137600000D01*
X170221071Y-137601623D01*
X170221071Y-137601623D01*
G37*
D29*
X169750000Y-138500000D03*
G04 #@! TD*
D27*
G04 #@! TO.C,R7*
G36*
X170221071Y-135351623D02*
X170253781Y-135356475D01*
X170285857Y-135364509D01*
X170316991Y-135375649D01*
X170346884Y-135389787D01*
X170375247Y-135406787D01*
X170401807Y-135426485D01*
X170426308Y-135448692D01*
X170448515Y-135473193D01*
X170468213Y-135499753D01*
X170485213Y-135528116D01*
X170499351Y-135558009D01*
X170510491Y-135589143D01*
X170518525Y-135621219D01*
X170523377Y-135653929D01*
X170525000Y-135686956D01*
X170525000Y-136813044D01*
X170523377Y-136846071D01*
X170518525Y-136878781D01*
X170510491Y-136910857D01*
X170499351Y-136941991D01*
X170485213Y-136971884D01*
X170468213Y-137000247D01*
X170448515Y-137026807D01*
X170426308Y-137051308D01*
X170401807Y-137073515D01*
X170375247Y-137093213D01*
X170346884Y-137110213D01*
X170316991Y-137124351D01*
X170285857Y-137135491D01*
X170253781Y-137143525D01*
X170221071Y-137148377D01*
X170188044Y-137150000D01*
X169311956Y-137150000D01*
X169278929Y-137148377D01*
X169246219Y-137143525D01*
X169214143Y-137135491D01*
X169183009Y-137124351D01*
X169153116Y-137110213D01*
X169124753Y-137093213D01*
X169098193Y-137073515D01*
X169073692Y-137051308D01*
X169051485Y-137026807D01*
X169031787Y-137000247D01*
X169014787Y-136971884D01*
X169000649Y-136941991D01*
X168989509Y-136910857D01*
X168981475Y-136878781D01*
X168976623Y-136846071D01*
X168975000Y-136813044D01*
X168975000Y-135686956D01*
X168976623Y-135653929D01*
X168981475Y-135621219D01*
X168989509Y-135589143D01*
X169000649Y-135558009D01*
X169014787Y-135528116D01*
X169031787Y-135499753D01*
X169051485Y-135473193D01*
X169073692Y-135448692D01*
X169098193Y-135426485D01*
X169124753Y-135406787D01*
X169153116Y-135389787D01*
X169183009Y-135375649D01*
X169214143Y-135364509D01*
X169246219Y-135356475D01*
X169278929Y-135351623D01*
X169311956Y-135350000D01*
X170188044Y-135350000D01*
X170221071Y-135351623D01*
X170221071Y-135351623D01*
G37*
D29*
X169750000Y-136250000D03*
D27*
G36*
X172271071Y-135351623D02*
X172303781Y-135356475D01*
X172335857Y-135364509D01*
X172366991Y-135375649D01*
X172396884Y-135389787D01*
X172425247Y-135406787D01*
X172451807Y-135426485D01*
X172476308Y-135448692D01*
X172498515Y-135473193D01*
X172518213Y-135499753D01*
X172535213Y-135528116D01*
X172549351Y-135558009D01*
X172560491Y-135589143D01*
X172568525Y-135621219D01*
X172573377Y-135653929D01*
X172575000Y-135686956D01*
X172575000Y-136813044D01*
X172573377Y-136846071D01*
X172568525Y-136878781D01*
X172560491Y-136910857D01*
X172549351Y-136941991D01*
X172535213Y-136971884D01*
X172518213Y-137000247D01*
X172498515Y-137026807D01*
X172476308Y-137051308D01*
X172451807Y-137073515D01*
X172425247Y-137093213D01*
X172396884Y-137110213D01*
X172366991Y-137124351D01*
X172335857Y-137135491D01*
X172303781Y-137143525D01*
X172271071Y-137148377D01*
X172238044Y-137150000D01*
X171361956Y-137150000D01*
X171328929Y-137148377D01*
X171296219Y-137143525D01*
X171264143Y-137135491D01*
X171233009Y-137124351D01*
X171203116Y-137110213D01*
X171174753Y-137093213D01*
X171148193Y-137073515D01*
X171123692Y-137051308D01*
X171101485Y-137026807D01*
X171081787Y-137000247D01*
X171064787Y-136971884D01*
X171050649Y-136941991D01*
X171039509Y-136910857D01*
X171031475Y-136878781D01*
X171026623Y-136846071D01*
X171025000Y-136813044D01*
X171025000Y-135686956D01*
X171026623Y-135653929D01*
X171031475Y-135621219D01*
X171039509Y-135589143D01*
X171050649Y-135558009D01*
X171064787Y-135528116D01*
X171081787Y-135499753D01*
X171101485Y-135473193D01*
X171123692Y-135448692D01*
X171148193Y-135426485D01*
X171174753Y-135406787D01*
X171203116Y-135389787D01*
X171233009Y-135375649D01*
X171264143Y-135364509D01*
X171296219Y-135356475D01*
X171328929Y-135351623D01*
X171361956Y-135350000D01*
X172238044Y-135350000D01*
X172271071Y-135351623D01*
X172271071Y-135351623D01*
G37*
D29*
X171800000Y-136250000D03*
G04 #@! TD*
D27*
G04 #@! TO.C,R8*
G36*
X172271071Y-133101623D02*
X172303781Y-133106475D01*
X172335857Y-133114509D01*
X172366991Y-133125649D01*
X172396884Y-133139787D01*
X172425247Y-133156787D01*
X172451807Y-133176485D01*
X172476308Y-133198692D01*
X172498515Y-133223193D01*
X172518213Y-133249753D01*
X172535213Y-133278116D01*
X172549351Y-133308009D01*
X172560491Y-133339143D01*
X172568525Y-133371219D01*
X172573377Y-133403929D01*
X172575000Y-133436956D01*
X172575000Y-134563044D01*
X172573377Y-134596071D01*
X172568525Y-134628781D01*
X172560491Y-134660857D01*
X172549351Y-134691991D01*
X172535213Y-134721884D01*
X172518213Y-134750247D01*
X172498515Y-134776807D01*
X172476308Y-134801308D01*
X172451807Y-134823515D01*
X172425247Y-134843213D01*
X172396884Y-134860213D01*
X172366991Y-134874351D01*
X172335857Y-134885491D01*
X172303781Y-134893525D01*
X172271071Y-134898377D01*
X172238044Y-134900000D01*
X171361956Y-134900000D01*
X171328929Y-134898377D01*
X171296219Y-134893525D01*
X171264143Y-134885491D01*
X171233009Y-134874351D01*
X171203116Y-134860213D01*
X171174753Y-134843213D01*
X171148193Y-134823515D01*
X171123692Y-134801308D01*
X171101485Y-134776807D01*
X171081787Y-134750247D01*
X171064787Y-134721884D01*
X171050649Y-134691991D01*
X171039509Y-134660857D01*
X171031475Y-134628781D01*
X171026623Y-134596071D01*
X171025000Y-134563044D01*
X171025000Y-133436956D01*
X171026623Y-133403929D01*
X171031475Y-133371219D01*
X171039509Y-133339143D01*
X171050649Y-133308009D01*
X171064787Y-133278116D01*
X171081787Y-133249753D01*
X171101485Y-133223193D01*
X171123692Y-133198692D01*
X171148193Y-133176485D01*
X171174753Y-133156787D01*
X171203116Y-133139787D01*
X171233009Y-133125649D01*
X171264143Y-133114509D01*
X171296219Y-133106475D01*
X171328929Y-133101623D01*
X171361956Y-133100000D01*
X172238044Y-133100000D01*
X172271071Y-133101623D01*
X172271071Y-133101623D01*
G37*
D29*
X171800000Y-134000000D03*
D27*
G36*
X170221071Y-133101623D02*
X170253781Y-133106475D01*
X170285857Y-133114509D01*
X170316991Y-133125649D01*
X170346884Y-133139787D01*
X170375247Y-133156787D01*
X170401807Y-133176485D01*
X170426308Y-133198692D01*
X170448515Y-133223193D01*
X170468213Y-133249753D01*
X170485213Y-133278116D01*
X170499351Y-133308009D01*
X170510491Y-133339143D01*
X170518525Y-133371219D01*
X170523377Y-133403929D01*
X170525000Y-133436956D01*
X170525000Y-134563044D01*
X170523377Y-134596071D01*
X170518525Y-134628781D01*
X170510491Y-134660857D01*
X170499351Y-134691991D01*
X170485213Y-134721884D01*
X170468213Y-134750247D01*
X170448515Y-134776807D01*
X170426308Y-134801308D01*
X170401807Y-134823515D01*
X170375247Y-134843213D01*
X170346884Y-134860213D01*
X170316991Y-134874351D01*
X170285857Y-134885491D01*
X170253781Y-134893525D01*
X170221071Y-134898377D01*
X170188044Y-134900000D01*
X169311956Y-134900000D01*
X169278929Y-134898377D01*
X169246219Y-134893525D01*
X169214143Y-134885491D01*
X169183009Y-134874351D01*
X169153116Y-134860213D01*
X169124753Y-134843213D01*
X169098193Y-134823515D01*
X169073692Y-134801308D01*
X169051485Y-134776807D01*
X169031787Y-134750247D01*
X169014787Y-134721884D01*
X169000649Y-134691991D01*
X168989509Y-134660857D01*
X168981475Y-134628781D01*
X168976623Y-134596071D01*
X168975000Y-134563044D01*
X168975000Y-133436956D01*
X168976623Y-133403929D01*
X168981475Y-133371219D01*
X168989509Y-133339143D01*
X169000649Y-133308009D01*
X169014787Y-133278116D01*
X169031787Y-133249753D01*
X169051485Y-133223193D01*
X169073692Y-133198692D01*
X169098193Y-133176485D01*
X169124753Y-133156787D01*
X169153116Y-133139787D01*
X169183009Y-133125649D01*
X169214143Y-133114509D01*
X169246219Y-133106475D01*
X169278929Y-133101623D01*
X169311956Y-133100000D01*
X170188044Y-133100000D01*
X170221071Y-133101623D01*
X170221071Y-133101623D01*
G37*
D29*
X169750000Y-134000000D03*
G04 #@! TD*
D27*
G04 #@! TO.C,R9*
G36*
X170171071Y-130851623D02*
X170203781Y-130856475D01*
X170235857Y-130864509D01*
X170266991Y-130875649D01*
X170296884Y-130889787D01*
X170325247Y-130906787D01*
X170351807Y-130926485D01*
X170376308Y-130948692D01*
X170398515Y-130973193D01*
X170418213Y-130999753D01*
X170435213Y-131028116D01*
X170449351Y-131058009D01*
X170460491Y-131089143D01*
X170468525Y-131121219D01*
X170473377Y-131153929D01*
X170475000Y-131186956D01*
X170475000Y-132313044D01*
X170473377Y-132346071D01*
X170468525Y-132378781D01*
X170460491Y-132410857D01*
X170449351Y-132441991D01*
X170435213Y-132471884D01*
X170418213Y-132500247D01*
X170398515Y-132526807D01*
X170376308Y-132551308D01*
X170351807Y-132573515D01*
X170325247Y-132593213D01*
X170296884Y-132610213D01*
X170266991Y-132624351D01*
X170235857Y-132635491D01*
X170203781Y-132643525D01*
X170171071Y-132648377D01*
X170138044Y-132650000D01*
X169261956Y-132650000D01*
X169228929Y-132648377D01*
X169196219Y-132643525D01*
X169164143Y-132635491D01*
X169133009Y-132624351D01*
X169103116Y-132610213D01*
X169074753Y-132593213D01*
X169048193Y-132573515D01*
X169023692Y-132551308D01*
X169001485Y-132526807D01*
X168981787Y-132500247D01*
X168964787Y-132471884D01*
X168950649Y-132441991D01*
X168939509Y-132410857D01*
X168931475Y-132378781D01*
X168926623Y-132346071D01*
X168925000Y-132313044D01*
X168925000Y-131186956D01*
X168926623Y-131153929D01*
X168931475Y-131121219D01*
X168939509Y-131089143D01*
X168950649Y-131058009D01*
X168964787Y-131028116D01*
X168981787Y-130999753D01*
X169001485Y-130973193D01*
X169023692Y-130948692D01*
X169048193Y-130926485D01*
X169074753Y-130906787D01*
X169103116Y-130889787D01*
X169133009Y-130875649D01*
X169164143Y-130864509D01*
X169196219Y-130856475D01*
X169228929Y-130851623D01*
X169261956Y-130850000D01*
X170138044Y-130850000D01*
X170171071Y-130851623D01*
X170171071Y-130851623D01*
G37*
D29*
X169700000Y-131750000D03*
D27*
G36*
X172221071Y-130851623D02*
X172253781Y-130856475D01*
X172285857Y-130864509D01*
X172316991Y-130875649D01*
X172346884Y-130889787D01*
X172375247Y-130906787D01*
X172401807Y-130926485D01*
X172426308Y-130948692D01*
X172448515Y-130973193D01*
X172468213Y-130999753D01*
X172485213Y-131028116D01*
X172499351Y-131058009D01*
X172510491Y-131089143D01*
X172518525Y-131121219D01*
X172523377Y-131153929D01*
X172525000Y-131186956D01*
X172525000Y-132313044D01*
X172523377Y-132346071D01*
X172518525Y-132378781D01*
X172510491Y-132410857D01*
X172499351Y-132441991D01*
X172485213Y-132471884D01*
X172468213Y-132500247D01*
X172448515Y-132526807D01*
X172426308Y-132551308D01*
X172401807Y-132573515D01*
X172375247Y-132593213D01*
X172346884Y-132610213D01*
X172316991Y-132624351D01*
X172285857Y-132635491D01*
X172253781Y-132643525D01*
X172221071Y-132648377D01*
X172188044Y-132650000D01*
X171311956Y-132650000D01*
X171278929Y-132648377D01*
X171246219Y-132643525D01*
X171214143Y-132635491D01*
X171183009Y-132624351D01*
X171153116Y-132610213D01*
X171124753Y-132593213D01*
X171098193Y-132573515D01*
X171073692Y-132551308D01*
X171051485Y-132526807D01*
X171031787Y-132500247D01*
X171014787Y-132471884D01*
X171000649Y-132441991D01*
X170989509Y-132410857D01*
X170981475Y-132378781D01*
X170976623Y-132346071D01*
X170975000Y-132313044D01*
X170975000Y-131186956D01*
X170976623Y-131153929D01*
X170981475Y-131121219D01*
X170989509Y-131089143D01*
X171000649Y-131058009D01*
X171014787Y-131028116D01*
X171031787Y-130999753D01*
X171051485Y-130973193D01*
X171073692Y-130948692D01*
X171098193Y-130926485D01*
X171124753Y-130906787D01*
X171153116Y-130889787D01*
X171183009Y-130875649D01*
X171214143Y-130864509D01*
X171246219Y-130856475D01*
X171278929Y-130851623D01*
X171311956Y-130850000D01*
X172188044Y-130850000D01*
X172221071Y-130851623D01*
X172221071Y-130851623D01*
G37*
D29*
X171750000Y-131750000D03*
G04 #@! TD*
D27*
G04 #@! TO.C,R10*
G36*
X133971071Y-132601623D02*
X134003781Y-132606475D01*
X134035857Y-132614509D01*
X134066991Y-132625649D01*
X134096884Y-132639787D01*
X134125247Y-132656787D01*
X134151807Y-132676485D01*
X134176308Y-132698692D01*
X134198515Y-132723193D01*
X134218213Y-132749753D01*
X134235213Y-132778116D01*
X134249351Y-132808009D01*
X134260491Y-132839143D01*
X134268525Y-132871219D01*
X134273377Y-132903929D01*
X134275000Y-132936956D01*
X134275000Y-134063044D01*
X134273377Y-134096071D01*
X134268525Y-134128781D01*
X134260491Y-134160857D01*
X134249351Y-134191991D01*
X134235213Y-134221884D01*
X134218213Y-134250247D01*
X134198515Y-134276807D01*
X134176308Y-134301308D01*
X134151807Y-134323515D01*
X134125247Y-134343213D01*
X134096884Y-134360213D01*
X134066991Y-134374351D01*
X134035857Y-134385491D01*
X134003781Y-134393525D01*
X133971071Y-134398377D01*
X133938044Y-134400000D01*
X133061956Y-134400000D01*
X133028929Y-134398377D01*
X132996219Y-134393525D01*
X132964143Y-134385491D01*
X132933009Y-134374351D01*
X132903116Y-134360213D01*
X132874753Y-134343213D01*
X132848193Y-134323515D01*
X132823692Y-134301308D01*
X132801485Y-134276807D01*
X132781787Y-134250247D01*
X132764787Y-134221884D01*
X132750649Y-134191991D01*
X132739509Y-134160857D01*
X132731475Y-134128781D01*
X132726623Y-134096071D01*
X132725000Y-134063044D01*
X132725000Y-132936956D01*
X132726623Y-132903929D01*
X132731475Y-132871219D01*
X132739509Y-132839143D01*
X132750649Y-132808009D01*
X132764787Y-132778116D01*
X132781787Y-132749753D01*
X132801485Y-132723193D01*
X132823692Y-132698692D01*
X132848193Y-132676485D01*
X132874753Y-132656787D01*
X132903116Y-132639787D01*
X132933009Y-132625649D01*
X132964143Y-132614509D01*
X132996219Y-132606475D01*
X133028929Y-132601623D01*
X133061956Y-132600000D01*
X133938044Y-132600000D01*
X133971071Y-132601623D01*
X133971071Y-132601623D01*
G37*
D29*
X133500000Y-133500000D03*
D27*
G36*
X131921071Y-132601623D02*
X131953781Y-132606475D01*
X131985857Y-132614509D01*
X132016991Y-132625649D01*
X132046884Y-132639787D01*
X132075247Y-132656787D01*
X132101807Y-132676485D01*
X132126308Y-132698692D01*
X132148515Y-132723193D01*
X132168213Y-132749753D01*
X132185213Y-132778116D01*
X132199351Y-132808009D01*
X132210491Y-132839143D01*
X132218525Y-132871219D01*
X132223377Y-132903929D01*
X132225000Y-132936956D01*
X132225000Y-134063044D01*
X132223377Y-134096071D01*
X132218525Y-134128781D01*
X132210491Y-134160857D01*
X132199351Y-134191991D01*
X132185213Y-134221884D01*
X132168213Y-134250247D01*
X132148515Y-134276807D01*
X132126308Y-134301308D01*
X132101807Y-134323515D01*
X132075247Y-134343213D01*
X132046884Y-134360213D01*
X132016991Y-134374351D01*
X131985857Y-134385491D01*
X131953781Y-134393525D01*
X131921071Y-134398377D01*
X131888044Y-134400000D01*
X131011956Y-134400000D01*
X130978929Y-134398377D01*
X130946219Y-134393525D01*
X130914143Y-134385491D01*
X130883009Y-134374351D01*
X130853116Y-134360213D01*
X130824753Y-134343213D01*
X130798193Y-134323515D01*
X130773692Y-134301308D01*
X130751485Y-134276807D01*
X130731787Y-134250247D01*
X130714787Y-134221884D01*
X130700649Y-134191991D01*
X130689509Y-134160857D01*
X130681475Y-134128781D01*
X130676623Y-134096071D01*
X130675000Y-134063044D01*
X130675000Y-132936956D01*
X130676623Y-132903929D01*
X130681475Y-132871219D01*
X130689509Y-132839143D01*
X130700649Y-132808009D01*
X130714787Y-132778116D01*
X130731787Y-132749753D01*
X130751485Y-132723193D01*
X130773692Y-132698692D01*
X130798193Y-132676485D01*
X130824753Y-132656787D01*
X130853116Y-132639787D01*
X130883009Y-132625649D01*
X130914143Y-132614509D01*
X130946219Y-132606475D01*
X130978929Y-132601623D01*
X131011956Y-132600000D01*
X131888044Y-132600000D01*
X131921071Y-132601623D01*
X131921071Y-132601623D01*
G37*
D29*
X131450000Y-133500000D03*
G04 #@! TD*
D27*
G04 #@! TO.C,R11*
G36*
X123407071Y-127879623D02*
X123439781Y-127884475D01*
X123471857Y-127892509D01*
X123502991Y-127903649D01*
X123532884Y-127917787D01*
X123561247Y-127934787D01*
X123587807Y-127954485D01*
X123612308Y-127976692D01*
X123634515Y-128001193D01*
X123654213Y-128027753D01*
X123671213Y-128056116D01*
X123685351Y-128086009D01*
X123696491Y-128117143D01*
X123704525Y-128149219D01*
X123709377Y-128181929D01*
X123711000Y-128214956D01*
X123711000Y-129341044D01*
X123709377Y-129374071D01*
X123704525Y-129406781D01*
X123696491Y-129438857D01*
X123685351Y-129469991D01*
X123671213Y-129499884D01*
X123654213Y-129528247D01*
X123634515Y-129554807D01*
X123612308Y-129579308D01*
X123587807Y-129601515D01*
X123561247Y-129621213D01*
X123532884Y-129638213D01*
X123502991Y-129652351D01*
X123471857Y-129663491D01*
X123439781Y-129671525D01*
X123407071Y-129676377D01*
X123374044Y-129678000D01*
X122497956Y-129678000D01*
X122464929Y-129676377D01*
X122432219Y-129671525D01*
X122400143Y-129663491D01*
X122369009Y-129652351D01*
X122339116Y-129638213D01*
X122310753Y-129621213D01*
X122284193Y-129601515D01*
X122259692Y-129579308D01*
X122237485Y-129554807D01*
X122217787Y-129528247D01*
X122200787Y-129499884D01*
X122186649Y-129469991D01*
X122175509Y-129438857D01*
X122167475Y-129406781D01*
X122162623Y-129374071D01*
X122161000Y-129341044D01*
X122161000Y-128214956D01*
X122162623Y-128181929D01*
X122167475Y-128149219D01*
X122175509Y-128117143D01*
X122186649Y-128086009D01*
X122200787Y-128056116D01*
X122217787Y-128027753D01*
X122237485Y-128001193D01*
X122259692Y-127976692D01*
X122284193Y-127954485D01*
X122310753Y-127934787D01*
X122339116Y-127917787D01*
X122369009Y-127903649D01*
X122400143Y-127892509D01*
X122432219Y-127884475D01*
X122464929Y-127879623D01*
X122497956Y-127878000D01*
X123374044Y-127878000D01*
X123407071Y-127879623D01*
X123407071Y-127879623D01*
G37*
D29*
X122936000Y-128778000D03*
D27*
G36*
X121357071Y-127879623D02*
X121389781Y-127884475D01*
X121421857Y-127892509D01*
X121452991Y-127903649D01*
X121482884Y-127917787D01*
X121511247Y-127934787D01*
X121537807Y-127954485D01*
X121562308Y-127976692D01*
X121584515Y-128001193D01*
X121604213Y-128027753D01*
X121621213Y-128056116D01*
X121635351Y-128086009D01*
X121646491Y-128117143D01*
X121654525Y-128149219D01*
X121659377Y-128181929D01*
X121661000Y-128214956D01*
X121661000Y-129341044D01*
X121659377Y-129374071D01*
X121654525Y-129406781D01*
X121646491Y-129438857D01*
X121635351Y-129469991D01*
X121621213Y-129499884D01*
X121604213Y-129528247D01*
X121584515Y-129554807D01*
X121562308Y-129579308D01*
X121537807Y-129601515D01*
X121511247Y-129621213D01*
X121482884Y-129638213D01*
X121452991Y-129652351D01*
X121421857Y-129663491D01*
X121389781Y-129671525D01*
X121357071Y-129676377D01*
X121324044Y-129678000D01*
X120447956Y-129678000D01*
X120414929Y-129676377D01*
X120382219Y-129671525D01*
X120350143Y-129663491D01*
X120319009Y-129652351D01*
X120289116Y-129638213D01*
X120260753Y-129621213D01*
X120234193Y-129601515D01*
X120209692Y-129579308D01*
X120187485Y-129554807D01*
X120167787Y-129528247D01*
X120150787Y-129499884D01*
X120136649Y-129469991D01*
X120125509Y-129438857D01*
X120117475Y-129406781D01*
X120112623Y-129374071D01*
X120111000Y-129341044D01*
X120111000Y-128214956D01*
X120112623Y-128181929D01*
X120117475Y-128149219D01*
X120125509Y-128117143D01*
X120136649Y-128086009D01*
X120150787Y-128056116D01*
X120167787Y-128027753D01*
X120187485Y-128001193D01*
X120209692Y-127976692D01*
X120234193Y-127954485D01*
X120260753Y-127934787D01*
X120289116Y-127917787D01*
X120319009Y-127903649D01*
X120350143Y-127892509D01*
X120382219Y-127884475D01*
X120414929Y-127879623D01*
X120447956Y-127878000D01*
X121324044Y-127878000D01*
X121357071Y-127879623D01*
X121357071Y-127879623D01*
G37*
D29*
X120886000Y-128778000D03*
G04 #@! TD*
D27*
G04 #@! TO.C,R12*
G36*
X137796071Y-129651623D02*
X137828781Y-129656475D01*
X137860857Y-129664509D01*
X137891991Y-129675649D01*
X137921884Y-129689787D01*
X137950247Y-129706787D01*
X137976807Y-129726485D01*
X138001308Y-129748692D01*
X138023515Y-129773193D01*
X138043213Y-129799753D01*
X138060213Y-129828116D01*
X138074351Y-129858009D01*
X138085491Y-129889143D01*
X138093525Y-129921219D01*
X138098377Y-129953929D01*
X138100000Y-129986956D01*
X138100000Y-130863044D01*
X138098377Y-130896071D01*
X138093525Y-130928781D01*
X138085491Y-130960857D01*
X138074351Y-130991991D01*
X138060213Y-131021884D01*
X138043213Y-131050247D01*
X138023515Y-131076807D01*
X138001308Y-131101308D01*
X137976807Y-131123515D01*
X137950247Y-131143213D01*
X137921884Y-131160213D01*
X137891991Y-131174351D01*
X137860857Y-131185491D01*
X137828781Y-131193525D01*
X137796071Y-131198377D01*
X137763044Y-131200000D01*
X136636956Y-131200000D01*
X136603929Y-131198377D01*
X136571219Y-131193525D01*
X136539143Y-131185491D01*
X136508009Y-131174351D01*
X136478116Y-131160213D01*
X136449753Y-131143213D01*
X136423193Y-131123515D01*
X136398692Y-131101308D01*
X136376485Y-131076807D01*
X136356787Y-131050247D01*
X136339787Y-131021884D01*
X136325649Y-130991991D01*
X136314509Y-130960857D01*
X136306475Y-130928781D01*
X136301623Y-130896071D01*
X136300000Y-130863044D01*
X136300000Y-129986956D01*
X136301623Y-129953929D01*
X136306475Y-129921219D01*
X136314509Y-129889143D01*
X136325649Y-129858009D01*
X136339787Y-129828116D01*
X136356787Y-129799753D01*
X136376485Y-129773193D01*
X136398692Y-129748692D01*
X136423193Y-129726485D01*
X136449753Y-129706787D01*
X136478116Y-129689787D01*
X136508009Y-129675649D01*
X136539143Y-129664509D01*
X136571219Y-129656475D01*
X136603929Y-129651623D01*
X136636956Y-129650000D01*
X137763044Y-129650000D01*
X137796071Y-129651623D01*
X137796071Y-129651623D01*
G37*
D29*
X137200000Y-130425000D03*
D27*
G36*
X137796071Y-127601623D02*
X137828781Y-127606475D01*
X137860857Y-127614509D01*
X137891991Y-127625649D01*
X137921884Y-127639787D01*
X137950247Y-127656787D01*
X137976807Y-127676485D01*
X138001308Y-127698692D01*
X138023515Y-127723193D01*
X138043213Y-127749753D01*
X138060213Y-127778116D01*
X138074351Y-127808009D01*
X138085491Y-127839143D01*
X138093525Y-127871219D01*
X138098377Y-127903929D01*
X138100000Y-127936956D01*
X138100000Y-128813044D01*
X138098377Y-128846071D01*
X138093525Y-128878781D01*
X138085491Y-128910857D01*
X138074351Y-128941991D01*
X138060213Y-128971884D01*
X138043213Y-129000247D01*
X138023515Y-129026807D01*
X138001308Y-129051308D01*
X137976807Y-129073515D01*
X137950247Y-129093213D01*
X137921884Y-129110213D01*
X137891991Y-129124351D01*
X137860857Y-129135491D01*
X137828781Y-129143525D01*
X137796071Y-129148377D01*
X137763044Y-129150000D01*
X136636956Y-129150000D01*
X136603929Y-129148377D01*
X136571219Y-129143525D01*
X136539143Y-129135491D01*
X136508009Y-129124351D01*
X136478116Y-129110213D01*
X136449753Y-129093213D01*
X136423193Y-129073515D01*
X136398692Y-129051308D01*
X136376485Y-129026807D01*
X136356787Y-129000247D01*
X136339787Y-128971884D01*
X136325649Y-128941991D01*
X136314509Y-128910857D01*
X136306475Y-128878781D01*
X136301623Y-128846071D01*
X136300000Y-128813044D01*
X136300000Y-127936956D01*
X136301623Y-127903929D01*
X136306475Y-127871219D01*
X136314509Y-127839143D01*
X136325649Y-127808009D01*
X136339787Y-127778116D01*
X136356787Y-127749753D01*
X136376485Y-127723193D01*
X136398692Y-127698692D01*
X136423193Y-127676485D01*
X136449753Y-127656787D01*
X136478116Y-127639787D01*
X136508009Y-127625649D01*
X136539143Y-127614509D01*
X136571219Y-127606475D01*
X136603929Y-127601623D01*
X136636956Y-127600000D01*
X137763044Y-127600000D01*
X137796071Y-127601623D01*
X137796071Y-127601623D01*
G37*
D29*
X137200000Y-128375000D03*
G04 #@! TD*
D27*
G04 #@! TO.C,R13*
G36*
X146471071Y-98201623D02*
X146503781Y-98206475D01*
X146535857Y-98214509D01*
X146566991Y-98225649D01*
X146596884Y-98239787D01*
X146625247Y-98256787D01*
X146651807Y-98276485D01*
X146676308Y-98298692D01*
X146698515Y-98323193D01*
X146718213Y-98349753D01*
X146735213Y-98378116D01*
X146749351Y-98408009D01*
X146760491Y-98439143D01*
X146768525Y-98471219D01*
X146773377Y-98503929D01*
X146775000Y-98536956D01*
X146775000Y-99663044D01*
X146773377Y-99696071D01*
X146768525Y-99728781D01*
X146760491Y-99760857D01*
X146749351Y-99791991D01*
X146735213Y-99821884D01*
X146718213Y-99850247D01*
X146698515Y-99876807D01*
X146676308Y-99901308D01*
X146651807Y-99923515D01*
X146625247Y-99943213D01*
X146596884Y-99960213D01*
X146566991Y-99974351D01*
X146535857Y-99985491D01*
X146503781Y-99993525D01*
X146471071Y-99998377D01*
X146438044Y-100000000D01*
X145561956Y-100000000D01*
X145528929Y-99998377D01*
X145496219Y-99993525D01*
X145464143Y-99985491D01*
X145433009Y-99974351D01*
X145403116Y-99960213D01*
X145374753Y-99943213D01*
X145348193Y-99923515D01*
X145323692Y-99901308D01*
X145301485Y-99876807D01*
X145281787Y-99850247D01*
X145264787Y-99821884D01*
X145250649Y-99791991D01*
X145239509Y-99760857D01*
X145231475Y-99728781D01*
X145226623Y-99696071D01*
X145225000Y-99663044D01*
X145225000Y-98536956D01*
X145226623Y-98503929D01*
X145231475Y-98471219D01*
X145239509Y-98439143D01*
X145250649Y-98408009D01*
X145264787Y-98378116D01*
X145281787Y-98349753D01*
X145301485Y-98323193D01*
X145323692Y-98298692D01*
X145348193Y-98276485D01*
X145374753Y-98256787D01*
X145403116Y-98239787D01*
X145433009Y-98225649D01*
X145464143Y-98214509D01*
X145496219Y-98206475D01*
X145528929Y-98201623D01*
X145561956Y-98200000D01*
X146438044Y-98200000D01*
X146471071Y-98201623D01*
X146471071Y-98201623D01*
G37*
D29*
X146000000Y-99100000D03*
D27*
G36*
X148521071Y-98201623D02*
X148553781Y-98206475D01*
X148585857Y-98214509D01*
X148616991Y-98225649D01*
X148646884Y-98239787D01*
X148675247Y-98256787D01*
X148701807Y-98276485D01*
X148726308Y-98298692D01*
X148748515Y-98323193D01*
X148768213Y-98349753D01*
X148785213Y-98378116D01*
X148799351Y-98408009D01*
X148810491Y-98439143D01*
X148818525Y-98471219D01*
X148823377Y-98503929D01*
X148825000Y-98536956D01*
X148825000Y-99663044D01*
X148823377Y-99696071D01*
X148818525Y-99728781D01*
X148810491Y-99760857D01*
X148799351Y-99791991D01*
X148785213Y-99821884D01*
X148768213Y-99850247D01*
X148748515Y-99876807D01*
X148726308Y-99901308D01*
X148701807Y-99923515D01*
X148675247Y-99943213D01*
X148646884Y-99960213D01*
X148616991Y-99974351D01*
X148585857Y-99985491D01*
X148553781Y-99993525D01*
X148521071Y-99998377D01*
X148488044Y-100000000D01*
X147611956Y-100000000D01*
X147578929Y-99998377D01*
X147546219Y-99993525D01*
X147514143Y-99985491D01*
X147483009Y-99974351D01*
X147453116Y-99960213D01*
X147424753Y-99943213D01*
X147398193Y-99923515D01*
X147373692Y-99901308D01*
X147351485Y-99876807D01*
X147331787Y-99850247D01*
X147314787Y-99821884D01*
X147300649Y-99791991D01*
X147289509Y-99760857D01*
X147281475Y-99728781D01*
X147276623Y-99696071D01*
X147275000Y-99663044D01*
X147275000Y-98536956D01*
X147276623Y-98503929D01*
X147281475Y-98471219D01*
X147289509Y-98439143D01*
X147300649Y-98408009D01*
X147314787Y-98378116D01*
X147331787Y-98349753D01*
X147351485Y-98323193D01*
X147373692Y-98298692D01*
X147398193Y-98276485D01*
X147424753Y-98256787D01*
X147453116Y-98239787D01*
X147483009Y-98225649D01*
X147514143Y-98214509D01*
X147546219Y-98206475D01*
X147578929Y-98201623D01*
X147611956Y-98200000D01*
X148488044Y-98200000D01*
X148521071Y-98201623D01*
X148521071Y-98201623D01*
G37*
D29*
X148050000Y-99100000D03*
G04 #@! TD*
D27*
G04 #@! TO.C,R14*
G36*
X135196071Y-129576623D02*
X135228781Y-129581475D01*
X135260857Y-129589509D01*
X135291991Y-129600649D01*
X135321884Y-129614787D01*
X135350247Y-129631787D01*
X135376807Y-129651485D01*
X135401308Y-129673692D01*
X135423515Y-129698193D01*
X135443213Y-129724753D01*
X135460213Y-129753116D01*
X135474351Y-129783009D01*
X135485491Y-129814143D01*
X135493525Y-129846219D01*
X135498377Y-129878929D01*
X135500000Y-129911956D01*
X135500000Y-130788044D01*
X135498377Y-130821071D01*
X135493525Y-130853781D01*
X135485491Y-130885857D01*
X135474351Y-130916991D01*
X135460213Y-130946884D01*
X135443213Y-130975247D01*
X135423515Y-131001807D01*
X135401308Y-131026308D01*
X135376807Y-131048515D01*
X135350247Y-131068213D01*
X135321884Y-131085213D01*
X135291991Y-131099351D01*
X135260857Y-131110491D01*
X135228781Y-131118525D01*
X135196071Y-131123377D01*
X135163044Y-131125000D01*
X134036956Y-131125000D01*
X134003929Y-131123377D01*
X133971219Y-131118525D01*
X133939143Y-131110491D01*
X133908009Y-131099351D01*
X133878116Y-131085213D01*
X133849753Y-131068213D01*
X133823193Y-131048515D01*
X133798692Y-131026308D01*
X133776485Y-131001807D01*
X133756787Y-130975247D01*
X133739787Y-130946884D01*
X133725649Y-130916991D01*
X133714509Y-130885857D01*
X133706475Y-130853781D01*
X133701623Y-130821071D01*
X133700000Y-130788044D01*
X133700000Y-129911956D01*
X133701623Y-129878929D01*
X133706475Y-129846219D01*
X133714509Y-129814143D01*
X133725649Y-129783009D01*
X133739787Y-129753116D01*
X133756787Y-129724753D01*
X133776485Y-129698193D01*
X133798692Y-129673692D01*
X133823193Y-129651485D01*
X133849753Y-129631787D01*
X133878116Y-129614787D01*
X133908009Y-129600649D01*
X133939143Y-129589509D01*
X133971219Y-129581475D01*
X134003929Y-129576623D01*
X134036956Y-129575000D01*
X135163044Y-129575000D01*
X135196071Y-129576623D01*
X135196071Y-129576623D01*
G37*
D29*
X134600000Y-130350000D03*
D27*
G36*
X135196071Y-127526623D02*
X135228781Y-127531475D01*
X135260857Y-127539509D01*
X135291991Y-127550649D01*
X135321884Y-127564787D01*
X135350247Y-127581787D01*
X135376807Y-127601485D01*
X135401308Y-127623692D01*
X135423515Y-127648193D01*
X135443213Y-127674753D01*
X135460213Y-127703116D01*
X135474351Y-127733009D01*
X135485491Y-127764143D01*
X135493525Y-127796219D01*
X135498377Y-127828929D01*
X135500000Y-127861956D01*
X135500000Y-128738044D01*
X135498377Y-128771071D01*
X135493525Y-128803781D01*
X135485491Y-128835857D01*
X135474351Y-128866991D01*
X135460213Y-128896884D01*
X135443213Y-128925247D01*
X135423515Y-128951807D01*
X135401308Y-128976308D01*
X135376807Y-128998515D01*
X135350247Y-129018213D01*
X135321884Y-129035213D01*
X135291991Y-129049351D01*
X135260857Y-129060491D01*
X135228781Y-129068525D01*
X135196071Y-129073377D01*
X135163044Y-129075000D01*
X134036956Y-129075000D01*
X134003929Y-129073377D01*
X133971219Y-129068525D01*
X133939143Y-129060491D01*
X133908009Y-129049351D01*
X133878116Y-129035213D01*
X133849753Y-129018213D01*
X133823193Y-128998515D01*
X133798692Y-128976308D01*
X133776485Y-128951807D01*
X133756787Y-128925247D01*
X133739787Y-128896884D01*
X133725649Y-128866991D01*
X133714509Y-128835857D01*
X133706475Y-128803781D01*
X133701623Y-128771071D01*
X133700000Y-128738044D01*
X133700000Y-127861956D01*
X133701623Y-127828929D01*
X133706475Y-127796219D01*
X133714509Y-127764143D01*
X133725649Y-127733009D01*
X133739787Y-127703116D01*
X133756787Y-127674753D01*
X133776485Y-127648193D01*
X133798692Y-127623692D01*
X133823193Y-127601485D01*
X133849753Y-127581787D01*
X133878116Y-127564787D01*
X133908009Y-127550649D01*
X133939143Y-127539509D01*
X133971219Y-127531475D01*
X134003929Y-127526623D01*
X134036956Y-127525000D01*
X135163044Y-127525000D01*
X135196071Y-127526623D01*
X135196071Y-127526623D01*
G37*
D29*
X134600000Y-128300000D03*
G04 #@! TD*
D27*
G04 #@! TO.C,R18*
G36*
X185471071Y-114601623D02*
X185503781Y-114606475D01*
X185535857Y-114614509D01*
X185566991Y-114625649D01*
X185596884Y-114639787D01*
X185625247Y-114656787D01*
X185651807Y-114676485D01*
X185676308Y-114698692D01*
X185698515Y-114723193D01*
X185718213Y-114749753D01*
X185735213Y-114778116D01*
X185749351Y-114808009D01*
X185760491Y-114839143D01*
X185768525Y-114871219D01*
X185773377Y-114903929D01*
X185775000Y-114936956D01*
X185775000Y-116063044D01*
X185773377Y-116096071D01*
X185768525Y-116128781D01*
X185760491Y-116160857D01*
X185749351Y-116191991D01*
X185735213Y-116221884D01*
X185718213Y-116250247D01*
X185698515Y-116276807D01*
X185676308Y-116301308D01*
X185651807Y-116323515D01*
X185625247Y-116343213D01*
X185596884Y-116360213D01*
X185566991Y-116374351D01*
X185535857Y-116385491D01*
X185503781Y-116393525D01*
X185471071Y-116398377D01*
X185438044Y-116400000D01*
X184561956Y-116400000D01*
X184528929Y-116398377D01*
X184496219Y-116393525D01*
X184464143Y-116385491D01*
X184433009Y-116374351D01*
X184403116Y-116360213D01*
X184374753Y-116343213D01*
X184348193Y-116323515D01*
X184323692Y-116301308D01*
X184301485Y-116276807D01*
X184281787Y-116250247D01*
X184264787Y-116221884D01*
X184250649Y-116191991D01*
X184239509Y-116160857D01*
X184231475Y-116128781D01*
X184226623Y-116096071D01*
X184225000Y-116063044D01*
X184225000Y-114936956D01*
X184226623Y-114903929D01*
X184231475Y-114871219D01*
X184239509Y-114839143D01*
X184250649Y-114808009D01*
X184264787Y-114778116D01*
X184281787Y-114749753D01*
X184301485Y-114723193D01*
X184323692Y-114698692D01*
X184348193Y-114676485D01*
X184374753Y-114656787D01*
X184403116Y-114639787D01*
X184433009Y-114625649D01*
X184464143Y-114614509D01*
X184496219Y-114606475D01*
X184528929Y-114601623D01*
X184561956Y-114600000D01*
X185438044Y-114600000D01*
X185471071Y-114601623D01*
X185471071Y-114601623D01*
G37*
D29*
X185000000Y-115500000D03*
D27*
G36*
X187521071Y-114601623D02*
X187553781Y-114606475D01*
X187585857Y-114614509D01*
X187616991Y-114625649D01*
X187646884Y-114639787D01*
X187675247Y-114656787D01*
X187701807Y-114676485D01*
X187726308Y-114698692D01*
X187748515Y-114723193D01*
X187768213Y-114749753D01*
X187785213Y-114778116D01*
X187799351Y-114808009D01*
X187810491Y-114839143D01*
X187818525Y-114871219D01*
X187823377Y-114903929D01*
X187825000Y-114936956D01*
X187825000Y-116063044D01*
X187823377Y-116096071D01*
X187818525Y-116128781D01*
X187810491Y-116160857D01*
X187799351Y-116191991D01*
X187785213Y-116221884D01*
X187768213Y-116250247D01*
X187748515Y-116276807D01*
X187726308Y-116301308D01*
X187701807Y-116323515D01*
X187675247Y-116343213D01*
X187646884Y-116360213D01*
X187616991Y-116374351D01*
X187585857Y-116385491D01*
X187553781Y-116393525D01*
X187521071Y-116398377D01*
X187488044Y-116400000D01*
X186611956Y-116400000D01*
X186578929Y-116398377D01*
X186546219Y-116393525D01*
X186514143Y-116385491D01*
X186483009Y-116374351D01*
X186453116Y-116360213D01*
X186424753Y-116343213D01*
X186398193Y-116323515D01*
X186373692Y-116301308D01*
X186351485Y-116276807D01*
X186331787Y-116250247D01*
X186314787Y-116221884D01*
X186300649Y-116191991D01*
X186289509Y-116160857D01*
X186281475Y-116128781D01*
X186276623Y-116096071D01*
X186275000Y-116063044D01*
X186275000Y-114936956D01*
X186276623Y-114903929D01*
X186281475Y-114871219D01*
X186289509Y-114839143D01*
X186300649Y-114808009D01*
X186314787Y-114778116D01*
X186331787Y-114749753D01*
X186351485Y-114723193D01*
X186373692Y-114698692D01*
X186398193Y-114676485D01*
X186424753Y-114656787D01*
X186453116Y-114639787D01*
X186483009Y-114625649D01*
X186514143Y-114614509D01*
X186546219Y-114606475D01*
X186578929Y-114601623D01*
X186611956Y-114600000D01*
X187488044Y-114600000D01*
X187521071Y-114601623D01*
X187521071Y-114601623D01*
G37*
D29*
X187050000Y-115500000D03*
G04 #@! TD*
D27*
G04 #@! TO.C,C15*
G36*
X146920581Y-108826625D02*
X146953343Y-108831485D01*
X146985471Y-108839533D01*
X147016656Y-108850691D01*
X147046596Y-108864852D01*
X147075005Y-108881879D01*
X147101608Y-108901609D01*
X147126149Y-108923851D01*
X147148391Y-108948392D01*
X147168121Y-108974995D01*
X147185148Y-109003404D01*
X147199309Y-109033344D01*
X147210467Y-109064529D01*
X147218515Y-109096657D01*
X147223375Y-109129419D01*
X147225000Y-109162500D01*
X147225000Y-109837500D01*
X147223375Y-109870581D01*
X147218515Y-109903343D01*
X147210467Y-109935471D01*
X147199309Y-109966656D01*
X147185148Y-109996596D01*
X147168121Y-110025005D01*
X147148391Y-110051608D01*
X147126149Y-110076149D01*
X147101608Y-110098391D01*
X147075005Y-110118121D01*
X147046596Y-110135148D01*
X147016656Y-110149309D01*
X146985471Y-110160467D01*
X146953343Y-110168515D01*
X146920581Y-110173375D01*
X146887500Y-110175000D01*
X146112500Y-110175000D01*
X146079419Y-110173375D01*
X146046657Y-110168515D01*
X146014529Y-110160467D01*
X145983344Y-110149309D01*
X145953404Y-110135148D01*
X145924995Y-110118121D01*
X145898392Y-110098391D01*
X145873851Y-110076149D01*
X145851609Y-110051608D01*
X145831879Y-110025005D01*
X145814852Y-109996596D01*
X145800691Y-109966656D01*
X145789533Y-109935471D01*
X145781485Y-109903343D01*
X145776625Y-109870581D01*
X145775000Y-109837500D01*
X145775000Y-109162500D01*
X145776625Y-109129419D01*
X145781485Y-109096657D01*
X145789533Y-109064529D01*
X145800691Y-109033344D01*
X145814852Y-109003404D01*
X145831879Y-108974995D01*
X145851609Y-108948392D01*
X145873851Y-108923851D01*
X145898392Y-108901609D01*
X145924995Y-108881879D01*
X145953404Y-108864852D01*
X145983344Y-108850691D01*
X146014529Y-108839533D01*
X146046657Y-108831485D01*
X146079419Y-108826625D01*
X146112500Y-108825000D01*
X146887500Y-108825000D01*
X146920581Y-108826625D01*
X146920581Y-108826625D01*
G37*
D28*
X146500000Y-109500000D03*
D27*
G36*
X145170581Y-108826625D02*
X145203343Y-108831485D01*
X145235471Y-108839533D01*
X145266656Y-108850691D01*
X145296596Y-108864852D01*
X145325005Y-108881879D01*
X145351608Y-108901609D01*
X145376149Y-108923851D01*
X145398391Y-108948392D01*
X145418121Y-108974995D01*
X145435148Y-109003404D01*
X145449309Y-109033344D01*
X145460467Y-109064529D01*
X145468515Y-109096657D01*
X145473375Y-109129419D01*
X145475000Y-109162500D01*
X145475000Y-109837500D01*
X145473375Y-109870581D01*
X145468515Y-109903343D01*
X145460467Y-109935471D01*
X145449309Y-109966656D01*
X145435148Y-109996596D01*
X145418121Y-110025005D01*
X145398391Y-110051608D01*
X145376149Y-110076149D01*
X145351608Y-110098391D01*
X145325005Y-110118121D01*
X145296596Y-110135148D01*
X145266656Y-110149309D01*
X145235471Y-110160467D01*
X145203343Y-110168515D01*
X145170581Y-110173375D01*
X145137500Y-110175000D01*
X144362500Y-110175000D01*
X144329419Y-110173375D01*
X144296657Y-110168515D01*
X144264529Y-110160467D01*
X144233344Y-110149309D01*
X144203404Y-110135148D01*
X144174995Y-110118121D01*
X144148392Y-110098391D01*
X144123851Y-110076149D01*
X144101609Y-110051608D01*
X144081879Y-110025005D01*
X144064852Y-109996596D01*
X144050691Y-109966656D01*
X144039533Y-109935471D01*
X144031485Y-109903343D01*
X144026625Y-109870581D01*
X144025000Y-109837500D01*
X144025000Y-109162500D01*
X144026625Y-109129419D01*
X144031485Y-109096657D01*
X144039533Y-109064529D01*
X144050691Y-109033344D01*
X144064852Y-109003404D01*
X144081879Y-108974995D01*
X144101609Y-108948392D01*
X144123851Y-108923851D01*
X144148392Y-108901609D01*
X144174995Y-108881879D01*
X144203404Y-108864852D01*
X144233344Y-108850691D01*
X144264529Y-108839533D01*
X144296657Y-108831485D01*
X144329419Y-108826625D01*
X144362500Y-108825000D01*
X145137500Y-108825000D01*
X145170581Y-108826625D01*
X145170581Y-108826625D01*
G37*
D28*
X144750000Y-109500000D03*
G04 #@! TD*
D30*
G04 #@! TO.C,SW1*
X161450000Y-136500000D03*
X158050000Y-136500000D03*
G04 #@! TD*
G04 #@! TO.C,SW2*
X164250000Y-136500000D03*
X167650000Y-136500000D03*
G04 #@! TD*
G04 #@! TO.C,SW3*
X134700000Y-136500000D03*
X131300000Y-136500000D03*
G04 #@! TD*
G04 #@! TO.C,SW4*
X138300000Y-136500000D03*
X141700000Y-136500000D03*
G04 #@! TD*
D24*
G04 #@! TO.C,LS1*
X121920000Y-123190000D03*
D25*
X121920000Y-125730000D03*
G04 #@! TD*
D24*
G04 #@! TO.C,J6*
X106250000Y-91330000D03*
D25*
X106250000Y-88790000D03*
X106250000Y-86250000D03*
G04 #@! TD*
D27*
G04 #@! TO.C,C16*
G36*
X125084581Y-135926625D02*
X125117343Y-135931485D01*
X125149471Y-135939533D01*
X125180656Y-135950691D01*
X125210596Y-135964852D01*
X125239005Y-135981879D01*
X125265608Y-136001609D01*
X125290149Y-136023851D01*
X125312391Y-136048392D01*
X125332121Y-136074995D01*
X125349148Y-136103404D01*
X125363309Y-136133344D01*
X125374467Y-136164529D01*
X125382515Y-136196657D01*
X125387375Y-136229419D01*
X125389000Y-136262500D01*
X125389000Y-137037500D01*
X125387375Y-137070581D01*
X125382515Y-137103343D01*
X125374467Y-137135471D01*
X125363309Y-137166656D01*
X125349148Y-137196596D01*
X125332121Y-137225005D01*
X125312391Y-137251608D01*
X125290149Y-137276149D01*
X125265608Y-137298391D01*
X125239005Y-137318121D01*
X125210596Y-137335148D01*
X125180656Y-137349309D01*
X125149471Y-137360467D01*
X125117343Y-137368515D01*
X125084581Y-137373375D01*
X125051500Y-137375000D01*
X124376500Y-137375000D01*
X124343419Y-137373375D01*
X124310657Y-137368515D01*
X124278529Y-137360467D01*
X124247344Y-137349309D01*
X124217404Y-137335148D01*
X124188995Y-137318121D01*
X124162392Y-137298391D01*
X124137851Y-137276149D01*
X124115609Y-137251608D01*
X124095879Y-137225005D01*
X124078852Y-137196596D01*
X124064691Y-137166656D01*
X124053533Y-137135471D01*
X124045485Y-137103343D01*
X124040625Y-137070581D01*
X124039000Y-137037500D01*
X124039000Y-136262500D01*
X124040625Y-136229419D01*
X124045485Y-136196657D01*
X124053533Y-136164529D01*
X124064691Y-136133344D01*
X124078852Y-136103404D01*
X124095879Y-136074995D01*
X124115609Y-136048392D01*
X124137851Y-136023851D01*
X124162392Y-136001609D01*
X124188995Y-135981879D01*
X124217404Y-135964852D01*
X124247344Y-135950691D01*
X124278529Y-135939533D01*
X124310657Y-135931485D01*
X124343419Y-135926625D01*
X124376500Y-135925000D01*
X125051500Y-135925000D01*
X125084581Y-135926625D01*
X125084581Y-135926625D01*
G37*
D28*
X124714000Y-136650000D03*
D27*
G36*
X125084581Y-137676625D02*
X125117343Y-137681485D01*
X125149471Y-137689533D01*
X125180656Y-137700691D01*
X125210596Y-137714852D01*
X125239005Y-137731879D01*
X125265608Y-137751609D01*
X125290149Y-137773851D01*
X125312391Y-137798392D01*
X125332121Y-137824995D01*
X125349148Y-137853404D01*
X125363309Y-137883344D01*
X125374467Y-137914529D01*
X125382515Y-137946657D01*
X125387375Y-137979419D01*
X125389000Y-138012500D01*
X125389000Y-138787500D01*
X125387375Y-138820581D01*
X125382515Y-138853343D01*
X125374467Y-138885471D01*
X125363309Y-138916656D01*
X125349148Y-138946596D01*
X125332121Y-138975005D01*
X125312391Y-139001608D01*
X125290149Y-139026149D01*
X125265608Y-139048391D01*
X125239005Y-139068121D01*
X125210596Y-139085148D01*
X125180656Y-139099309D01*
X125149471Y-139110467D01*
X125117343Y-139118515D01*
X125084581Y-139123375D01*
X125051500Y-139125000D01*
X124376500Y-139125000D01*
X124343419Y-139123375D01*
X124310657Y-139118515D01*
X124278529Y-139110467D01*
X124247344Y-139099309D01*
X124217404Y-139085148D01*
X124188995Y-139068121D01*
X124162392Y-139048391D01*
X124137851Y-139026149D01*
X124115609Y-139001608D01*
X124095879Y-138975005D01*
X124078852Y-138946596D01*
X124064691Y-138916656D01*
X124053533Y-138885471D01*
X124045485Y-138853343D01*
X124040625Y-138820581D01*
X124039000Y-138787500D01*
X124039000Y-138012500D01*
X124040625Y-137979419D01*
X124045485Y-137946657D01*
X124053533Y-137914529D01*
X124064691Y-137883344D01*
X124078852Y-137853404D01*
X124095879Y-137824995D01*
X124115609Y-137798392D01*
X124137851Y-137773851D01*
X124162392Y-137751609D01*
X124188995Y-137731879D01*
X124217404Y-137714852D01*
X124247344Y-137700691D01*
X124278529Y-137689533D01*
X124310657Y-137681485D01*
X124343419Y-137676625D01*
X124376500Y-137675000D01*
X125051500Y-137675000D01*
X125084581Y-137676625D01*
X125084581Y-137676625D01*
G37*
D28*
X124714000Y-138400000D03*
G04 #@! TD*
D27*
G04 #@! TO.C,C17*
G36*
X120723372Y-90999525D02*
X120754112Y-91004085D01*
X120784257Y-91011636D01*
X120813516Y-91022105D01*
X120841609Y-91035392D01*
X120868264Y-91051368D01*
X120893224Y-91069880D01*
X120916250Y-91090750D01*
X120937120Y-91113776D01*
X120955632Y-91138736D01*
X120971608Y-91165391D01*
X120984895Y-91193484D01*
X120995364Y-91222743D01*
X121002915Y-91252888D01*
X121007475Y-91283628D01*
X121009000Y-91314667D01*
X121009000Y-92581333D01*
X121007475Y-92612372D01*
X121002915Y-92643112D01*
X120995364Y-92673257D01*
X120984895Y-92702516D01*
X120971608Y-92730609D01*
X120955632Y-92757264D01*
X120937120Y-92782224D01*
X120916250Y-92805250D01*
X120893224Y-92826120D01*
X120868264Y-92844632D01*
X120841609Y-92860608D01*
X120813516Y-92873895D01*
X120784257Y-92884364D01*
X120754112Y-92891915D01*
X120723372Y-92896475D01*
X120692333Y-92898000D01*
X118575667Y-92898000D01*
X118544628Y-92896475D01*
X118513888Y-92891915D01*
X118483743Y-92884364D01*
X118454484Y-92873895D01*
X118426391Y-92860608D01*
X118399736Y-92844632D01*
X118374776Y-92826120D01*
X118351750Y-92805250D01*
X118330880Y-92782224D01*
X118312368Y-92757264D01*
X118296392Y-92730609D01*
X118283105Y-92702516D01*
X118272636Y-92673257D01*
X118265085Y-92643112D01*
X118260525Y-92612372D01*
X118259000Y-92581333D01*
X118259000Y-91314667D01*
X118260525Y-91283628D01*
X118265085Y-91252888D01*
X118272636Y-91222743D01*
X118283105Y-91193484D01*
X118296392Y-91165391D01*
X118312368Y-91138736D01*
X118330880Y-91113776D01*
X118351750Y-91090750D01*
X118374776Y-91069880D01*
X118399736Y-91051368D01*
X118426391Y-91035392D01*
X118454484Y-91022105D01*
X118483743Y-91011636D01*
X118513888Y-91004085D01*
X118544628Y-90999525D01*
X118575667Y-90998000D01*
X120692333Y-90998000D01*
X120723372Y-90999525D01*
X120723372Y-90999525D01*
G37*
D11*
X119634000Y-91948000D03*
D27*
G36*
X120723372Y-87749525D02*
X120754112Y-87754085D01*
X120784257Y-87761636D01*
X120813516Y-87772105D01*
X120841609Y-87785392D01*
X120868264Y-87801368D01*
X120893224Y-87819880D01*
X120916250Y-87840750D01*
X120937120Y-87863776D01*
X120955632Y-87888736D01*
X120971608Y-87915391D01*
X120984895Y-87943484D01*
X120995364Y-87972743D01*
X121002915Y-88002888D01*
X121007475Y-88033628D01*
X121009000Y-88064667D01*
X121009000Y-89331333D01*
X121007475Y-89362372D01*
X121002915Y-89393112D01*
X120995364Y-89423257D01*
X120984895Y-89452516D01*
X120971608Y-89480609D01*
X120955632Y-89507264D01*
X120937120Y-89532224D01*
X120916250Y-89555250D01*
X120893224Y-89576120D01*
X120868264Y-89594632D01*
X120841609Y-89610608D01*
X120813516Y-89623895D01*
X120784257Y-89634364D01*
X120754112Y-89641915D01*
X120723372Y-89646475D01*
X120692333Y-89648000D01*
X118575667Y-89648000D01*
X118544628Y-89646475D01*
X118513888Y-89641915D01*
X118483743Y-89634364D01*
X118454484Y-89623895D01*
X118426391Y-89610608D01*
X118399736Y-89594632D01*
X118374776Y-89576120D01*
X118351750Y-89555250D01*
X118330880Y-89532224D01*
X118312368Y-89507264D01*
X118296392Y-89480609D01*
X118283105Y-89452516D01*
X118272636Y-89423257D01*
X118265085Y-89393112D01*
X118260525Y-89362372D01*
X118259000Y-89331333D01*
X118259000Y-88064667D01*
X118260525Y-88033628D01*
X118265085Y-88002888D01*
X118272636Y-87972743D01*
X118283105Y-87943484D01*
X118296392Y-87915391D01*
X118312368Y-87888736D01*
X118330880Y-87863776D01*
X118351750Y-87840750D01*
X118374776Y-87819880D01*
X118399736Y-87801368D01*
X118426391Y-87785392D01*
X118454484Y-87772105D01*
X118483743Y-87761636D01*
X118513888Y-87754085D01*
X118544628Y-87749525D01*
X118575667Y-87748000D01*
X120692333Y-87748000D01*
X120723372Y-87749525D01*
X120723372Y-87749525D01*
G37*
D11*
X119634000Y-88698000D03*
G04 #@! TD*
D27*
G04 #@! TO.C,C1*
G36*
X146436207Y-74301542D02*
X146467287Y-74306152D01*
X146497766Y-74313787D01*
X146527350Y-74324372D01*
X146555754Y-74337806D01*
X146582704Y-74353959D01*
X146607942Y-74372677D01*
X146631223Y-74393777D01*
X146652323Y-74417058D01*
X146671041Y-74442296D01*
X146687194Y-74469246D01*
X146700628Y-74497650D01*
X146711213Y-74527234D01*
X146718848Y-74557713D01*
X146723458Y-74588793D01*
X146725000Y-74620176D01*
X146725000Y-75804824D01*
X146723458Y-75836207D01*
X146718848Y-75867287D01*
X146711213Y-75897766D01*
X146700628Y-75927350D01*
X146687194Y-75955754D01*
X146671041Y-75982704D01*
X146652323Y-76007942D01*
X146631223Y-76031223D01*
X146607942Y-76052323D01*
X146582704Y-76071041D01*
X146555754Y-76087194D01*
X146527350Y-76100628D01*
X146497766Y-76111213D01*
X146467287Y-76118848D01*
X146436207Y-76123458D01*
X146404824Y-76125000D01*
X143995176Y-76125000D01*
X143963793Y-76123458D01*
X143932713Y-76118848D01*
X143902234Y-76111213D01*
X143872650Y-76100628D01*
X143844246Y-76087194D01*
X143817296Y-76071041D01*
X143792058Y-76052323D01*
X143768777Y-76031223D01*
X143747677Y-76007942D01*
X143728959Y-75982704D01*
X143712806Y-75955754D01*
X143699372Y-75927350D01*
X143688787Y-75897766D01*
X143681152Y-75867287D01*
X143676542Y-75836207D01*
X143675000Y-75804824D01*
X143675000Y-74620176D01*
X143676542Y-74588793D01*
X143681152Y-74557713D01*
X143688787Y-74527234D01*
X143699372Y-74497650D01*
X143712806Y-74469246D01*
X143728959Y-74442296D01*
X143747677Y-74417058D01*
X143768777Y-74393777D01*
X143792058Y-74372677D01*
X143817296Y-74353959D01*
X143844246Y-74337806D01*
X143872650Y-74324372D01*
X143902234Y-74313787D01*
X143932713Y-74306152D01*
X143963793Y-74301542D01*
X143995176Y-74300000D01*
X146404824Y-74300000D01*
X146436207Y-74301542D01*
X146436207Y-74301542D01*
G37*
D31*
X145200000Y-75212500D03*
D27*
G36*
X146436207Y-77276542D02*
X146467287Y-77281152D01*
X146497766Y-77288787D01*
X146527350Y-77299372D01*
X146555754Y-77312806D01*
X146582704Y-77328959D01*
X146607942Y-77347677D01*
X146631223Y-77368777D01*
X146652323Y-77392058D01*
X146671041Y-77417296D01*
X146687194Y-77444246D01*
X146700628Y-77472650D01*
X146711213Y-77502234D01*
X146718848Y-77532713D01*
X146723458Y-77563793D01*
X146725000Y-77595176D01*
X146725000Y-78779824D01*
X146723458Y-78811207D01*
X146718848Y-78842287D01*
X146711213Y-78872766D01*
X146700628Y-78902350D01*
X146687194Y-78930754D01*
X146671041Y-78957704D01*
X146652323Y-78982942D01*
X146631223Y-79006223D01*
X146607942Y-79027323D01*
X146582704Y-79046041D01*
X146555754Y-79062194D01*
X146527350Y-79075628D01*
X146497766Y-79086213D01*
X146467287Y-79093848D01*
X146436207Y-79098458D01*
X146404824Y-79100000D01*
X143995176Y-79100000D01*
X143963793Y-79098458D01*
X143932713Y-79093848D01*
X143902234Y-79086213D01*
X143872650Y-79075628D01*
X143844246Y-79062194D01*
X143817296Y-79046041D01*
X143792058Y-79027323D01*
X143768777Y-79006223D01*
X143747677Y-78982942D01*
X143728959Y-78957704D01*
X143712806Y-78930754D01*
X143699372Y-78902350D01*
X143688787Y-78872766D01*
X143681152Y-78842287D01*
X143676542Y-78811207D01*
X143675000Y-78779824D01*
X143675000Y-77595176D01*
X143676542Y-77563793D01*
X143681152Y-77532713D01*
X143688787Y-77502234D01*
X143699372Y-77472650D01*
X143712806Y-77444246D01*
X143728959Y-77417296D01*
X143747677Y-77392058D01*
X143768777Y-77368777D01*
X143792058Y-77347677D01*
X143817296Y-77328959D01*
X143844246Y-77312806D01*
X143872650Y-77299372D01*
X143902234Y-77288787D01*
X143932713Y-77281152D01*
X143963793Y-77276542D01*
X143995176Y-77275000D01*
X146404824Y-77275000D01*
X146436207Y-77276542D01*
X146436207Y-77276542D01*
G37*
D31*
X145200000Y-78187500D03*
G04 #@! TD*
M02*
