G04 #@! TF.GenerationSoftware,KiCad,Pcbnew,(5.0.0)*
G04 #@! TF.CreationDate,2018-08-09T10:22:05+01:00*
G04 #@! TF.ProjectId,domenode,646F6D656E6F64652E6B696361645F70,rev?*
G04 #@! TF.SameCoordinates,Original*
G04 #@! TF.FileFunction,Soldermask,Bot*
G04 #@! TF.FilePolarity,Negative*
%FSLAX46Y46*%
G04 Gerber Fmt 4.6, Leading zero omitted, Abs format (unit mm)*
G04 Created by KiCad (PCBNEW (5.0.0)) date 08/09/18 10:22:05*
%MOMM*%
%LPD*%
G01*
G04 APERTURE LIST*
%ADD10R,2.940000X1.924000*%
%ADD11R,1.900000X1.900000*%
%ADD12C,1.900000*%
%ADD13C,3.650000*%
%ADD14C,2.400000*%
%ADD15C,6.800000*%
%ADD16R,3.400000X2.400000*%
%ADD17O,2.900000X1.300000*%
%ADD18O,1.300000X2.900000*%
%ADD19R,6.400000X6.400000*%
%ADD20O,2.600000X2.600000*%
%ADD21R,2.600000X2.600000*%
%ADD22C,2.200000*%
%ADD23R,2.200000X2.200000*%
%ADD24C,2.000000*%
%ADD25R,2.100000X2.100000*%
%ADD26O,2.100000X2.100000*%
%ADD27C,0.100000*%
%ADD28C,1.350000*%
%ADD29C,1.550000*%
%ADD30R,1.200000X2.300000*%
G04 APERTURE END LIST*
D10*
G04 #@! TO.C,J19*
X147810000Y-90422000D03*
X131205000Y-90422000D03*
D11*
X144016000Y-87120000D03*
D12*
X141476000Y-87120000D03*
X138936000Y-87120000D03*
X136396000Y-87120000D03*
X142746000Y-84580000D03*
X140206000Y-84580000D03*
X137666000Y-84580000D03*
X135126000Y-84580000D03*
D13*
X133856000Y-93470000D03*
X145286000Y-93470000D03*
D14*
X147066000Y-96520000D03*
X132076000Y-96520000D03*
G04 #@! TD*
D10*
G04 #@! TO.C,J20*
X165594000Y-90422000D03*
X148989000Y-90422000D03*
D11*
X161800000Y-87120000D03*
D12*
X159260000Y-87120000D03*
X156720000Y-87120000D03*
X154180000Y-87120000D03*
X160530000Y-84580000D03*
X157990000Y-84580000D03*
X155450000Y-84580000D03*
X152910000Y-84580000D03*
D13*
X151640000Y-93470000D03*
X163070000Y-93470000D03*
D14*
X164850000Y-96520000D03*
X149860000Y-96520000D03*
G04 #@! TD*
D15*
G04 #@! TO.C,MH8*
X114000000Y-76000000D03*
G04 #@! TD*
D16*
G04 #@! TO.C,U1*
X137484000Y-81868000D03*
X137484000Y-72216000D03*
X120990000Y-72216000D03*
X120959000Y-81868000D03*
G04 #@! TD*
D17*
G04 #@! TO.C,U3*
X145250000Y-138200000D03*
X145250000Y-136930000D03*
X145250000Y-135660000D03*
X145250000Y-134390000D03*
X145250000Y-133120000D03*
X145250000Y-131850000D03*
X145250000Y-130580000D03*
X145250000Y-129310000D03*
X145250000Y-128040000D03*
X145250000Y-126770000D03*
X145250000Y-125500000D03*
X145250000Y-124230000D03*
X145250000Y-122960000D03*
X145250000Y-121690000D03*
D18*
X141965000Y-120200000D03*
X140695000Y-120200000D03*
X139425000Y-120200000D03*
X138155000Y-120200000D03*
X136885000Y-120200000D03*
X135615000Y-120200000D03*
X134345000Y-120200000D03*
X133075000Y-120200000D03*
X131805000Y-120200000D03*
X130535000Y-120200000D03*
D17*
X127250000Y-121690000D03*
X127250000Y-122960000D03*
X127250000Y-124230000D03*
X127250000Y-125500000D03*
X127250000Y-126770000D03*
X127250000Y-128040000D03*
X127250000Y-129310000D03*
X127250000Y-130580000D03*
X127250000Y-131850000D03*
X127250000Y-133120000D03*
X127250000Y-134390000D03*
X127250000Y-135660000D03*
X127250000Y-136930000D03*
X127250000Y-138200000D03*
D19*
X135950000Y-130500000D03*
G04 #@! TD*
D20*
G04 #@! TO.C,D10*
X141224000Y-80645000D03*
D21*
X141224000Y-73025000D03*
G04 #@! TD*
D15*
G04 #@! TO.C,MH6*
X114000000Y-134000000D03*
G04 #@! TD*
D22*
G04 #@! TO.C,D13*
X159250000Y-124240000D03*
D23*
X159250000Y-121700000D03*
G04 #@! TD*
D24*
G04 #@! TO.C,LDR1*
X144000000Y-112750000D03*
X147000000Y-112750000D03*
G04 #@! TD*
G04 #@! TO.C,LDR2*
X153000000Y-112750000D03*
X150000000Y-112750000D03*
G04 #@! TD*
D25*
G04 #@! TO.C,J9*
X119500000Y-132500000D03*
D26*
X122040000Y-132500000D03*
X119500000Y-135040000D03*
X122040000Y-135040000D03*
X119500000Y-137580000D03*
X122040000Y-137580000D03*
G04 #@! TD*
G04 #@! TO.C,J11*
X109670000Y-113540000D03*
X109670000Y-111000000D03*
X112210000Y-113540000D03*
X112210000Y-111000000D03*
X114750000Y-113540000D03*
D25*
X114750000Y-111000000D03*
G04 #@! TD*
G04 #@! TO.C,J21*
X159000000Y-133000000D03*
D26*
X159000000Y-130460000D03*
X161540000Y-133000000D03*
X161540000Y-130460000D03*
X164080000Y-133000000D03*
X164080000Y-130460000D03*
X166620000Y-133000000D03*
X166620000Y-130460000D03*
G04 #@! TD*
D25*
G04 #@! TO.C,J1*
X104500000Y-119000000D03*
D26*
X104500000Y-121540000D03*
G04 #@! TD*
D25*
G04 #@! TO.C,J2*
X113619000Y-119139000D03*
D26*
X111079000Y-119139000D03*
X108539000Y-119139000D03*
G04 #@! TD*
G04 #@! TO.C,J3*
X154000000Y-120710000D03*
D25*
X154000000Y-123250000D03*
G04 #@! TD*
G04 #@! TO.C,J13*
X179500000Y-105500000D03*
D26*
X179500000Y-108040000D03*
X179500000Y-110580000D03*
X179500000Y-113120000D03*
X179500000Y-115660000D03*
X179500000Y-118200000D03*
G04 #@! TD*
G04 #@! TO.C,J15*
X172500000Y-110160000D03*
X172500000Y-107620000D03*
X172500000Y-105080000D03*
X172500000Y-102540000D03*
D25*
X172500000Y-100000000D03*
G04 #@! TD*
G04 #@! TO.C,J16*
X124500000Y-100000000D03*
D26*
X124500000Y-102540000D03*
X124500000Y-105080000D03*
X124500000Y-107620000D03*
X124500000Y-110160000D03*
G04 #@! TD*
G04 #@! TO.C,J17*
X120250000Y-110880000D03*
X120250000Y-113420000D03*
X120250000Y-115960000D03*
D25*
X120250000Y-118500000D03*
G04 #@! TD*
G04 #@! TO.C,J18*
X150500000Y-136600000D03*
D26*
X150500000Y-134060000D03*
X150500000Y-131520000D03*
X150500000Y-128980000D03*
G04 #@! TD*
D15*
G04 #@! TO.C,MH1*
X126000000Y-93500000D03*
G04 #@! TD*
G04 #@! TO.C,MH2*
X171000000Y-93500000D03*
G04 #@! TD*
G04 #@! TO.C,MH3*
X171000000Y-116500000D03*
G04 #@! TD*
G04 #@! TO.C,MH4*
X126000000Y-116500000D03*
G04 #@! TD*
G04 #@! TO.C,MH5*
X183000000Y-134000000D03*
G04 #@! TD*
G04 #@! TO.C,MH7*
X183000000Y-76000000D03*
G04 #@! TD*
D23*
G04 #@! TO.C,U5*
X164000000Y-122250000D03*
D22*
X166540000Y-122250000D03*
X169080000Y-122250000D03*
G04 #@! TD*
D27*
G04 #@! TO.C,C14*
G36*
X183920581Y-99076625D02*
X183953343Y-99081485D01*
X183985471Y-99089533D01*
X184016656Y-99100691D01*
X184046596Y-99114852D01*
X184075005Y-99131879D01*
X184101608Y-99151609D01*
X184126149Y-99173851D01*
X184148391Y-99198392D01*
X184168121Y-99224995D01*
X184185148Y-99253404D01*
X184199309Y-99283344D01*
X184210467Y-99314529D01*
X184218515Y-99346657D01*
X184223375Y-99379419D01*
X184225000Y-99412500D01*
X184225000Y-100087500D01*
X184223375Y-100120581D01*
X184218515Y-100153343D01*
X184210467Y-100185471D01*
X184199309Y-100216656D01*
X184185148Y-100246596D01*
X184168121Y-100275005D01*
X184148391Y-100301608D01*
X184126149Y-100326149D01*
X184101608Y-100348391D01*
X184075005Y-100368121D01*
X184046596Y-100385148D01*
X184016656Y-100399309D01*
X183985471Y-100410467D01*
X183953343Y-100418515D01*
X183920581Y-100423375D01*
X183887500Y-100425000D01*
X183112500Y-100425000D01*
X183079419Y-100423375D01*
X183046657Y-100418515D01*
X183014529Y-100410467D01*
X182983344Y-100399309D01*
X182953404Y-100385148D01*
X182924995Y-100368121D01*
X182898392Y-100348391D01*
X182873851Y-100326149D01*
X182851609Y-100301608D01*
X182831879Y-100275005D01*
X182814852Y-100246596D01*
X182800691Y-100216656D01*
X182789533Y-100185471D01*
X182781485Y-100153343D01*
X182776625Y-100120581D01*
X182775000Y-100087500D01*
X182775000Y-99412500D01*
X182776625Y-99379419D01*
X182781485Y-99346657D01*
X182789533Y-99314529D01*
X182800691Y-99283344D01*
X182814852Y-99253404D01*
X182831879Y-99224995D01*
X182851609Y-99198392D01*
X182873851Y-99173851D01*
X182898392Y-99151609D01*
X182924995Y-99131879D01*
X182953404Y-99114852D01*
X182983344Y-99100691D01*
X183014529Y-99089533D01*
X183046657Y-99081485D01*
X183079419Y-99076625D01*
X183112500Y-99075000D01*
X183887500Y-99075000D01*
X183920581Y-99076625D01*
X183920581Y-99076625D01*
G37*
D28*
X183500000Y-99750000D03*
D27*
G36*
X185670581Y-99076625D02*
X185703343Y-99081485D01*
X185735471Y-99089533D01*
X185766656Y-99100691D01*
X185796596Y-99114852D01*
X185825005Y-99131879D01*
X185851608Y-99151609D01*
X185876149Y-99173851D01*
X185898391Y-99198392D01*
X185918121Y-99224995D01*
X185935148Y-99253404D01*
X185949309Y-99283344D01*
X185960467Y-99314529D01*
X185968515Y-99346657D01*
X185973375Y-99379419D01*
X185975000Y-99412500D01*
X185975000Y-100087500D01*
X185973375Y-100120581D01*
X185968515Y-100153343D01*
X185960467Y-100185471D01*
X185949309Y-100216656D01*
X185935148Y-100246596D01*
X185918121Y-100275005D01*
X185898391Y-100301608D01*
X185876149Y-100326149D01*
X185851608Y-100348391D01*
X185825005Y-100368121D01*
X185796596Y-100385148D01*
X185766656Y-100399309D01*
X185735471Y-100410467D01*
X185703343Y-100418515D01*
X185670581Y-100423375D01*
X185637500Y-100425000D01*
X184862500Y-100425000D01*
X184829419Y-100423375D01*
X184796657Y-100418515D01*
X184764529Y-100410467D01*
X184733344Y-100399309D01*
X184703404Y-100385148D01*
X184674995Y-100368121D01*
X184648392Y-100348391D01*
X184623851Y-100326149D01*
X184601609Y-100301608D01*
X184581879Y-100275005D01*
X184564852Y-100246596D01*
X184550691Y-100216656D01*
X184539533Y-100185471D01*
X184531485Y-100153343D01*
X184526625Y-100120581D01*
X184525000Y-100087500D01*
X184525000Y-99412500D01*
X184526625Y-99379419D01*
X184531485Y-99346657D01*
X184539533Y-99314529D01*
X184550691Y-99283344D01*
X184564852Y-99253404D01*
X184581879Y-99224995D01*
X184601609Y-99198392D01*
X184623851Y-99173851D01*
X184648392Y-99151609D01*
X184674995Y-99131879D01*
X184703404Y-99114852D01*
X184733344Y-99100691D01*
X184764529Y-99089533D01*
X184796657Y-99081485D01*
X184829419Y-99076625D01*
X184862500Y-99075000D01*
X185637500Y-99075000D01*
X185670581Y-99076625D01*
X185670581Y-99076625D01*
G37*
D28*
X185250000Y-99750000D03*
G04 #@! TD*
D25*
G04 #@! TO.C,J4*
X186000000Y-109000000D03*
D26*
X186000000Y-111540000D03*
G04 #@! TD*
G04 #@! TO.C,J5*
X114540000Y-104480000D03*
X112000000Y-104480000D03*
X114540000Y-101940000D03*
X112000000Y-101940000D03*
X114540000Y-99400000D03*
D25*
X112000000Y-99400000D03*
G04 #@! TD*
G04 #@! TO.C,J10*
X105660000Y-99400000D03*
D26*
X108200000Y-99400000D03*
X105660000Y-101940000D03*
X108200000Y-101940000D03*
X105660000Y-104480000D03*
X108200000Y-104480000D03*
G04 #@! TD*
D25*
G04 #@! TO.C,J12*
X162500000Y-72750000D03*
D26*
X162500000Y-75290000D03*
X159960000Y-72750000D03*
X159960000Y-75290000D03*
X157420000Y-72750000D03*
X157420000Y-75290000D03*
G04 #@! TD*
D27*
G04 #@! TO.C,R1*
G36*
X144489071Y-115433623D02*
X144521781Y-115438475D01*
X144553857Y-115446509D01*
X144584991Y-115457649D01*
X144614884Y-115471787D01*
X144643247Y-115488787D01*
X144669807Y-115508485D01*
X144694308Y-115530692D01*
X144716515Y-115555193D01*
X144736213Y-115581753D01*
X144753213Y-115610116D01*
X144767351Y-115640009D01*
X144778491Y-115671143D01*
X144786525Y-115703219D01*
X144791377Y-115735929D01*
X144793000Y-115768956D01*
X144793000Y-116895044D01*
X144791377Y-116928071D01*
X144786525Y-116960781D01*
X144778491Y-116992857D01*
X144767351Y-117023991D01*
X144753213Y-117053884D01*
X144736213Y-117082247D01*
X144716515Y-117108807D01*
X144694308Y-117133308D01*
X144669807Y-117155515D01*
X144643247Y-117175213D01*
X144614884Y-117192213D01*
X144584991Y-117206351D01*
X144553857Y-117217491D01*
X144521781Y-117225525D01*
X144489071Y-117230377D01*
X144456044Y-117232000D01*
X143579956Y-117232000D01*
X143546929Y-117230377D01*
X143514219Y-117225525D01*
X143482143Y-117217491D01*
X143451009Y-117206351D01*
X143421116Y-117192213D01*
X143392753Y-117175213D01*
X143366193Y-117155515D01*
X143341692Y-117133308D01*
X143319485Y-117108807D01*
X143299787Y-117082247D01*
X143282787Y-117053884D01*
X143268649Y-117023991D01*
X143257509Y-116992857D01*
X143249475Y-116960781D01*
X143244623Y-116928071D01*
X143243000Y-116895044D01*
X143243000Y-115768956D01*
X143244623Y-115735929D01*
X143249475Y-115703219D01*
X143257509Y-115671143D01*
X143268649Y-115640009D01*
X143282787Y-115610116D01*
X143299787Y-115581753D01*
X143319485Y-115555193D01*
X143341692Y-115530692D01*
X143366193Y-115508485D01*
X143392753Y-115488787D01*
X143421116Y-115471787D01*
X143451009Y-115457649D01*
X143482143Y-115446509D01*
X143514219Y-115438475D01*
X143546929Y-115433623D01*
X143579956Y-115432000D01*
X144456044Y-115432000D01*
X144489071Y-115433623D01*
X144489071Y-115433623D01*
G37*
D29*
X144018000Y-116332000D03*
D27*
G36*
X146539071Y-115433623D02*
X146571781Y-115438475D01*
X146603857Y-115446509D01*
X146634991Y-115457649D01*
X146664884Y-115471787D01*
X146693247Y-115488787D01*
X146719807Y-115508485D01*
X146744308Y-115530692D01*
X146766515Y-115555193D01*
X146786213Y-115581753D01*
X146803213Y-115610116D01*
X146817351Y-115640009D01*
X146828491Y-115671143D01*
X146836525Y-115703219D01*
X146841377Y-115735929D01*
X146843000Y-115768956D01*
X146843000Y-116895044D01*
X146841377Y-116928071D01*
X146836525Y-116960781D01*
X146828491Y-116992857D01*
X146817351Y-117023991D01*
X146803213Y-117053884D01*
X146786213Y-117082247D01*
X146766515Y-117108807D01*
X146744308Y-117133308D01*
X146719807Y-117155515D01*
X146693247Y-117175213D01*
X146664884Y-117192213D01*
X146634991Y-117206351D01*
X146603857Y-117217491D01*
X146571781Y-117225525D01*
X146539071Y-117230377D01*
X146506044Y-117232000D01*
X145629956Y-117232000D01*
X145596929Y-117230377D01*
X145564219Y-117225525D01*
X145532143Y-117217491D01*
X145501009Y-117206351D01*
X145471116Y-117192213D01*
X145442753Y-117175213D01*
X145416193Y-117155515D01*
X145391692Y-117133308D01*
X145369485Y-117108807D01*
X145349787Y-117082247D01*
X145332787Y-117053884D01*
X145318649Y-117023991D01*
X145307509Y-116992857D01*
X145299475Y-116960781D01*
X145294623Y-116928071D01*
X145293000Y-116895044D01*
X145293000Y-115768956D01*
X145294623Y-115735929D01*
X145299475Y-115703219D01*
X145307509Y-115671143D01*
X145318649Y-115640009D01*
X145332787Y-115610116D01*
X145349787Y-115581753D01*
X145369485Y-115555193D01*
X145391692Y-115530692D01*
X145416193Y-115508485D01*
X145442753Y-115488787D01*
X145471116Y-115471787D01*
X145501009Y-115457649D01*
X145532143Y-115446509D01*
X145564219Y-115438475D01*
X145596929Y-115433623D01*
X145629956Y-115432000D01*
X146506044Y-115432000D01*
X146539071Y-115433623D01*
X146539071Y-115433623D01*
G37*
D29*
X146068000Y-116332000D03*
G04 #@! TD*
D27*
G04 #@! TO.C,R2*
G36*
X109096071Y-123001623D02*
X109128781Y-123006475D01*
X109160857Y-123014509D01*
X109191991Y-123025649D01*
X109221884Y-123039787D01*
X109250247Y-123056787D01*
X109276807Y-123076485D01*
X109301308Y-123098692D01*
X109323515Y-123123193D01*
X109343213Y-123149753D01*
X109360213Y-123178116D01*
X109374351Y-123208009D01*
X109385491Y-123239143D01*
X109393525Y-123271219D01*
X109398377Y-123303929D01*
X109400000Y-123336956D01*
X109400000Y-124213044D01*
X109398377Y-124246071D01*
X109393525Y-124278781D01*
X109385491Y-124310857D01*
X109374351Y-124341991D01*
X109360213Y-124371884D01*
X109343213Y-124400247D01*
X109323515Y-124426807D01*
X109301308Y-124451308D01*
X109276807Y-124473515D01*
X109250247Y-124493213D01*
X109221884Y-124510213D01*
X109191991Y-124524351D01*
X109160857Y-124535491D01*
X109128781Y-124543525D01*
X109096071Y-124548377D01*
X109063044Y-124550000D01*
X107936956Y-124550000D01*
X107903929Y-124548377D01*
X107871219Y-124543525D01*
X107839143Y-124535491D01*
X107808009Y-124524351D01*
X107778116Y-124510213D01*
X107749753Y-124493213D01*
X107723193Y-124473515D01*
X107698692Y-124451308D01*
X107676485Y-124426807D01*
X107656787Y-124400247D01*
X107639787Y-124371884D01*
X107625649Y-124341991D01*
X107614509Y-124310857D01*
X107606475Y-124278781D01*
X107601623Y-124246071D01*
X107600000Y-124213044D01*
X107600000Y-123336956D01*
X107601623Y-123303929D01*
X107606475Y-123271219D01*
X107614509Y-123239143D01*
X107625649Y-123208009D01*
X107639787Y-123178116D01*
X107656787Y-123149753D01*
X107676485Y-123123193D01*
X107698692Y-123098692D01*
X107723193Y-123076485D01*
X107749753Y-123056787D01*
X107778116Y-123039787D01*
X107808009Y-123025649D01*
X107839143Y-123014509D01*
X107871219Y-123006475D01*
X107903929Y-123001623D01*
X107936956Y-123000000D01*
X109063044Y-123000000D01*
X109096071Y-123001623D01*
X109096071Y-123001623D01*
G37*
D29*
X108500000Y-123775000D03*
D27*
G36*
X109096071Y-120951623D02*
X109128781Y-120956475D01*
X109160857Y-120964509D01*
X109191991Y-120975649D01*
X109221884Y-120989787D01*
X109250247Y-121006787D01*
X109276807Y-121026485D01*
X109301308Y-121048692D01*
X109323515Y-121073193D01*
X109343213Y-121099753D01*
X109360213Y-121128116D01*
X109374351Y-121158009D01*
X109385491Y-121189143D01*
X109393525Y-121221219D01*
X109398377Y-121253929D01*
X109400000Y-121286956D01*
X109400000Y-122163044D01*
X109398377Y-122196071D01*
X109393525Y-122228781D01*
X109385491Y-122260857D01*
X109374351Y-122291991D01*
X109360213Y-122321884D01*
X109343213Y-122350247D01*
X109323515Y-122376807D01*
X109301308Y-122401308D01*
X109276807Y-122423515D01*
X109250247Y-122443213D01*
X109221884Y-122460213D01*
X109191991Y-122474351D01*
X109160857Y-122485491D01*
X109128781Y-122493525D01*
X109096071Y-122498377D01*
X109063044Y-122500000D01*
X107936956Y-122500000D01*
X107903929Y-122498377D01*
X107871219Y-122493525D01*
X107839143Y-122485491D01*
X107808009Y-122474351D01*
X107778116Y-122460213D01*
X107749753Y-122443213D01*
X107723193Y-122423515D01*
X107698692Y-122401308D01*
X107676485Y-122376807D01*
X107656787Y-122350247D01*
X107639787Y-122321884D01*
X107625649Y-122291991D01*
X107614509Y-122260857D01*
X107606475Y-122228781D01*
X107601623Y-122196071D01*
X107600000Y-122163044D01*
X107600000Y-121286956D01*
X107601623Y-121253929D01*
X107606475Y-121221219D01*
X107614509Y-121189143D01*
X107625649Y-121158009D01*
X107639787Y-121128116D01*
X107656787Y-121099753D01*
X107676485Y-121073193D01*
X107698692Y-121048692D01*
X107723193Y-121026485D01*
X107749753Y-121006787D01*
X107778116Y-120989787D01*
X107808009Y-120975649D01*
X107839143Y-120964509D01*
X107871219Y-120956475D01*
X107903929Y-120951623D01*
X107936956Y-120950000D01*
X109063044Y-120950000D01*
X109096071Y-120951623D01*
X109096071Y-120951623D01*
G37*
D29*
X108500000Y-121725000D03*
G04 #@! TD*
D27*
G04 #@! TO.C,R3*
G36*
X114215071Y-122976623D02*
X114247781Y-122981475D01*
X114279857Y-122989509D01*
X114310991Y-123000649D01*
X114340884Y-123014787D01*
X114369247Y-123031787D01*
X114395807Y-123051485D01*
X114420308Y-123073692D01*
X114442515Y-123098193D01*
X114462213Y-123124753D01*
X114479213Y-123153116D01*
X114493351Y-123183009D01*
X114504491Y-123214143D01*
X114512525Y-123246219D01*
X114517377Y-123278929D01*
X114519000Y-123311956D01*
X114519000Y-124188044D01*
X114517377Y-124221071D01*
X114512525Y-124253781D01*
X114504491Y-124285857D01*
X114493351Y-124316991D01*
X114479213Y-124346884D01*
X114462213Y-124375247D01*
X114442515Y-124401807D01*
X114420308Y-124426308D01*
X114395807Y-124448515D01*
X114369247Y-124468213D01*
X114340884Y-124485213D01*
X114310991Y-124499351D01*
X114279857Y-124510491D01*
X114247781Y-124518525D01*
X114215071Y-124523377D01*
X114182044Y-124525000D01*
X113055956Y-124525000D01*
X113022929Y-124523377D01*
X112990219Y-124518525D01*
X112958143Y-124510491D01*
X112927009Y-124499351D01*
X112897116Y-124485213D01*
X112868753Y-124468213D01*
X112842193Y-124448515D01*
X112817692Y-124426308D01*
X112795485Y-124401807D01*
X112775787Y-124375247D01*
X112758787Y-124346884D01*
X112744649Y-124316991D01*
X112733509Y-124285857D01*
X112725475Y-124253781D01*
X112720623Y-124221071D01*
X112719000Y-124188044D01*
X112719000Y-123311956D01*
X112720623Y-123278929D01*
X112725475Y-123246219D01*
X112733509Y-123214143D01*
X112744649Y-123183009D01*
X112758787Y-123153116D01*
X112775787Y-123124753D01*
X112795485Y-123098193D01*
X112817692Y-123073692D01*
X112842193Y-123051485D01*
X112868753Y-123031787D01*
X112897116Y-123014787D01*
X112927009Y-123000649D01*
X112958143Y-122989509D01*
X112990219Y-122981475D01*
X113022929Y-122976623D01*
X113055956Y-122975000D01*
X114182044Y-122975000D01*
X114215071Y-122976623D01*
X114215071Y-122976623D01*
G37*
D29*
X113619000Y-123750000D03*
D27*
G36*
X114215071Y-120926623D02*
X114247781Y-120931475D01*
X114279857Y-120939509D01*
X114310991Y-120950649D01*
X114340884Y-120964787D01*
X114369247Y-120981787D01*
X114395807Y-121001485D01*
X114420308Y-121023692D01*
X114442515Y-121048193D01*
X114462213Y-121074753D01*
X114479213Y-121103116D01*
X114493351Y-121133009D01*
X114504491Y-121164143D01*
X114512525Y-121196219D01*
X114517377Y-121228929D01*
X114519000Y-121261956D01*
X114519000Y-122138044D01*
X114517377Y-122171071D01*
X114512525Y-122203781D01*
X114504491Y-122235857D01*
X114493351Y-122266991D01*
X114479213Y-122296884D01*
X114462213Y-122325247D01*
X114442515Y-122351807D01*
X114420308Y-122376308D01*
X114395807Y-122398515D01*
X114369247Y-122418213D01*
X114340884Y-122435213D01*
X114310991Y-122449351D01*
X114279857Y-122460491D01*
X114247781Y-122468525D01*
X114215071Y-122473377D01*
X114182044Y-122475000D01*
X113055956Y-122475000D01*
X113022929Y-122473377D01*
X112990219Y-122468525D01*
X112958143Y-122460491D01*
X112927009Y-122449351D01*
X112897116Y-122435213D01*
X112868753Y-122418213D01*
X112842193Y-122398515D01*
X112817692Y-122376308D01*
X112795485Y-122351807D01*
X112775787Y-122325247D01*
X112758787Y-122296884D01*
X112744649Y-122266991D01*
X112733509Y-122235857D01*
X112725475Y-122203781D01*
X112720623Y-122171071D01*
X112719000Y-122138044D01*
X112719000Y-121261956D01*
X112720623Y-121228929D01*
X112725475Y-121196219D01*
X112733509Y-121164143D01*
X112744649Y-121133009D01*
X112758787Y-121103116D01*
X112775787Y-121074753D01*
X112795485Y-121048193D01*
X112817692Y-121023692D01*
X112842193Y-121001485D01*
X112868753Y-120981787D01*
X112897116Y-120964787D01*
X112927009Y-120950649D01*
X112958143Y-120939509D01*
X112990219Y-120931475D01*
X113022929Y-120926623D01*
X113055956Y-120925000D01*
X114182044Y-120925000D01*
X114215071Y-120926623D01*
X114215071Y-120926623D01*
G37*
D29*
X113619000Y-121700000D03*
G04 #@! TD*
D27*
G04 #@! TO.C,R4*
G36*
X150446071Y-115433623D02*
X150478781Y-115438475D01*
X150510857Y-115446509D01*
X150541991Y-115457649D01*
X150571884Y-115471787D01*
X150600247Y-115488787D01*
X150626807Y-115508485D01*
X150651308Y-115530692D01*
X150673515Y-115555193D01*
X150693213Y-115581753D01*
X150710213Y-115610116D01*
X150724351Y-115640009D01*
X150735491Y-115671143D01*
X150743525Y-115703219D01*
X150748377Y-115735929D01*
X150750000Y-115768956D01*
X150750000Y-116895044D01*
X150748377Y-116928071D01*
X150743525Y-116960781D01*
X150735491Y-116992857D01*
X150724351Y-117023991D01*
X150710213Y-117053884D01*
X150693213Y-117082247D01*
X150673515Y-117108807D01*
X150651308Y-117133308D01*
X150626807Y-117155515D01*
X150600247Y-117175213D01*
X150571884Y-117192213D01*
X150541991Y-117206351D01*
X150510857Y-117217491D01*
X150478781Y-117225525D01*
X150446071Y-117230377D01*
X150413044Y-117232000D01*
X149536956Y-117232000D01*
X149503929Y-117230377D01*
X149471219Y-117225525D01*
X149439143Y-117217491D01*
X149408009Y-117206351D01*
X149378116Y-117192213D01*
X149349753Y-117175213D01*
X149323193Y-117155515D01*
X149298692Y-117133308D01*
X149276485Y-117108807D01*
X149256787Y-117082247D01*
X149239787Y-117053884D01*
X149225649Y-117023991D01*
X149214509Y-116992857D01*
X149206475Y-116960781D01*
X149201623Y-116928071D01*
X149200000Y-116895044D01*
X149200000Y-115768956D01*
X149201623Y-115735929D01*
X149206475Y-115703219D01*
X149214509Y-115671143D01*
X149225649Y-115640009D01*
X149239787Y-115610116D01*
X149256787Y-115581753D01*
X149276485Y-115555193D01*
X149298692Y-115530692D01*
X149323193Y-115508485D01*
X149349753Y-115488787D01*
X149378116Y-115471787D01*
X149408009Y-115457649D01*
X149439143Y-115446509D01*
X149471219Y-115438475D01*
X149503929Y-115433623D01*
X149536956Y-115432000D01*
X150413044Y-115432000D01*
X150446071Y-115433623D01*
X150446071Y-115433623D01*
G37*
D29*
X149975000Y-116332000D03*
D27*
G36*
X152496071Y-115433623D02*
X152528781Y-115438475D01*
X152560857Y-115446509D01*
X152591991Y-115457649D01*
X152621884Y-115471787D01*
X152650247Y-115488787D01*
X152676807Y-115508485D01*
X152701308Y-115530692D01*
X152723515Y-115555193D01*
X152743213Y-115581753D01*
X152760213Y-115610116D01*
X152774351Y-115640009D01*
X152785491Y-115671143D01*
X152793525Y-115703219D01*
X152798377Y-115735929D01*
X152800000Y-115768956D01*
X152800000Y-116895044D01*
X152798377Y-116928071D01*
X152793525Y-116960781D01*
X152785491Y-116992857D01*
X152774351Y-117023991D01*
X152760213Y-117053884D01*
X152743213Y-117082247D01*
X152723515Y-117108807D01*
X152701308Y-117133308D01*
X152676807Y-117155515D01*
X152650247Y-117175213D01*
X152621884Y-117192213D01*
X152591991Y-117206351D01*
X152560857Y-117217491D01*
X152528781Y-117225525D01*
X152496071Y-117230377D01*
X152463044Y-117232000D01*
X151586956Y-117232000D01*
X151553929Y-117230377D01*
X151521219Y-117225525D01*
X151489143Y-117217491D01*
X151458009Y-117206351D01*
X151428116Y-117192213D01*
X151399753Y-117175213D01*
X151373193Y-117155515D01*
X151348692Y-117133308D01*
X151326485Y-117108807D01*
X151306787Y-117082247D01*
X151289787Y-117053884D01*
X151275649Y-117023991D01*
X151264509Y-116992857D01*
X151256475Y-116960781D01*
X151251623Y-116928071D01*
X151250000Y-116895044D01*
X151250000Y-115768956D01*
X151251623Y-115735929D01*
X151256475Y-115703219D01*
X151264509Y-115671143D01*
X151275649Y-115640009D01*
X151289787Y-115610116D01*
X151306787Y-115581753D01*
X151326485Y-115555193D01*
X151348692Y-115530692D01*
X151373193Y-115508485D01*
X151399753Y-115488787D01*
X151428116Y-115471787D01*
X151458009Y-115457649D01*
X151489143Y-115446509D01*
X151521219Y-115438475D01*
X151553929Y-115433623D01*
X151586956Y-115432000D01*
X152463044Y-115432000D01*
X152496071Y-115433623D01*
X152496071Y-115433623D01*
G37*
D29*
X152025000Y-116332000D03*
G04 #@! TD*
D27*
G04 #@! TO.C,R15*
G36*
X153946071Y-117601623D02*
X153978781Y-117606475D01*
X154010857Y-117614509D01*
X154041991Y-117625649D01*
X154071884Y-117639787D01*
X154100247Y-117656787D01*
X154126807Y-117676485D01*
X154151308Y-117698692D01*
X154173515Y-117723193D01*
X154193213Y-117749753D01*
X154210213Y-117778116D01*
X154224351Y-117808009D01*
X154235491Y-117839143D01*
X154243525Y-117871219D01*
X154248377Y-117903929D01*
X154250000Y-117936956D01*
X154250000Y-119063044D01*
X154248377Y-119096071D01*
X154243525Y-119128781D01*
X154235491Y-119160857D01*
X154224351Y-119191991D01*
X154210213Y-119221884D01*
X154193213Y-119250247D01*
X154173515Y-119276807D01*
X154151308Y-119301308D01*
X154126807Y-119323515D01*
X154100247Y-119343213D01*
X154071884Y-119360213D01*
X154041991Y-119374351D01*
X154010857Y-119385491D01*
X153978781Y-119393525D01*
X153946071Y-119398377D01*
X153913044Y-119400000D01*
X153036956Y-119400000D01*
X153003929Y-119398377D01*
X152971219Y-119393525D01*
X152939143Y-119385491D01*
X152908009Y-119374351D01*
X152878116Y-119360213D01*
X152849753Y-119343213D01*
X152823193Y-119323515D01*
X152798692Y-119301308D01*
X152776485Y-119276807D01*
X152756787Y-119250247D01*
X152739787Y-119221884D01*
X152725649Y-119191991D01*
X152714509Y-119160857D01*
X152706475Y-119128781D01*
X152701623Y-119096071D01*
X152700000Y-119063044D01*
X152700000Y-117936956D01*
X152701623Y-117903929D01*
X152706475Y-117871219D01*
X152714509Y-117839143D01*
X152725649Y-117808009D01*
X152739787Y-117778116D01*
X152756787Y-117749753D01*
X152776485Y-117723193D01*
X152798692Y-117698692D01*
X152823193Y-117676485D01*
X152849753Y-117656787D01*
X152878116Y-117639787D01*
X152908009Y-117625649D01*
X152939143Y-117614509D01*
X152971219Y-117606475D01*
X153003929Y-117601623D01*
X153036956Y-117600000D01*
X153913044Y-117600000D01*
X153946071Y-117601623D01*
X153946071Y-117601623D01*
G37*
D29*
X153475000Y-118500000D03*
D27*
G36*
X155996071Y-117601623D02*
X156028781Y-117606475D01*
X156060857Y-117614509D01*
X156091991Y-117625649D01*
X156121884Y-117639787D01*
X156150247Y-117656787D01*
X156176807Y-117676485D01*
X156201308Y-117698692D01*
X156223515Y-117723193D01*
X156243213Y-117749753D01*
X156260213Y-117778116D01*
X156274351Y-117808009D01*
X156285491Y-117839143D01*
X156293525Y-117871219D01*
X156298377Y-117903929D01*
X156300000Y-117936956D01*
X156300000Y-119063044D01*
X156298377Y-119096071D01*
X156293525Y-119128781D01*
X156285491Y-119160857D01*
X156274351Y-119191991D01*
X156260213Y-119221884D01*
X156243213Y-119250247D01*
X156223515Y-119276807D01*
X156201308Y-119301308D01*
X156176807Y-119323515D01*
X156150247Y-119343213D01*
X156121884Y-119360213D01*
X156091991Y-119374351D01*
X156060857Y-119385491D01*
X156028781Y-119393525D01*
X155996071Y-119398377D01*
X155963044Y-119400000D01*
X155086956Y-119400000D01*
X155053929Y-119398377D01*
X155021219Y-119393525D01*
X154989143Y-119385491D01*
X154958009Y-119374351D01*
X154928116Y-119360213D01*
X154899753Y-119343213D01*
X154873193Y-119323515D01*
X154848692Y-119301308D01*
X154826485Y-119276807D01*
X154806787Y-119250247D01*
X154789787Y-119221884D01*
X154775649Y-119191991D01*
X154764509Y-119160857D01*
X154756475Y-119128781D01*
X154751623Y-119096071D01*
X154750000Y-119063044D01*
X154750000Y-117936956D01*
X154751623Y-117903929D01*
X154756475Y-117871219D01*
X154764509Y-117839143D01*
X154775649Y-117808009D01*
X154789787Y-117778116D01*
X154806787Y-117749753D01*
X154826485Y-117723193D01*
X154848692Y-117698692D01*
X154873193Y-117676485D01*
X154899753Y-117656787D01*
X154928116Y-117639787D01*
X154958009Y-117625649D01*
X154989143Y-117614509D01*
X155021219Y-117606475D01*
X155053929Y-117601623D01*
X155086956Y-117600000D01*
X155963044Y-117600000D01*
X155996071Y-117601623D01*
X155996071Y-117601623D01*
G37*
D29*
X155525000Y-118500000D03*
G04 #@! TD*
D27*
G04 #@! TO.C,R16*
G36*
X157596071Y-122501623D02*
X157628781Y-122506475D01*
X157660857Y-122514509D01*
X157691991Y-122525649D01*
X157721884Y-122539787D01*
X157750247Y-122556787D01*
X157776807Y-122576485D01*
X157801308Y-122598692D01*
X157823515Y-122623193D01*
X157843213Y-122649753D01*
X157860213Y-122678116D01*
X157874351Y-122708009D01*
X157885491Y-122739143D01*
X157893525Y-122771219D01*
X157898377Y-122803929D01*
X157900000Y-122836956D01*
X157900000Y-123713044D01*
X157898377Y-123746071D01*
X157893525Y-123778781D01*
X157885491Y-123810857D01*
X157874351Y-123841991D01*
X157860213Y-123871884D01*
X157843213Y-123900247D01*
X157823515Y-123926807D01*
X157801308Y-123951308D01*
X157776807Y-123973515D01*
X157750247Y-123993213D01*
X157721884Y-124010213D01*
X157691991Y-124024351D01*
X157660857Y-124035491D01*
X157628781Y-124043525D01*
X157596071Y-124048377D01*
X157563044Y-124050000D01*
X156436956Y-124050000D01*
X156403929Y-124048377D01*
X156371219Y-124043525D01*
X156339143Y-124035491D01*
X156308009Y-124024351D01*
X156278116Y-124010213D01*
X156249753Y-123993213D01*
X156223193Y-123973515D01*
X156198692Y-123951308D01*
X156176485Y-123926807D01*
X156156787Y-123900247D01*
X156139787Y-123871884D01*
X156125649Y-123841991D01*
X156114509Y-123810857D01*
X156106475Y-123778781D01*
X156101623Y-123746071D01*
X156100000Y-123713044D01*
X156100000Y-122836956D01*
X156101623Y-122803929D01*
X156106475Y-122771219D01*
X156114509Y-122739143D01*
X156125649Y-122708009D01*
X156139787Y-122678116D01*
X156156787Y-122649753D01*
X156176485Y-122623193D01*
X156198692Y-122598692D01*
X156223193Y-122576485D01*
X156249753Y-122556787D01*
X156278116Y-122539787D01*
X156308009Y-122525649D01*
X156339143Y-122514509D01*
X156371219Y-122506475D01*
X156403929Y-122501623D01*
X156436956Y-122500000D01*
X157563044Y-122500000D01*
X157596071Y-122501623D01*
X157596071Y-122501623D01*
G37*
D29*
X157000000Y-123275000D03*
D27*
G36*
X157596071Y-120451623D02*
X157628781Y-120456475D01*
X157660857Y-120464509D01*
X157691991Y-120475649D01*
X157721884Y-120489787D01*
X157750247Y-120506787D01*
X157776807Y-120526485D01*
X157801308Y-120548692D01*
X157823515Y-120573193D01*
X157843213Y-120599753D01*
X157860213Y-120628116D01*
X157874351Y-120658009D01*
X157885491Y-120689143D01*
X157893525Y-120721219D01*
X157898377Y-120753929D01*
X157900000Y-120786956D01*
X157900000Y-121663044D01*
X157898377Y-121696071D01*
X157893525Y-121728781D01*
X157885491Y-121760857D01*
X157874351Y-121791991D01*
X157860213Y-121821884D01*
X157843213Y-121850247D01*
X157823515Y-121876807D01*
X157801308Y-121901308D01*
X157776807Y-121923515D01*
X157750247Y-121943213D01*
X157721884Y-121960213D01*
X157691991Y-121974351D01*
X157660857Y-121985491D01*
X157628781Y-121993525D01*
X157596071Y-121998377D01*
X157563044Y-122000000D01*
X156436956Y-122000000D01*
X156403929Y-121998377D01*
X156371219Y-121993525D01*
X156339143Y-121985491D01*
X156308009Y-121974351D01*
X156278116Y-121960213D01*
X156249753Y-121943213D01*
X156223193Y-121923515D01*
X156198692Y-121901308D01*
X156176485Y-121876807D01*
X156156787Y-121850247D01*
X156139787Y-121821884D01*
X156125649Y-121791991D01*
X156114509Y-121760857D01*
X156106475Y-121728781D01*
X156101623Y-121696071D01*
X156100000Y-121663044D01*
X156100000Y-120786956D01*
X156101623Y-120753929D01*
X156106475Y-120721219D01*
X156114509Y-120689143D01*
X156125649Y-120658009D01*
X156139787Y-120628116D01*
X156156787Y-120599753D01*
X156176485Y-120573193D01*
X156198692Y-120548692D01*
X156223193Y-120526485D01*
X156249753Y-120506787D01*
X156278116Y-120489787D01*
X156308009Y-120475649D01*
X156339143Y-120464509D01*
X156371219Y-120456475D01*
X156403929Y-120451623D01*
X156436956Y-120450000D01*
X157563044Y-120450000D01*
X157596071Y-120451623D01*
X157596071Y-120451623D01*
G37*
D29*
X157000000Y-121225000D03*
G04 #@! TD*
D27*
G04 #@! TO.C,R17*
G36*
X184971071Y-104351623D02*
X185003781Y-104356475D01*
X185035857Y-104364509D01*
X185066991Y-104375649D01*
X185096884Y-104389787D01*
X185125247Y-104406787D01*
X185151807Y-104426485D01*
X185176308Y-104448692D01*
X185198515Y-104473193D01*
X185218213Y-104499753D01*
X185235213Y-104528116D01*
X185249351Y-104558009D01*
X185260491Y-104589143D01*
X185268525Y-104621219D01*
X185273377Y-104653929D01*
X185275000Y-104686956D01*
X185275000Y-105813044D01*
X185273377Y-105846071D01*
X185268525Y-105878781D01*
X185260491Y-105910857D01*
X185249351Y-105941991D01*
X185235213Y-105971884D01*
X185218213Y-106000247D01*
X185198515Y-106026807D01*
X185176308Y-106051308D01*
X185151807Y-106073515D01*
X185125247Y-106093213D01*
X185096884Y-106110213D01*
X185066991Y-106124351D01*
X185035857Y-106135491D01*
X185003781Y-106143525D01*
X184971071Y-106148377D01*
X184938044Y-106150000D01*
X184061956Y-106150000D01*
X184028929Y-106148377D01*
X183996219Y-106143525D01*
X183964143Y-106135491D01*
X183933009Y-106124351D01*
X183903116Y-106110213D01*
X183874753Y-106093213D01*
X183848193Y-106073515D01*
X183823692Y-106051308D01*
X183801485Y-106026807D01*
X183781787Y-106000247D01*
X183764787Y-105971884D01*
X183750649Y-105941991D01*
X183739509Y-105910857D01*
X183731475Y-105878781D01*
X183726623Y-105846071D01*
X183725000Y-105813044D01*
X183725000Y-104686956D01*
X183726623Y-104653929D01*
X183731475Y-104621219D01*
X183739509Y-104589143D01*
X183750649Y-104558009D01*
X183764787Y-104528116D01*
X183781787Y-104499753D01*
X183801485Y-104473193D01*
X183823692Y-104448692D01*
X183848193Y-104426485D01*
X183874753Y-104406787D01*
X183903116Y-104389787D01*
X183933009Y-104375649D01*
X183964143Y-104364509D01*
X183996219Y-104356475D01*
X184028929Y-104351623D01*
X184061956Y-104350000D01*
X184938044Y-104350000D01*
X184971071Y-104351623D01*
X184971071Y-104351623D01*
G37*
D29*
X184500000Y-105250000D03*
D27*
G36*
X187021071Y-104351623D02*
X187053781Y-104356475D01*
X187085857Y-104364509D01*
X187116991Y-104375649D01*
X187146884Y-104389787D01*
X187175247Y-104406787D01*
X187201807Y-104426485D01*
X187226308Y-104448692D01*
X187248515Y-104473193D01*
X187268213Y-104499753D01*
X187285213Y-104528116D01*
X187299351Y-104558009D01*
X187310491Y-104589143D01*
X187318525Y-104621219D01*
X187323377Y-104653929D01*
X187325000Y-104686956D01*
X187325000Y-105813044D01*
X187323377Y-105846071D01*
X187318525Y-105878781D01*
X187310491Y-105910857D01*
X187299351Y-105941991D01*
X187285213Y-105971884D01*
X187268213Y-106000247D01*
X187248515Y-106026807D01*
X187226308Y-106051308D01*
X187201807Y-106073515D01*
X187175247Y-106093213D01*
X187146884Y-106110213D01*
X187116991Y-106124351D01*
X187085857Y-106135491D01*
X187053781Y-106143525D01*
X187021071Y-106148377D01*
X186988044Y-106150000D01*
X186111956Y-106150000D01*
X186078929Y-106148377D01*
X186046219Y-106143525D01*
X186014143Y-106135491D01*
X185983009Y-106124351D01*
X185953116Y-106110213D01*
X185924753Y-106093213D01*
X185898193Y-106073515D01*
X185873692Y-106051308D01*
X185851485Y-106026807D01*
X185831787Y-106000247D01*
X185814787Y-105971884D01*
X185800649Y-105941991D01*
X185789509Y-105910857D01*
X185781475Y-105878781D01*
X185776623Y-105846071D01*
X185775000Y-105813044D01*
X185775000Y-104686956D01*
X185776623Y-104653929D01*
X185781475Y-104621219D01*
X185789509Y-104589143D01*
X185800649Y-104558009D01*
X185814787Y-104528116D01*
X185831787Y-104499753D01*
X185851485Y-104473193D01*
X185873692Y-104448692D01*
X185898193Y-104426485D01*
X185924753Y-104406787D01*
X185953116Y-104389787D01*
X185983009Y-104375649D01*
X186014143Y-104364509D01*
X186046219Y-104356475D01*
X186078929Y-104351623D01*
X186111956Y-104350000D01*
X186988044Y-104350000D01*
X187021071Y-104351623D01*
X187021071Y-104351623D01*
G37*
D29*
X186550000Y-105250000D03*
G04 #@! TD*
D25*
G04 #@! TO.C,LS1*
X121920000Y-123190000D03*
D26*
X121920000Y-125730000D03*
G04 #@! TD*
D25*
G04 #@! TO.C,J6*
X106250000Y-91330000D03*
D26*
X106250000Y-88790000D03*
X106250000Y-86250000D03*
G04 #@! TD*
D30*
G04 #@! TO.C,Q2*
X158300000Y-116250000D03*
X160200000Y-116250000D03*
X159250000Y-119250000D03*
G04 #@! TD*
G04 #@! TO.C,Q1*
X118500000Y-122250000D03*
X116600000Y-122250000D03*
X117550000Y-119250000D03*
G04 #@! TD*
M02*
