G04 #@! TF.GenerationSoftware,KiCad,Pcbnew,(5.0.0)*
G04 #@! TF.CreationDate,2018-08-08T12:39:13+01:00*
G04 #@! TF.ProjectId,domenode,646F6D656E6F64652E6B696361645F70,rev?*
G04 #@! TF.SameCoordinates,Original*
G04 #@! TF.FileFunction,Paste,Top*
G04 #@! TF.FilePolarity,Positive*
%FSLAX46Y46*%
G04 Gerber Fmt 4.6, Leading zero omitted, Abs format (unit mm)*
G04 Created by KiCad (PCBNEW (5.0.0)) date 08/08/18 12:39:13*
%MOMM*%
%LPD*%
G01*
G04 APERTURE LIST*
%ADD10R,3.800000X2.000000*%
%ADD11R,1.500000X2.000000*%
%ADD12R,1.000000X1.500000*%
%ADD13R,0.600000X1.550000*%
%ADD14C,0.100000*%
%ADD15C,0.950000*%
%ADD16C,1.150000*%
%ADD17C,1.500000*%
%ADD18R,0.900000X1.700000*%
%ADD19C,1.425000*%
G04 APERTURE END LIST*
D10*
G04 #@! TO.C,U2*
X113500000Y-91500000D03*
D11*
X113500000Y-85200000D03*
X111200000Y-85200000D03*
X115800000Y-85200000D03*
G04 #@! TD*
D12*
G04 #@! TO.C,D9*
X146900000Y-89450000D03*
X150100000Y-89450000D03*
X146900000Y-84550000D03*
X150100000Y-84550000D03*
G04 #@! TD*
G04 #@! TO.C,D7*
X146900000Y-125450000D03*
X150100000Y-125450000D03*
X146900000Y-120550000D03*
X150100000Y-120550000D03*
G04 #@! TD*
G04 #@! TO.C,D5*
X136900000Y-100950000D03*
X140100000Y-100950000D03*
X136900000Y-96050000D03*
X140100000Y-96050000D03*
G04 #@! TD*
G04 #@! TO.C,D4*
X156900000Y-100950000D03*
X160100000Y-100950000D03*
X156900000Y-96050000D03*
X160100000Y-96050000D03*
G04 #@! TD*
G04 #@! TO.C,D8*
X168100000Y-102550000D03*
X164900000Y-102550000D03*
X168100000Y-107450000D03*
X164900000Y-107450000D03*
G04 #@! TD*
G04 #@! TO.C,D6*
X128900000Y-107450000D03*
X132100000Y-107450000D03*
X128900000Y-102550000D03*
X132100000Y-102550000D03*
G04 #@! TD*
G04 #@! TO.C,D3*
X160100000Y-109050000D03*
X156900000Y-109050000D03*
X160100000Y-113950000D03*
X156900000Y-113950000D03*
G04 #@! TD*
G04 #@! TO.C,D2*
X136900000Y-113950000D03*
X140100000Y-113950000D03*
X136900000Y-109050000D03*
X140100000Y-109050000D03*
G04 #@! TD*
G04 #@! TO.C,D1*
X150100000Y-102550000D03*
X146900000Y-102550000D03*
X150100000Y-107450000D03*
X146900000Y-107450000D03*
G04 #@! TD*
D13*
G04 #@! TO.C,U6*
X186405000Y-99800000D03*
X185135000Y-99800000D03*
X183865000Y-99800000D03*
X182595000Y-99800000D03*
X182595000Y-105200000D03*
X183865000Y-105200000D03*
X185135000Y-105200000D03*
X186405000Y-105200000D03*
G04 #@! TD*
D14*
G04 #@! TO.C,C2*
G36*
X107560779Y-82026144D02*
X107583834Y-82029563D01*
X107606443Y-82035227D01*
X107628387Y-82043079D01*
X107649457Y-82053044D01*
X107669448Y-82065026D01*
X107688168Y-82078910D01*
X107705438Y-82094562D01*
X107721090Y-82111832D01*
X107734974Y-82130552D01*
X107746956Y-82150543D01*
X107756921Y-82171613D01*
X107764773Y-82193557D01*
X107770437Y-82216166D01*
X107773856Y-82239221D01*
X107775000Y-82262500D01*
X107775000Y-82737500D01*
X107773856Y-82760779D01*
X107770437Y-82783834D01*
X107764773Y-82806443D01*
X107756921Y-82828387D01*
X107746956Y-82849457D01*
X107734974Y-82869448D01*
X107721090Y-82888168D01*
X107705438Y-82905438D01*
X107688168Y-82921090D01*
X107669448Y-82934974D01*
X107649457Y-82946956D01*
X107628387Y-82956921D01*
X107606443Y-82964773D01*
X107583834Y-82970437D01*
X107560779Y-82973856D01*
X107537500Y-82975000D01*
X106962500Y-82975000D01*
X106939221Y-82973856D01*
X106916166Y-82970437D01*
X106893557Y-82964773D01*
X106871613Y-82956921D01*
X106850543Y-82946956D01*
X106830552Y-82934974D01*
X106811832Y-82921090D01*
X106794562Y-82905438D01*
X106778910Y-82888168D01*
X106765026Y-82869448D01*
X106753044Y-82849457D01*
X106743079Y-82828387D01*
X106735227Y-82806443D01*
X106729563Y-82783834D01*
X106726144Y-82760779D01*
X106725000Y-82737500D01*
X106725000Y-82262500D01*
X106726144Y-82239221D01*
X106729563Y-82216166D01*
X106735227Y-82193557D01*
X106743079Y-82171613D01*
X106753044Y-82150543D01*
X106765026Y-82130552D01*
X106778910Y-82111832D01*
X106794562Y-82094562D01*
X106811832Y-82078910D01*
X106830552Y-82065026D01*
X106850543Y-82053044D01*
X106871613Y-82043079D01*
X106893557Y-82035227D01*
X106916166Y-82029563D01*
X106939221Y-82026144D01*
X106962500Y-82025000D01*
X107537500Y-82025000D01*
X107560779Y-82026144D01*
X107560779Y-82026144D01*
G37*
D15*
X107250000Y-82500000D03*
D14*
G36*
X109310779Y-82026144D02*
X109333834Y-82029563D01*
X109356443Y-82035227D01*
X109378387Y-82043079D01*
X109399457Y-82053044D01*
X109419448Y-82065026D01*
X109438168Y-82078910D01*
X109455438Y-82094562D01*
X109471090Y-82111832D01*
X109484974Y-82130552D01*
X109496956Y-82150543D01*
X109506921Y-82171613D01*
X109514773Y-82193557D01*
X109520437Y-82216166D01*
X109523856Y-82239221D01*
X109525000Y-82262500D01*
X109525000Y-82737500D01*
X109523856Y-82760779D01*
X109520437Y-82783834D01*
X109514773Y-82806443D01*
X109506921Y-82828387D01*
X109496956Y-82849457D01*
X109484974Y-82869448D01*
X109471090Y-82888168D01*
X109455438Y-82905438D01*
X109438168Y-82921090D01*
X109419448Y-82934974D01*
X109399457Y-82946956D01*
X109378387Y-82956921D01*
X109356443Y-82964773D01*
X109333834Y-82970437D01*
X109310779Y-82973856D01*
X109287500Y-82975000D01*
X108712500Y-82975000D01*
X108689221Y-82973856D01*
X108666166Y-82970437D01*
X108643557Y-82964773D01*
X108621613Y-82956921D01*
X108600543Y-82946956D01*
X108580552Y-82934974D01*
X108561832Y-82921090D01*
X108544562Y-82905438D01*
X108528910Y-82888168D01*
X108515026Y-82869448D01*
X108503044Y-82849457D01*
X108493079Y-82828387D01*
X108485227Y-82806443D01*
X108479563Y-82783834D01*
X108476144Y-82760779D01*
X108475000Y-82737500D01*
X108475000Y-82262500D01*
X108476144Y-82239221D01*
X108479563Y-82216166D01*
X108485227Y-82193557D01*
X108493079Y-82171613D01*
X108503044Y-82150543D01*
X108515026Y-82130552D01*
X108528910Y-82111832D01*
X108544562Y-82094562D01*
X108561832Y-82078910D01*
X108580552Y-82065026D01*
X108600543Y-82053044D01*
X108621613Y-82043079D01*
X108643557Y-82035227D01*
X108666166Y-82029563D01*
X108689221Y-82026144D01*
X108712500Y-82025000D01*
X109287500Y-82025000D01*
X109310779Y-82026144D01*
X109310779Y-82026144D01*
G37*
D15*
X109000000Y-82500000D03*
G04 #@! TD*
D14*
G04 #@! TO.C,C4*
G36*
X111435779Y-82026144D02*
X111458834Y-82029563D01*
X111481443Y-82035227D01*
X111503387Y-82043079D01*
X111524457Y-82053044D01*
X111544448Y-82065026D01*
X111563168Y-82078910D01*
X111580438Y-82094562D01*
X111596090Y-82111832D01*
X111609974Y-82130552D01*
X111621956Y-82150543D01*
X111631921Y-82171613D01*
X111639773Y-82193557D01*
X111645437Y-82216166D01*
X111648856Y-82239221D01*
X111650000Y-82262500D01*
X111650000Y-82737500D01*
X111648856Y-82760779D01*
X111645437Y-82783834D01*
X111639773Y-82806443D01*
X111631921Y-82828387D01*
X111621956Y-82849457D01*
X111609974Y-82869448D01*
X111596090Y-82888168D01*
X111580438Y-82905438D01*
X111563168Y-82921090D01*
X111544448Y-82934974D01*
X111524457Y-82946956D01*
X111503387Y-82956921D01*
X111481443Y-82964773D01*
X111458834Y-82970437D01*
X111435779Y-82973856D01*
X111412500Y-82975000D01*
X110837500Y-82975000D01*
X110814221Y-82973856D01*
X110791166Y-82970437D01*
X110768557Y-82964773D01*
X110746613Y-82956921D01*
X110725543Y-82946956D01*
X110705552Y-82934974D01*
X110686832Y-82921090D01*
X110669562Y-82905438D01*
X110653910Y-82888168D01*
X110640026Y-82869448D01*
X110628044Y-82849457D01*
X110618079Y-82828387D01*
X110610227Y-82806443D01*
X110604563Y-82783834D01*
X110601144Y-82760779D01*
X110600000Y-82737500D01*
X110600000Y-82262500D01*
X110601144Y-82239221D01*
X110604563Y-82216166D01*
X110610227Y-82193557D01*
X110618079Y-82171613D01*
X110628044Y-82150543D01*
X110640026Y-82130552D01*
X110653910Y-82111832D01*
X110669562Y-82094562D01*
X110686832Y-82078910D01*
X110705552Y-82065026D01*
X110725543Y-82053044D01*
X110746613Y-82043079D01*
X110768557Y-82035227D01*
X110791166Y-82029563D01*
X110814221Y-82026144D01*
X110837500Y-82025000D01*
X111412500Y-82025000D01*
X111435779Y-82026144D01*
X111435779Y-82026144D01*
G37*
D15*
X111125000Y-82500000D03*
D14*
G36*
X113185779Y-82026144D02*
X113208834Y-82029563D01*
X113231443Y-82035227D01*
X113253387Y-82043079D01*
X113274457Y-82053044D01*
X113294448Y-82065026D01*
X113313168Y-82078910D01*
X113330438Y-82094562D01*
X113346090Y-82111832D01*
X113359974Y-82130552D01*
X113371956Y-82150543D01*
X113381921Y-82171613D01*
X113389773Y-82193557D01*
X113395437Y-82216166D01*
X113398856Y-82239221D01*
X113400000Y-82262500D01*
X113400000Y-82737500D01*
X113398856Y-82760779D01*
X113395437Y-82783834D01*
X113389773Y-82806443D01*
X113381921Y-82828387D01*
X113371956Y-82849457D01*
X113359974Y-82869448D01*
X113346090Y-82888168D01*
X113330438Y-82905438D01*
X113313168Y-82921090D01*
X113294448Y-82934974D01*
X113274457Y-82946956D01*
X113253387Y-82956921D01*
X113231443Y-82964773D01*
X113208834Y-82970437D01*
X113185779Y-82973856D01*
X113162500Y-82975000D01*
X112587500Y-82975000D01*
X112564221Y-82973856D01*
X112541166Y-82970437D01*
X112518557Y-82964773D01*
X112496613Y-82956921D01*
X112475543Y-82946956D01*
X112455552Y-82934974D01*
X112436832Y-82921090D01*
X112419562Y-82905438D01*
X112403910Y-82888168D01*
X112390026Y-82869448D01*
X112378044Y-82849457D01*
X112368079Y-82828387D01*
X112360227Y-82806443D01*
X112354563Y-82783834D01*
X112351144Y-82760779D01*
X112350000Y-82737500D01*
X112350000Y-82262500D01*
X112351144Y-82239221D01*
X112354563Y-82216166D01*
X112360227Y-82193557D01*
X112368079Y-82171613D01*
X112378044Y-82150543D01*
X112390026Y-82130552D01*
X112403910Y-82111832D01*
X112419562Y-82094562D01*
X112436832Y-82078910D01*
X112455552Y-82065026D01*
X112475543Y-82053044D01*
X112496613Y-82043079D01*
X112518557Y-82035227D01*
X112541166Y-82029563D01*
X112564221Y-82026144D01*
X112587500Y-82025000D01*
X113162500Y-82025000D01*
X113185779Y-82026144D01*
X113185779Y-82026144D01*
G37*
D15*
X112875000Y-82500000D03*
G04 #@! TD*
D14*
G04 #@! TO.C,C5*
G36*
X111035779Y-94526144D02*
X111058834Y-94529563D01*
X111081443Y-94535227D01*
X111103387Y-94543079D01*
X111124457Y-94553044D01*
X111144448Y-94565026D01*
X111163168Y-94578910D01*
X111180438Y-94594562D01*
X111196090Y-94611832D01*
X111209974Y-94630552D01*
X111221956Y-94650543D01*
X111231921Y-94671613D01*
X111239773Y-94693557D01*
X111245437Y-94716166D01*
X111248856Y-94739221D01*
X111250000Y-94762500D01*
X111250000Y-95237500D01*
X111248856Y-95260779D01*
X111245437Y-95283834D01*
X111239773Y-95306443D01*
X111231921Y-95328387D01*
X111221956Y-95349457D01*
X111209974Y-95369448D01*
X111196090Y-95388168D01*
X111180438Y-95405438D01*
X111163168Y-95421090D01*
X111144448Y-95434974D01*
X111124457Y-95446956D01*
X111103387Y-95456921D01*
X111081443Y-95464773D01*
X111058834Y-95470437D01*
X111035779Y-95473856D01*
X111012500Y-95475000D01*
X110437500Y-95475000D01*
X110414221Y-95473856D01*
X110391166Y-95470437D01*
X110368557Y-95464773D01*
X110346613Y-95456921D01*
X110325543Y-95446956D01*
X110305552Y-95434974D01*
X110286832Y-95421090D01*
X110269562Y-95405438D01*
X110253910Y-95388168D01*
X110240026Y-95369448D01*
X110228044Y-95349457D01*
X110218079Y-95328387D01*
X110210227Y-95306443D01*
X110204563Y-95283834D01*
X110201144Y-95260779D01*
X110200000Y-95237500D01*
X110200000Y-94762500D01*
X110201144Y-94739221D01*
X110204563Y-94716166D01*
X110210227Y-94693557D01*
X110218079Y-94671613D01*
X110228044Y-94650543D01*
X110240026Y-94630552D01*
X110253910Y-94611832D01*
X110269562Y-94594562D01*
X110286832Y-94578910D01*
X110305552Y-94565026D01*
X110325543Y-94553044D01*
X110346613Y-94543079D01*
X110368557Y-94535227D01*
X110391166Y-94529563D01*
X110414221Y-94526144D01*
X110437500Y-94525000D01*
X111012500Y-94525000D01*
X111035779Y-94526144D01*
X111035779Y-94526144D01*
G37*
D15*
X110725000Y-95000000D03*
D14*
G36*
X112785779Y-94526144D02*
X112808834Y-94529563D01*
X112831443Y-94535227D01*
X112853387Y-94543079D01*
X112874457Y-94553044D01*
X112894448Y-94565026D01*
X112913168Y-94578910D01*
X112930438Y-94594562D01*
X112946090Y-94611832D01*
X112959974Y-94630552D01*
X112971956Y-94650543D01*
X112981921Y-94671613D01*
X112989773Y-94693557D01*
X112995437Y-94716166D01*
X112998856Y-94739221D01*
X113000000Y-94762500D01*
X113000000Y-95237500D01*
X112998856Y-95260779D01*
X112995437Y-95283834D01*
X112989773Y-95306443D01*
X112981921Y-95328387D01*
X112971956Y-95349457D01*
X112959974Y-95369448D01*
X112946090Y-95388168D01*
X112930438Y-95405438D01*
X112913168Y-95421090D01*
X112894448Y-95434974D01*
X112874457Y-95446956D01*
X112853387Y-95456921D01*
X112831443Y-95464773D01*
X112808834Y-95470437D01*
X112785779Y-95473856D01*
X112762500Y-95475000D01*
X112187500Y-95475000D01*
X112164221Y-95473856D01*
X112141166Y-95470437D01*
X112118557Y-95464773D01*
X112096613Y-95456921D01*
X112075543Y-95446956D01*
X112055552Y-95434974D01*
X112036832Y-95421090D01*
X112019562Y-95405438D01*
X112003910Y-95388168D01*
X111990026Y-95369448D01*
X111978044Y-95349457D01*
X111968079Y-95328387D01*
X111960227Y-95306443D01*
X111954563Y-95283834D01*
X111951144Y-95260779D01*
X111950000Y-95237500D01*
X111950000Y-94762500D01*
X111951144Y-94739221D01*
X111954563Y-94716166D01*
X111960227Y-94693557D01*
X111968079Y-94671613D01*
X111978044Y-94650543D01*
X111990026Y-94630552D01*
X112003910Y-94611832D01*
X112019562Y-94594562D01*
X112036832Y-94578910D01*
X112055552Y-94565026D01*
X112075543Y-94553044D01*
X112096613Y-94543079D01*
X112118557Y-94535227D01*
X112141166Y-94529563D01*
X112164221Y-94526144D01*
X112187500Y-94525000D01*
X112762500Y-94525000D01*
X112785779Y-94526144D01*
X112785779Y-94526144D01*
G37*
D15*
X112475000Y-95000000D03*
G04 #@! TD*
D14*
G04 #@! TO.C,C6*
G36*
X144435779Y-89026144D02*
X144458834Y-89029563D01*
X144481443Y-89035227D01*
X144503387Y-89043079D01*
X144524457Y-89053044D01*
X144544448Y-89065026D01*
X144563168Y-89078910D01*
X144580438Y-89094562D01*
X144596090Y-89111832D01*
X144609974Y-89130552D01*
X144621956Y-89150543D01*
X144631921Y-89171613D01*
X144639773Y-89193557D01*
X144645437Y-89216166D01*
X144648856Y-89239221D01*
X144650000Y-89262500D01*
X144650000Y-89737500D01*
X144648856Y-89760779D01*
X144645437Y-89783834D01*
X144639773Y-89806443D01*
X144631921Y-89828387D01*
X144621956Y-89849457D01*
X144609974Y-89869448D01*
X144596090Y-89888168D01*
X144580438Y-89905438D01*
X144563168Y-89921090D01*
X144544448Y-89934974D01*
X144524457Y-89946956D01*
X144503387Y-89956921D01*
X144481443Y-89964773D01*
X144458834Y-89970437D01*
X144435779Y-89973856D01*
X144412500Y-89975000D01*
X143837500Y-89975000D01*
X143814221Y-89973856D01*
X143791166Y-89970437D01*
X143768557Y-89964773D01*
X143746613Y-89956921D01*
X143725543Y-89946956D01*
X143705552Y-89934974D01*
X143686832Y-89921090D01*
X143669562Y-89905438D01*
X143653910Y-89888168D01*
X143640026Y-89869448D01*
X143628044Y-89849457D01*
X143618079Y-89828387D01*
X143610227Y-89806443D01*
X143604563Y-89783834D01*
X143601144Y-89760779D01*
X143600000Y-89737500D01*
X143600000Y-89262500D01*
X143601144Y-89239221D01*
X143604563Y-89216166D01*
X143610227Y-89193557D01*
X143618079Y-89171613D01*
X143628044Y-89150543D01*
X143640026Y-89130552D01*
X143653910Y-89111832D01*
X143669562Y-89094562D01*
X143686832Y-89078910D01*
X143705552Y-89065026D01*
X143725543Y-89053044D01*
X143746613Y-89043079D01*
X143768557Y-89035227D01*
X143791166Y-89029563D01*
X143814221Y-89026144D01*
X143837500Y-89025000D01*
X144412500Y-89025000D01*
X144435779Y-89026144D01*
X144435779Y-89026144D01*
G37*
D15*
X144125000Y-89500000D03*
D14*
G36*
X142685779Y-89026144D02*
X142708834Y-89029563D01*
X142731443Y-89035227D01*
X142753387Y-89043079D01*
X142774457Y-89053044D01*
X142794448Y-89065026D01*
X142813168Y-89078910D01*
X142830438Y-89094562D01*
X142846090Y-89111832D01*
X142859974Y-89130552D01*
X142871956Y-89150543D01*
X142881921Y-89171613D01*
X142889773Y-89193557D01*
X142895437Y-89216166D01*
X142898856Y-89239221D01*
X142900000Y-89262500D01*
X142900000Y-89737500D01*
X142898856Y-89760779D01*
X142895437Y-89783834D01*
X142889773Y-89806443D01*
X142881921Y-89828387D01*
X142871956Y-89849457D01*
X142859974Y-89869448D01*
X142846090Y-89888168D01*
X142830438Y-89905438D01*
X142813168Y-89921090D01*
X142794448Y-89934974D01*
X142774457Y-89946956D01*
X142753387Y-89956921D01*
X142731443Y-89964773D01*
X142708834Y-89970437D01*
X142685779Y-89973856D01*
X142662500Y-89975000D01*
X142087500Y-89975000D01*
X142064221Y-89973856D01*
X142041166Y-89970437D01*
X142018557Y-89964773D01*
X141996613Y-89956921D01*
X141975543Y-89946956D01*
X141955552Y-89934974D01*
X141936832Y-89921090D01*
X141919562Y-89905438D01*
X141903910Y-89888168D01*
X141890026Y-89869448D01*
X141878044Y-89849457D01*
X141868079Y-89828387D01*
X141860227Y-89806443D01*
X141854563Y-89783834D01*
X141851144Y-89760779D01*
X141850000Y-89737500D01*
X141850000Y-89262500D01*
X141851144Y-89239221D01*
X141854563Y-89216166D01*
X141860227Y-89193557D01*
X141868079Y-89171613D01*
X141878044Y-89150543D01*
X141890026Y-89130552D01*
X141903910Y-89111832D01*
X141919562Y-89094562D01*
X141936832Y-89078910D01*
X141955552Y-89065026D01*
X141975543Y-89053044D01*
X141996613Y-89043079D01*
X142018557Y-89035227D01*
X142041166Y-89029563D01*
X142064221Y-89026144D01*
X142087500Y-89025000D01*
X142662500Y-89025000D01*
X142685779Y-89026144D01*
X142685779Y-89026144D01*
G37*
D15*
X142375000Y-89500000D03*
G04 #@! TD*
D14*
G04 #@! TO.C,C7*
G36*
X135560779Y-115776144D02*
X135583834Y-115779563D01*
X135606443Y-115785227D01*
X135628387Y-115793079D01*
X135649457Y-115803044D01*
X135669448Y-115815026D01*
X135688168Y-115828910D01*
X135705438Y-115844562D01*
X135721090Y-115861832D01*
X135734974Y-115880552D01*
X135746956Y-115900543D01*
X135756921Y-115921613D01*
X135764773Y-115943557D01*
X135770437Y-115966166D01*
X135773856Y-115989221D01*
X135775000Y-116012500D01*
X135775000Y-116487500D01*
X135773856Y-116510779D01*
X135770437Y-116533834D01*
X135764773Y-116556443D01*
X135756921Y-116578387D01*
X135746956Y-116599457D01*
X135734974Y-116619448D01*
X135721090Y-116638168D01*
X135705438Y-116655438D01*
X135688168Y-116671090D01*
X135669448Y-116684974D01*
X135649457Y-116696956D01*
X135628387Y-116706921D01*
X135606443Y-116714773D01*
X135583834Y-116720437D01*
X135560779Y-116723856D01*
X135537500Y-116725000D01*
X134962500Y-116725000D01*
X134939221Y-116723856D01*
X134916166Y-116720437D01*
X134893557Y-116714773D01*
X134871613Y-116706921D01*
X134850543Y-116696956D01*
X134830552Y-116684974D01*
X134811832Y-116671090D01*
X134794562Y-116655438D01*
X134778910Y-116638168D01*
X134765026Y-116619448D01*
X134753044Y-116599457D01*
X134743079Y-116578387D01*
X134735227Y-116556443D01*
X134729563Y-116533834D01*
X134726144Y-116510779D01*
X134725000Y-116487500D01*
X134725000Y-116012500D01*
X134726144Y-115989221D01*
X134729563Y-115966166D01*
X134735227Y-115943557D01*
X134743079Y-115921613D01*
X134753044Y-115900543D01*
X134765026Y-115880552D01*
X134778910Y-115861832D01*
X134794562Y-115844562D01*
X134811832Y-115828910D01*
X134830552Y-115815026D01*
X134850543Y-115803044D01*
X134871613Y-115793079D01*
X134893557Y-115785227D01*
X134916166Y-115779563D01*
X134939221Y-115776144D01*
X134962500Y-115775000D01*
X135537500Y-115775000D01*
X135560779Y-115776144D01*
X135560779Y-115776144D01*
G37*
D15*
X135250000Y-116250000D03*
D14*
G36*
X137310779Y-115776144D02*
X137333834Y-115779563D01*
X137356443Y-115785227D01*
X137378387Y-115793079D01*
X137399457Y-115803044D01*
X137419448Y-115815026D01*
X137438168Y-115828910D01*
X137455438Y-115844562D01*
X137471090Y-115861832D01*
X137484974Y-115880552D01*
X137496956Y-115900543D01*
X137506921Y-115921613D01*
X137514773Y-115943557D01*
X137520437Y-115966166D01*
X137523856Y-115989221D01*
X137525000Y-116012500D01*
X137525000Y-116487500D01*
X137523856Y-116510779D01*
X137520437Y-116533834D01*
X137514773Y-116556443D01*
X137506921Y-116578387D01*
X137496956Y-116599457D01*
X137484974Y-116619448D01*
X137471090Y-116638168D01*
X137455438Y-116655438D01*
X137438168Y-116671090D01*
X137419448Y-116684974D01*
X137399457Y-116696956D01*
X137378387Y-116706921D01*
X137356443Y-116714773D01*
X137333834Y-116720437D01*
X137310779Y-116723856D01*
X137287500Y-116725000D01*
X136712500Y-116725000D01*
X136689221Y-116723856D01*
X136666166Y-116720437D01*
X136643557Y-116714773D01*
X136621613Y-116706921D01*
X136600543Y-116696956D01*
X136580552Y-116684974D01*
X136561832Y-116671090D01*
X136544562Y-116655438D01*
X136528910Y-116638168D01*
X136515026Y-116619448D01*
X136503044Y-116599457D01*
X136493079Y-116578387D01*
X136485227Y-116556443D01*
X136479563Y-116533834D01*
X136476144Y-116510779D01*
X136475000Y-116487500D01*
X136475000Y-116012500D01*
X136476144Y-115989221D01*
X136479563Y-115966166D01*
X136485227Y-115943557D01*
X136493079Y-115921613D01*
X136503044Y-115900543D01*
X136515026Y-115880552D01*
X136528910Y-115861832D01*
X136544562Y-115844562D01*
X136561832Y-115828910D01*
X136580552Y-115815026D01*
X136600543Y-115803044D01*
X136621613Y-115793079D01*
X136643557Y-115785227D01*
X136666166Y-115779563D01*
X136689221Y-115776144D01*
X136712500Y-115775000D01*
X137287500Y-115775000D01*
X137310779Y-115776144D01*
X137310779Y-115776144D01*
G37*
D15*
X137000000Y-116250000D03*
G04 #@! TD*
D14*
G04 #@! TO.C,C8*
G36*
X163310779Y-109026144D02*
X163333834Y-109029563D01*
X163356443Y-109035227D01*
X163378387Y-109043079D01*
X163399457Y-109053044D01*
X163419448Y-109065026D01*
X163438168Y-109078910D01*
X163455438Y-109094562D01*
X163471090Y-109111832D01*
X163484974Y-109130552D01*
X163496956Y-109150543D01*
X163506921Y-109171613D01*
X163514773Y-109193557D01*
X163520437Y-109216166D01*
X163523856Y-109239221D01*
X163525000Y-109262500D01*
X163525000Y-109737500D01*
X163523856Y-109760779D01*
X163520437Y-109783834D01*
X163514773Y-109806443D01*
X163506921Y-109828387D01*
X163496956Y-109849457D01*
X163484974Y-109869448D01*
X163471090Y-109888168D01*
X163455438Y-109905438D01*
X163438168Y-109921090D01*
X163419448Y-109934974D01*
X163399457Y-109946956D01*
X163378387Y-109956921D01*
X163356443Y-109964773D01*
X163333834Y-109970437D01*
X163310779Y-109973856D01*
X163287500Y-109975000D01*
X162712500Y-109975000D01*
X162689221Y-109973856D01*
X162666166Y-109970437D01*
X162643557Y-109964773D01*
X162621613Y-109956921D01*
X162600543Y-109946956D01*
X162580552Y-109934974D01*
X162561832Y-109921090D01*
X162544562Y-109905438D01*
X162528910Y-109888168D01*
X162515026Y-109869448D01*
X162503044Y-109849457D01*
X162493079Y-109828387D01*
X162485227Y-109806443D01*
X162479563Y-109783834D01*
X162476144Y-109760779D01*
X162475000Y-109737500D01*
X162475000Y-109262500D01*
X162476144Y-109239221D01*
X162479563Y-109216166D01*
X162485227Y-109193557D01*
X162493079Y-109171613D01*
X162503044Y-109150543D01*
X162515026Y-109130552D01*
X162528910Y-109111832D01*
X162544562Y-109094562D01*
X162561832Y-109078910D01*
X162580552Y-109065026D01*
X162600543Y-109053044D01*
X162621613Y-109043079D01*
X162643557Y-109035227D01*
X162666166Y-109029563D01*
X162689221Y-109026144D01*
X162712500Y-109025000D01*
X163287500Y-109025000D01*
X163310779Y-109026144D01*
X163310779Y-109026144D01*
G37*
D15*
X163000000Y-109500000D03*
D14*
G36*
X165060779Y-109026144D02*
X165083834Y-109029563D01*
X165106443Y-109035227D01*
X165128387Y-109043079D01*
X165149457Y-109053044D01*
X165169448Y-109065026D01*
X165188168Y-109078910D01*
X165205438Y-109094562D01*
X165221090Y-109111832D01*
X165234974Y-109130552D01*
X165246956Y-109150543D01*
X165256921Y-109171613D01*
X165264773Y-109193557D01*
X165270437Y-109216166D01*
X165273856Y-109239221D01*
X165275000Y-109262500D01*
X165275000Y-109737500D01*
X165273856Y-109760779D01*
X165270437Y-109783834D01*
X165264773Y-109806443D01*
X165256921Y-109828387D01*
X165246956Y-109849457D01*
X165234974Y-109869448D01*
X165221090Y-109888168D01*
X165205438Y-109905438D01*
X165188168Y-109921090D01*
X165169448Y-109934974D01*
X165149457Y-109946956D01*
X165128387Y-109956921D01*
X165106443Y-109964773D01*
X165083834Y-109970437D01*
X165060779Y-109973856D01*
X165037500Y-109975000D01*
X164462500Y-109975000D01*
X164439221Y-109973856D01*
X164416166Y-109970437D01*
X164393557Y-109964773D01*
X164371613Y-109956921D01*
X164350543Y-109946956D01*
X164330552Y-109934974D01*
X164311832Y-109921090D01*
X164294562Y-109905438D01*
X164278910Y-109888168D01*
X164265026Y-109869448D01*
X164253044Y-109849457D01*
X164243079Y-109828387D01*
X164235227Y-109806443D01*
X164229563Y-109783834D01*
X164226144Y-109760779D01*
X164225000Y-109737500D01*
X164225000Y-109262500D01*
X164226144Y-109239221D01*
X164229563Y-109216166D01*
X164235227Y-109193557D01*
X164243079Y-109171613D01*
X164253044Y-109150543D01*
X164265026Y-109130552D01*
X164278910Y-109111832D01*
X164294562Y-109094562D01*
X164311832Y-109078910D01*
X164330552Y-109065026D01*
X164350543Y-109053044D01*
X164371613Y-109043079D01*
X164393557Y-109035227D01*
X164416166Y-109029563D01*
X164439221Y-109026144D01*
X164462500Y-109025000D01*
X165037500Y-109025000D01*
X165060779Y-109026144D01*
X165060779Y-109026144D01*
G37*
D15*
X164750000Y-109500000D03*
G04 #@! TD*
D14*
G04 #@! TO.C,C9*
G36*
X157060779Y-115776144D02*
X157083834Y-115779563D01*
X157106443Y-115785227D01*
X157128387Y-115793079D01*
X157149457Y-115803044D01*
X157169448Y-115815026D01*
X157188168Y-115828910D01*
X157205438Y-115844562D01*
X157221090Y-115861832D01*
X157234974Y-115880552D01*
X157246956Y-115900543D01*
X157256921Y-115921613D01*
X157264773Y-115943557D01*
X157270437Y-115966166D01*
X157273856Y-115989221D01*
X157275000Y-116012500D01*
X157275000Y-116487500D01*
X157273856Y-116510779D01*
X157270437Y-116533834D01*
X157264773Y-116556443D01*
X157256921Y-116578387D01*
X157246956Y-116599457D01*
X157234974Y-116619448D01*
X157221090Y-116638168D01*
X157205438Y-116655438D01*
X157188168Y-116671090D01*
X157169448Y-116684974D01*
X157149457Y-116696956D01*
X157128387Y-116706921D01*
X157106443Y-116714773D01*
X157083834Y-116720437D01*
X157060779Y-116723856D01*
X157037500Y-116725000D01*
X156462500Y-116725000D01*
X156439221Y-116723856D01*
X156416166Y-116720437D01*
X156393557Y-116714773D01*
X156371613Y-116706921D01*
X156350543Y-116696956D01*
X156330552Y-116684974D01*
X156311832Y-116671090D01*
X156294562Y-116655438D01*
X156278910Y-116638168D01*
X156265026Y-116619448D01*
X156253044Y-116599457D01*
X156243079Y-116578387D01*
X156235227Y-116556443D01*
X156229563Y-116533834D01*
X156226144Y-116510779D01*
X156225000Y-116487500D01*
X156225000Y-116012500D01*
X156226144Y-115989221D01*
X156229563Y-115966166D01*
X156235227Y-115943557D01*
X156243079Y-115921613D01*
X156253044Y-115900543D01*
X156265026Y-115880552D01*
X156278910Y-115861832D01*
X156294562Y-115844562D01*
X156311832Y-115828910D01*
X156330552Y-115815026D01*
X156350543Y-115803044D01*
X156371613Y-115793079D01*
X156393557Y-115785227D01*
X156416166Y-115779563D01*
X156439221Y-115776144D01*
X156462500Y-115775000D01*
X157037500Y-115775000D01*
X157060779Y-115776144D01*
X157060779Y-115776144D01*
G37*
D15*
X156750000Y-116250000D03*
D14*
G36*
X155310779Y-115776144D02*
X155333834Y-115779563D01*
X155356443Y-115785227D01*
X155378387Y-115793079D01*
X155399457Y-115803044D01*
X155419448Y-115815026D01*
X155438168Y-115828910D01*
X155455438Y-115844562D01*
X155471090Y-115861832D01*
X155484974Y-115880552D01*
X155496956Y-115900543D01*
X155506921Y-115921613D01*
X155514773Y-115943557D01*
X155520437Y-115966166D01*
X155523856Y-115989221D01*
X155525000Y-116012500D01*
X155525000Y-116487500D01*
X155523856Y-116510779D01*
X155520437Y-116533834D01*
X155514773Y-116556443D01*
X155506921Y-116578387D01*
X155496956Y-116599457D01*
X155484974Y-116619448D01*
X155471090Y-116638168D01*
X155455438Y-116655438D01*
X155438168Y-116671090D01*
X155419448Y-116684974D01*
X155399457Y-116696956D01*
X155378387Y-116706921D01*
X155356443Y-116714773D01*
X155333834Y-116720437D01*
X155310779Y-116723856D01*
X155287500Y-116725000D01*
X154712500Y-116725000D01*
X154689221Y-116723856D01*
X154666166Y-116720437D01*
X154643557Y-116714773D01*
X154621613Y-116706921D01*
X154600543Y-116696956D01*
X154580552Y-116684974D01*
X154561832Y-116671090D01*
X154544562Y-116655438D01*
X154528910Y-116638168D01*
X154515026Y-116619448D01*
X154503044Y-116599457D01*
X154493079Y-116578387D01*
X154485227Y-116556443D01*
X154479563Y-116533834D01*
X154476144Y-116510779D01*
X154475000Y-116487500D01*
X154475000Y-116012500D01*
X154476144Y-115989221D01*
X154479563Y-115966166D01*
X154485227Y-115943557D01*
X154493079Y-115921613D01*
X154503044Y-115900543D01*
X154515026Y-115880552D01*
X154528910Y-115861832D01*
X154544562Y-115844562D01*
X154561832Y-115828910D01*
X154580552Y-115815026D01*
X154600543Y-115803044D01*
X154621613Y-115793079D01*
X154643557Y-115785227D01*
X154666166Y-115779563D01*
X154689221Y-115776144D01*
X154712500Y-115775000D01*
X155287500Y-115775000D01*
X155310779Y-115776144D01*
X155310779Y-115776144D01*
G37*
D15*
X155000000Y-116250000D03*
G04 #@! TD*
D14*
G04 #@! TO.C,C10*
G36*
X144935779Y-125026144D02*
X144958834Y-125029563D01*
X144981443Y-125035227D01*
X145003387Y-125043079D01*
X145024457Y-125053044D01*
X145044448Y-125065026D01*
X145063168Y-125078910D01*
X145080438Y-125094562D01*
X145096090Y-125111832D01*
X145109974Y-125130552D01*
X145121956Y-125150543D01*
X145131921Y-125171613D01*
X145139773Y-125193557D01*
X145145437Y-125216166D01*
X145148856Y-125239221D01*
X145150000Y-125262500D01*
X145150000Y-125737500D01*
X145148856Y-125760779D01*
X145145437Y-125783834D01*
X145139773Y-125806443D01*
X145131921Y-125828387D01*
X145121956Y-125849457D01*
X145109974Y-125869448D01*
X145096090Y-125888168D01*
X145080438Y-125905438D01*
X145063168Y-125921090D01*
X145044448Y-125934974D01*
X145024457Y-125946956D01*
X145003387Y-125956921D01*
X144981443Y-125964773D01*
X144958834Y-125970437D01*
X144935779Y-125973856D01*
X144912500Y-125975000D01*
X144337500Y-125975000D01*
X144314221Y-125973856D01*
X144291166Y-125970437D01*
X144268557Y-125964773D01*
X144246613Y-125956921D01*
X144225543Y-125946956D01*
X144205552Y-125934974D01*
X144186832Y-125921090D01*
X144169562Y-125905438D01*
X144153910Y-125888168D01*
X144140026Y-125869448D01*
X144128044Y-125849457D01*
X144118079Y-125828387D01*
X144110227Y-125806443D01*
X144104563Y-125783834D01*
X144101144Y-125760779D01*
X144100000Y-125737500D01*
X144100000Y-125262500D01*
X144101144Y-125239221D01*
X144104563Y-125216166D01*
X144110227Y-125193557D01*
X144118079Y-125171613D01*
X144128044Y-125150543D01*
X144140026Y-125130552D01*
X144153910Y-125111832D01*
X144169562Y-125094562D01*
X144186832Y-125078910D01*
X144205552Y-125065026D01*
X144225543Y-125053044D01*
X144246613Y-125043079D01*
X144268557Y-125035227D01*
X144291166Y-125029563D01*
X144314221Y-125026144D01*
X144337500Y-125025000D01*
X144912500Y-125025000D01*
X144935779Y-125026144D01*
X144935779Y-125026144D01*
G37*
D15*
X144625000Y-125500000D03*
D14*
G36*
X143185779Y-125026144D02*
X143208834Y-125029563D01*
X143231443Y-125035227D01*
X143253387Y-125043079D01*
X143274457Y-125053044D01*
X143294448Y-125065026D01*
X143313168Y-125078910D01*
X143330438Y-125094562D01*
X143346090Y-125111832D01*
X143359974Y-125130552D01*
X143371956Y-125150543D01*
X143381921Y-125171613D01*
X143389773Y-125193557D01*
X143395437Y-125216166D01*
X143398856Y-125239221D01*
X143400000Y-125262500D01*
X143400000Y-125737500D01*
X143398856Y-125760779D01*
X143395437Y-125783834D01*
X143389773Y-125806443D01*
X143381921Y-125828387D01*
X143371956Y-125849457D01*
X143359974Y-125869448D01*
X143346090Y-125888168D01*
X143330438Y-125905438D01*
X143313168Y-125921090D01*
X143294448Y-125934974D01*
X143274457Y-125946956D01*
X143253387Y-125956921D01*
X143231443Y-125964773D01*
X143208834Y-125970437D01*
X143185779Y-125973856D01*
X143162500Y-125975000D01*
X142587500Y-125975000D01*
X142564221Y-125973856D01*
X142541166Y-125970437D01*
X142518557Y-125964773D01*
X142496613Y-125956921D01*
X142475543Y-125946956D01*
X142455552Y-125934974D01*
X142436832Y-125921090D01*
X142419562Y-125905438D01*
X142403910Y-125888168D01*
X142390026Y-125869448D01*
X142378044Y-125849457D01*
X142368079Y-125828387D01*
X142360227Y-125806443D01*
X142354563Y-125783834D01*
X142351144Y-125760779D01*
X142350000Y-125737500D01*
X142350000Y-125262500D01*
X142351144Y-125239221D01*
X142354563Y-125216166D01*
X142360227Y-125193557D01*
X142368079Y-125171613D01*
X142378044Y-125150543D01*
X142390026Y-125130552D01*
X142403910Y-125111832D01*
X142419562Y-125094562D01*
X142436832Y-125078910D01*
X142455552Y-125065026D01*
X142475543Y-125053044D01*
X142496613Y-125043079D01*
X142518557Y-125035227D01*
X142541166Y-125029563D01*
X142564221Y-125026144D01*
X142587500Y-125025000D01*
X143162500Y-125025000D01*
X143185779Y-125026144D01*
X143185779Y-125026144D01*
G37*
D15*
X142875000Y-125500000D03*
G04 #@! TD*
D14*
G04 #@! TO.C,C11*
G36*
X155310779Y-102526144D02*
X155333834Y-102529563D01*
X155356443Y-102535227D01*
X155378387Y-102543079D01*
X155399457Y-102553044D01*
X155419448Y-102565026D01*
X155438168Y-102578910D01*
X155455438Y-102594562D01*
X155471090Y-102611832D01*
X155484974Y-102630552D01*
X155496956Y-102650543D01*
X155506921Y-102671613D01*
X155514773Y-102693557D01*
X155520437Y-102716166D01*
X155523856Y-102739221D01*
X155525000Y-102762500D01*
X155525000Y-103237500D01*
X155523856Y-103260779D01*
X155520437Y-103283834D01*
X155514773Y-103306443D01*
X155506921Y-103328387D01*
X155496956Y-103349457D01*
X155484974Y-103369448D01*
X155471090Y-103388168D01*
X155455438Y-103405438D01*
X155438168Y-103421090D01*
X155419448Y-103434974D01*
X155399457Y-103446956D01*
X155378387Y-103456921D01*
X155356443Y-103464773D01*
X155333834Y-103470437D01*
X155310779Y-103473856D01*
X155287500Y-103475000D01*
X154712500Y-103475000D01*
X154689221Y-103473856D01*
X154666166Y-103470437D01*
X154643557Y-103464773D01*
X154621613Y-103456921D01*
X154600543Y-103446956D01*
X154580552Y-103434974D01*
X154561832Y-103421090D01*
X154544562Y-103405438D01*
X154528910Y-103388168D01*
X154515026Y-103369448D01*
X154503044Y-103349457D01*
X154493079Y-103328387D01*
X154485227Y-103306443D01*
X154479563Y-103283834D01*
X154476144Y-103260779D01*
X154475000Y-103237500D01*
X154475000Y-102762500D01*
X154476144Y-102739221D01*
X154479563Y-102716166D01*
X154485227Y-102693557D01*
X154493079Y-102671613D01*
X154503044Y-102650543D01*
X154515026Y-102630552D01*
X154528910Y-102611832D01*
X154544562Y-102594562D01*
X154561832Y-102578910D01*
X154580552Y-102565026D01*
X154600543Y-102553044D01*
X154621613Y-102543079D01*
X154643557Y-102535227D01*
X154666166Y-102529563D01*
X154689221Y-102526144D01*
X154712500Y-102525000D01*
X155287500Y-102525000D01*
X155310779Y-102526144D01*
X155310779Y-102526144D01*
G37*
D15*
X155000000Y-103000000D03*
D14*
G36*
X157060779Y-102526144D02*
X157083834Y-102529563D01*
X157106443Y-102535227D01*
X157128387Y-102543079D01*
X157149457Y-102553044D01*
X157169448Y-102565026D01*
X157188168Y-102578910D01*
X157205438Y-102594562D01*
X157221090Y-102611832D01*
X157234974Y-102630552D01*
X157246956Y-102650543D01*
X157256921Y-102671613D01*
X157264773Y-102693557D01*
X157270437Y-102716166D01*
X157273856Y-102739221D01*
X157275000Y-102762500D01*
X157275000Y-103237500D01*
X157273856Y-103260779D01*
X157270437Y-103283834D01*
X157264773Y-103306443D01*
X157256921Y-103328387D01*
X157246956Y-103349457D01*
X157234974Y-103369448D01*
X157221090Y-103388168D01*
X157205438Y-103405438D01*
X157188168Y-103421090D01*
X157169448Y-103434974D01*
X157149457Y-103446956D01*
X157128387Y-103456921D01*
X157106443Y-103464773D01*
X157083834Y-103470437D01*
X157060779Y-103473856D01*
X157037500Y-103475000D01*
X156462500Y-103475000D01*
X156439221Y-103473856D01*
X156416166Y-103470437D01*
X156393557Y-103464773D01*
X156371613Y-103456921D01*
X156350543Y-103446956D01*
X156330552Y-103434974D01*
X156311832Y-103421090D01*
X156294562Y-103405438D01*
X156278910Y-103388168D01*
X156265026Y-103369448D01*
X156253044Y-103349457D01*
X156243079Y-103328387D01*
X156235227Y-103306443D01*
X156229563Y-103283834D01*
X156226144Y-103260779D01*
X156225000Y-103237500D01*
X156225000Y-102762500D01*
X156226144Y-102739221D01*
X156229563Y-102716166D01*
X156235227Y-102693557D01*
X156243079Y-102671613D01*
X156253044Y-102650543D01*
X156265026Y-102630552D01*
X156278910Y-102611832D01*
X156294562Y-102594562D01*
X156311832Y-102578910D01*
X156330552Y-102565026D01*
X156350543Y-102553044D01*
X156371613Y-102543079D01*
X156393557Y-102535227D01*
X156416166Y-102529563D01*
X156439221Y-102526144D01*
X156462500Y-102525000D01*
X157037500Y-102525000D01*
X157060779Y-102526144D01*
X157060779Y-102526144D01*
G37*
D15*
X156750000Y-103000000D03*
G04 #@! TD*
D14*
G04 #@! TO.C,C12*
G36*
X129010779Y-108976144D02*
X129033834Y-108979563D01*
X129056443Y-108985227D01*
X129078387Y-108993079D01*
X129099457Y-109003044D01*
X129119448Y-109015026D01*
X129138168Y-109028910D01*
X129155438Y-109044562D01*
X129171090Y-109061832D01*
X129184974Y-109080552D01*
X129196956Y-109100543D01*
X129206921Y-109121613D01*
X129214773Y-109143557D01*
X129220437Y-109166166D01*
X129223856Y-109189221D01*
X129225000Y-109212500D01*
X129225000Y-109787500D01*
X129223856Y-109810779D01*
X129220437Y-109833834D01*
X129214773Y-109856443D01*
X129206921Y-109878387D01*
X129196956Y-109899457D01*
X129184974Y-109919448D01*
X129171090Y-109938168D01*
X129155438Y-109955438D01*
X129138168Y-109971090D01*
X129119448Y-109984974D01*
X129099457Y-109996956D01*
X129078387Y-110006921D01*
X129056443Y-110014773D01*
X129033834Y-110020437D01*
X129010779Y-110023856D01*
X128987500Y-110025000D01*
X128512500Y-110025000D01*
X128489221Y-110023856D01*
X128466166Y-110020437D01*
X128443557Y-110014773D01*
X128421613Y-110006921D01*
X128400543Y-109996956D01*
X128380552Y-109984974D01*
X128361832Y-109971090D01*
X128344562Y-109955438D01*
X128328910Y-109938168D01*
X128315026Y-109919448D01*
X128303044Y-109899457D01*
X128293079Y-109878387D01*
X128285227Y-109856443D01*
X128279563Y-109833834D01*
X128276144Y-109810779D01*
X128275000Y-109787500D01*
X128275000Y-109212500D01*
X128276144Y-109189221D01*
X128279563Y-109166166D01*
X128285227Y-109143557D01*
X128293079Y-109121613D01*
X128303044Y-109100543D01*
X128315026Y-109080552D01*
X128328910Y-109061832D01*
X128344562Y-109044562D01*
X128361832Y-109028910D01*
X128380552Y-109015026D01*
X128400543Y-109003044D01*
X128421613Y-108993079D01*
X128443557Y-108985227D01*
X128466166Y-108979563D01*
X128489221Y-108976144D01*
X128512500Y-108975000D01*
X128987500Y-108975000D01*
X129010779Y-108976144D01*
X129010779Y-108976144D01*
G37*
D15*
X128750000Y-109500000D03*
D14*
G36*
X129010779Y-110726144D02*
X129033834Y-110729563D01*
X129056443Y-110735227D01*
X129078387Y-110743079D01*
X129099457Y-110753044D01*
X129119448Y-110765026D01*
X129138168Y-110778910D01*
X129155438Y-110794562D01*
X129171090Y-110811832D01*
X129184974Y-110830552D01*
X129196956Y-110850543D01*
X129206921Y-110871613D01*
X129214773Y-110893557D01*
X129220437Y-110916166D01*
X129223856Y-110939221D01*
X129225000Y-110962500D01*
X129225000Y-111537500D01*
X129223856Y-111560779D01*
X129220437Y-111583834D01*
X129214773Y-111606443D01*
X129206921Y-111628387D01*
X129196956Y-111649457D01*
X129184974Y-111669448D01*
X129171090Y-111688168D01*
X129155438Y-111705438D01*
X129138168Y-111721090D01*
X129119448Y-111734974D01*
X129099457Y-111746956D01*
X129078387Y-111756921D01*
X129056443Y-111764773D01*
X129033834Y-111770437D01*
X129010779Y-111773856D01*
X128987500Y-111775000D01*
X128512500Y-111775000D01*
X128489221Y-111773856D01*
X128466166Y-111770437D01*
X128443557Y-111764773D01*
X128421613Y-111756921D01*
X128400543Y-111746956D01*
X128380552Y-111734974D01*
X128361832Y-111721090D01*
X128344562Y-111705438D01*
X128328910Y-111688168D01*
X128315026Y-111669448D01*
X128303044Y-111649457D01*
X128293079Y-111628387D01*
X128285227Y-111606443D01*
X128279563Y-111583834D01*
X128276144Y-111560779D01*
X128275000Y-111537500D01*
X128275000Y-110962500D01*
X128276144Y-110939221D01*
X128279563Y-110916166D01*
X128285227Y-110893557D01*
X128293079Y-110871613D01*
X128303044Y-110850543D01*
X128315026Y-110830552D01*
X128328910Y-110811832D01*
X128344562Y-110794562D01*
X128361832Y-110778910D01*
X128380552Y-110765026D01*
X128400543Y-110753044D01*
X128421613Y-110743079D01*
X128443557Y-110735227D01*
X128466166Y-110729563D01*
X128489221Y-110726144D01*
X128512500Y-110725000D01*
X128987500Y-110725000D01*
X129010779Y-110726144D01*
X129010779Y-110726144D01*
G37*
D15*
X128750000Y-111250000D03*
G04 #@! TD*
D14*
G04 #@! TO.C,C13*
G36*
X135310779Y-102526144D02*
X135333834Y-102529563D01*
X135356443Y-102535227D01*
X135378387Y-102543079D01*
X135399457Y-102553044D01*
X135419448Y-102565026D01*
X135438168Y-102578910D01*
X135455438Y-102594562D01*
X135471090Y-102611832D01*
X135484974Y-102630552D01*
X135496956Y-102650543D01*
X135506921Y-102671613D01*
X135514773Y-102693557D01*
X135520437Y-102716166D01*
X135523856Y-102739221D01*
X135525000Y-102762500D01*
X135525000Y-103237500D01*
X135523856Y-103260779D01*
X135520437Y-103283834D01*
X135514773Y-103306443D01*
X135506921Y-103328387D01*
X135496956Y-103349457D01*
X135484974Y-103369448D01*
X135471090Y-103388168D01*
X135455438Y-103405438D01*
X135438168Y-103421090D01*
X135419448Y-103434974D01*
X135399457Y-103446956D01*
X135378387Y-103456921D01*
X135356443Y-103464773D01*
X135333834Y-103470437D01*
X135310779Y-103473856D01*
X135287500Y-103475000D01*
X134712500Y-103475000D01*
X134689221Y-103473856D01*
X134666166Y-103470437D01*
X134643557Y-103464773D01*
X134621613Y-103456921D01*
X134600543Y-103446956D01*
X134580552Y-103434974D01*
X134561832Y-103421090D01*
X134544562Y-103405438D01*
X134528910Y-103388168D01*
X134515026Y-103369448D01*
X134503044Y-103349457D01*
X134493079Y-103328387D01*
X134485227Y-103306443D01*
X134479563Y-103283834D01*
X134476144Y-103260779D01*
X134475000Y-103237500D01*
X134475000Y-102762500D01*
X134476144Y-102739221D01*
X134479563Y-102716166D01*
X134485227Y-102693557D01*
X134493079Y-102671613D01*
X134503044Y-102650543D01*
X134515026Y-102630552D01*
X134528910Y-102611832D01*
X134544562Y-102594562D01*
X134561832Y-102578910D01*
X134580552Y-102565026D01*
X134600543Y-102553044D01*
X134621613Y-102543079D01*
X134643557Y-102535227D01*
X134666166Y-102529563D01*
X134689221Y-102526144D01*
X134712500Y-102525000D01*
X135287500Y-102525000D01*
X135310779Y-102526144D01*
X135310779Y-102526144D01*
G37*
D15*
X135000000Y-103000000D03*
D14*
G36*
X137060779Y-102526144D02*
X137083834Y-102529563D01*
X137106443Y-102535227D01*
X137128387Y-102543079D01*
X137149457Y-102553044D01*
X137169448Y-102565026D01*
X137188168Y-102578910D01*
X137205438Y-102594562D01*
X137221090Y-102611832D01*
X137234974Y-102630552D01*
X137246956Y-102650543D01*
X137256921Y-102671613D01*
X137264773Y-102693557D01*
X137270437Y-102716166D01*
X137273856Y-102739221D01*
X137275000Y-102762500D01*
X137275000Y-103237500D01*
X137273856Y-103260779D01*
X137270437Y-103283834D01*
X137264773Y-103306443D01*
X137256921Y-103328387D01*
X137246956Y-103349457D01*
X137234974Y-103369448D01*
X137221090Y-103388168D01*
X137205438Y-103405438D01*
X137188168Y-103421090D01*
X137169448Y-103434974D01*
X137149457Y-103446956D01*
X137128387Y-103456921D01*
X137106443Y-103464773D01*
X137083834Y-103470437D01*
X137060779Y-103473856D01*
X137037500Y-103475000D01*
X136462500Y-103475000D01*
X136439221Y-103473856D01*
X136416166Y-103470437D01*
X136393557Y-103464773D01*
X136371613Y-103456921D01*
X136350543Y-103446956D01*
X136330552Y-103434974D01*
X136311832Y-103421090D01*
X136294562Y-103405438D01*
X136278910Y-103388168D01*
X136265026Y-103369448D01*
X136253044Y-103349457D01*
X136243079Y-103328387D01*
X136235227Y-103306443D01*
X136229563Y-103283834D01*
X136226144Y-103260779D01*
X136225000Y-103237500D01*
X136225000Y-102762500D01*
X136226144Y-102739221D01*
X136229563Y-102716166D01*
X136235227Y-102693557D01*
X136243079Y-102671613D01*
X136253044Y-102650543D01*
X136265026Y-102630552D01*
X136278910Y-102611832D01*
X136294562Y-102594562D01*
X136311832Y-102578910D01*
X136330552Y-102565026D01*
X136350543Y-102553044D01*
X136371613Y-102543079D01*
X136393557Y-102535227D01*
X136416166Y-102529563D01*
X136439221Y-102526144D01*
X136462500Y-102525000D01*
X137037500Y-102525000D01*
X137060779Y-102526144D01*
X137060779Y-102526144D01*
G37*
D15*
X136750000Y-103000000D03*
G04 #@! TD*
D14*
G04 #@! TO.C,D11*
G36*
X137674505Y-123876204D02*
X137698773Y-123879804D01*
X137722572Y-123885765D01*
X137745671Y-123894030D01*
X137767850Y-123904520D01*
X137788893Y-123917132D01*
X137808599Y-123931747D01*
X137826777Y-123948223D01*
X137843253Y-123966401D01*
X137857868Y-123986107D01*
X137870480Y-124007150D01*
X137880970Y-124029329D01*
X137889235Y-124052428D01*
X137895196Y-124076227D01*
X137898796Y-124100495D01*
X137900000Y-124124999D01*
X137900000Y-124775001D01*
X137898796Y-124799505D01*
X137895196Y-124823773D01*
X137889235Y-124847572D01*
X137880970Y-124870671D01*
X137870480Y-124892850D01*
X137857868Y-124913893D01*
X137843253Y-124933599D01*
X137826777Y-124951777D01*
X137808599Y-124968253D01*
X137788893Y-124982868D01*
X137767850Y-124995480D01*
X137745671Y-125005970D01*
X137722572Y-125014235D01*
X137698773Y-125020196D01*
X137674505Y-125023796D01*
X137650001Y-125025000D01*
X136749999Y-125025000D01*
X136725495Y-125023796D01*
X136701227Y-125020196D01*
X136677428Y-125014235D01*
X136654329Y-125005970D01*
X136632150Y-124995480D01*
X136611107Y-124982868D01*
X136591401Y-124968253D01*
X136573223Y-124951777D01*
X136556747Y-124933599D01*
X136542132Y-124913893D01*
X136529520Y-124892850D01*
X136519030Y-124870671D01*
X136510765Y-124847572D01*
X136504804Y-124823773D01*
X136501204Y-124799505D01*
X136500000Y-124775001D01*
X136500000Y-124124999D01*
X136501204Y-124100495D01*
X136504804Y-124076227D01*
X136510765Y-124052428D01*
X136519030Y-124029329D01*
X136529520Y-124007150D01*
X136542132Y-123986107D01*
X136556747Y-123966401D01*
X136573223Y-123948223D01*
X136591401Y-123931747D01*
X136611107Y-123917132D01*
X136632150Y-123904520D01*
X136654329Y-123894030D01*
X136677428Y-123885765D01*
X136701227Y-123879804D01*
X136725495Y-123876204D01*
X136749999Y-123875000D01*
X137650001Y-123875000D01*
X137674505Y-123876204D01*
X137674505Y-123876204D01*
G37*
D16*
X137200000Y-124450000D03*
D14*
G36*
X137674505Y-125926204D02*
X137698773Y-125929804D01*
X137722572Y-125935765D01*
X137745671Y-125944030D01*
X137767850Y-125954520D01*
X137788893Y-125967132D01*
X137808599Y-125981747D01*
X137826777Y-125998223D01*
X137843253Y-126016401D01*
X137857868Y-126036107D01*
X137870480Y-126057150D01*
X137880970Y-126079329D01*
X137889235Y-126102428D01*
X137895196Y-126126227D01*
X137898796Y-126150495D01*
X137900000Y-126174999D01*
X137900000Y-126825001D01*
X137898796Y-126849505D01*
X137895196Y-126873773D01*
X137889235Y-126897572D01*
X137880970Y-126920671D01*
X137870480Y-126942850D01*
X137857868Y-126963893D01*
X137843253Y-126983599D01*
X137826777Y-127001777D01*
X137808599Y-127018253D01*
X137788893Y-127032868D01*
X137767850Y-127045480D01*
X137745671Y-127055970D01*
X137722572Y-127064235D01*
X137698773Y-127070196D01*
X137674505Y-127073796D01*
X137650001Y-127075000D01*
X136749999Y-127075000D01*
X136725495Y-127073796D01*
X136701227Y-127070196D01*
X136677428Y-127064235D01*
X136654329Y-127055970D01*
X136632150Y-127045480D01*
X136611107Y-127032868D01*
X136591401Y-127018253D01*
X136573223Y-127001777D01*
X136556747Y-126983599D01*
X136542132Y-126963893D01*
X136529520Y-126942850D01*
X136519030Y-126920671D01*
X136510765Y-126897572D01*
X136504804Y-126873773D01*
X136501204Y-126849505D01*
X136500000Y-126825001D01*
X136500000Y-126174999D01*
X136501204Y-126150495D01*
X136504804Y-126126227D01*
X136510765Y-126102428D01*
X136519030Y-126079329D01*
X136529520Y-126057150D01*
X136542132Y-126036107D01*
X136556747Y-126016401D01*
X136573223Y-125998223D01*
X136591401Y-125981747D01*
X136611107Y-125967132D01*
X136632150Y-125954520D01*
X136654329Y-125944030D01*
X136677428Y-125935765D01*
X136701227Y-125929804D01*
X136725495Y-125926204D01*
X136749999Y-125925000D01*
X137650001Y-125925000D01*
X137674505Y-125926204D01*
X137674505Y-125926204D01*
G37*
D16*
X137200000Y-126500000D03*
G04 #@! TD*
D14*
G04 #@! TO.C,D12*
G36*
X135074505Y-123901204D02*
X135098773Y-123904804D01*
X135122572Y-123910765D01*
X135145671Y-123919030D01*
X135167850Y-123929520D01*
X135188893Y-123942132D01*
X135208599Y-123956747D01*
X135226777Y-123973223D01*
X135243253Y-123991401D01*
X135257868Y-124011107D01*
X135270480Y-124032150D01*
X135280970Y-124054329D01*
X135289235Y-124077428D01*
X135295196Y-124101227D01*
X135298796Y-124125495D01*
X135300000Y-124149999D01*
X135300000Y-124800001D01*
X135298796Y-124824505D01*
X135295196Y-124848773D01*
X135289235Y-124872572D01*
X135280970Y-124895671D01*
X135270480Y-124917850D01*
X135257868Y-124938893D01*
X135243253Y-124958599D01*
X135226777Y-124976777D01*
X135208599Y-124993253D01*
X135188893Y-125007868D01*
X135167850Y-125020480D01*
X135145671Y-125030970D01*
X135122572Y-125039235D01*
X135098773Y-125045196D01*
X135074505Y-125048796D01*
X135050001Y-125050000D01*
X134149999Y-125050000D01*
X134125495Y-125048796D01*
X134101227Y-125045196D01*
X134077428Y-125039235D01*
X134054329Y-125030970D01*
X134032150Y-125020480D01*
X134011107Y-125007868D01*
X133991401Y-124993253D01*
X133973223Y-124976777D01*
X133956747Y-124958599D01*
X133942132Y-124938893D01*
X133929520Y-124917850D01*
X133919030Y-124895671D01*
X133910765Y-124872572D01*
X133904804Y-124848773D01*
X133901204Y-124824505D01*
X133900000Y-124800001D01*
X133900000Y-124149999D01*
X133901204Y-124125495D01*
X133904804Y-124101227D01*
X133910765Y-124077428D01*
X133919030Y-124054329D01*
X133929520Y-124032150D01*
X133942132Y-124011107D01*
X133956747Y-123991401D01*
X133973223Y-123973223D01*
X133991401Y-123956747D01*
X134011107Y-123942132D01*
X134032150Y-123929520D01*
X134054329Y-123919030D01*
X134077428Y-123910765D01*
X134101227Y-123904804D01*
X134125495Y-123901204D01*
X134149999Y-123900000D01*
X135050001Y-123900000D01*
X135074505Y-123901204D01*
X135074505Y-123901204D01*
G37*
D16*
X134600000Y-124475000D03*
D14*
G36*
X135074505Y-125951204D02*
X135098773Y-125954804D01*
X135122572Y-125960765D01*
X135145671Y-125969030D01*
X135167850Y-125979520D01*
X135188893Y-125992132D01*
X135208599Y-126006747D01*
X135226777Y-126023223D01*
X135243253Y-126041401D01*
X135257868Y-126061107D01*
X135270480Y-126082150D01*
X135280970Y-126104329D01*
X135289235Y-126127428D01*
X135295196Y-126151227D01*
X135298796Y-126175495D01*
X135300000Y-126199999D01*
X135300000Y-126850001D01*
X135298796Y-126874505D01*
X135295196Y-126898773D01*
X135289235Y-126922572D01*
X135280970Y-126945671D01*
X135270480Y-126967850D01*
X135257868Y-126988893D01*
X135243253Y-127008599D01*
X135226777Y-127026777D01*
X135208599Y-127043253D01*
X135188893Y-127057868D01*
X135167850Y-127070480D01*
X135145671Y-127080970D01*
X135122572Y-127089235D01*
X135098773Y-127095196D01*
X135074505Y-127098796D01*
X135050001Y-127100000D01*
X134149999Y-127100000D01*
X134125495Y-127098796D01*
X134101227Y-127095196D01*
X134077428Y-127089235D01*
X134054329Y-127080970D01*
X134032150Y-127070480D01*
X134011107Y-127057868D01*
X133991401Y-127043253D01*
X133973223Y-127026777D01*
X133956747Y-127008599D01*
X133942132Y-126988893D01*
X133929520Y-126967850D01*
X133919030Y-126945671D01*
X133910765Y-126922572D01*
X133904804Y-126898773D01*
X133901204Y-126874505D01*
X133900000Y-126850001D01*
X133900000Y-126199999D01*
X133901204Y-126175495D01*
X133904804Y-126151227D01*
X133910765Y-126127428D01*
X133919030Y-126104329D01*
X133929520Y-126082150D01*
X133942132Y-126061107D01*
X133956747Y-126041401D01*
X133973223Y-126023223D01*
X133991401Y-126006747D01*
X134011107Y-125992132D01*
X134032150Y-125979520D01*
X134054329Y-125969030D01*
X134077428Y-125960765D01*
X134101227Y-125954804D01*
X134125495Y-125951204D01*
X134149999Y-125950000D01*
X135050001Y-125950000D01*
X135074505Y-125951204D01*
X135074505Y-125951204D01*
G37*
D16*
X134600000Y-126525000D03*
G04 #@! TD*
D14*
G04 #@! TO.C,C3*
G36*
X128249504Y-134201204D02*
X128273773Y-134204804D01*
X128297571Y-134210765D01*
X128320671Y-134219030D01*
X128342849Y-134229520D01*
X128363893Y-134242133D01*
X128383598Y-134256747D01*
X128401777Y-134273223D01*
X128418253Y-134291402D01*
X128432867Y-134311107D01*
X128445480Y-134332151D01*
X128455970Y-134354329D01*
X128464235Y-134377429D01*
X128470196Y-134401227D01*
X128473796Y-134425496D01*
X128475000Y-134450000D01*
X128475000Y-135450000D01*
X128473796Y-135474504D01*
X128470196Y-135498773D01*
X128464235Y-135522571D01*
X128455970Y-135545671D01*
X128445480Y-135567849D01*
X128432867Y-135588893D01*
X128418253Y-135608598D01*
X128401777Y-135626777D01*
X128383598Y-135643253D01*
X128363893Y-135657867D01*
X128342849Y-135670480D01*
X128320671Y-135680970D01*
X128297571Y-135689235D01*
X128273773Y-135695196D01*
X128249504Y-135698796D01*
X128225000Y-135700000D01*
X126375000Y-135700000D01*
X126350496Y-135698796D01*
X126326227Y-135695196D01*
X126302429Y-135689235D01*
X126279329Y-135680970D01*
X126257151Y-135670480D01*
X126236107Y-135657867D01*
X126216402Y-135643253D01*
X126198223Y-135626777D01*
X126181747Y-135608598D01*
X126167133Y-135588893D01*
X126154520Y-135567849D01*
X126144030Y-135545671D01*
X126135765Y-135522571D01*
X126129804Y-135498773D01*
X126126204Y-135474504D01*
X126125000Y-135450000D01*
X126125000Y-134450000D01*
X126126204Y-134425496D01*
X126129804Y-134401227D01*
X126135765Y-134377429D01*
X126144030Y-134354329D01*
X126154520Y-134332151D01*
X126167133Y-134311107D01*
X126181747Y-134291402D01*
X126198223Y-134273223D01*
X126216402Y-134256747D01*
X126236107Y-134242133D01*
X126257151Y-134229520D01*
X126279329Y-134219030D01*
X126302429Y-134210765D01*
X126326227Y-134204804D01*
X126350496Y-134201204D01*
X126375000Y-134200000D01*
X128225000Y-134200000D01*
X128249504Y-134201204D01*
X128249504Y-134201204D01*
G37*
D17*
X127300000Y-134950000D03*
D14*
G36*
X128249504Y-137451204D02*
X128273773Y-137454804D01*
X128297571Y-137460765D01*
X128320671Y-137469030D01*
X128342849Y-137479520D01*
X128363893Y-137492133D01*
X128383598Y-137506747D01*
X128401777Y-137523223D01*
X128418253Y-137541402D01*
X128432867Y-137561107D01*
X128445480Y-137582151D01*
X128455970Y-137604329D01*
X128464235Y-137627429D01*
X128470196Y-137651227D01*
X128473796Y-137675496D01*
X128475000Y-137700000D01*
X128475000Y-138700000D01*
X128473796Y-138724504D01*
X128470196Y-138748773D01*
X128464235Y-138772571D01*
X128455970Y-138795671D01*
X128445480Y-138817849D01*
X128432867Y-138838893D01*
X128418253Y-138858598D01*
X128401777Y-138876777D01*
X128383598Y-138893253D01*
X128363893Y-138907867D01*
X128342849Y-138920480D01*
X128320671Y-138930970D01*
X128297571Y-138939235D01*
X128273773Y-138945196D01*
X128249504Y-138948796D01*
X128225000Y-138950000D01*
X126375000Y-138950000D01*
X126350496Y-138948796D01*
X126326227Y-138945196D01*
X126302429Y-138939235D01*
X126279329Y-138930970D01*
X126257151Y-138920480D01*
X126236107Y-138907867D01*
X126216402Y-138893253D01*
X126198223Y-138876777D01*
X126181747Y-138858598D01*
X126167133Y-138838893D01*
X126154520Y-138817849D01*
X126144030Y-138795671D01*
X126135765Y-138772571D01*
X126129804Y-138748773D01*
X126126204Y-138724504D01*
X126125000Y-138700000D01*
X126125000Y-137700000D01*
X126126204Y-137675496D01*
X126129804Y-137651227D01*
X126135765Y-137627429D01*
X126144030Y-137604329D01*
X126154520Y-137582151D01*
X126167133Y-137561107D01*
X126181747Y-137541402D01*
X126198223Y-137523223D01*
X126216402Y-137506747D01*
X126236107Y-137492133D01*
X126257151Y-137479520D01*
X126279329Y-137469030D01*
X126302429Y-137460765D01*
X126326227Y-137454804D01*
X126350496Y-137451204D01*
X126375000Y-137450000D01*
X128225000Y-137450000D01*
X128249504Y-137451204D01*
X128249504Y-137451204D01*
G37*
D17*
X127300000Y-138200000D03*
G04 #@! TD*
D14*
G04 #@! TO.C,R5*
G36*
X138799505Y-132801204D02*
X138823773Y-132804804D01*
X138847572Y-132810765D01*
X138870671Y-132819030D01*
X138892850Y-132829520D01*
X138913893Y-132842132D01*
X138933599Y-132856747D01*
X138951777Y-132873223D01*
X138968253Y-132891401D01*
X138982868Y-132911107D01*
X138995480Y-132932150D01*
X139005970Y-132954329D01*
X139014235Y-132977428D01*
X139020196Y-133001227D01*
X139023796Y-133025495D01*
X139025000Y-133049999D01*
X139025000Y-133950001D01*
X139023796Y-133974505D01*
X139020196Y-133998773D01*
X139014235Y-134022572D01*
X139005970Y-134045671D01*
X138995480Y-134067850D01*
X138982868Y-134088893D01*
X138968253Y-134108599D01*
X138951777Y-134126777D01*
X138933599Y-134143253D01*
X138913893Y-134157868D01*
X138892850Y-134170480D01*
X138870671Y-134180970D01*
X138847572Y-134189235D01*
X138823773Y-134195196D01*
X138799505Y-134198796D01*
X138775001Y-134200000D01*
X138124999Y-134200000D01*
X138100495Y-134198796D01*
X138076227Y-134195196D01*
X138052428Y-134189235D01*
X138029329Y-134180970D01*
X138007150Y-134170480D01*
X137986107Y-134157868D01*
X137966401Y-134143253D01*
X137948223Y-134126777D01*
X137931747Y-134108599D01*
X137917132Y-134088893D01*
X137904520Y-134067850D01*
X137894030Y-134045671D01*
X137885765Y-134022572D01*
X137879804Y-133998773D01*
X137876204Y-133974505D01*
X137875000Y-133950001D01*
X137875000Y-133049999D01*
X137876204Y-133025495D01*
X137879804Y-133001227D01*
X137885765Y-132977428D01*
X137894030Y-132954329D01*
X137904520Y-132932150D01*
X137917132Y-132911107D01*
X137931747Y-132891401D01*
X137948223Y-132873223D01*
X137966401Y-132856747D01*
X137986107Y-132842132D01*
X138007150Y-132829520D01*
X138029329Y-132819030D01*
X138052428Y-132810765D01*
X138076227Y-132804804D01*
X138100495Y-132801204D01*
X138124999Y-132800000D01*
X138775001Y-132800000D01*
X138799505Y-132801204D01*
X138799505Y-132801204D01*
G37*
D16*
X138450000Y-133500000D03*
D14*
G36*
X140849505Y-132801204D02*
X140873773Y-132804804D01*
X140897572Y-132810765D01*
X140920671Y-132819030D01*
X140942850Y-132829520D01*
X140963893Y-132842132D01*
X140983599Y-132856747D01*
X141001777Y-132873223D01*
X141018253Y-132891401D01*
X141032868Y-132911107D01*
X141045480Y-132932150D01*
X141055970Y-132954329D01*
X141064235Y-132977428D01*
X141070196Y-133001227D01*
X141073796Y-133025495D01*
X141075000Y-133049999D01*
X141075000Y-133950001D01*
X141073796Y-133974505D01*
X141070196Y-133998773D01*
X141064235Y-134022572D01*
X141055970Y-134045671D01*
X141045480Y-134067850D01*
X141032868Y-134088893D01*
X141018253Y-134108599D01*
X141001777Y-134126777D01*
X140983599Y-134143253D01*
X140963893Y-134157868D01*
X140942850Y-134170480D01*
X140920671Y-134180970D01*
X140897572Y-134189235D01*
X140873773Y-134195196D01*
X140849505Y-134198796D01*
X140825001Y-134200000D01*
X140174999Y-134200000D01*
X140150495Y-134198796D01*
X140126227Y-134195196D01*
X140102428Y-134189235D01*
X140079329Y-134180970D01*
X140057150Y-134170480D01*
X140036107Y-134157868D01*
X140016401Y-134143253D01*
X139998223Y-134126777D01*
X139981747Y-134108599D01*
X139967132Y-134088893D01*
X139954520Y-134067850D01*
X139944030Y-134045671D01*
X139935765Y-134022572D01*
X139929804Y-133998773D01*
X139926204Y-133974505D01*
X139925000Y-133950001D01*
X139925000Y-133049999D01*
X139926204Y-133025495D01*
X139929804Y-133001227D01*
X139935765Y-132977428D01*
X139944030Y-132954329D01*
X139954520Y-132932150D01*
X139967132Y-132911107D01*
X139981747Y-132891401D01*
X139998223Y-132873223D01*
X140016401Y-132856747D01*
X140036107Y-132842132D01*
X140057150Y-132829520D01*
X140079329Y-132819030D01*
X140102428Y-132810765D01*
X140126227Y-132804804D01*
X140150495Y-132801204D01*
X140174999Y-132800000D01*
X140825001Y-132800000D01*
X140849505Y-132801204D01*
X140849505Y-132801204D01*
G37*
D16*
X140500000Y-133500000D03*
G04 #@! TD*
D14*
G04 #@! TO.C,R6*
G36*
X172149505Y-137801204D02*
X172173773Y-137804804D01*
X172197572Y-137810765D01*
X172220671Y-137819030D01*
X172242850Y-137829520D01*
X172263893Y-137842132D01*
X172283599Y-137856747D01*
X172301777Y-137873223D01*
X172318253Y-137891401D01*
X172332868Y-137911107D01*
X172345480Y-137932150D01*
X172355970Y-137954329D01*
X172364235Y-137977428D01*
X172370196Y-138001227D01*
X172373796Y-138025495D01*
X172375000Y-138049999D01*
X172375000Y-138950001D01*
X172373796Y-138974505D01*
X172370196Y-138998773D01*
X172364235Y-139022572D01*
X172355970Y-139045671D01*
X172345480Y-139067850D01*
X172332868Y-139088893D01*
X172318253Y-139108599D01*
X172301777Y-139126777D01*
X172283599Y-139143253D01*
X172263893Y-139157868D01*
X172242850Y-139170480D01*
X172220671Y-139180970D01*
X172197572Y-139189235D01*
X172173773Y-139195196D01*
X172149505Y-139198796D01*
X172125001Y-139200000D01*
X171474999Y-139200000D01*
X171450495Y-139198796D01*
X171426227Y-139195196D01*
X171402428Y-139189235D01*
X171379329Y-139180970D01*
X171357150Y-139170480D01*
X171336107Y-139157868D01*
X171316401Y-139143253D01*
X171298223Y-139126777D01*
X171281747Y-139108599D01*
X171267132Y-139088893D01*
X171254520Y-139067850D01*
X171244030Y-139045671D01*
X171235765Y-139022572D01*
X171229804Y-138998773D01*
X171226204Y-138974505D01*
X171225000Y-138950001D01*
X171225000Y-138049999D01*
X171226204Y-138025495D01*
X171229804Y-138001227D01*
X171235765Y-137977428D01*
X171244030Y-137954329D01*
X171254520Y-137932150D01*
X171267132Y-137911107D01*
X171281747Y-137891401D01*
X171298223Y-137873223D01*
X171316401Y-137856747D01*
X171336107Y-137842132D01*
X171357150Y-137829520D01*
X171379329Y-137819030D01*
X171402428Y-137810765D01*
X171426227Y-137804804D01*
X171450495Y-137801204D01*
X171474999Y-137800000D01*
X172125001Y-137800000D01*
X172149505Y-137801204D01*
X172149505Y-137801204D01*
G37*
D16*
X171800000Y-138500000D03*
D14*
G36*
X170099505Y-137801204D02*
X170123773Y-137804804D01*
X170147572Y-137810765D01*
X170170671Y-137819030D01*
X170192850Y-137829520D01*
X170213893Y-137842132D01*
X170233599Y-137856747D01*
X170251777Y-137873223D01*
X170268253Y-137891401D01*
X170282868Y-137911107D01*
X170295480Y-137932150D01*
X170305970Y-137954329D01*
X170314235Y-137977428D01*
X170320196Y-138001227D01*
X170323796Y-138025495D01*
X170325000Y-138049999D01*
X170325000Y-138950001D01*
X170323796Y-138974505D01*
X170320196Y-138998773D01*
X170314235Y-139022572D01*
X170305970Y-139045671D01*
X170295480Y-139067850D01*
X170282868Y-139088893D01*
X170268253Y-139108599D01*
X170251777Y-139126777D01*
X170233599Y-139143253D01*
X170213893Y-139157868D01*
X170192850Y-139170480D01*
X170170671Y-139180970D01*
X170147572Y-139189235D01*
X170123773Y-139195196D01*
X170099505Y-139198796D01*
X170075001Y-139200000D01*
X169424999Y-139200000D01*
X169400495Y-139198796D01*
X169376227Y-139195196D01*
X169352428Y-139189235D01*
X169329329Y-139180970D01*
X169307150Y-139170480D01*
X169286107Y-139157868D01*
X169266401Y-139143253D01*
X169248223Y-139126777D01*
X169231747Y-139108599D01*
X169217132Y-139088893D01*
X169204520Y-139067850D01*
X169194030Y-139045671D01*
X169185765Y-139022572D01*
X169179804Y-138998773D01*
X169176204Y-138974505D01*
X169175000Y-138950001D01*
X169175000Y-138049999D01*
X169176204Y-138025495D01*
X169179804Y-138001227D01*
X169185765Y-137977428D01*
X169194030Y-137954329D01*
X169204520Y-137932150D01*
X169217132Y-137911107D01*
X169231747Y-137891401D01*
X169248223Y-137873223D01*
X169266401Y-137856747D01*
X169286107Y-137842132D01*
X169307150Y-137829520D01*
X169329329Y-137819030D01*
X169352428Y-137810765D01*
X169376227Y-137804804D01*
X169400495Y-137801204D01*
X169424999Y-137800000D01*
X170075001Y-137800000D01*
X170099505Y-137801204D01*
X170099505Y-137801204D01*
G37*
D16*
X169750000Y-138500000D03*
G04 #@! TD*
D14*
G04 #@! TO.C,R7*
G36*
X170099505Y-135551204D02*
X170123773Y-135554804D01*
X170147572Y-135560765D01*
X170170671Y-135569030D01*
X170192850Y-135579520D01*
X170213893Y-135592132D01*
X170233599Y-135606747D01*
X170251777Y-135623223D01*
X170268253Y-135641401D01*
X170282868Y-135661107D01*
X170295480Y-135682150D01*
X170305970Y-135704329D01*
X170314235Y-135727428D01*
X170320196Y-135751227D01*
X170323796Y-135775495D01*
X170325000Y-135799999D01*
X170325000Y-136700001D01*
X170323796Y-136724505D01*
X170320196Y-136748773D01*
X170314235Y-136772572D01*
X170305970Y-136795671D01*
X170295480Y-136817850D01*
X170282868Y-136838893D01*
X170268253Y-136858599D01*
X170251777Y-136876777D01*
X170233599Y-136893253D01*
X170213893Y-136907868D01*
X170192850Y-136920480D01*
X170170671Y-136930970D01*
X170147572Y-136939235D01*
X170123773Y-136945196D01*
X170099505Y-136948796D01*
X170075001Y-136950000D01*
X169424999Y-136950000D01*
X169400495Y-136948796D01*
X169376227Y-136945196D01*
X169352428Y-136939235D01*
X169329329Y-136930970D01*
X169307150Y-136920480D01*
X169286107Y-136907868D01*
X169266401Y-136893253D01*
X169248223Y-136876777D01*
X169231747Y-136858599D01*
X169217132Y-136838893D01*
X169204520Y-136817850D01*
X169194030Y-136795671D01*
X169185765Y-136772572D01*
X169179804Y-136748773D01*
X169176204Y-136724505D01*
X169175000Y-136700001D01*
X169175000Y-135799999D01*
X169176204Y-135775495D01*
X169179804Y-135751227D01*
X169185765Y-135727428D01*
X169194030Y-135704329D01*
X169204520Y-135682150D01*
X169217132Y-135661107D01*
X169231747Y-135641401D01*
X169248223Y-135623223D01*
X169266401Y-135606747D01*
X169286107Y-135592132D01*
X169307150Y-135579520D01*
X169329329Y-135569030D01*
X169352428Y-135560765D01*
X169376227Y-135554804D01*
X169400495Y-135551204D01*
X169424999Y-135550000D01*
X170075001Y-135550000D01*
X170099505Y-135551204D01*
X170099505Y-135551204D01*
G37*
D16*
X169750000Y-136250000D03*
D14*
G36*
X172149505Y-135551204D02*
X172173773Y-135554804D01*
X172197572Y-135560765D01*
X172220671Y-135569030D01*
X172242850Y-135579520D01*
X172263893Y-135592132D01*
X172283599Y-135606747D01*
X172301777Y-135623223D01*
X172318253Y-135641401D01*
X172332868Y-135661107D01*
X172345480Y-135682150D01*
X172355970Y-135704329D01*
X172364235Y-135727428D01*
X172370196Y-135751227D01*
X172373796Y-135775495D01*
X172375000Y-135799999D01*
X172375000Y-136700001D01*
X172373796Y-136724505D01*
X172370196Y-136748773D01*
X172364235Y-136772572D01*
X172355970Y-136795671D01*
X172345480Y-136817850D01*
X172332868Y-136838893D01*
X172318253Y-136858599D01*
X172301777Y-136876777D01*
X172283599Y-136893253D01*
X172263893Y-136907868D01*
X172242850Y-136920480D01*
X172220671Y-136930970D01*
X172197572Y-136939235D01*
X172173773Y-136945196D01*
X172149505Y-136948796D01*
X172125001Y-136950000D01*
X171474999Y-136950000D01*
X171450495Y-136948796D01*
X171426227Y-136945196D01*
X171402428Y-136939235D01*
X171379329Y-136930970D01*
X171357150Y-136920480D01*
X171336107Y-136907868D01*
X171316401Y-136893253D01*
X171298223Y-136876777D01*
X171281747Y-136858599D01*
X171267132Y-136838893D01*
X171254520Y-136817850D01*
X171244030Y-136795671D01*
X171235765Y-136772572D01*
X171229804Y-136748773D01*
X171226204Y-136724505D01*
X171225000Y-136700001D01*
X171225000Y-135799999D01*
X171226204Y-135775495D01*
X171229804Y-135751227D01*
X171235765Y-135727428D01*
X171244030Y-135704329D01*
X171254520Y-135682150D01*
X171267132Y-135661107D01*
X171281747Y-135641401D01*
X171298223Y-135623223D01*
X171316401Y-135606747D01*
X171336107Y-135592132D01*
X171357150Y-135579520D01*
X171379329Y-135569030D01*
X171402428Y-135560765D01*
X171426227Y-135554804D01*
X171450495Y-135551204D01*
X171474999Y-135550000D01*
X172125001Y-135550000D01*
X172149505Y-135551204D01*
X172149505Y-135551204D01*
G37*
D16*
X171800000Y-136250000D03*
G04 #@! TD*
D14*
G04 #@! TO.C,R8*
G36*
X172149505Y-133301204D02*
X172173773Y-133304804D01*
X172197572Y-133310765D01*
X172220671Y-133319030D01*
X172242850Y-133329520D01*
X172263893Y-133342132D01*
X172283599Y-133356747D01*
X172301777Y-133373223D01*
X172318253Y-133391401D01*
X172332868Y-133411107D01*
X172345480Y-133432150D01*
X172355970Y-133454329D01*
X172364235Y-133477428D01*
X172370196Y-133501227D01*
X172373796Y-133525495D01*
X172375000Y-133549999D01*
X172375000Y-134450001D01*
X172373796Y-134474505D01*
X172370196Y-134498773D01*
X172364235Y-134522572D01*
X172355970Y-134545671D01*
X172345480Y-134567850D01*
X172332868Y-134588893D01*
X172318253Y-134608599D01*
X172301777Y-134626777D01*
X172283599Y-134643253D01*
X172263893Y-134657868D01*
X172242850Y-134670480D01*
X172220671Y-134680970D01*
X172197572Y-134689235D01*
X172173773Y-134695196D01*
X172149505Y-134698796D01*
X172125001Y-134700000D01*
X171474999Y-134700000D01*
X171450495Y-134698796D01*
X171426227Y-134695196D01*
X171402428Y-134689235D01*
X171379329Y-134680970D01*
X171357150Y-134670480D01*
X171336107Y-134657868D01*
X171316401Y-134643253D01*
X171298223Y-134626777D01*
X171281747Y-134608599D01*
X171267132Y-134588893D01*
X171254520Y-134567850D01*
X171244030Y-134545671D01*
X171235765Y-134522572D01*
X171229804Y-134498773D01*
X171226204Y-134474505D01*
X171225000Y-134450001D01*
X171225000Y-133549999D01*
X171226204Y-133525495D01*
X171229804Y-133501227D01*
X171235765Y-133477428D01*
X171244030Y-133454329D01*
X171254520Y-133432150D01*
X171267132Y-133411107D01*
X171281747Y-133391401D01*
X171298223Y-133373223D01*
X171316401Y-133356747D01*
X171336107Y-133342132D01*
X171357150Y-133329520D01*
X171379329Y-133319030D01*
X171402428Y-133310765D01*
X171426227Y-133304804D01*
X171450495Y-133301204D01*
X171474999Y-133300000D01*
X172125001Y-133300000D01*
X172149505Y-133301204D01*
X172149505Y-133301204D01*
G37*
D16*
X171800000Y-134000000D03*
D14*
G36*
X170099505Y-133301204D02*
X170123773Y-133304804D01*
X170147572Y-133310765D01*
X170170671Y-133319030D01*
X170192850Y-133329520D01*
X170213893Y-133342132D01*
X170233599Y-133356747D01*
X170251777Y-133373223D01*
X170268253Y-133391401D01*
X170282868Y-133411107D01*
X170295480Y-133432150D01*
X170305970Y-133454329D01*
X170314235Y-133477428D01*
X170320196Y-133501227D01*
X170323796Y-133525495D01*
X170325000Y-133549999D01*
X170325000Y-134450001D01*
X170323796Y-134474505D01*
X170320196Y-134498773D01*
X170314235Y-134522572D01*
X170305970Y-134545671D01*
X170295480Y-134567850D01*
X170282868Y-134588893D01*
X170268253Y-134608599D01*
X170251777Y-134626777D01*
X170233599Y-134643253D01*
X170213893Y-134657868D01*
X170192850Y-134670480D01*
X170170671Y-134680970D01*
X170147572Y-134689235D01*
X170123773Y-134695196D01*
X170099505Y-134698796D01*
X170075001Y-134700000D01*
X169424999Y-134700000D01*
X169400495Y-134698796D01*
X169376227Y-134695196D01*
X169352428Y-134689235D01*
X169329329Y-134680970D01*
X169307150Y-134670480D01*
X169286107Y-134657868D01*
X169266401Y-134643253D01*
X169248223Y-134626777D01*
X169231747Y-134608599D01*
X169217132Y-134588893D01*
X169204520Y-134567850D01*
X169194030Y-134545671D01*
X169185765Y-134522572D01*
X169179804Y-134498773D01*
X169176204Y-134474505D01*
X169175000Y-134450001D01*
X169175000Y-133549999D01*
X169176204Y-133525495D01*
X169179804Y-133501227D01*
X169185765Y-133477428D01*
X169194030Y-133454329D01*
X169204520Y-133432150D01*
X169217132Y-133411107D01*
X169231747Y-133391401D01*
X169248223Y-133373223D01*
X169266401Y-133356747D01*
X169286107Y-133342132D01*
X169307150Y-133329520D01*
X169329329Y-133319030D01*
X169352428Y-133310765D01*
X169376227Y-133304804D01*
X169400495Y-133301204D01*
X169424999Y-133300000D01*
X170075001Y-133300000D01*
X170099505Y-133301204D01*
X170099505Y-133301204D01*
G37*
D16*
X169750000Y-134000000D03*
G04 #@! TD*
D14*
G04 #@! TO.C,R9*
G36*
X170049505Y-131051204D02*
X170073773Y-131054804D01*
X170097572Y-131060765D01*
X170120671Y-131069030D01*
X170142850Y-131079520D01*
X170163893Y-131092132D01*
X170183599Y-131106747D01*
X170201777Y-131123223D01*
X170218253Y-131141401D01*
X170232868Y-131161107D01*
X170245480Y-131182150D01*
X170255970Y-131204329D01*
X170264235Y-131227428D01*
X170270196Y-131251227D01*
X170273796Y-131275495D01*
X170275000Y-131299999D01*
X170275000Y-132200001D01*
X170273796Y-132224505D01*
X170270196Y-132248773D01*
X170264235Y-132272572D01*
X170255970Y-132295671D01*
X170245480Y-132317850D01*
X170232868Y-132338893D01*
X170218253Y-132358599D01*
X170201777Y-132376777D01*
X170183599Y-132393253D01*
X170163893Y-132407868D01*
X170142850Y-132420480D01*
X170120671Y-132430970D01*
X170097572Y-132439235D01*
X170073773Y-132445196D01*
X170049505Y-132448796D01*
X170025001Y-132450000D01*
X169374999Y-132450000D01*
X169350495Y-132448796D01*
X169326227Y-132445196D01*
X169302428Y-132439235D01*
X169279329Y-132430970D01*
X169257150Y-132420480D01*
X169236107Y-132407868D01*
X169216401Y-132393253D01*
X169198223Y-132376777D01*
X169181747Y-132358599D01*
X169167132Y-132338893D01*
X169154520Y-132317850D01*
X169144030Y-132295671D01*
X169135765Y-132272572D01*
X169129804Y-132248773D01*
X169126204Y-132224505D01*
X169125000Y-132200001D01*
X169125000Y-131299999D01*
X169126204Y-131275495D01*
X169129804Y-131251227D01*
X169135765Y-131227428D01*
X169144030Y-131204329D01*
X169154520Y-131182150D01*
X169167132Y-131161107D01*
X169181747Y-131141401D01*
X169198223Y-131123223D01*
X169216401Y-131106747D01*
X169236107Y-131092132D01*
X169257150Y-131079520D01*
X169279329Y-131069030D01*
X169302428Y-131060765D01*
X169326227Y-131054804D01*
X169350495Y-131051204D01*
X169374999Y-131050000D01*
X170025001Y-131050000D01*
X170049505Y-131051204D01*
X170049505Y-131051204D01*
G37*
D16*
X169700000Y-131750000D03*
D14*
G36*
X172099505Y-131051204D02*
X172123773Y-131054804D01*
X172147572Y-131060765D01*
X172170671Y-131069030D01*
X172192850Y-131079520D01*
X172213893Y-131092132D01*
X172233599Y-131106747D01*
X172251777Y-131123223D01*
X172268253Y-131141401D01*
X172282868Y-131161107D01*
X172295480Y-131182150D01*
X172305970Y-131204329D01*
X172314235Y-131227428D01*
X172320196Y-131251227D01*
X172323796Y-131275495D01*
X172325000Y-131299999D01*
X172325000Y-132200001D01*
X172323796Y-132224505D01*
X172320196Y-132248773D01*
X172314235Y-132272572D01*
X172305970Y-132295671D01*
X172295480Y-132317850D01*
X172282868Y-132338893D01*
X172268253Y-132358599D01*
X172251777Y-132376777D01*
X172233599Y-132393253D01*
X172213893Y-132407868D01*
X172192850Y-132420480D01*
X172170671Y-132430970D01*
X172147572Y-132439235D01*
X172123773Y-132445196D01*
X172099505Y-132448796D01*
X172075001Y-132450000D01*
X171424999Y-132450000D01*
X171400495Y-132448796D01*
X171376227Y-132445196D01*
X171352428Y-132439235D01*
X171329329Y-132430970D01*
X171307150Y-132420480D01*
X171286107Y-132407868D01*
X171266401Y-132393253D01*
X171248223Y-132376777D01*
X171231747Y-132358599D01*
X171217132Y-132338893D01*
X171204520Y-132317850D01*
X171194030Y-132295671D01*
X171185765Y-132272572D01*
X171179804Y-132248773D01*
X171176204Y-132224505D01*
X171175000Y-132200001D01*
X171175000Y-131299999D01*
X171176204Y-131275495D01*
X171179804Y-131251227D01*
X171185765Y-131227428D01*
X171194030Y-131204329D01*
X171204520Y-131182150D01*
X171217132Y-131161107D01*
X171231747Y-131141401D01*
X171248223Y-131123223D01*
X171266401Y-131106747D01*
X171286107Y-131092132D01*
X171307150Y-131079520D01*
X171329329Y-131069030D01*
X171352428Y-131060765D01*
X171376227Y-131054804D01*
X171400495Y-131051204D01*
X171424999Y-131050000D01*
X172075001Y-131050000D01*
X172099505Y-131051204D01*
X172099505Y-131051204D01*
G37*
D16*
X171750000Y-131750000D03*
G04 #@! TD*
D14*
G04 #@! TO.C,R10*
G36*
X133849505Y-132801204D02*
X133873773Y-132804804D01*
X133897572Y-132810765D01*
X133920671Y-132819030D01*
X133942850Y-132829520D01*
X133963893Y-132842132D01*
X133983599Y-132856747D01*
X134001777Y-132873223D01*
X134018253Y-132891401D01*
X134032868Y-132911107D01*
X134045480Y-132932150D01*
X134055970Y-132954329D01*
X134064235Y-132977428D01*
X134070196Y-133001227D01*
X134073796Y-133025495D01*
X134075000Y-133049999D01*
X134075000Y-133950001D01*
X134073796Y-133974505D01*
X134070196Y-133998773D01*
X134064235Y-134022572D01*
X134055970Y-134045671D01*
X134045480Y-134067850D01*
X134032868Y-134088893D01*
X134018253Y-134108599D01*
X134001777Y-134126777D01*
X133983599Y-134143253D01*
X133963893Y-134157868D01*
X133942850Y-134170480D01*
X133920671Y-134180970D01*
X133897572Y-134189235D01*
X133873773Y-134195196D01*
X133849505Y-134198796D01*
X133825001Y-134200000D01*
X133174999Y-134200000D01*
X133150495Y-134198796D01*
X133126227Y-134195196D01*
X133102428Y-134189235D01*
X133079329Y-134180970D01*
X133057150Y-134170480D01*
X133036107Y-134157868D01*
X133016401Y-134143253D01*
X132998223Y-134126777D01*
X132981747Y-134108599D01*
X132967132Y-134088893D01*
X132954520Y-134067850D01*
X132944030Y-134045671D01*
X132935765Y-134022572D01*
X132929804Y-133998773D01*
X132926204Y-133974505D01*
X132925000Y-133950001D01*
X132925000Y-133049999D01*
X132926204Y-133025495D01*
X132929804Y-133001227D01*
X132935765Y-132977428D01*
X132944030Y-132954329D01*
X132954520Y-132932150D01*
X132967132Y-132911107D01*
X132981747Y-132891401D01*
X132998223Y-132873223D01*
X133016401Y-132856747D01*
X133036107Y-132842132D01*
X133057150Y-132829520D01*
X133079329Y-132819030D01*
X133102428Y-132810765D01*
X133126227Y-132804804D01*
X133150495Y-132801204D01*
X133174999Y-132800000D01*
X133825001Y-132800000D01*
X133849505Y-132801204D01*
X133849505Y-132801204D01*
G37*
D16*
X133500000Y-133500000D03*
D14*
G36*
X131799505Y-132801204D02*
X131823773Y-132804804D01*
X131847572Y-132810765D01*
X131870671Y-132819030D01*
X131892850Y-132829520D01*
X131913893Y-132842132D01*
X131933599Y-132856747D01*
X131951777Y-132873223D01*
X131968253Y-132891401D01*
X131982868Y-132911107D01*
X131995480Y-132932150D01*
X132005970Y-132954329D01*
X132014235Y-132977428D01*
X132020196Y-133001227D01*
X132023796Y-133025495D01*
X132025000Y-133049999D01*
X132025000Y-133950001D01*
X132023796Y-133974505D01*
X132020196Y-133998773D01*
X132014235Y-134022572D01*
X132005970Y-134045671D01*
X131995480Y-134067850D01*
X131982868Y-134088893D01*
X131968253Y-134108599D01*
X131951777Y-134126777D01*
X131933599Y-134143253D01*
X131913893Y-134157868D01*
X131892850Y-134170480D01*
X131870671Y-134180970D01*
X131847572Y-134189235D01*
X131823773Y-134195196D01*
X131799505Y-134198796D01*
X131775001Y-134200000D01*
X131124999Y-134200000D01*
X131100495Y-134198796D01*
X131076227Y-134195196D01*
X131052428Y-134189235D01*
X131029329Y-134180970D01*
X131007150Y-134170480D01*
X130986107Y-134157868D01*
X130966401Y-134143253D01*
X130948223Y-134126777D01*
X130931747Y-134108599D01*
X130917132Y-134088893D01*
X130904520Y-134067850D01*
X130894030Y-134045671D01*
X130885765Y-134022572D01*
X130879804Y-133998773D01*
X130876204Y-133974505D01*
X130875000Y-133950001D01*
X130875000Y-133049999D01*
X130876204Y-133025495D01*
X130879804Y-133001227D01*
X130885765Y-132977428D01*
X130894030Y-132954329D01*
X130904520Y-132932150D01*
X130917132Y-132911107D01*
X130931747Y-132891401D01*
X130948223Y-132873223D01*
X130966401Y-132856747D01*
X130986107Y-132842132D01*
X131007150Y-132829520D01*
X131029329Y-132819030D01*
X131052428Y-132810765D01*
X131076227Y-132804804D01*
X131100495Y-132801204D01*
X131124999Y-132800000D01*
X131775001Y-132800000D01*
X131799505Y-132801204D01*
X131799505Y-132801204D01*
G37*
D16*
X131450000Y-133500000D03*
G04 #@! TD*
D14*
G04 #@! TO.C,R11*
G36*
X123285505Y-128079204D02*
X123309773Y-128082804D01*
X123333572Y-128088765D01*
X123356671Y-128097030D01*
X123378850Y-128107520D01*
X123399893Y-128120132D01*
X123419599Y-128134747D01*
X123437777Y-128151223D01*
X123454253Y-128169401D01*
X123468868Y-128189107D01*
X123481480Y-128210150D01*
X123491970Y-128232329D01*
X123500235Y-128255428D01*
X123506196Y-128279227D01*
X123509796Y-128303495D01*
X123511000Y-128327999D01*
X123511000Y-129228001D01*
X123509796Y-129252505D01*
X123506196Y-129276773D01*
X123500235Y-129300572D01*
X123491970Y-129323671D01*
X123481480Y-129345850D01*
X123468868Y-129366893D01*
X123454253Y-129386599D01*
X123437777Y-129404777D01*
X123419599Y-129421253D01*
X123399893Y-129435868D01*
X123378850Y-129448480D01*
X123356671Y-129458970D01*
X123333572Y-129467235D01*
X123309773Y-129473196D01*
X123285505Y-129476796D01*
X123261001Y-129478000D01*
X122610999Y-129478000D01*
X122586495Y-129476796D01*
X122562227Y-129473196D01*
X122538428Y-129467235D01*
X122515329Y-129458970D01*
X122493150Y-129448480D01*
X122472107Y-129435868D01*
X122452401Y-129421253D01*
X122434223Y-129404777D01*
X122417747Y-129386599D01*
X122403132Y-129366893D01*
X122390520Y-129345850D01*
X122380030Y-129323671D01*
X122371765Y-129300572D01*
X122365804Y-129276773D01*
X122362204Y-129252505D01*
X122361000Y-129228001D01*
X122361000Y-128327999D01*
X122362204Y-128303495D01*
X122365804Y-128279227D01*
X122371765Y-128255428D01*
X122380030Y-128232329D01*
X122390520Y-128210150D01*
X122403132Y-128189107D01*
X122417747Y-128169401D01*
X122434223Y-128151223D01*
X122452401Y-128134747D01*
X122472107Y-128120132D01*
X122493150Y-128107520D01*
X122515329Y-128097030D01*
X122538428Y-128088765D01*
X122562227Y-128082804D01*
X122586495Y-128079204D01*
X122610999Y-128078000D01*
X123261001Y-128078000D01*
X123285505Y-128079204D01*
X123285505Y-128079204D01*
G37*
D16*
X122936000Y-128778000D03*
D14*
G36*
X121235505Y-128079204D02*
X121259773Y-128082804D01*
X121283572Y-128088765D01*
X121306671Y-128097030D01*
X121328850Y-128107520D01*
X121349893Y-128120132D01*
X121369599Y-128134747D01*
X121387777Y-128151223D01*
X121404253Y-128169401D01*
X121418868Y-128189107D01*
X121431480Y-128210150D01*
X121441970Y-128232329D01*
X121450235Y-128255428D01*
X121456196Y-128279227D01*
X121459796Y-128303495D01*
X121461000Y-128327999D01*
X121461000Y-129228001D01*
X121459796Y-129252505D01*
X121456196Y-129276773D01*
X121450235Y-129300572D01*
X121441970Y-129323671D01*
X121431480Y-129345850D01*
X121418868Y-129366893D01*
X121404253Y-129386599D01*
X121387777Y-129404777D01*
X121369599Y-129421253D01*
X121349893Y-129435868D01*
X121328850Y-129448480D01*
X121306671Y-129458970D01*
X121283572Y-129467235D01*
X121259773Y-129473196D01*
X121235505Y-129476796D01*
X121211001Y-129478000D01*
X120560999Y-129478000D01*
X120536495Y-129476796D01*
X120512227Y-129473196D01*
X120488428Y-129467235D01*
X120465329Y-129458970D01*
X120443150Y-129448480D01*
X120422107Y-129435868D01*
X120402401Y-129421253D01*
X120384223Y-129404777D01*
X120367747Y-129386599D01*
X120353132Y-129366893D01*
X120340520Y-129345850D01*
X120330030Y-129323671D01*
X120321765Y-129300572D01*
X120315804Y-129276773D01*
X120312204Y-129252505D01*
X120311000Y-129228001D01*
X120311000Y-128327999D01*
X120312204Y-128303495D01*
X120315804Y-128279227D01*
X120321765Y-128255428D01*
X120330030Y-128232329D01*
X120340520Y-128210150D01*
X120353132Y-128189107D01*
X120367747Y-128169401D01*
X120384223Y-128151223D01*
X120402401Y-128134747D01*
X120422107Y-128120132D01*
X120443150Y-128107520D01*
X120465329Y-128097030D01*
X120488428Y-128088765D01*
X120512227Y-128082804D01*
X120536495Y-128079204D01*
X120560999Y-128078000D01*
X121211001Y-128078000D01*
X121235505Y-128079204D01*
X121235505Y-128079204D01*
G37*
D16*
X120886000Y-128778000D03*
G04 #@! TD*
D14*
G04 #@! TO.C,R12*
G36*
X137674505Y-129851204D02*
X137698773Y-129854804D01*
X137722572Y-129860765D01*
X137745671Y-129869030D01*
X137767850Y-129879520D01*
X137788893Y-129892132D01*
X137808599Y-129906747D01*
X137826777Y-129923223D01*
X137843253Y-129941401D01*
X137857868Y-129961107D01*
X137870480Y-129982150D01*
X137880970Y-130004329D01*
X137889235Y-130027428D01*
X137895196Y-130051227D01*
X137898796Y-130075495D01*
X137900000Y-130099999D01*
X137900000Y-130750001D01*
X137898796Y-130774505D01*
X137895196Y-130798773D01*
X137889235Y-130822572D01*
X137880970Y-130845671D01*
X137870480Y-130867850D01*
X137857868Y-130888893D01*
X137843253Y-130908599D01*
X137826777Y-130926777D01*
X137808599Y-130943253D01*
X137788893Y-130957868D01*
X137767850Y-130970480D01*
X137745671Y-130980970D01*
X137722572Y-130989235D01*
X137698773Y-130995196D01*
X137674505Y-130998796D01*
X137650001Y-131000000D01*
X136749999Y-131000000D01*
X136725495Y-130998796D01*
X136701227Y-130995196D01*
X136677428Y-130989235D01*
X136654329Y-130980970D01*
X136632150Y-130970480D01*
X136611107Y-130957868D01*
X136591401Y-130943253D01*
X136573223Y-130926777D01*
X136556747Y-130908599D01*
X136542132Y-130888893D01*
X136529520Y-130867850D01*
X136519030Y-130845671D01*
X136510765Y-130822572D01*
X136504804Y-130798773D01*
X136501204Y-130774505D01*
X136500000Y-130750001D01*
X136500000Y-130099999D01*
X136501204Y-130075495D01*
X136504804Y-130051227D01*
X136510765Y-130027428D01*
X136519030Y-130004329D01*
X136529520Y-129982150D01*
X136542132Y-129961107D01*
X136556747Y-129941401D01*
X136573223Y-129923223D01*
X136591401Y-129906747D01*
X136611107Y-129892132D01*
X136632150Y-129879520D01*
X136654329Y-129869030D01*
X136677428Y-129860765D01*
X136701227Y-129854804D01*
X136725495Y-129851204D01*
X136749999Y-129850000D01*
X137650001Y-129850000D01*
X137674505Y-129851204D01*
X137674505Y-129851204D01*
G37*
D16*
X137200000Y-130425000D03*
D14*
G36*
X137674505Y-127801204D02*
X137698773Y-127804804D01*
X137722572Y-127810765D01*
X137745671Y-127819030D01*
X137767850Y-127829520D01*
X137788893Y-127842132D01*
X137808599Y-127856747D01*
X137826777Y-127873223D01*
X137843253Y-127891401D01*
X137857868Y-127911107D01*
X137870480Y-127932150D01*
X137880970Y-127954329D01*
X137889235Y-127977428D01*
X137895196Y-128001227D01*
X137898796Y-128025495D01*
X137900000Y-128049999D01*
X137900000Y-128700001D01*
X137898796Y-128724505D01*
X137895196Y-128748773D01*
X137889235Y-128772572D01*
X137880970Y-128795671D01*
X137870480Y-128817850D01*
X137857868Y-128838893D01*
X137843253Y-128858599D01*
X137826777Y-128876777D01*
X137808599Y-128893253D01*
X137788893Y-128907868D01*
X137767850Y-128920480D01*
X137745671Y-128930970D01*
X137722572Y-128939235D01*
X137698773Y-128945196D01*
X137674505Y-128948796D01*
X137650001Y-128950000D01*
X136749999Y-128950000D01*
X136725495Y-128948796D01*
X136701227Y-128945196D01*
X136677428Y-128939235D01*
X136654329Y-128930970D01*
X136632150Y-128920480D01*
X136611107Y-128907868D01*
X136591401Y-128893253D01*
X136573223Y-128876777D01*
X136556747Y-128858599D01*
X136542132Y-128838893D01*
X136529520Y-128817850D01*
X136519030Y-128795671D01*
X136510765Y-128772572D01*
X136504804Y-128748773D01*
X136501204Y-128724505D01*
X136500000Y-128700001D01*
X136500000Y-128049999D01*
X136501204Y-128025495D01*
X136504804Y-128001227D01*
X136510765Y-127977428D01*
X136519030Y-127954329D01*
X136529520Y-127932150D01*
X136542132Y-127911107D01*
X136556747Y-127891401D01*
X136573223Y-127873223D01*
X136591401Y-127856747D01*
X136611107Y-127842132D01*
X136632150Y-127829520D01*
X136654329Y-127819030D01*
X136677428Y-127810765D01*
X136701227Y-127804804D01*
X136725495Y-127801204D01*
X136749999Y-127800000D01*
X137650001Y-127800000D01*
X137674505Y-127801204D01*
X137674505Y-127801204D01*
G37*
D16*
X137200000Y-128375000D03*
G04 #@! TD*
D14*
G04 #@! TO.C,R13*
G36*
X146349505Y-98401204D02*
X146373773Y-98404804D01*
X146397572Y-98410765D01*
X146420671Y-98419030D01*
X146442850Y-98429520D01*
X146463893Y-98442132D01*
X146483599Y-98456747D01*
X146501777Y-98473223D01*
X146518253Y-98491401D01*
X146532868Y-98511107D01*
X146545480Y-98532150D01*
X146555970Y-98554329D01*
X146564235Y-98577428D01*
X146570196Y-98601227D01*
X146573796Y-98625495D01*
X146575000Y-98649999D01*
X146575000Y-99550001D01*
X146573796Y-99574505D01*
X146570196Y-99598773D01*
X146564235Y-99622572D01*
X146555970Y-99645671D01*
X146545480Y-99667850D01*
X146532868Y-99688893D01*
X146518253Y-99708599D01*
X146501777Y-99726777D01*
X146483599Y-99743253D01*
X146463893Y-99757868D01*
X146442850Y-99770480D01*
X146420671Y-99780970D01*
X146397572Y-99789235D01*
X146373773Y-99795196D01*
X146349505Y-99798796D01*
X146325001Y-99800000D01*
X145674999Y-99800000D01*
X145650495Y-99798796D01*
X145626227Y-99795196D01*
X145602428Y-99789235D01*
X145579329Y-99780970D01*
X145557150Y-99770480D01*
X145536107Y-99757868D01*
X145516401Y-99743253D01*
X145498223Y-99726777D01*
X145481747Y-99708599D01*
X145467132Y-99688893D01*
X145454520Y-99667850D01*
X145444030Y-99645671D01*
X145435765Y-99622572D01*
X145429804Y-99598773D01*
X145426204Y-99574505D01*
X145425000Y-99550001D01*
X145425000Y-98649999D01*
X145426204Y-98625495D01*
X145429804Y-98601227D01*
X145435765Y-98577428D01*
X145444030Y-98554329D01*
X145454520Y-98532150D01*
X145467132Y-98511107D01*
X145481747Y-98491401D01*
X145498223Y-98473223D01*
X145516401Y-98456747D01*
X145536107Y-98442132D01*
X145557150Y-98429520D01*
X145579329Y-98419030D01*
X145602428Y-98410765D01*
X145626227Y-98404804D01*
X145650495Y-98401204D01*
X145674999Y-98400000D01*
X146325001Y-98400000D01*
X146349505Y-98401204D01*
X146349505Y-98401204D01*
G37*
D16*
X146000000Y-99100000D03*
D14*
G36*
X148399505Y-98401204D02*
X148423773Y-98404804D01*
X148447572Y-98410765D01*
X148470671Y-98419030D01*
X148492850Y-98429520D01*
X148513893Y-98442132D01*
X148533599Y-98456747D01*
X148551777Y-98473223D01*
X148568253Y-98491401D01*
X148582868Y-98511107D01*
X148595480Y-98532150D01*
X148605970Y-98554329D01*
X148614235Y-98577428D01*
X148620196Y-98601227D01*
X148623796Y-98625495D01*
X148625000Y-98649999D01*
X148625000Y-99550001D01*
X148623796Y-99574505D01*
X148620196Y-99598773D01*
X148614235Y-99622572D01*
X148605970Y-99645671D01*
X148595480Y-99667850D01*
X148582868Y-99688893D01*
X148568253Y-99708599D01*
X148551777Y-99726777D01*
X148533599Y-99743253D01*
X148513893Y-99757868D01*
X148492850Y-99770480D01*
X148470671Y-99780970D01*
X148447572Y-99789235D01*
X148423773Y-99795196D01*
X148399505Y-99798796D01*
X148375001Y-99800000D01*
X147724999Y-99800000D01*
X147700495Y-99798796D01*
X147676227Y-99795196D01*
X147652428Y-99789235D01*
X147629329Y-99780970D01*
X147607150Y-99770480D01*
X147586107Y-99757868D01*
X147566401Y-99743253D01*
X147548223Y-99726777D01*
X147531747Y-99708599D01*
X147517132Y-99688893D01*
X147504520Y-99667850D01*
X147494030Y-99645671D01*
X147485765Y-99622572D01*
X147479804Y-99598773D01*
X147476204Y-99574505D01*
X147475000Y-99550001D01*
X147475000Y-98649999D01*
X147476204Y-98625495D01*
X147479804Y-98601227D01*
X147485765Y-98577428D01*
X147494030Y-98554329D01*
X147504520Y-98532150D01*
X147517132Y-98511107D01*
X147531747Y-98491401D01*
X147548223Y-98473223D01*
X147566401Y-98456747D01*
X147586107Y-98442132D01*
X147607150Y-98429520D01*
X147629329Y-98419030D01*
X147652428Y-98410765D01*
X147676227Y-98404804D01*
X147700495Y-98401204D01*
X147724999Y-98400000D01*
X148375001Y-98400000D01*
X148399505Y-98401204D01*
X148399505Y-98401204D01*
G37*
D16*
X148050000Y-99100000D03*
G04 #@! TD*
D14*
G04 #@! TO.C,R14*
G36*
X135074505Y-129776204D02*
X135098773Y-129779804D01*
X135122572Y-129785765D01*
X135145671Y-129794030D01*
X135167850Y-129804520D01*
X135188893Y-129817132D01*
X135208599Y-129831747D01*
X135226777Y-129848223D01*
X135243253Y-129866401D01*
X135257868Y-129886107D01*
X135270480Y-129907150D01*
X135280970Y-129929329D01*
X135289235Y-129952428D01*
X135295196Y-129976227D01*
X135298796Y-130000495D01*
X135300000Y-130024999D01*
X135300000Y-130675001D01*
X135298796Y-130699505D01*
X135295196Y-130723773D01*
X135289235Y-130747572D01*
X135280970Y-130770671D01*
X135270480Y-130792850D01*
X135257868Y-130813893D01*
X135243253Y-130833599D01*
X135226777Y-130851777D01*
X135208599Y-130868253D01*
X135188893Y-130882868D01*
X135167850Y-130895480D01*
X135145671Y-130905970D01*
X135122572Y-130914235D01*
X135098773Y-130920196D01*
X135074505Y-130923796D01*
X135050001Y-130925000D01*
X134149999Y-130925000D01*
X134125495Y-130923796D01*
X134101227Y-130920196D01*
X134077428Y-130914235D01*
X134054329Y-130905970D01*
X134032150Y-130895480D01*
X134011107Y-130882868D01*
X133991401Y-130868253D01*
X133973223Y-130851777D01*
X133956747Y-130833599D01*
X133942132Y-130813893D01*
X133929520Y-130792850D01*
X133919030Y-130770671D01*
X133910765Y-130747572D01*
X133904804Y-130723773D01*
X133901204Y-130699505D01*
X133900000Y-130675001D01*
X133900000Y-130024999D01*
X133901204Y-130000495D01*
X133904804Y-129976227D01*
X133910765Y-129952428D01*
X133919030Y-129929329D01*
X133929520Y-129907150D01*
X133942132Y-129886107D01*
X133956747Y-129866401D01*
X133973223Y-129848223D01*
X133991401Y-129831747D01*
X134011107Y-129817132D01*
X134032150Y-129804520D01*
X134054329Y-129794030D01*
X134077428Y-129785765D01*
X134101227Y-129779804D01*
X134125495Y-129776204D01*
X134149999Y-129775000D01*
X135050001Y-129775000D01*
X135074505Y-129776204D01*
X135074505Y-129776204D01*
G37*
D16*
X134600000Y-130350000D03*
D14*
G36*
X135074505Y-127726204D02*
X135098773Y-127729804D01*
X135122572Y-127735765D01*
X135145671Y-127744030D01*
X135167850Y-127754520D01*
X135188893Y-127767132D01*
X135208599Y-127781747D01*
X135226777Y-127798223D01*
X135243253Y-127816401D01*
X135257868Y-127836107D01*
X135270480Y-127857150D01*
X135280970Y-127879329D01*
X135289235Y-127902428D01*
X135295196Y-127926227D01*
X135298796Y-127950495D01*
X135300000Y-127974999D01*
X135300000Y-128625001D01*
X135298796Y-128649505D01*
X135295196Y-128673773D01*
X135289235Y-128697572D01*
X135280970Y-128720671D01*
X135270480Y-128742850D01*
X135257868Y-128763893D01*
X135243253Y-128783599D01*
X135226777Y-128801777D01*
X135208599Y-128818253D01*
X135188893Y-128832868D01*
X135167850Y-128845480D01*
X135145671Y-128855970D01*
X135122572Y-128864235D01*
X135098773Y-128870196D01*
X135074505Y-128873796D01*
X135050001Y-128875000D01*
X134149999Y-128875000D01*
X134125495Y-128873796D01*
X134101227Y-128870196D01*
X134077428Y-128864235D01*
X134054329Y-128855970D01*
X134032150Y-128845480D01*
X134011107Y-128832868D01*
X133991401Y-128818253D01*
X133973223Y-128801777D01*
X133956747Y-128783599D01*
X133942132Y-128763893D01*
X133929520Y-128742850D01*
X133919030Y-128720671D01*
X133910765Y-128697572D01*
X133904804Y-128673773D01*
X133901204Y-128649505D01*
X133900000Y-128625001D01*
X133900000Y-127974999D01*
X133901204Y-127950495D01*
X133904804Y-127926227D01*
X133910765Y-127902428D01*
X133919030Y-127879329D01*
X133929520Y-127857150D01*
X133942132Y-127836107D01*
X133956747Y-127816401D01*
X133973223Y-127798223D01*
X133991401Y-127781747D01*
X134011107Y-127767132D01*
X134032150Y-127754520D01*
X134054329Y-127744030D01*
X134077428Y-127735765D01*
X134101227Y-127729804D01*
X134125495Y-127726204D01*
X134149999Y-127725000D01*
X135050001Y-127725000D01*
X135074505Y-127726204D01*
X135074505Y-127726204D01*
G37*
D16*
X134600000Y-128300000D03*
G04 #@! TD*
D14*
G04 #@! TO.C,R18*
G36*
X185349505Y-114801204D02*
X185373773Y-114804804D01*
X185397572Y-114810765D01*
X185420671Y-114819030D01*
X185442850Y-114829520D01*
X185463893Y-114842132D01*
X185483599Y-114856747D01*
X185501777Y-114873223D01*
X185518253Y-114891401D01*
X185532868Y-114911107D01*
X185545480Y-114932150D01*
X185555970Y-114954329D01*
X185564235Y-114977428D01*
X185570196Y-115001227D01*
X185573796Y-115025495D01*
X185575000Y-115049999D01*
X185575000Y-115950001D01*
X185573796Y-115974505D01*
X185570196Y-115998773D01*
X185564235Y-116022572D01*
X185555970Y-116045671D01*
X185545480Y-116067850D01*
X185532868Y-116088893D01*
X185518253Y-116108599D01*
X185501777Y-116126777D01*
X185483599Y-116143253D01*
X185463893Y-116157868D01*
X185442850Y-116170480D01*
X185420671Y-116180970D01*
X185397572Y-116189235D01*
X185373773Y-116195196D01*
X185349505Y-116198796D01*
X185325001Y-116200000D01*
X184674999Y-116200000D01*
X184650495Y-116198796D01*
X184626227Y-116195196D01*
X184602428Y-116189235D01*
X184579329Y-116180970D01*
X184557150Y-116170480D01*
X184536107Y-116157868D01*
X184516401Y-116143253D01*
X184498223Y-116126777D01*
X184481747Y-116108599D01*
X184467132Y-116088893D01*
X184454520Y-116067850D01*
X184444030Y-116045671D01*
X184435765Y-116022572D01*
X184429804Y-115998773D01*
X184426204Y-115974505D01*
X184425000Y-115950001D01*
X184425000Y-115049999D01*
X184426204Y-115025495D01*
X184429804Y-115001227D01*
X184435765Y-114977428D01*
X184444030Y-114954329D01*
X184454520Y-114932150D01*
X184467132Y-114911107D01*
X184481747Y-114891401D01*
X184498223Y-114873223D01*
X184516401Y-114856747D01*
X184536107Y-114842132D01*
X184557150Y-114829520D01*
X184579329Y-114819030D01*
X184602428Y-114810765D01*
X184626227Y-114804804D01*
X184650495Y-114801204D01*
X184674999Y-114800000D01*
X185325001Y-114800000D01*
X185349505Y-114801204D01*
X185349505Y-114801204D01*
G37*
D16*
X185000000Y-115500000D03*
D14*
G36*
X187399505Y-114801204D02*
X187423773Y-114804804D01*
X187447572Y-114810765D01*
X187470671Y-114819030D01*
X187492850Y-114829520D01*
X187513893Y-114842132D01*
X187533599Y-114856747D01*
X187551777Y-114873223D01*
X187568253Y-114891401D01*
X187582868Y-114911107D01*
X187595480Y-114932150D01*
X187605970Y-114954329D01*
X187614235Y-114977428D01*
X187620196Y-115001227D01*
X187623796Y-115025495D01*
X187625000Y-115049999D01*
X187625000Y-115950001D01*
X187623796Y-115974505D01*
X187620196Y-115998773D01*
X187614235Y-116022572D01*
X187605970Y-116045671D01*
X187595480Y-116067850D01*
X187582868Y-116088893D01*
X187568253Y-116108599D01*
X187551777Y-116126777D01*
X187533599Y-116143253D01*
X187513893Y-116157868D01*
X187492850Y-116170480D01*
X187470671Y-116180970D01*
X187447572Y-116189235D01*
X187423773Y-116195196D01*
X187399505Y-116198796D01*
X187375001Y-116200000D01*
X186724999Y-116200000D01*
X186700495Y-116198796D01*
X186676227Y-116195196D01*
X186652428Y-116189235D01*
X186629329Y-116180970D01*
X186607150Y-116170480D01*
X186586107Y-116157868D01*
X186566401Y-116143253D01*
X186548223Y-116126777D01*
X186531747Y-116108599D01*
X186517132Y-116088893D01*
X186504520Y-116067850D01*
X186494030Y-116045671D01*
X186485765Y-116022572D01*
X186479804Y-115998773D01*
X186476204Y-115974505D01*
X186475000Y-115950001D01*
X186475000Y-115049999D01*
X186476204Y-115025495D01*
X186479804Y-115001227D01*
X186485765Y-114977428D01*
X186494030Y-114954329D01*
X186504520Y-114932150D01*
X186517132Y-114911107D01*
X186531747Y-114891401D01*
X186548223Y-114873223D01*
X186566401Y-114856747D01*
X186586107Y-114842132D01*
X186607150Y-114829520D01*
X186629329Y-114819030D01*
X186652428Y-114810765D01*
X186676227Y-114804804D01*
X186700495Y-114801204D01*
X186724999Y-114800000D01*
X187375001Y-114800000D01*
X187399505Y-114801204D01*
X187399505Y-114801204D01*
G37*
D16*
X187050000Y-115500000D03*
G04 #@! TD*
D14*
G04 #@! TO.C,C15*
G36*
X146810779Y-109026144D02*
X146833834Y-109029563D01*
X146856443Y-109035227D01*
X146878387Y-109043079D01*
X146899457Y-109053044D01*
X146919448Y-109065026D01*
X146938168Y-109078910D01*
X146955438Y-109094562D01*
X146971090Y-109111832D01*
X146984974Y-109130552D01*
X146996956Y-109150543D01*
X147006921Y-109171613D01*
X147014773Y-109193557D01*
X147020437Y-109216166D01*
X147023856Y-109239221D01*
X147025000Y-109262500D01*
X147025000Y-109737500D01*
X147023856Y-109760779D01*
X147020437Y-109783834D01*
X147014773Y-109806443D01*
X147006921Y-109828387D01*
X146996956Y-109849457D01*
X146984974Y-109869448D01*
X146971090Y-109888168D01*
X146955438Y-109905438D01*
X146938168Y-109921090D01*
X146919448Y-109934974D01*
X146899457Y-109946956D01*
X146878387Y-109956921D01*
X146856443Y-109964773D01*
X146833834Y-109970437D01*
X146810779Y-109973856D01*
X146787500Y-109975000D01*
X146212500Y-109975000D01*
X146189221Y-109973856D01*
X146166166Y-109970437D01*
X146143557Y-109964773D01*
X146121613Y-109956921D01*
X146100543Y-109946956D01*
X146080552Y-109934974D01*
X146061832Y-109921090D01*
X146044562Y-109905438D01*
X146028910Y-109888168D01*
X146015026Y-109869448D01*
X146003044Y-109849457D01*
X145993079Y-109828387D01*
X145985227Y-109806443D01*
X145979563Y-109783834D01*
X145976144Y-109760779D01*
X145975000Y-109737500D01*
X145975000Y-109262500D01*
X145976144Y-109239221D01*
X145979563Y-109216166D01*
X145985227Y-109193557D01*
X145993079Y-109171613D01*
X146003044Y-109150543D01*
X146015026Y-109130552D01*
X146028910Y-109111832D01*
X146044562Y-109094562D01*
X146061832Y-109078910D01*
X146080552Y-109065026D01*
X146100543Y-109053044D01*
X146121613Y-109043079D01*
X146143557Y-109035227D01*
X146166166Y-109029563D01*
X146189221Y-109026144D01*
X146212500Y-109025000D01*
X146787500Y-109025000D01*
X146810779Y-109026144D01*
X146810779Y-109026144D01*
G37*
D15*
X146500000Y-109500000D03*
D14*
G36*
X145060779Y-109026144D02*
X145083834Y-109029563D01*
X145106443Y-109035227D01*
X145128387Y-109043079D01*
X145149457Y-109053044D01*
X145169448Y-109065026D01*
X145188168Y-109078910D01*
X145205438Y-109094562D01*
X145221090Y-109111832D01*
X145234974Y-109130552D01*
X145246956Y-109150543D01*
X145256921Y-109171613D01*
X145264773Y-109193557D01*
X145270437Y-109216166D01*
X145273856Y-109239221D01*
X145275000Y-109262500D01*
X145275000Y-109737500D01*
X145273856Y-109760779D01*
X145270437Y-109783834D01*
X145264773Y-109806443D01*
X145256921Y-109828387D01*
X145246956Y-109849457D01*
X145234974Y-109869448D01*
X145221090Y-109888168D01*
X145205438Y-109905438D01*
X145188168Y-109921090D01*
X145169448Y-109934974D01*
X145149457Y-109946956D01*
X145128387Y-109956921D01*
X145106443Y-109964773D01*
X145083834Y-109970437D01*
X145060779Y-109973856D01*
X145037500Y-109975000D01*
X144462500Y-109975000D01*
X144439221Y-109973856D01*
X144416166Y-109970437D01*
X144393557Y-109964773D01*
X144371613Y-109956921D01*
X144350543Y-109946956D01*
X144330552Y-109934974D01*
X144311832Y-109921090D01*
X144294562Y-109905438D01*
X144278910Y-109888168D01*
X144265026Y-109869448D01*
X144253044Y-109849457D01*
X144243079Y-109828387D01*
X144235227Y-109806443D01*
X144229563Y-109783834D01*
X144226144Y-109760779D01*
X144225000Y-109737500D01*
X144225000Y-109262500D01*
X144226144Y-109239221D01*
X144229563Y-109216166D01*
X144235227Y-109193557D01*
X144243079Y-109171613D01*
X144253044Y-109150543D01*
X144265026Y-109130552D01*
X144278910Y-109111832D01*
X144294562Y-109094562D01*
X144311832Y-109078910D01*
X144330552Y-109065026D01*
X144350543Y-109053044D01*
X144371613Y-109043079D01*
X144393557Y-109035227D01*
X144416166Y-109029563D01*
X144439221Y-109026144D01*
X144462500Y-109025000D01*
X145037500Y-109025000D01*
X145060779Y-109026144D01*
X145060779Y-109026144D01*
G37*
D15*
X144750000Y-109500000D03*
G04 #@! TD*
D18*
G04 #@! TO.C,SW1*
X161450000Y-136500000D03*
X158050000Y-136500000D03*
G04 #@! TD*
G04 #@! TO.C,SW2*
X164250000Y-136500000D03*
X167650000Y-136500000D03*
G04 #@! TD*
G04 #@! TO.C,SW3*
X134700000Y-136500000D03*
X131300000Y-136500000D03*
G04 #@! TD*
G04 #@! TO.C,SW4*
X138300000Y-136500000D03*
X141700000Y-136500000D03*
G04 #@! TD*
D14*
G04 #@! TO.C,C16*
G36*
X124974779Y-136126144D02*
X124997834Y-136129563D01*
X125020443Y-136135227D01*
X125042387Y-136143079D01*
X125063457Y-136153044D01*
X125083448Y-136165026D01*
X125102168Y-136178910D01*
X125119438Y-136194562D01*
X125135090Y-136211832D01*
X125148974Y-136230552D01*
X125160956Y-136250543D01*
X125170921Y-136271613D01*
X125178773Y-136293557D01*
X125184437Y-136316166D01*
X125187856Y-136339221D01*
X125189000Y-136362500D01*
X125189000Y-136937500D01*
X125187856Y-136960779D01*
X125184437Y-136983834D01*
X125178773Y-137006443D01*
X125170921Y-137028387D01*
X125160956Y-137049457D01*
X125148974Y-137069448D01*
X125135090Y-137088168D01*
X125119438Y-137105438D01*
X125102168Y-137121090D01*
X125083448Y-137134974D01*
X125063457Y-137146956D01*
X125042387Y-137156921D01*
X125020443Y-137164773D01*
X124997834Y-137170437D01*
X124974779Y-137173856D01*
X124951500Y-137175000D01*
X124476500Y-137175000D01*
X124453221Y-137173856D01*
X124430166Y-137170437D01*
X124407557Y-137164773D01*
X124385613Y-137156921D01*
X124364543Y-137146956D01*
X124344552Y-137134974D01*
X124325832Y-137121090D01*
X124308562Y-137105438D01*
X124292910Y-137088168D01*
X124279026Y-137069448D01*
X124267044Y-137049457D01*
X124257079Y-137028387D01*
X124249227Y-137006443D01*
X124243563Y-136983834D01*
X124240144Y-136960779D01*
X124239000Y-136937500D01*
X124239000Y-136362500D01*
X124240144Y-136339221D01*
X124243563Y-136316166D01*
X124249227Y-136293557D01*
X124257079Y-136271613D01*
X124267044Y-136250543D01*
X124279026Y-136230552D01*
X124292910Y-136211832D01*
X124308562Y-136194562D01*
X124325832Y-136178910D01*
X124344552Y-136165026D01*
X124364543Y-136153044D01*
X124385613Y-136143079D01*
X124407557Y-136135227D01*
X124430166Y-136129563D01*
X124453221Y-136126144D01*
X124476500Y-136125000D01*
X124951500Y-136125000D01*
X124974779Y-136126144D01*
X124974779Y-136126144D01*
G37*
D15*
X124714000Y-136650000D03*
D14*
G36*
X124974779Y-137876144D02*
X124997834Y-137879563D01*
X125020443Y-137885227D01*
X125042387Y-137893079D01*
X125063457Y-137903044D01*
X125083448Y-137915026D01*
X125102168Y-137928910D01*
X125119438Y-137944562D01*
X125135090Y-137961832D01*
X125148974Y-137980552D01*
X125160956Y-138000543D01*
X125170921Y-138021613D01*
X125178773Y-138043557D01*
X125184437Y-138066166D01*
X125187856Y-138089221D01*
X125189000Y-138112500D01*
X125189000Y-138687500D01*
X125187856Y-138710779D01*
X125184437Y-138733834D01*
X125178773Y-138756443D01*
X125170921Y-138778387D01*
X125160956Y-138799457D01*
X125148974Y-138819448D01*
X125135090Y-138838168D01*
X125119438Y-138855438D01*
X125102168Y-138871090D01*
X125083448Y-138884974D01*
X125063457Y-138896956D01*
X125042387Y-138906921D01*
X125020443Y-138914773D01*
X124997834Y-138920437D01*
X124974779Y-138923856D01*
X124951500Y-138925000D01*
X124476500Y-138925000D01*
X124453221Y-138923856D01*
X124430166Y-138920437D01*
X124407557Y-138914773D01*
X124385613Y-138906921D01*
X124364543Y-138896956D01*
X124344552Y-138884974D01*
X124325832Y-138871090D01*
X124308562Y-138855438D01*
X124292910Y-138838168D01*
X124279026Y-138819448D01*
X124267044Y-138799457D01*
X124257079Y-138778387D01*
X124249227Y-138756443D01*
X124243563Y-138733834D01*
X124240144Y-138710779D01*
X124239000Y-138687500D01*
X124239000Y-138112500D01*
X124240144Y-138089221D01*
X124243563Y-138066166D01*
X124249227Y-138043557D01*
X124257079Y-138021613D01*
X124267044Y-138000543D01*
X124279026Y-137980552D01*
X124292910Y-137961832D01*
X124308562Y-137944562D01*
X124325832Y-137928910D01*
X124344552Y-137915026D01*
X124364543Y-137903044D01*
X124385613Y-137893079D01*
X124407557Y-137885227D01*
X124430166Y-137879563D01*
X124453221Y-137876144D01*
X124476500Y-137875000D01*
X124951500Y-137875000D01*
X124974779Y-137876144D01*
X124974779Y-137876144D01*
G37*
D15*
X124714000Y-138400000D03*
G04 #@! TD*
D14*
G04 #@! TO.C,C17*
G36*
X120583504Y-91199204D02*
X120607773Y-91202804D01*
X120631571Y-91208765D01*
X120654671Y-91217030D01*
X120676849Y-91227520D01*
X120697893Y-91240133D01*
X120717598Y-91254747D01*
X120735777Y-91271223D01*
X120752253Y-91289402D01*
X120766867Y-91309107D01*
X120779480Y-91330151D01*
X120789970Y-91352329D01*
X120798235Y-91375429D01*
X120804196Y-91399227D01*
X120807796Y-91423496D01*
X120809000Y-91448000D01*
X120809000Y-92448000D01*
X120807796Y-92472504D01*
X120804196Y-92496773D01*
X120798235Y-92520571D01*
X120789970Y-92543671D01*
X120779480Y-92565849D01*
X120766867Y-92586893D01*
X120752253Y-92606598D01*
X120735777Y-92624777D01*
X120717598Y-92641253D01*
X120697893Y-92655867D01*
X120676849Y-92668480D01*
X120654671Y-92678970D01*
X120631571Y-92687235D01*
X120607773Y-92693196D01*
X120583504Y-92696796D01*
X120559000Y-92698000D01*
X118709000Y-92698000D01*
X118684496Y-92696796D01*
X118660227Y-92693196D01*
X118636429Y-92687235D01*
X118613329Y-92678970D01*
X118591151Y-92668480D01*
X118570107Y-92655867D01*
X118550402Y-92641253D01*
X118532223Y-92624777D01*
X118515747Y-92606598D01*
X118501133Y-92586893D01*
X118488520Y-92565849D01*
X118478030Y-92543671D01*
X118469765Y-92520571D01*
X118463804Y-92496773D01*
X118460204Y-92472504D01*
X118459000Y-92448000D01*
X118459000Y-91448000D01*
X118460204Y-91423496D01*
X118463804Y-91399227D01*
X118469765Y-91375429D01*
X118478030Y-91352329D01*
X118488520Y-91330151D01*
X118501133Y-91309107D01*
X118515747Y-91289402D01*
X118532223Y-91271223D01*
X118550402Y-91254747D01*
X118570107Y-91240133D01*
X118591151Y-91227520D01*
X118613329Y-91217030D01*
X118636429Y-91208765D01*
X118660227Y-91202804D01*
X118684496Y-91199204D01*
X118709000Y-91198000D01*
X120559000Y-91198000D01*
X120583504Y-91199204D01*
X120583504Y-91199204D01*
G37*
D17*
X119634000Y-91948000D03*
D14*
G36*
X120583504Y-87949204D02*
X120607773Y-87952804D01*
X120631571Y-87958765D01*
X120654671Y-87967030D01*
X120676849Y-87977520D01*
X120697893Y-87990133D01*
X120717598Y-88004747D01*
X120735777Y-88021223D01*
X120752253Y-88039402D01*
X120766867Y-88059107D01*
X120779480Y-88080151D01*
X120789970Y-88102329D01*
X120798235Y-88125429D01*
X120804196Y-88149227D01*
X120807796Y-88173496D01*
X120809000Y-88198000D01*
X120809000Y-89198000D01*
X120807796Y-89222504D01*
X120804196Y-89246773D01*
X120798235Y-89270571D01*
X120789970Y-89293671D01*
X120779480Y-89315849D01*
X120766867Y-89336893D01*
X120752253Y-89356598D01*
X120735777Y-89374777D01*
X120717598Y-89391253D01*
X120697893Y-89405867D01*
X120676849Y-89418480D01*
X120654671Y-89428970D01*
X120631571Y-89437235D01*
X120607773Y-89443196D01*
X120583504Y-89446796D01*
X120559000Y-89448000D01*
X118709000Y-89448000D01*
X118684496Y-89446796D01*
X118660227Y-89443196D01*
X118636429Y-89437235D01*
X118613329Y-89428970D01*
X118591151Y-89418480D01*
X118570107Y-89405867D01*
X118550402Y-89391253D01*
X118532223Y-89374777D01*
X118515747Y-89356598D01*
X118501133Y-89336893D01*
X118488520Y-89315849D01*
X118478030Y-89293671D01*
X118469765Y-89270571D01*
X118463804Y-89246773D01*
X118460204Y-89222504D01*
X118459000Y-89198000D01*
X118459000Y-88198000D01*
X118460204Y-88173496D01*
X118463804Y-88149227D01*
X118469765Y-88125429D01*
X118478030Y-88102329D01*
X118488520Y-88080151D01*
X118501133Y-88059107D01*
X118515747Y-88039402D01*
X118532223Y-88021223D01*
X118550402Y-88004747D01*
X118570107Y-87990133D01*
X118591151Y-87977520D01*
X118613329Y-87967030D01*
X118636429Y-87958765D01*
X118660227Y-87952804D01*
X118684496Y-87949204D01*
X118709000Y-87948000D01*
X120559000Y-87948000D01*
X120583504Y-87949204D01*
X120583504Y-87949204D01*
G37*
D17*
X119634000Y-88698000D03*
G04 #@! TD*
D14*
G04 #@! TO.C,C1*
G36*
X146299504Y-74501204D02*
X146323773Y-74504804D01*
X146347571Y-74510765D01*
X146370671Y-74519030D01*
X146392849Y-74529520D01*
X146413893Y-74542133D01*
X146433598Y-74556747D01*
X146451777Y-74573223D01*
X146468253Y-74591402D01*
X146482867Y-74611107D01*
X146495480Y-74632151D01*
X146505970Y-74654329D01*
X146514235Y-74677429D01*
X146520196Y-74701227D01*
X146523796Y-74725496D01*
X146525000Y-74750000D01*
X146525000Y-75675000D01*
X146523796Y-75699504D01*
X146520196Y-75723773D01*
X146514235Y-75747571D01*
X146505970Y-75770671D01*
X146495480Y-75792849D01*
X146482867Y-75813893D01*
X146468253Y-75833598D01*
X146451777Y-75851777D01*
X146433598Y-75868253D01*
X146413893Y-75882867D01*
X146392849Y-75895480D01*
X146370671Y-75905970D01*
X146347571Y-75914235D01*
X146323773Y-75920196D01*
X146299504Y-75923796D01*
X146275000Y-75925000D01*
X144125000Y-75925000D01*
X144100496Y-75923796D01*
X144076227Y-75920196D01*
X144052429Y-75914235D01*
X144029329Y-75905970D01*
X144007151Y-75895480D01*
X143986107Y-75882867D01*
X143966402Y-75868253D01*
X143948223Y-75851777D01*
X143931747Y-75833598D01*
X143917133Y-75813893D01*
X143904520Y-75792849D01*
X143894030Y-75770671D01*
X143885765Y-75747571D01*
X143879804Y-75723773D01*
X143876204Y-75699504D01*
X143875000Y-75675000D01*
X143875000Y-74750000D01*
X143876204Y-74725496D01*
X143879804Y-74701227D01*
X143885765Y-74677429D01*
X143894030Y-74654329D01*
X143904520Y-74632151D01*
X143917133Y-74611107D01*
X143931747Y-74591402D01*
X143948223Y-74573223D01*
X143966402Y-74556747D01*
X143986107Y-74542133D01*
X144007151Y-74529520D01*
X144029329Y-74519030D01*
X144052429Y-74510765D01*
X144076227Y-74504804D01*
X144100496Y-74501204D01*
X144125000Y-74500000D01*
X146275000Y-74500000D01*
X146299504Y-74501204D01*
X146299504Y-74501204D01*
G37*
D19*
X145200000Y-75212500D03*
D14*
G36*
X146299504Y-77476204D02*
X146323773Y-77479804D01*
X146347571Y-77485765D01*
X146370671Y-77494030D01*
X146392849Y-77504520D01*
X146413893Y-77517133D01*
X146433598Y-77531747D01*
X146451777Y-77548223D01*
X146468253Y-77566402D01*
X146482867Y-77586107D01*
X146495480Y-77607151D01*
X146505970Y-77629329D01*
X146514235Y-77652429D01*
X146520196Y-77676227D01*
X146523796Y-77700496D01*
X146525000Y-77725000D01*
X146525000Y-78650000D01*
X146523796Y-78674504D01*
X146520196Y-78698773D01*
X146514235Y-78722571D01*
X146505970Y-78745671D01*
X146495480Y-78767849D01*
X146482867Y-78788893D01*
X146468253Y-78808598D01*
X146451777Y-78826777D01*
X146433598Y-78843253D01*
X146413893Y-78857867D01*
X146392849Y-78870480D01*
X146370671Y-78880970D01*
X146347571Y-78889235D01*
X146323773Y-78895196D01*
X146299504Y-78898796D01*
X146275000Y-78900000D01*
X144125000Y-78900000D01*
X144100496Y-78898796D01*
X144076227Y-78895196D01*
X144052429Y-78889235D01*
X144029329Y-78880970D01*
X144007151Y-78870480D01*
X143986107Y-78857867D01*
X143966402Y-78843253D01*
X143948223Y-78826777D01*
X143931747Y-78808598D01*
X143917133Y-78788893D01*
X143904520Y-78767849D01*
X143894030Y-78745671D01*
X143885765Y-78722571D01*
X143879804Y-78698773D01*
X143876204Y-78674504D01*
X143875000Y-78650000D01*
X143875000Y-77725000D01*
X143876204Y-77700496D01*
X143879804Y-77676227D01*
X143885765Y-77652429D01*
X143894030Y-77629329D01*
X143904520Y-77607151D01*
X143917133Y-77586107D01*
X143931747Y-77566402D01*
X143948223Y-77548223D01*
X143966402Y-77531747D01*
X143986107Y-77517133D01*
X144007151Y-77504520D01*
X144029329Y-77494030D01*
X144052429Y-77485765D01*
X144076227Y-77479804D01*
X144100496Y-77476204D01*
X144125000Y-77475000D01*
X146275000Y-77475000D01*
X146299504Y-77476204D01*
X146299504Y-77476204D01*
G37*
D19*
X145200000Y-78187500D03*
G04 #@! TD*
M02*
