M48
;DRILL file {KiCad (5.0.0)} date 08/09/18 10:22:11
;FORMAT={-:-/ absolute / inch / decimal}
FMAT,2
INCH,TZ
T1C0.0157
T2C0.0300
T3C0.0315
T4C0.0350
T5C0.0354
T6C0.0394
T7C0.0433
T8C0.0630
T9C0.1260
%
G90
G05
M72
T1
X4.252Y-4.5709
X4.3228Y-5.0551
X4.4094Y-3.4449
X4.5866Y-2.815
X4.6831Y-3.8406
X4.7146Y-4.813
X4.8819Y-5.0394
X4.937Y-4.8898
X4.975Y-4.15
X5.0787Y-5.3937
X5.1181Y-4.7844
X5.126Y-4.3386
X5.1299Y-4.4116
X5.1357Y-5.3839
X5.1378Y-4.1535
X5.1614Y-4.4685
X5.2Y-5.125
X5.2323Y-4.4685
X5.2461Y-5.0295
X5.2461Y-5.1969
X5.2559Y-4.626
X5.3Y-3.975
X5.3268Y-4.5157
X5.3465Y-4.8711
X5.3642Y-5.374
X5.374Y-4.813
X5.3937Y-5.311
X5.4035Y-4.8425
X5.4225Y-4.6624
X5.4528Y-3.874
X5.4528Y-4.4331
X5.4626Y-5.0295
X5.4626Y-5.1969
X5.4675Y-4.9764
X5.4675Y-5.1339
X5.4961Y-5.1732
X5.5669Y-4.8268
X5.5955Y-4.8937
X5.6Y-3.775
X5.6102Y-4.6161
X5.6201Y-5.1339
X5.6299Y-5.374
X5.6476Y-4.8268
X5.7953Y-5.2913
X5.7972Y-5.3917
X5.7992Y-4.1339
X5.8031Y-4.3661
X5.8268Y-5.1772
X5.8465Y-3.4252
X5.8465Y-3.9685
X5.8465Y-4.3425
X5.8465Y-4.5468
X5.85Y-5.0996
X5.8622Y-4.8622
X5.8622Y-5.2677
X5.8898Y-4.1339
X5.895Y-4.5483
X5.9094Y-4.6575
X5.9094Y-4.8228
X5.9616Y-4.377
X6.0138Y-4.9114
X6.0677Y-4.9813
X6.1Y-4.525
X6.1024Y-4.1142
X6.1102Y-4.374
X6.1215Y-4.7746
X6.1215Y-4.8425
X6.122Y-5.1772
X6.122Y-5.2756
X6.1619Y-5.0049
X6.1713Y-4.7061
X6.2205Y-5.0335
X6.2402Y-3.878
X6.248Y-4.4252
X6.248Y-5.4557
X6.2894Y-5.374
X6.3031Y-4.2283
X6.3307Y-4.6614
X6.4173Y-4.2598
X6.4567Y-5.4844
X6.5157Y-4.1339
X6.5354Y-5.374
X6.6181Y-3.9646
X6.6378Y-4.122
X6.825Y-5.45
X7.0876Y-4.01
X7.185Y-4.3701
X7.185Y-4.5866
X7.2362Y-3.9921
X7.2913Y-3.9921
X7.3386Y-4.0787
T2
X4.7819Y-3.2231
X4.7831Y-2.8431
X5.3931Y-2.8431
X5.3931Y-3.2231
T3
X5.9055Y-4.439
X6.0236Y-4.439
X5.6693Y-4.439
X5.7874Y-4.439
T4
X6.0201Y-3.3299
X6.0701Y-3.4299
X6.1201Y-3.3299
X6.1701Y-3.4299
X6.2201Y-3.3299
X6.2701Y-3.4299
X6.3201Y-3.3299
X6.3701Y-3.4299
X5.3199Y-3.3299
X5.3699Y-3.4299
X5.4199Y-3.3299
X5.4699Y-3.4299
X5.5199Y-3.3299
X5.5699Y-3.4299
X5.6199Y-3.3299
X5.6699Y-3.4299
T5
X6.4567Y-4.813
X6.5567Y-4.813
X6.6567Y-4.813
X6.2697Y-4.7913
X6.2697Y-4.8913
T6
X6.7913Y-3.937
X6.7913Y-4.037
X6.7913Y-4.137
X6.7913Y-4.237
X6.7913Y-4.337
X4.8Y-4.85
X4.8Y-4.95
X6.2598Y-5.1362
X6.2598Y-5.2362
X6.3598Y-5.1362
X6.3598Y-5.2362
X6.4598Y-5.1362
X6.4598Y-5.2362
X6.5598Y-5.1362
X6.5598Y-5.2362
X4.9016Y-3.937
X4.9016Y-4.037
X4.9016Y-4.137
X4.9016Y-4.237
X4.9016Y-4.337
X4.3177Y-4.3701
X4.3177Y-4.4701
X4.4177Y-4.3701
X4.4177Y-4.4701
X4.5177Y-4.3701
X4.5177Y-4.4701
X4.1598Y-3.9134
X4.1598Y-4.0134
X4.1598Y-4.1134
X4.2598Y-3.9134
X4.2598Y-4.0134
X4.2598Y-4.1134
X6.1976Y-2.8642
X6.1976Y-2.9642
X6.2976Y-2.8642
X6.2976Y-2.9642
X6.3976Y-2.8642
X6.3976Y-2.9642
X4.7047Y-5.2165
X4.7047Y-5.3165
X4.7047Y-5.4165
X4.8047Y-5.2165
X4.8047Y-5.3165
X4.8047Y-5.4165
X4.7343Y-4.3654
X4.7343Y-4.4654
X4.7343Y-4.5654
X4.7343Y-4.6654
X5.9252Y-5.078
X5.9252Y-5.178
X5.9252Y-5.278
X5.9252Y-5.378
X4.1831Y-3.3957
X4.1831Y-3.4957
X4.1831Y-3.5957
X6.063Y-4.7524
X6.063Y-4.8524
X4.2732Y-4.6905
X4.3732Y-4.6905
X4.4732Y-4.6905
X7.0669Y-4.1535
X7.0669Y-4.2535
X7.0669Y-4.3535
X7.0669Y-4.4535
X7.0669Y-4.5535
X7.0669Y-4.6535
X4.4094Y-3.9134
X4.4094Y-4.0134
X4.4094Y-4.1134
X4.5094Y-3.9134
X4.5094Y-4.0134
X4.5094Y-4.1134
X4.1142Y-4.685
X4.1142Y-4.785
X7.3228Y-4.2913
X7.3228Y-4.3913
T7
X5.56Y-2.875
X5.56Y-3.175
T8
X5.9Y-3.8
X6.4902Y-3.8
X5.1998Y-3.8
X5.79Y-3.8
T9
X4.9606Y-4.5866
X4.4882Y-2.9921
X6.7323Y-3.6811
X6.7323Y-4.5866
X4.4882Y-5.2756
X7.2047Y-5.2756
X4.9606Y-3.6811
X7.2047Y-2.9921
T0
M30
