G04 #@! TF.GenerationSoftware,KiCad,Pcbnew,(5.0.0)*
G04 #@! TF.CreationDate,2018-08-09T10:22:04+01:00*
G04 #@! TF.ProjectId,domenode,646F6D656E6F64652E6B696361645F70,rev?*
G04 #@! TF.SameCoordinates,Original*
G04 #@! TF.FileFunction,Paste,Bot*
G04 #@! TF.FilePolarity,Positive*
%FSLAX46Y46*%
G04 Gerber Fmt 4.6, Leading zero omitted, Abs format (unit mm)*
G04 Created by KiCad (PCBNEW (5.0.0)) date 08/09/18 10:22:04*
%MOMM*%
%LPD*%
G01*
G04 APERTURE LIST*
%ADD10R,2.540000X1.524000*%
%ADD11O,2.500000X0.900000*%
%ADD12O,0.900000X2.500000*%
%ADD13R,6.000000X6.000000*%
%ADD14C,0.100000*%
%ADD15C,0.950000*%
%ADD16C,1.150000*%
%ADD17R,0.800000X1.900000*%
G04 APERTURE END LIST*
D10*
G04 #@! TO.C,J19*
X147810000Y-90422000D03*
X131205000Y-90422000D03*
G04 #@! TD*
G04 #@! TO.C,J20*
X165594000Y-90422000D03*
X148989000Y-90422000D03*
G04 #@! TD*
D11*
G04 #@! TO.C,U3*
X145250000Y-138200000D03*
X145250000Y-136930000D03*
X145250000Y-135660000D03*
X145250000Y-134390000D03*
X145250000Y-133120000D03*
X145250000Y-131850000D03*
X145250000Y-130580000D03*
X145250000Y-129310000D03*
X145250000Y-128040000D03*
X145250000Y-126770000D03*
X145250000Y-125500000D03*
X145250000Y-124230000D03*
X145250000Y-122960000D03*
X145250000Y-121690000D03*
D12*
X141965000Y-120200000D03*
X140695000Y-120200000D03*
X139425000Y-120200000D03*
X138155000Y-120200000D03*
X136885000Y-120200000D03*
X135615000Y-120200000D03*
X134345000Y-120200000D03*
X133075000Y-120200000D03*
X131805000Y-120200000D03*
X130535000Y-120200000D03*
D11*
X127250000Y-121690000D03*
X127250000Y-122960000D03*
X127250000Y-124230000D03*
X127250000Y-125500000D03*
X127250000Y-126770000D03*
X127250000Y-128040000D03*
X127250000Y-129310000D03*
X127250000Y-130580000D03*
X127250000Y-131850000D03*
X127250000Y-133120000D03*
X127250000Y-134390000D03*
X127250000Y-135660000D03*
X127250000Y-136930000D03*
X127250000Y-138200000D03*
D13*
X135950000Y-130500000D03*
G04 #@! TD*
D14*
G04 #@! TO.C,C14*
G36*
X183810779Y-99276144D02*
X183833834Y-99279563D01*
X183856443Y-99285227D01*
X183878387Y-99293079D01*
X183899457Y-99303044D01*
X183919448Y-99315026D01*
X183938168Y-99328910D01*
X183955438Y-99344562D01*
X183971090Y-99361832D01*
X183984974Y-99380552D01*
X183996956Y-99400543D01*
X184006921Y-99421613D01*
X184014773Y-99443557D01*
X184020437Y-99466166D01*
X184023856Y-99489221D01*
X184025000Y-99512500D01*
X184025000Y-99987500D01*
X184023856Y-100010779D01*
X184020437Y-100033834D01*
X184014773Y-100056443D01*
X184006921Y-100078387D01*
X183996956Y-100099457D01*
X183984974Y-100119448D01*
X183971090Y-100138168D01*
X183955438Y-100155438D01*
X183938168Y-100171090D01*
X183919448Y-100184974D01*
X183899457Y-100196956D01*
X183878387Y-100206921D01*
X183856443Y-100214773D01*
X183833834Y-100220437D01*
X183810779Y-100223856D01*
X183787500Y-100225000D01*
X183212500Y-100225000D01*
X183189221Y-100223856D01*
X183166166Y-100220437D01*
X183143557Y-100214773D01*
X183121613Y-100206921D01*
X183100543Y-100196956D01*
X183080552Y-100184974D01*
X183061832Y-100171090D01*
X183044562Y-100155438D01*
X183028910Y-100138168D01*
X183015026Y-100119448D01*
X183003044Y-100099457D01*
X182993079Y-100078387D01*
X182985227Y-100056443D01*
X182979563Y-100033834D01*
X182976144Y-100010779D01*
X182975000Y-99987500D01*
X182975000Y-99512500D01*
X182976144Y-99489221D01*
X182979563Y-99466166D01*
X182985227Y-99443557D01*
X182993079Y-99421613D01*
X183003044Y-99400543D01*
X183015026Y-99380552D01*
X183028910Y-99361832D01*
X183044562Y-99344562D01*
X183061832Y-99328910D01*
X183080552Y-99315026D01*
X183100543Y-99303044D01*
X183121613Y-99293079D01*
X183143557Y-99285227D01*
X183166166Y-99279563D01*
X183189221Y-99276144D01*
X183212500Y-99275000D01*
X183787500Y-99275000D01*
X183810779Y-99276144D01*
X183810779Y-99276144D01*
G37*
D15*
X183500000Y-99750000D03*
D14*
G36*
X185560779Y-99276144D02*
X185583834Y-99279563D01*
X185606443Y-99285227D01*
X185628387Y-99293079D01*
X185649457Y-99303044D01*
X185669448Y-99315026D01*
X185688168Y-99328910D01*
X185705438Y-99344562D01*
X185721090Y-99361832D01*
X185734974Y-99380552D01*
X185746956Y-99400543D01*
X185756921Y-99421613D01*
X185764773Y-99443557D01*
X185770437Y-99466166D01*
X185773856Y-99489221D01*
X185775000Y-99512500D01*
X185775000Y-99987500D01*
X185773856Y-100010779D01*
X185770437Y-100033834D01*
X185764773Y-100056443D01*
X185756921Y-100078387D01*
X185746956Y-100099457D01*
X185734974Y-100119448D01*
X185721090Y-100138168D01*
X185705438Y-100155438D01*
X185688168Y-100171090D01*
X185669448Y-100184974D01*
X185649457Y-100196956D01*
X185628387Y-100206921D01*
X185606443Y-100214773D01*
X185583834Y-100220437D01*
X185560779Y-100223856D01*
X185537500Y-100225000D01*
X184962500Y-100225000D01*
X184939221Y-100223856D01*
X184916166Y-100220437D01*
X184893557Y-100214773D01*
X184871613Y-100206921D01*
X184850543Y-100196956D01*
X184830552Y-100184974D01*
X184811832Y-100171090D01*
X184794562Y-100155438D01*
X184778910Y-100138168D01*
X184765026Y-100119448D01*
X184753044Y-100099457D01*
X184743079Y-100078387D01*
X184735227Y-100056443D01*
X184729563Y-100033834D01*
X184726144Y-100010779D01*
X184725000Y-99987500D01*
X184725000Y-99512500D01*
X184726144Y-99489221D01*
X184729563Y-99466166D01*
X184735227Y-99443557D01*
X184743079Y-99421613D01*
X184753044Y-99400543D01*
X184765026Y-99380552D01*
X184778910Y-99361832D01*
X184794562Y-99344562D01*
X184811832Y-99328910D01*
X184830552Y-99315026D01*
X184850543Y-99303044D01*
X184871613Y-99293079D01*
X184893557Y-99285227D01*
X184916166Y-99279563D01*
X184939221Y-99276144D01*
X184962500Y-99275000D01*
X185537500Y-99275000D01*
X185560779Y-99276144D01*
X185560779Y-99276144D01*
G37*
D15*
X185250000Y-99750000D03*
G04 #@! TD*
D14*
G04 #@! TO.C,R1*
G36*
X144367505Y-115633204D02*
X144391773Y-115636804D01*
X144415572Y-115642765D01*
X144438671Y-115651030D01*
X144460850Y-115661520D01*
X144481893Y-115674132D01*
X144501599Y-115688747D01*
X144519777Y-115705223D01*
X144536253Y-115723401D01*
X144550868Y-115743107D01*
X144563480Y-115764150D01*
X144573970Y-115786329D01*
X144582235Y-115809428D01*
X144588196Y-115833227D01*
X144591796Y-115857495D01*
X144593000Y-115881999D01*
X144593000Y-116782001D01*
X144591796Y-116806505D01*
X144588196Y-116830773D01*
X144582235Y-116854572D01*
X144573970Y-116877671D01*
X144563480Y-116899850D01*
X144550868Y-116920893D01*
X144536253Y-116940599D01*
X144519777Y-116958777D01*
X144501599Y-116975253D01*
X144481893Y-116989868D01*
X144460850Y-117002480D01*
X144438671Y-117012970D01*
X144415572Y-117021235D01*
X144391773Y-117027196D01*
X144367505Y-117030796D01*
X144343001Y-117032000D01*
X143692999Y-117032000D01*
X143668495Y-117030796D01*
X143644227Y-117027196D01*
X143620428Y-117021235D01*
X143597329Y-117012970D01*
X143575150Y-117002480D01*
X143554107Y-116989868D01*
X143534401Y-116975253D01*
X143516223Y-116958777D01*
X143499747Y-116940599D01*
X143485132Y-116920893D01*
X143472520Y-116899850D01*
X143462030Y-116877671D01*
X143453765Y-116854572D01*
X143447804Y-116830773D01*
X143444204Y-116806505D01*
X143443000Y-116782001D01*
X143443000Y-115881999D01*
X143444204Y-115857495D01*
X143447804Y-115833227D01*
X143453765Y-115809428D01*
X143462030Y-115786329D01*
X143472520Y-115764150D01*
X143485132Y-115743107D01*
X143499747Y-115723401D01*
X143516223Y-115705223D01*
X143534401Y-115688747D01*
X143554107Y-115674132D01*
X143575150Y-115661520D01*
X143597329Y-115651030D01*
X143620428Y-115642765D01*
X143644227Y-115636804D01*
X143668495Y-115633204D01*
X143692999Y-115632000D01*
X144343001Y-115632000D01*
X144367505Y-115633204D01*
X144367505Y-115633204D01*
G37*
D16*
X144018000Y-116332000D03*
D14*
G36*
X146417505Y-115633204D02*
X146441773Y-115636804D01*
X146465572Y-115642765D01*
X146488671Y-115651030D01*
X146510850Y-115661520D01*
X146531893Y-115674132D01*
X146551599Y-115688747D01*
X146569777Y-115705223D01*
X146586253Y-115723401D01*
X146600868Y-115743107D01*
X146613480Y-115764150D01*
X146623970Y-115786329D01*
X146632235Y-115809428D01*
X146638196Y-115833227D01*
X146641796Y-115857495D01*
X146643000Y-115881999D01*
X146643000Y-116782001D01*
X146641796Y-116806505D01*
X146638196Y-116830773D01*
X146632235Y-116854572D01*
X146623970Y-116877671D01*
X146613480Y-116899850D01*
X146600868Y-116920893D01*
X146586253Y-116940599D01*
X146569777Y-116958777D01*
X146551599Y-116975253D01*
X146531893Y-116989868D01*
X146510850Y-117002480D01*
X146488671Y-117012970D01*
X146465572Y-117021235D01*
X146441773Y-117027196D01*
X146417505Y-117030796D01*
X146393001Y-117032000D01*
X145742999Y-117032000D01*
X145718495Y-117030796D01*
X145694227Y-117027196D01*
X145670428Y-117021235D01*
X145647329Y-117012970D01*
X145625150Y-117002480D01*
X145604107Y-116989868D01*
X145584401Y-116975253D01*
X145566223Y-116958777D01*
X145549747Y-116940599D01*
X145535132Y-116920893D01*
X145522520Y-116899850D01*
X145512030Y-116877671D01*
X145503765Y-116854572D01*
X145497804Y-116830773D01*
X145494204Y-116806505D01*
X145493000Y-116782001D01*
X145493000Y-115881999D01*
X145494204Y-115857495D01*
X145497804Y-115833227D01*
X145503765Y-115809428D01*
X145512030Y-115786329D01*
X145522520Y-115764150D01*
X145535132Y-115743107D01*
X145549747Y-115723401D01*
X145566223Y-115705223D01*
X145584401Y-115688747D01*
X145604107Y-115674132D01*
X145625150Y-115661520D01*
X145647329Y-115651030D01*
X145670428Y-115642765D01*
X145694227Y-115636804D01*
X145718495Y-115633204D01*
X145742999Y-115632000D01*
X146393001Y-115632000D01*
X146417505Y-115633204D01*
X146417505Y-115633204D01*
G37*
D16*
X146068000Y-116332000D03*
G04 #@! TD*
D14*
G04 #@! TO.C,R2*
G36*
X108974505Y-123201204D02*
X108998773Y-123204804D01*
X109022572Y-123210765D01*
X109045671Y-123219030D01*
X109067850Y-123229520D01*
X109088893Y-123242132D01*
X109108599Y-123256747D01*
X109126777Y-123273223D01*
X109143253Y-123291401D01*
X109157868Y-123311107D01*
X109170480Y-123332150D01*
X109180970Y-123354329D01*
X109189235Y-123377428D01*
X109195196Y-123401227D01*
X109198796Y-123425495D01*
X109200000Y-123449999D01*
X109200000Y-124100001D01*
X109198796Y-124124505D01*
X109195196Y-124148773D01*
X109189235Y-124172572D01*
X109180970Y-124195671D01*
X109170480Y-124217850D01*
X109157868Y-124238893D01*
X109143253Y-124258599D01*
X109126777Y-124276777D01*
X109108599Y-124293253D01*
X109088893Y-124307868D01*
X109067850Y-124320480D01*
X109045671Y-124330970D01*
X109022572Y-124339235D01*
X108998773Y-124345196D01*
X108974505Y-124348796D01*
X108950001Y-124350000D01*
X108049999Y-124350000D01*
X108025495Y-124348796D01*
X108001227Y-124345196D01*
X107977428Y-124339235D01*
X107954329Y-124330970D01*
X107932150Y-124320480D01*
X107911107Y-124307868D01*
X107891401Y-124293253D01*
X107873223Y-124276777D01*
X107856747Y-124258599D01*
X107842132Y-124238893D01*
X107829520Y-124217850D01*
X107819030Y-124195671D01*
X107810765Y-124172572D01*
X107804804Y-124148773D01*
X107801204Y-124124505D01*
X107800000Y-124100001D01*
X107800000Y-123449999D01*
X107801204Y-123425495D01*
X107804804Y-123401227D01*
X107810765Y-123377428D01*
X107819030Y-123354329D01*
X107829520Y-123332150D01*
X107842132Y-123311107D01*
X107856747Y-123291401D01*
X107873223Y-123273223D01*
X107891401Y-123256747D01*
X107911107Y-123242132D01*
X107932150Y-123229520D01*
X107954329Y-123219030D01*
X107977428Y-123210765D01*
X108001227Y-123204804D01*
X108025495Y-123201204D01*
X108049999Y-123200000D01*
X108950001Y-123200000D01*
X108974505Y-123201204D01*
X108974505Y-123201204D01*
G37*
D16*
X108500000Y-123775000D03*
D14*
G36*
X108974505Y-121151204D02*
X108998773Y-121154804D01*
X109022572Y-121160765D01*
X109045671Y-121169030D01*
X109067850Y-121179520D01*
X109088893Y-121192132D01*
X109108599Y-121206747D01*
X109126777Y-121223223D01*
X109143253Y-121241401D01*
X109157868Y-121261107D01*
X109170480Y-121282150D01*
X109180970Y-121304329D01*
X109189235Y-121327428D01*
X109195196Y-121351227D01*
X109198796Y-121375495D01*
X109200000Y-121399999D01*
X109200000Y-122050001D01*
X109198796Y-122074505D01*
X109195196Y-122098773D01*
X109189235Y-122122572D01*
X109180970Y-122145671D01*
X109170480Y-122167850D01*
X109157868Y-122188893D01*
X109143253Y-122208599D01*
X109126777Y-122226777D01*
X109108599Y-122243253D01*
X109088893Y-122257868D01*
X109067850Y-122270480D01*
X109045671Y-122280970D01*
X109022572Y-122289235D01*
X108998773Y-122295196D01*
X108974505Y-122298796D01*
X108950001Y-122300000D01*
X108049999Y-122300000D01*
X108025495Y-122298796D01*
X108001227Y-122295196D01*
X107977428Y-122289235D01*
X107954329Y-122280970D01*
X107932150Y-122270480D01*
X107911107Y-122257868D01*
X107891401Y-122243253D01*
X107873223Y-122226777D01*
X107856747Y-122208599D01*
X107842132Y-122188893D01*
X107829520Y-122167850D01*
X107819030Y-122145671D01*
X107810765Y-122122572D01*
X107804804Y-122098773D01*
X107801204Y-122074505D01*
X107800000Y-122050001D01*
X107800000Y-121399999D01*
X107801204Y-121375495D01*
X107804804Y-121351227D01*
X107810765Y-121327428D01*
X107819030Y-121304329D01*
X107829520Y-121282150D01*
X107842132Y-121261107D01*
X107856747Y-121241401D01*
X107873223Y-121223223D01*
X107891401Y-121206747D01*
X107911107Y-121192132D01*
X107932150Y-121179520D01*
X107954329Y-121169030D01*
X107977428Y-121160765D01*
X108001227Y-121154804D01*
X108025495Y-121151204D01*
X108049999Y-121150000D01*
X108950001Y-121150000D01*
X108974505Y-121151204D01*
X108974505Y-121151204D01*
G37*
D16*
X108500000Y-121725000D03*
G04 #@! TD*
D14*
G04 #@! TO.C,R3*
G36*
X114093505Y-123176204D02*
X114117773Y-123179804D01*
X114141572Y-123185765D01*
X114164671Y-123194030D01*
X114186850Y-123204520D01*
X114207893Y-123217132D01*
X114227599Y-123231747D01*
X114245777Y-123248223D01*
X114262253Y-123266401D01*
X114276868Y-123286107D01*
X114289480Y-123307150D01*
X114299970Y-123329329D01*
X114308235Y-123352428D01*
X114314196Y-123376227D01*
X114317796Y-123400495D01*
X114319000Y-123424999D01*
X114319000Y-124075001D01*
X114317796Y-124099505D01*
X114314196Y-124123773D01*
X114308235Y-124147572D01*
X114299970Y-124170671D01*
X114289480Y-124192850D01*
X114276868Y-124213893D01*
X114262253Y-124233599D01*
X114245777Y-124251777D01*
X114227599Y-124268253D01*
X114207893Y-124282868D01*
X114186850Y-124295480D01*
X114164671Y-124305970D01*
X114141572Y-124314235D01*
X114117773Y-124320196D01*
X114093505Y-124323796D01*
X114069001Y-124325000D01*
X113168999Y-124325000D01*
X113144495Y-124323796D01*
X113120227Y-124320196D01*
X113096428Y-124314235D01*
X113073329Y-124305970D01*
X113051150Y-124295480D01*
X113030107Y-124282868D01*
X113010401Y-124268253D01*
X112992223Y-124251777D01*
X112975747Y-124233599D01*
X112961132Y-124213893D01*
X112948520Y-124192850D01*
X112938030Y-124170671D01*
X112929765Y-124147572D01*
X112923804Y-124123773D01*
X112920204Y-124099505D01*
X112919000Y-124075001D01*
X112919000Y-123424999D01*
X112920204Y-123400495D01*
X112923804Y-123376227D01*
X112929765Y-123352428D01*
X112938030Y-123329329D01*
X112948520Y-123307150D01*
X112961132Y-123286107D01*
X112975747Y-123266401D01*
X112992223Y-123248223D01*
X113010401Y-123231747D01*
X113030107Y-123217132D01*
X113051150Y-123204520D01*
X113073329Y-123194030D01*
X113096428Y-123185765D01*
X113120227Y-123179804D01*
X113144495Y-123176204D01*
X113168999Y-123175000D01*
X114069001Y-123175000D01*
X114093505Y-123176204D01*
X114093505Y-123176204D01*
G37*
D16*
X113619000Y-123750000D03*
D14*
G36*
X114093505Y-121126204D02*
X114117773Y-121129804D01*
X114141572Y-121135765D01*
X114164671Y-121144030D01*
X114186850Y-121154520D01*
X114207893Y-121167132D01*
X114227599Y-121181747D01*
X114245777Y-121198223D01*
X114262253Y-121216401D01*
X114276868Y-121236107D01*
X114289480Y-121257150D01*
X114299970Y-121279329D01*
X114308235Y-121302428D01*
X114314196Y-121326227D01*
X114317796Y-121350495D01*
X114319000Y-121374999D01*
X114319000Y-122025001D01*
X114317796Y-122049505D01*
X114314196Y-122073773D01*
X114308235Y-122097572D01*
X114299970Y-122120671D01*
X114289480Y-122142850D01*
X114276868Y-122163893D01*
X114262253Y-122183599D01*
X114245777Y-122201777D01*
X114227599Y-122218253D01*
X114207893Y-122232868D01*
X114186850Y-122245480D01*
X114164671Y-122255970D01*
X114141572Y-122264235D01*
X114117773Y-122270196D01*
X114093505Y-122273796D01*
X114069001Y-122275000D01*
X113168999Y-122275000D01*
X113144495Y-122273796D01*
X113120227Y-122270196D01*
X113096428Y-122264235D01*
X113073329Y-122255970D01*
X113051150Y-122245480D01*
X113030107Y-122232868D01*
X113010401Y-122218253D01*
X112992223Y-122201777D01*
X112975747Y-122183599D01*
X112961132Y-122163893D01*
X112948520Y-122142850D01*
X112938030Y-122120671D01*
X112929765Y-122097572D01*
X112923804Y-122073773D01*
X112920204Y-122049505D01*
X112919000Y-122025001D01*
X112919000Y-121374999D01*
X112920204Y-121350495D01*
X112923804Y-121326227D01*
X112929765Y-121302428D01*
X112938030Y-121279329D01*
X112948520Y-121257150D01*
X112961132Y-121236107D01*
X112975747Y-121216401D01*
X112992223Y-121198223D01*
X113010401Y-121181747D01*
X113030107Y-121167132D01*
X113051150Y-121154520D01*
X113073329Y-121144030D01*
X113096428Y-121135765D01*
X113120227Y-121129804D01*
X113144495Y-121126204D01*
X113168999Y-121125000D01*
X114069001Y-121125000D01*
X114093505Y-121126204D01*
X114093505Y-121126204D01*
G37*
D16*
X113619000Y-121700000D03*
G04 #@! TD*
D14*
G04 #@! TO.C,R4*
G36*
X150324505Y-115633204D02*
X150348773Y-115636804D01*
X150372572Y-115642765D01*
X150395671Y-115651030D01*
X150417850Y-115661520D01*
X150438893Y-115674132D01*
X150458599Y-115688747D01*
X150476777Y-115705223D01*
X150493253Y-115723401D01*
X150507868Y-115743107D01*
X150520480Y-115764150D01*
X150530970Y-115786329D01*
X150539235Y-115809428D01*
X150545196Y-115833227D01*
X150548796Y-115857495D01*
X150550000Y-115881999D01*
X150550000Y-116782001D01*
X150548796Y-116806505D01*
X150545196Y-116830773D01*
X150539235Y-116854572D01*
X150530970Y-116877671D01*
X150520480Y-116899850D01*
X150507868Y-116920893D01*
X150493253Y-116940599D01*
X150476777Y-116958777D01*
X150458599Y-116975253D01*
X150438893Y-116989868D01*
X150417850Y-117002480D01*
X150395671Y-117012970D01*
X150372572Y-117021235D01*
X150348773Y-117027196D01*
X150324505Y-117030796D01*
X150300001Y-117032000D01*
X149649999Y-117032000D01*
X149625495Y-117030796D01*
X149601227Y-117027196D01*
X149577428Y-117021235D01*
X149554329Y-117012970D01*
X149532150Y-117002480D01*
X149511107Y-116989868D01*
X149491401Y-116975253D01*
X149473223Y-116958777D01*
X149456747Y-116940599D01*
X149442132Y-116920893D01*
X149429520Y-116899850D01*
X149419030Y-116877671D01*
X149410765Y-116854572D01*
X149404804Y-116830773D01*
X149401204Y-116806505D01*
X149400000Y-116782001D01*
X149400000Y-115881999D01*
X149401204Y-115857495D01*
X149404804Y-115833227D01*
X149410765Y-115809428D01*
X149419030Y-115786329D01*
X149429520Y-115764150D01*
X149442132Y-115743107D01*
X149456747Y-115723401D01*
X149473223Y-115705223D01*
X149491401Y-115688747D01*
X149511107Y-115674132D01*
X149532150Y-115661520D01*
X149554329Y-115651030D01*
X149577428Y-115642765D01*
X149601227Y-115636804D01*
X149625495Y-115633204D01*
X149649999Y-115632000D01*
X150300001Y-115632000D01*
X150324505Y-115633204D01*
X150324505Y-115633204D01*
G37*
D16*
X149975000Y-116332000D03*
D14*
G36*
X152374505Y-115633204D02*
X152398773Y-115636804D01*
X152422572Y-115642765D01*
X152445671Y-115651030D01*
X152467850Y-115661520D01*
X152488893Y-115674132D01*
X152508599Y-115688747D01*
X152526777Y-115705223D01*
X152543253Y-115723401D01*
X152557868Y-115743107D01*
X152570480Y-115764150D01*
X152580970Y-115786329D01*
X152589235Y-115809428D01*
X152595196Y-115833227D01*
X152598796Y-115857495D01*
X152600000Y-115881999D01*
X152600000Y-116782001D01*
X152598796Y-116806505D01*
X152595196Y-116830773D01*
X152589235Y-116854572D01*
X152580970Y-116877671D01*
X152570480Y-116899850D01*
X152557868Y-116920893D01*
X152543253Y-116940599D01*
X152526777Y-116958777D01*
X152508599Y-116975253D01*
X152488893Y-116989868D01*
X152467850Y-117002480D01*
X152445671Y-117012970D01*
X152422572Y-117021235D01*
X152398773Y-117027196D01*
X152374505Y-117030796D01*
X152350001Y-117032000D01*
X151699999Y-117032000D01*
X151675495Y-117030796D01*
X151651227Y-117027196D01*
X151627428Y-117021235D01*
X151604329Y-117012970D01*
X151582150Y-117002480D01*
X151561107Y-116989868D01*
X151541401Y-116975253D01*
X151523223Y-116958777D01*
X151506747Y-116940599D01*
X151492132Y-116920893D01*
X151479520Y-116899850D01*
X151469030Y-116877671D01*
X151460765Y-116854572D01*
X151454804Y-116830773D01*
X151451204Y-116806505D01*
X151450000Y-116782001D01*
X151450000Y-115881999D01*
X151451204Y-115857495D01*
X151454804Y-115833227D01*
X151460765Y-115809428D01*
X151469030Y-115786329D01*
X151479520Y-115764150D01*
X151492132Y-115743107D01*
X151506747Y-115723401D01*
X151523223Y-115705223D01*
X151541401Y-115688747D01*
X151561107Y-115674132D01*
X151582150Y-115661520D01*
X151604329Y-115651030D01*
X151627428Y-115642765D01*
X151651227Y-115636804D01*
X151675495Y-115633204D01*
X151699999Y-115632000D01*
X152350001Y-115632000D01*
X152374505Y-115633204D01*
X152374505Y-115633204D01*
G37*
D16*
X152025000Y-116332000D03*
G04 #@! TD*
D14*
G04 #@! TO.C,R15*
G36*
X153824505Y-117801204D02*
X153848773Y-117804804D01*
X153872572Y-117810765D01*
X153895671Y-117819030D01*
X153917850Y-117829520D01*
X153938893Y-117842132D01*
X153958599Y-117856747D01*
X153976777Y-117873223D01*
X153993253Y-117891401D01*
X154007868Y-117911107D01*
X154020480Y-117932150D01*
X154030970Y-117954329D01*
X154039235Y-117977428D01*
X154045196Y-118001227D01*
X154048796Y-118025495D01*
X154050000Y-118049999D01*
X154050000Y-118950001D01*
X154048796Y-118974505D01*
X154045196Y-118998773D01*
X154039235Y-119022572D01*
X154030970Y-119045671D01*
X154020480Y-119067850D01*
X154007868Y-119088893D01*
X153993253Y-119108599D01*
X153976777Y-119126777D01*
X153958599Y-119143253D01*
X153938893Y-119157868D01*
X153917850Y-119170480D01*
X153895671Y-119180970D01*
X153872572Y-119189235D01*
X153848773Y-119195196D01*
X153824505Y-119198796D01*
X153800001Y-119200000D01*
X153149999Y-119200000D01*
X153125495Y-119198796D01*
X153101227Y-119195196D01*
X153077428Y-119189235D01*
X153054329Y-119180970D01*
X153032150Y-119170480D01*
X153011107Y-119157868D01*
X152991401Y-119143253D01*
X152973223Y-119126777D01*
X152956747Y-119108599D01*
X152942132Y-119088893D01*
X152929520Y-119067850D01*
X152919030Y-119045671D01*
X152910765Y-119022572D01*
X152904804Y-118998773D01*
X152901204Y-118974505D01*
X152900000Y-118950001D01*
X152900000Y-118049999D01*
X152901204Y-118025495D01*
X152904804Y-118001227D01*
X152910765Y-117977428D01*
X152919030Y-117954329D01*
X152929520Y-117932150D01*
X152942132Y-117911107D01*
X152956747Y-117891401D01*
X152973223Y-117873223D01*
X152991401Y-117856747D01*
X153011107Y-117842132D01*
X153032150Y-117829520D01*
X153054329Y-117819030D01*
X153077428Y-117810765D01*
X153101227Y-117804804D01*
X153125495Y-117801204D01*
X153149999Y-117800000D01*
X153800001Y-117800000D01*
X153824505Y-117801204D01*
X153824505Y-117801204D01*
G37*
D16*
X153475000Y-118500000D03*
D14*
G36*
X155874505Y-117801204D02*
X155898773Y-117804804D01*
X155922572Y-117810765D01*
X155945671Y-117819030D01*
X155967850Y-117829520D01*
X155988893Y-117842132D01*
X156008599Y-117856747D01*
X156026777Y-117873223D01*
X156043253Y-117891401D01*
X156057868Y-117911107D01*
X156070480Y-117932150D01*
X156080970Y-117954329D01*
X156089235Y-117977428D01*
X156095196Y-118001227D01*
X156098796Y-118025495D01*
X156100000Y-118049999D01*
X156100000Y-118950001D01*
X156098796Y-118974505D01*
X156095196Y-118998773D01*
X156089235Y-119022572D01*
X156080970Y-119045671D01*
X156070480Y-119067850D01*
X156057868Y-119088893D01*
X156043253Y-119108599D01*
X156026777Y-119126777D01*
X156008599Y-119143253D01*
X155988893Y-119157868D01*
X155967850Y-119170480D01*
X155945671Y-119180970D01*
X155922572Y-119189235D01*
X155898773Y-119195196D01*
X155874505Y-119198796D01*
X155850001Y-119200000D01*
X155199999Y-119200000D01*
X155175495Y-119198796D01*
X155151227Y-119195196D01*
X155127428Y-119189235D01*
X155104329Y-119180970D01*
X155082150Y-119170480D01*
X155061107Y-119157868D01*
X155041401Y-119143253D01*
X155023223Y-119126777D01*
X155006747Y-119108599D01*
X154992132Y-119088893D01*
X154979520Y-119067850D01*
X154969030Y-119045671D01*
X154960765Y-119022572D01*
X154954804Y-118998773D01*
X154951204Y-118974505D01*
X154950000Y-118950001D01*
X154950000Y-118049999D01*
X154951204Y-118025495D01*
X154954804Y-118001227D01*
X154960765Y-117977428D01*
X154969030Y-117954329D01*
X154979520Y-117932150D01*
X154992132Y-117911107D01*
X155006747Y-117891401D01*
X155023223Y-117873223D01*
X155041401Y-117856747D01*
X155061107Y-117842132D01*
X155082150Y-117829520D01*
X155104329Y-117819030D01*
X155127428Y-117810765D01*
X155151227Y-117804804D01*
X155175495Y-117801204D01*
X155199999Y-117800000D01*
X155850001Y-117800000D01*
X155874505Y-117801204D01*
X155874505Y-117801204D01*
G37*
D16*
X155525000Y-118500000D03*
G04 #@! TD*
D14*
G04 #@! TO.C,R16*
G36*
X157474505Y-122701204D02*
X157498773Y-122704804D01*
X157522572Y-122710765D01*
X157545671Y-122719030D01*
X157567850Y-122729520D01*
X157588893Y-122742132D01*
X157608599Y-122756747D01*
X157626777Y-122773223D01*
X157643253Y-122791401D01*
X157657868Y-122811107D01*
X157670480Y-122832150D01*
X157680970Y-122854329D01*
X157689235Y-122877428D01*
X157695196Y-122901227D01*
X157698796Y-122925495D01*
X157700000Y-122949999D01*
X157700000Y-123600001D01*
X157698796Y-123624505D01*
X157695196Y-123648773D01*
X157689235Y-123672572D01*
X157680970Y-123695671D01*
X157670480Y-123717850D01*
X157657868Y-123738893D01*
X157643253Y-123758599D01*
X157626777Y-123776777D01*
X157608599Y-123793253D01*
X157588893Y-123807868D01*
X157567850Y-123820480D01*
X157545671Y-123830970D01*
X157522572Y-123839235D01*
X157498773Y-123845196D01*
X157474505Y-123848796D01*
X157450001Y-123850000D01*
X156549999Y-123850000D01*
X156525495Y-123848796D01*
X156501227Y-123845196D01*
X156477428Y-123839235D01*
X156454329Y-123830970D01*
X156432150Y-123820480D01*
X156411107Y-123807868D01*
X156391401Y-123793253D01*
X156373223Y-123776777D01*
X156356747Y-123758599D01*
X156342132Y-123738893D01*
X156329520Y-123717850D01*
X156319030Y-123695671D01*
X156310765Y-123672572D01*
X156304804Y-123648773D01*
X156301204Y-123624505D01*
X156300000Y-123600001D01*
X156300000Y-122949999D01*
X156301204Y-122925495D01*
X156304804Y-122901227D01*
X156310765Y-122877428D01*
X156319030Y-122854329D01*
X156329520Y-122832150D01*
X156342132Y-122811107D01*
X156356747Y-122791401D01*
X156373223Y-122773223D01*
X156391401Y-122756747D01*
X156411107Y-122742132D01*
X156432150Y-122729520D01*
X156454329Y-122719030D01*
X156477428Y-122710765D01*
X156501227Y-122704804D01*
X156525495Y-122701204D01*
X156549999Y-122700000D01*
X157450001Y-122700000D01*
X157474505Y-122701204D01*
X157474505Y-122701204D01*
G37*
D16*
X157000000Y-123275000D03*
D14*
G36*
X157474505Y-120651204D02*
X157498773Y-120654804D01*
X157522572Y-120660765D01*
X157545671Y-120669030D01*
X157567850Y-120679520D01*
X157588893Y-120692132D01*
X157608599Y-120706747D01*
X157626777Y-120723223D01*
X157643253Y-120741401D01*
X157657868Y-120761107D01*
X157670480Y-120782150D01*
X157680970Y-120804329D01*
X157689235Y-120827428D01*
X157695196Y-120851227D01*
X157698796Y-120875495D01*
X157700000Y-120899999D01*
X157700000Y-121550001D01*
X157698796Y-121574505D01*
X157695196Y-121598773D01*
X157689235Y-121622572D01*
X157680970Y-121645671D01*
X157670480Y-121667850D01*
X157657868Y-121688893D01*
X157643253Y-121708599D01*
X157626777Y-121726777D01*
X157608599Y-121743253D01*
X157588893Y-121757868D01*
X157567850Y-121770480D01*
X157545671Y-121780970D01*
X157522572Y-121789235D01*
X157498773Y-121795196D01*
X157474505Y-121798796D01*
X157450001Y-121800000D01*
X156549999Y-121800000D01*
X156525495Y-121798796D01*
X156501227Y-121795196D01*
X156477428Y-121789235D01*
X156454329Y-121780970D01*
X156432150Y-121770480D01*
X156411107Y-121757868D01*
X156391401Y-121743253D01*
X156373223Y-121726777D01*
X156356747Y-121708599D01*
X156342132Y-121688893D01*
X156329520Y-121667850D01*
X156319030Y-121645671D01*
X156310765Y-121622572D01*
X156304804Y-121598773D01*
X156301204Y-121574505D01*
X156300000Y-121550001D01*
X156300000Y-120899999D01*
X156301204Y-120875495D01*
X156304804Y-120851227D01*
X156310765Y-120827428D01*
X156319030Y-120804329D01*
X156329520Y-120782150D01*
X156342132Y-120761107D01*
X156356747Y-120741401D01*
X156373223Y-120723223D01*
X156391401Y-120706747D01*
X156411107Y-120692132D01*
X156432150Y-120679520D01*
X156454329Y-120669030D01*
X156477428Y-120660765D01*
X156501227Y-120654804D01*
X156525495Y-120651204D01*
X156549999Y-120650000D01*
X157450001Y-120650000D01*
X157474505Y-120651204D01*
X157474505Y-120651204D01*
G37*
D16*
X157000000Y-121225000D03*
G04 #@! TD*
D14*
G04 #@! TO.C,R17*
G36*
X184849505Y-104551204D02*
X184873773Y-104554804D01*
X184897572Y-104560765D01*
X184920671Y-104569030D01*
X184942850Y-104579520D01*
X184963893Y-104592132D01*
X184983599Y-104606747D01*
X185001777Y-104623223D01*
X185018253Y-104641401D01*
X185032868Y-104661107D01*
X185045480Y-104682150D01*
X185055970Y-104704329D01*
X185064235Y-104727428D01*
X185070196Y-104751227D01*
X185073796Y-104775495D01*
X185075000Y-104799999D01*
X185075000Y-105700001D01*
X185073796Y-105724505D01*
X185070196Y-105748773D01*
X185064235Y-105772572D01*
X185055970Y-105795671D01*
X185045480Y-105817850D01*
X185032868Y-105838893D01*
X185018253Y-105858599D01*
X185001777Y-105876777D01*
X184983599Y-105893253D01*
X184963893Y-105907868D01*
X184942850Y-105920480D01*
X184920671Y-105930970D01*
X184897572Y-105939235D01*
X184873773Y-105945196D01*
X184849505Y-105948796D01*
X184825001Y-105950000D01*
X184174999Y-105950000D01*
X184150495Y-105948796D01*
X184126227Y-105945196D01*
X184102428Y-105939235D01*
X184079329Y-105930970D01*
X184057150Y-105920480D01*
X184036107Y-105907868D01*
X184016401Y-105893253D01*
X183998223Y-105876777D01*
X183981747Y-105858599D01*
X183967132Y-105838893D01*
X183954520Y-105817850D01*
X183944030Y-105795671D01*
X183935765Y-105772572D01*
X183929804Y-105748773D01*
X183926204Y-105724505D01*
X183925000Y-105700001D01*
X183925000Y-104799999D01*
X183926204Y-104775495D01*
X183929804Y-104751227D01*
X183935765Y-104727428D01*
X183944030Y-104704329D01*
X183954520Y-104682150D01*
X183967132Y-104661107D01*
X183981747Y-104641401D01*
X183998223Y-104623223D01*
X184016401Y-104606747D01*
X184036107Y-104592132D01*
X184057150Y-104579520D01*
X184079329Y-104569030D01*
X184102428Y-104560765D01*
X184126227Y-104554804D01*
X184150495Y-104551204D01*
X184174999Y-104550000D01*
X184825001Y-104550000D01*
X184849505Y-104551204D01*
X184849505Y-104551204D01*
G37*
D16*
X184500000Y-105250000D03*
D14*
G36*
X186899505Y-104551204D02*
X186923773Y-104554804D01*
X186947572Y-104560765D01*
X186970671Y-104569030D01*
X186992850Y-104579520D01*
X187013893Y-104592132D01*
X187033599Y-104606747D01*
X187051777Y-104623223D01*
X187068253Y-104641401D01*
X187082868Y-104661107D01*
X187095480Y-104682150D01*
X187105970Y-104704329D01*
X187114235Y-104727428D01*
X187120196Y-104751227D01*
X187123796Y-104775495D01*
X187125000Y-104799999D01*
X187125000Y-105700001D01*
X187123796Y-105724505D01*
X187120196Y-105748773D01*
X187114235Y-105772572D01*
X187105970Y-105795671D01*
X187095480Y-105817850D01*
X187082868Y-105838893D01*
X187068253Y-105858599D01*
X187051777Y-105876777D01*
X187033599Y-105893253D01*
X187013893Y-105907868D01*
X186992850Y-105920480D01*
X186970671Y-105930970D01*
X186947572Y-105939235D01*
X186923773Y-105945196D01*
X186899505Y-105948796D01*
X186875001Y-105950000D01*
X186224999Y-105950000D01*
X186200495Y-105948796D01*
X186176227Y-105945196D01*
X186152428Y-105939235D01*
X186129329Y-105930970D01*
X186107150Y-105920480D01*
X186086107Y-105907868D01*
X186066401Y-105893253D01*
X186048223Y-105876777D01*
X186031747Y-105858599D01*
X186017132Y-105838893D01*
X186004520Y-105817850D01*
X185994030Y-105795671D01*
X185985765Y-105772572D01*
X185979804Y-105748773D01*
X185976204Y-105724505D01*
X185975000Y-105700001D01*
X185975000Y-104799999D01*
X185976204Y-104775495D01*
X185979804Y-104751227D01*
X185985765Y-104727428D01*
X185994030Y-104704329D01*
X186004520Y-104682150D01*
X186017132Y-104661107D01*
X186031747Y-104641401D01*
X186048223Y-104623223D01*
X186066401Y-104606747D01*
X186086107Y-104592132D01*
X186107150Y-104579520D01*
X186129329Y-104569030D01*
X186152428Y-104560765D01*
X186176227Y-104554804D01*
X186200495Y-104551204D01*
X186224999Y-104550000D01*
X186875001Y-104550000D01*
X186899505Y-104551204D01*
X186899505Y-104551204D01*
G37*
D16*
X186550000Y-105250000D03*
G04 #@! TD*
D17*
G04 #@! TO.C,Q2*
X158300000Y-116250000D03*
X160200000Y-116250000D03*
X159250000Y-119250000D03*
G04 #@! TD*
G04 #@! TO.C,Q1*
X118500000Y-122250000D03*
X116600000Y-122250000D03*
X117550000Y-119250000D03*
G04 #@! TD*
M02*
