G04 #@! TF.GenerationSoftware,KiCad,Pcbnew,(5.0.0)*
G04 #@! TF.CreationDate,2018-08-14T00:58:01+01:00*
G04 #@! TF.ProjectId,distboard,64697374626F6172642E6B696361645F,rev?*
G04 #@! TF.SameCoordinates,Original*
G04 #@! TF.FileFunction,Soldermask,Bot*
G04 #@! TF.FilePolarity,Negative*
%FSLAX46Y46*%
G04 Gerber Fmt 4.6, Leading zero omitted, Abs format (unit mm)*
G04 Created by KiCad (PCBNEW (5.0.0)) date 08/14/18 00:58:01*
%MOMM*%
%LPD*%
G01*
G04 APERTURE LIST*
%ADD10R,2.400000X3.400000*%
%ADD11O,5.700000X4.200000*%
%ADD12O,5.900000X4.200000*%
%ADD13O,2.400000X3.000000*%
%ADD14R,2.400000X3.000000*%
%ADD15C,0.100000*%
%ADD16C,1.900000*%
%ADD17C,1.350000*%
%ADD18R,2.600000X2.600000*%
%ADD19O,2.600000X2.600000*%
%ADD20C,3.400000*%
%ADD21R,1.900000X1.900000*%
%ADD22R,3.000000X2.400000*%
%ADD23O,3.000000X2.400000*%
%ADD24C,2.400000*%
%ADD25C,3.650000*%
%ADD26C,1.200000*%
%ADD27C,6.800000*%
G04 APERTURE END LIST*
D10*
G04 #@! TO.C,U1*
X91332000Y-49484000D03*
X100984000Y-49484000D03*
X100984000Y-32990000D03*
X91332000Y-32959000D03*
G04 #@! TD*
D11*
G04 #@! TO.C,F1*
X93000000Y-56000000D03*
D12*
X85000000Y-56000000D03*
G04 #@! TD*
D13*
G04 #@! TO.C,J2*
X101540000Y-73000000D03*
D14*
X99000000Y-73000000D03*
G04 #@! TD*
D15*
G04 #@! TO.C,C1*
G36*
X102089372Y-36426525D02*
X102120112Y-36431085D01*
X102150257Y-36438636D01*
X102179516Y-36449105D01*
X102207609Y-36462392D01*
X102234264Y-36478368D01*
X102259224Y-36496880D01*
X102282250Y-36517750D01*
X102303120Y-36540776D01*
X102321632Y-36565736D01*
X102337608Y-36592391D01*
X102350895Y-36620484D01*
X102361364Y-36649743D01*
X102368915Y-36679888D01*
X102373475Y-36710628D01*
X102375000Y-36741667D01*
X102375000Y-38008333D01*
X102373475Y-38039372D01*
X102368915Y-38070112D01*
X102361364Y-38100257D01*
X102350895Y-38129516D01*
X102337608Y-38157609D01*
X102321632Y-38184264D01*
X102303120Y-38209224D01*
X102282250Y-38232250D01*
X102259224Y-38253120D01*
X102234264Y-38271632D01*
X102207609Y-38287608D01*
X102179516Y-38300895D01*
X102150257Y-38311364D01*
X102120112Y-38318915D01*
X102089372Y-38323475D01*
X102058333Y-38325000D01*
X99941667Y-38325000D01*
X99910628Y-38323475D01*
X99879888Y-38318915D01*
X99849743Y-38311364D01*
X99820484Y-38300895D01*
X99792391Y-38287608D01*
X99765736Y-38271632D01*
X99740776Y-38253120D01*
X99717750Y-38232250D01*
X99696880Y-38209224D01*
X99678368Y-38184264D01*
X99662392Y-38157609D01*
X99649105Y-38129516D01*
X99638636Y-38100257D01*
X99631085Y-38070112D01*
X99626525Y-38039372D01*
X99625000Y-38008333D01*
X99625000Y-36741667D01*
X99626525Y-36710628D01*
X99631085Y-36679888D01*
X99638636Y-36649743D01*
X99649105Y-36620484D01*
X99662392Y-36592391D01*
X99678368Y-36565736D01*
X99696880Y-36540776D01*
X99717750Y-36517750D01*
X99740776Y-36496880D01*
X99765736Y-36478368D01*
X99792391Y-36462392D01*
X99820484Y-36449105D01*
X99849743Y-36438636D01*
X99879888Y-36431085D01*
X99910628Y-36426525D01*
X99941667Y-36425000D01*
X102058333Y-36425000D01*
X102089372Y-36426525D01*
X102089372Y-36426525D01*
G37*
D16*
X101000000Y-37375000D03*
D15*
G36*
X102089372Y-39676525D02*
X102120112Y-39681085D01*
X102150257Y-39688636D01*
X102179516Y-39699105D01*
X102207609Y-39712392D01*
X102234264Y-39728368D01*
X102259224Y-39746880D01*
X102282250Y-39767750D01*
X102303120Y-39790776D01*
X102321632Y-39815736D01*
X102337608Y-39842391D01*
X102350895Y-39870484D01*
X102361364Y-39899743D01*
X102368915Y-39929888D01*
X102373475Y-39960628D01*
X102375000Y-39991667D01*
X102375000Y-41258333D01*
X102373475Y-41289372D01*
X102368915Y-41320112D01*
X102361364Y-41350257D01*
X102350895Y-41379516D01*
X102337608Y-41407609D01*
X102321632Y-41434264D01*
X102303120Y-41459224D01*
X102282250Y-41482250D01*
X102259224Y-41503120D01*
X102234264Y-41521632D01*
X102207609Y-41537608D01*
X102179516Y-41550895D01*
X102150257Y-41561364D01*
X102120112Y-41568915D01*
X102089372Y-41573475D01*
X102058333Y-41575000D01*
X99941667Y-41575000D01*
X99910628Y-41573475D01*
X99879888Y-41568915D01*
X99849743Y-41561364D01*
X99820484Y-41550895D01*
X99792391Y-41537608D01*
X99765736Y-41521632D01*
X99740776Y-41503120D01*
X99717750Y-41482250D01*
X99696880Y-41459224D01*
X99678368Y-41434264D01*
X99662392Y-41407609D01*
X99649105Y-41379516D01*
X99638636Y-41350257D01*
X99631085Y-41320112D01*
X99626525Y-41289372D01*
X99625000Y-41258333D01*
X99625000Y-39991667D01*
X99626525Y-39960628D01*
X99631085Y-39929888D01*
X99638636Y-39899743D01*
X99649105Y-39870484D01*
X99662392Y-39842391D01*
X99678368Y-39815736D01*
X99696880Y-39790776D01*
X99717750Y-39767750D01*
X99740776Y-39746880D01*
X99765736Y-39728368D01*
X99792391Y-39712392D01*
X99820484Y-39699105D01*
X99849743Y-39688636D01*
X99879888Y-39681085D01*
X99910628Y-39676525D01*
X99941667Y-39675000D01*
X102058333Y-39675000D01*
X102089372Y-39676525D01*
X102089372Y-39676525D01*
G37*
D16*
X101000000Y-40625000D03*
G04 #@! TD*
D15*
G04 #@! TO.C,C2*
G36*
X97370581Y-36401625D02*
X97403343Y-36406485D01*
X97435471Y-36414533D01*
X97466656Y-36425691D01*
X97496596Y-36439852D01*
X97525005Y-36456879D01*
X97551608Y-36476609D01*
X97576149Y-36498851D01*
X97598391Y-36523392D01*
X97618121Y-36549995D01*
X97635148Y-36578404D01*
X97649309Y-36608344D01*
X97660467Y-36639529D01*
X97668515Y-36671657D01*
X97673375Y-36704419D01*
X97675000Y-36737500D01*
X97675000Y-37512500D01*
X97673375Y-37545581D01*
X97668515Y-37578343D01*
X97660467Y-37610471D01*
X97649309Y-37641656D01*
X97635148Y-37671596D01*
X97618121Y-37700005D01*
X97598391Y-37726608D01*
X97576149Y-37751149D01*
X97551608Y-37773391D01*
X97525005Y-37793121D01*
X97496596Y-37810148D01*
X97466656Y-37824309D01*
X97435471Y-37835467D01*
X97403343Y-37843515D01*
X97370581Y-37848375D01*
X97337500Y-37850000D01*
X96662500Y-37850000D01*
X96629419Y-37848375D01*
X96596657Y-37843515D01*
X96564529Y-37835467D01*
X96533344Y-37824309D01*
X96503404Y-37810148D01*
X96474995Y-37793121D01*
X96448392Y-37773391D01*
X96423851Y-37751149D01*
X96401609Y-37726608D01*
X96381879Y-37700005D01*
X96364852Y-37671596D01*
X96350691Y-37641656D01*
X96339533Y-37610471D01*
X96331485Y-37578343D01*
X96326625Y-37545581D01*
X96325000Y-37512500D01*
X96325000Y-36737500D01*
X96326625Y-36704419D01*
X96331485Y-36671657D01*
X96339533Y-36639529D01*
X96350691Y-36608344D01*
X96364852Y-36578404D01*
X96381879Y-36549995D01*
X96401609Y-36523392D01*
X96423851Y-36498851D01*
X96448392Y-36476609D01*
X96474995Y-36456879D01*
X96503404Y-36439852D01*
X96533344Y-36425691D01*
X96564529Y-36414533D01*
X96596657Y-36406485D01*
X96629419Y-36401625D01*
X96662500Y-36400000D01*
X97337500Y-36400000D01*
X97370581Y-36401625D01*
X97370581Y-36401625D01*
G37*
D17*
X97000000Y-37125000D03*
D15*
G36*
X97370581Y-38151625D02*
X97403343Y-38156485D01*
X97435471Y-38164533D01*
X97466656Y-38175691D01*
X97496596Y-38189852D01*
X97525005Y-38206879D01*
X97551608Y-38226609D01*
X97576149Y-38248851D01*
X97598391Y-38273392D01*
X97618121Y-38299995D01*
X97635148Y-38328404D01*
X97649309Y-38358344D01*
X97660467Y-38389529D01*
X97668515Y-38421657D01*
X97673375Y-38454419D01*
X97675000Y-38487500D01*
X97675000Y-39262500D01*
X97673375Y-39295581D01*
X97668515Y-39328343D01*
X97660467Y-39360471D01*
X97649309Y-39391656D01*
X97635148Y-39421596D01*
X97618121Y-39450005D01*
X97598391Y-39476608D01*
X97576149Y-39501149D01*
X97551608Y-39523391D01*
X97525005Y-39543121D01*
X97496596Y-39560148D01*
X97466656Y-39574309D01*
X97435471Y-39585467D01*
X97403343Y-39593515D01*
X97370581Y-39598375D01*
X97337500Y-39600000D01*
X96662500Y-39600000D01*
X96629419Y-39598375D01*
X96596657Y-39593515D01*
X96564529Y-39585467D01*
X96533344Y-39574309D01*
X96503404Y-39560148D01*
X96474995Y-39543121D01*
X96448392Y-39523391D01*
X96423851Y-39501149D01*
X96401609Y-39476608D01*
X96381879Y-39450005D01*
X96364852Y-39421596D01*
X96350691Y-39391656D01*
X96339533Y-39360471D01*
X96331485Y-39328343D01*
X96326625Y-39295581D01*
X96325000Y-39262500D01*
X96325000Y-38487500D01*
X96326625Y-38454419D01*
X96331485Y-38421657D01*
X96339533Y-38389529D01*
X96350691Y-38358344D01*
X96364852Y-38328404D01*
X96381879Y-38299995D01*
X96401609Y-38273392D01*
X96423851Y-38248851D01*
X96448392Y-38226609D01*
X96474995Y-38206879D01*
X96503404Y-38189852D01*
X96533344Y-38175691D01*
X96564529Y-38164533D01*
X96596657Y-38156485D01*
X96629419Y-38151625D01*
X96662500Y-38150000D01*
X97337500Y-38150000D01*
X97370581Y-38151625D01*
X97370581Y-38151625D01*
G37*
D17*
X97000000Y-38875000D03*
G04 #@! TD*
D18*
G04 #@! TO.C,D1*
X101000000Y-53000000D03*
D19*
X101000000Y-63160000D03*
G04 #@! TD*
D16*
G04 #@! TO.C,U2*
X116000000Y-66620000D03*
X113500000Y-66620000D03*
X111500000Y-66620000D03*
X109000000Y-66620000D03*
D20*
X119070000Y-69330000D03*
X105930000Y-69330000D03*
D16*
X116000000Y-64000000D03*
X113500000Y-64000000D03*
X111500000Y-64000000D03*
D21*
X109000000Y-64000000D03*
D20*
X105930000Y-63650000D03*
X119070000Y-63650000D03*
G04 #@! TD*
G04 #@! TO.C,U3*
X136570000Y-63650000D03*
X123430000Y-63650000D03*
D21*
X126500000Y-64000000D03*
D16*
X129000000Y-64000000D03*
X131000000Y-64000000D03*
X133500000Y-64000000D03*
D20*
X123430000Y-69330000D03*
X136570000Y-69330000D03*
D16*
X126500000Y-66620000D03*
X129000000Y-66620000D03*
X131000000Y-66620000D03*
X133500000Y-66620000D03*
G04 #@! TD*
G04 #@! TO.C,U4*
X151000000Y-66620000D03*
X148500000Y-66620000D03*
X146500000Y-66620000D03*
X144000000Y-66620000D03*
D20*
X154070000Y-69330000D03*
X140930000Y-69330000D03*
D16*
X151000000Y-64000000D03*
X148500000Y-64000000D03*
X146500000Y-64000000D03*
D21*
X144000000Y-64000000D03*
D20*
X140930000Y-63650000D03*
X154070000Y-63650000D03*
G04 #@! TD*
D22*
G04 #@! TO.C,J1*
X90000000Y-63000000D03*
D23*
X90000000Y-66500000D03*
G04 #@! TD*
D24*
G04 #@! TO.C,J4*
X105505000Y-36200000D03*
X120495000Y-36200000D03*
D25*
X118715000Y-39250000D03*
X107285000Y-39250000D03*
D16*
X108555000Y-48140000D03*
X111095000Y-48140000D03*
X113635000Y-48140000D03*
X116175000Y-48140000D03*
X109825000Y-45600000D03*
X112365000Y-45600000D03*
X114905000Y-45600000D03*
D21*
X117445000Y-45600000D03*
G04 #@! TD*
D24*
G04 #@! TO.C,J5*
X173995000Y-73050000D03*
X159005000Y-73050000D03*
D25*
X160785000Y-70000000D03*
X172215000Y-70000000D03*
D16*
X170945000Y-61110000D03*
X168405000Y-61110000D03*
X165865000Y-61110000D03*
X163325000Y-61110000D03*
X169675000Y-63650000D03*
X167135000Y-63650000D03*
X164595000Y-63650000D03*
D21*
X162055000Y-63650000D03*
G04 #@! TD*
G04 #@! TO.C,J6*
X135445000Y-45600000D03*
D16*
X132905000Y-45600000D03*
X130365000Y-45600000D03*
X127825000Y-45600000D03*
X134175000Y-48140000D03*
X131635000Y-48140000D03*
X129095000Y-48140000D03*
X126555000Y-48140000D03*
D25*
X125285000Y-39250000D03*
X136715000Y-39250000D03*
D24*
X138495000Y-36200000D03*
X123505000Y-36200000D03*
G04 #@! TD*
G04 #@! TO.C,J7*
X141255000Y-36200000D03*
X156245000Y-36200000D03*
D25*
X154465000Y-39250000D03*
X143035000Y-39250000D03*
D16*
X144305000Y-48140000D03*
X146845000Y-48140000D03*
X149385000Y-48140000D03*
X151925000Y-48140000D03*
X145575000Y-45600000D03*
X148115000Y-45600000D03*
X150655000Y-45600000D03*
D21*
X153195000Y-45600000D03*
G04 #@! TD*
G04 #@! TO.C,J8*
X171195000Y-45600000D03*
D16*
X168655000Y-45600000D03*
X166115000Y-45600000D03*
X163575000Y-45600000D03*
X169925000Y-48140000D03*
X167385000Y-48140000D03*
X164845000Y-48140000D03*
X162305000Y-48140000D03*
D25*
X161035000Y-39250000D03*
X172465000Y-39250000D03*
D24*
X174245000Y-36200000D03*
X159255000Y-36200000D03*
G04 #@! TD*
D26*
G04 #@! TO.C,MH1*
X86697056Y-33302944D03*
X85000000Y-32600000D03*
X83302944Y-33302944D03*
X82600000Y-35000000D03*
X83302944Y-36697056D03*
X85000000Y-37400000D03*
X86697056Y-36697056D03*
X87400000Y-35000000D03*
D27*
X85000000Y-35000000D03*
G04 #@! TD*
G04 #@! TO.C,MH2*
X180200000Y-35000000D03*
D26*
X182600000Y-35000000D03*
X181897056Y-36697056D03*
X180200000Y-37400000D03*
X178502944Y-36697056D03*
X177800000Y-35000000D03*
X178502944Y-33302944D03*
X180200000Y-32600000D03*
X181897056Y-33302944D03*
G04 #@! TD*
G04 #@! TO.C,MH3*
X86697056Y-73302944D03*
X85000000Y-72600000D03*
X83302944Y-73302944D03*
X82600000Y-75000000D03*
X83302944Y-76697056D03*
X85000000Y-77400000D03*
X86697056Y-76697056D03*
X87400000Y-75000000D03*
D27*
X85000000Y-75000000D03*
G04 #@! TD*
G04 #@! TO.C,MH4*
X180000000Y-75000000D03*
D26*
X182400000Y-75000000D03*
X181697056Y-76697056D03*
X180000000Y-77400000D03*
X178302944Y-76697056D03*
X177600000Y-75000000D03*
X178302944Y-73302944D03*
X180000000Y-72600000D03*
X181697056Y-73302944D03*
G04 #@! TD*
M02*
