G04 #@! TF.GenerationSoftware,KiCad,Pcbnew,(5.0.0)*
G04 #@! TF.CreationDate,2018-08-14T00:58:01+01:00*
G04 #@! TF.ProjectId,distboard,64697374626F6172642E6B696361645F,rev?*
G04 #@! TF.SameCoordinates,Original*
G04 #@! TF.FileFunction,Soldermask,Top*
G04 #@! TF.FilePolarity,Negative*
%FSLAX46Y46*%
G04 Gerber Fmt 4.6, Leading zero omitted, Abs format (unit mm)*
G04 Created by KiCad (PCBNEW (5.0.0)) date 08/14/18 00:58:01*
%MOMM*%
%LPD*%
G01*
G04 APERTURE LIST*
%ADD10R,2.400000X3.400000*%
%ADD11O,5.700000X4.200000*%
%ADD12O,5.900000X4.200000*%
%ADD13O,2.400000X3.000000*%
%ADD14R,2.400000X3.000000*%
%ADD15R,2.600000X2.600000*%
%ADD16O,2.600000X2.600000*%
%ADD17C,1.900000*%
%ADD18C,3.400000*%
%ADD19R,1.900000X1.900000*%
%ADD20R,3.000000X2.400000*%
%ADD21O,3.000000X2.400000*%
%ADD22C,2.400000*%
%ADD23C,3.650000*%
%ADD24R,2.940000X1.924000*%
%ADD25C,1.200000*%
%ADD26C,6.800000*%
%ADD27C,0.100000*%
%ADD28C,1.550000*%
%ADD29C,1.350000*%
G04 APERTURE END LIST*
D10*
G04 #@! TO.C,U1*
X91332000Y-49484000D03*
X100984000Y-49484000D03*
X100984000Y-32990000D03*
X91332000Y-32959000D03*
G04 #@! TD*
D11*
G04 #@! TO.C,F1*
X93000000Y-56000000D03*
D12*
X85000000Y-56000000D03*
G04 #@! TD*
D13*
G04 #@! TO.C,J2*
X101540000Y-73000000D03*
D14*
X99000000Y-73000000D03*
G04 #@! TD*
D15*
G04 #@! TO.C,D1*
X101000000Y-53000000D03*
D16*
X101000000Y-63160000D03*
G04 #@! TD*
D17*
G04 #@! TO.C,U2*
X116000000Y-66620000D03*
X113500000Y-66620000D03*
X111500000Y-66620000D03*
X109000000Y-66620000D03*
D18*
X119070000Y-69330000D03*
X105930000Y-69330000D03*
D17*
X116000000Y-64000000D03*
X113500000Y-64000000D03*
X111500000Y-64000000D03*
D19*
X109000000Y-64000000D03*
D18*
X105930000Y-63650000D03*
X119070000Y-63650000D03*
G04 #@! TD*
G04 #@! TO.C,U3*
X136570000Y-63650000D03*
X123430000Y-63650000D03*
D19*
X126500000Y-64000000D03*
D17*
X129000000Y-64000000D03*
X131000000Y-64000000D03*
X133500000Y-64000000D03*
D18*
X123430000Y-69330000D03*
X136570000Y-69330000D03*
D17*
X126500000Y-66620000D03*
X129000000Y-66620000D03*
X131000000Y-66620000D03*
X133500000Y-66620000D03*
G04 #@! TD*
G04 #@! TO.C,U4*
X151000000Y-66620000D03*
X148500000Y-66620000D03*
X146500000Y-66620000D03*
X144000000Y-66620000D03*
D18*
X154070000Y-69330000D03*
X140930000Y-69330000D03*
D17*
X151000000Y-64000000D03*
X148500000Y-64000000D03*
X146500000Y-64000000D03*
D19*
X144000000Y-64000000D03*
D18*
X140930000Y-63650000D03*
X154070000Y-63650000D03*
G04 #@! TD*
D20*
G04 #@! TO.C,J1*
X90000000Y-63000000D03*
D21*
X90000000Y-66500000D03*
G04 #@! TD*
D22*
G04 #@! TO.C,J4*
X105505000Y-36200000D03*
X120495000Y-36200000D03*
D23*
X118715000Y-39250000D03*
X107285000Y-39250000D03*
D17*
X108555000Y-48140000D03*
X111095000Y-48140000D03*
X113635000Y-48140000D03*
X116175000Y-48140000D03*
X109825000Y-45600000D03*
X112365000Y-45600000D03*
X114905000Y-45600000D03*
D19*
X117445000Y-45600000D03*
D24*
X104634000Y-42298000D03*
X121239000Y-42298000D03*
G04 #@! TD*
D22*
G04 #@! TO.C,J5*
X173995000Y-73050000D03*
X159005000Y-73050000D03*
D23*
X160785000Y-70000000D03*
X172215000Y-70000000D03*
D17*
X170945000Y-61110000D03*
X168405000Y-61110000D03*
X165865000Y-61110000D03*
X163325000Y-61110000D03*
X169675000Y-63650000D03*
X167135000Y-63650000D03*
X164595000Y-63650000D03*
D19*
X162055000Y-63650000D03*
D24*
X174866000Y-66952000D03*
X158261000Y-66952000D03*
G04 #@! TD*
G04 #@! TO.C,J6*
X139239000Y-42298000D03*
X122634000Y-42298000D03*
D19*
X135445000Y-45600000D03*
D17*
X132905000Y-45600000D03*
X130365000Y-45600000D03*
X127825000Y-45600000D03*
X134175000Y-48140000D03*
X131635000Y-48140000D03*
X129095000Y-48140000D03*
X126555000Y-48140000D03*
D23*
X125285000Y-39250000D03*
X136715000Y-39250000D03*
D22*
X138495000Y-36200000D03*
X123505000Y-36200000D03*
G04 #@! TD*
G04 #@! TO.C,J7*
X141255000Y-36200000D03*
X156245000Y-36200000D03*
D23*
X154465000Y-39250000D03*
X143035000Y-39250000D03*
D17*
X144305000Y-48140000D03*
X146845000Y-48140000D03*
X149385000Y-48140000D03*
X151925000Y-48140000D03*
X145575000Y-45600000D03*
X148115000Y-45600000D03*
X150655000Y-45600000D03*
D19*
X153195000Y-45600000D03*
D24*
X140384000Y-42298000D03*
X156989000Y-42298000D03*
G04 #@! TD*
G04 #@! TO.C,J8*
X174989000Y-42298000D03*
X158384000Y-42298000D03*
D19*
X171195000Y-45600000D03*
D17*
X168655000Y-45600000D03*
X166115000Y-45600000D03*
X163575000Y-45600000D03*
X169925000Y-48140000D03*
X167385000Y-48140000D03*
X164845000Y-48140000D03*
X162305000Y-48140000D03*
D23*
X161035000Y-39250000D03*
X172465000Y-39250000D03*
D22*
X174245000Y-36200000D03*
X159255000Y-36200000D03*
G04 #@! TD*
D25*
G04 #@! TO.C,MH1*
X86697056Y-33302944D03*
X85000000Y-32600000D03*
X83302944Y-33302944D03*
X82600000Y-35000000D03*
X83302944Y-36697056D03*
X85000000Y-37400000D03*
X86697056Y-36697056D03*
X87400000Y-35000000D03*
D26*
X85000000Y-35000000D03*
G04 #@! TD*
G04 #@! TO.C,MH2*
X180200000Y-35000000D03*
D25*
X182600000Y-35000000D03*
X181897056Y-36697056D03*
X180200000Y-37400000D03*
X178502944Y-36697056D03*
X177800000Y-35000000D03*
X178502944Y-33302944D03*
X180200000Y-32600000D03*
X181897056Y-33302944D03*
G04 #@! TD*
G04 #@! TO.C,MH3*
X86697056Y-73302944D03*
X85000000Y-72600000D03*
X83302944Y-73302944D03*
X82600000Y-75000000D03*
X83302944Y-76697056D03*
X85000000Y-77400000D03*
X86697056Y-76697056D03*
X87400000Y-75000000D03*
D26*
X85000000Y-75000000D03*
G04 #@! TD*
G04 #@! TO.C,MH4*
X180000000Y-75000000D03*
D25*
X182400000Y-75000000D03*
X181697056Y-76697056D03*
X180000000Y-77400000D03*
X178302944Y-76697056D03*
X177600000Y-75000000D03*
X178302944Y-73302944D03*
X180000000Y-72600000D03*
X181697056Y-73302944D03*
G04 #@! TD*
D27*
G04 #@! TO.C,D2*
G36*
X93521071Y-74801623D02*
X93553781Y-74806475D01*
X93585857Y-74814509D01*
X93616991Y-74825649D01*
X93646884Y-74839787D01*
X93675247Y-74856787D01*
X93701807Y-74876485D01*
X93726308Y-74898692D01*
X93748515Y-74923193D01*
X93768213Y-74949753D01*
X93785213Y-74978116D01*
X93799351Y-75008009D01*
X93810491Y-75039143D01*
X93818525Y-75071219D01*
X93823377Y-75103929D01*
X93825000Y-75136956D01*
X93825000Y-76263044D01*
X93823377Y-76296071D01*
X93818525Y-76328781D01*
X93810491Y-76360857D01*
X93799351Y-76391991D01*
X93785213Y-76421884D01*
X93768213Y-76450247D01*
X93748515Y-76476807D01*
X93726308Y-76501308D01*
X93701807Y-76523515D01*
X93675247Y-76543213D01*
X93646884Y-76560213D01*
X93616991Y-76574351D01*
X93585857Y-76585491D01*
X93553781Y-76593525D01*
X93521071Y-76598377D01*
X93488044Y-76600000D01*
X92611956Y-76600000D01*
X92578929Y-76598377D01*
X92546219Y-76593525D01*
X92514143Y-76585491D01*
X92483009Y-76574351D01*
X92453116Y-76560213D01*
X92424753Y-76543213D01*
X92398193Y-76523515D01*
X92373692Y-76501308D01*
X92351485Y-76476807D01*
X92331787Y-76450247D01*
X92314787Y-76421884D01*
X92300649Y-76391991D01*
X92289509Y-76360857D01*
X92281475Y-76328781D01*
X92276623Y-76296071D01*
X92275000Y-76263044D01*
X92275000Y-75136956D01*
X92276623Y-75103929D01*
X92281475Y-75071219D01*
X92289509Y-75039143D01*
X92300649Y-75008009D01*
X92314787Y-74978116D01*
X92331787Y-74949753D01*
X92351485Y-74923193D01*
X92373692Y-74898692D01*
X92398193Y-74876485D01*
X92424753Y-74856787D01*
X92453116Y-74839787D01*
X92483009Y-74825649D01*
X92514143Y-74814509D01*
X92546219Y-74806475D01*
X92578929Y-74801623D01*
X92611956Y-74800000D01*
X93488044Y-74800000D01*
X93521071Y-74801623D01*
X93521071Y-74801623D01*
G37*
D28*
X93050000Y-75700000D03*
D27*
G36*
X95571071Y-74801623D02*
X95603781Y-74806475D01*
X95635857Y-74814509D01*
X95666991Y-74825649D01*
X95696884Y-74839787D01*
X95725247Y-74856787D01*
X95751807Y-74876485D01*
X95776308Y-74898692D01*
X95798515Y-74923193D01*
X95818213Y-74949753D01*
X95835213Y-74978116D01*
X95849351Y-75008009D01*
X95860491Y-75039143D01*
X95868525Y-75071219D01*
X95873377Y-75103929D01*
X95875000Y-75136956D01*
X95875000Y-76263044D01*
X95873377Y-76296071D01*
X95868525Y-76328781D01*
X95860491Y-76360857D01*
X95849351Y-76391991D01*
X95835213Y-76421884D01*
X95818213Y-76450247D01*
X95798515Y-76476807D01*
X95776308Y-76501308D01*
X95751807Y-76523515D01*
X95725247Y-76543213D01*
X95696884Y-76560213D01*
X95666991Y-76574351D01*
X95635857Y-76585491D01*
X95603781Y-76593525D01*
X95571071Y-76598377D01*
X95538044Y-76600000D01*
X94661956Y-76600000D01*
X94628929Y-76598377D01*
X94596219Y-76593525D01*
X94564143Y-76585491D01*
X94533009Y-76574351D01*
X94503116Y-76560213D01*
X94474753Y-76543213D01*
X94448193Y-76523515D01*
X94423692Y-76501308D01*
X94401485Y-76476807D01*
X94381787Y-76450247D01*
X94364787Y-76421884D01*
X94350649Y-76391991D01*
X94339509Y-76360857D01*
X94331475Y-76328781D01*
X94326623Y-76296071D01*
X94325000Y-76263044D01*
X94325000Y-75136956D01*
X94326623Y-75103929D01*
X94331475Y-75071219D01*
X94339509Y-75039143D01*
X94350649Y-75008009D01*
X94364787Y-74978116D01*
X94381787Y-74949753D01*
X94401485Y-74923193D01*
X94423692Y-74898692D01*
X94448193Y-74876485D01*
X94474753Y-74856787D01*
X94503116Y-74839787D01*
X94533009Y-74825649D01*
X94564143Y-74814509D01*
X94596219Y-74806475D01*
X94628929Y-74801623D01*
X94661956Y-74800000D01*
X95538044Y-74800000D01*
X95571071Y-74801623D01*
X95571071Y-74801623D01*
G37*
D28*
X95100000Y-75700000D03*
G04 #@! TD*
D27*
G04 #@! TO.C,R1*
G36*
X93370581Y-72851625D02*
X93403343Y-72856485D01*
X93435471Y-72864533D01*
X93466656Y-72875691D01*
X93496596Y-72889852D01*
X93525005Y-72906879D01*
X93551608Y-72926609D01*
X93576149Y-72948851D01*
X93598391Y-72973392D01*
X93618121Y-72999995D01*
X93635148Y-73028404D01*
X93649309Y-73058344D01*
X93660467Y-73089529D01*
X93668515Y-73121657D01*
X93673375Y-73154419D01*
X93675000Y-73187500D01*
X93675000Y-73962500D01*
X93673375Y-73995581D01*
X93668515Y-74028343D01*
X93660467Y-74060471D01*
X93649309Y-74091656D01*
X93635148Y-74121596D01*
X93618121Y-74150005D01*
X93598391Y-74176608D01*
X93576149Y-74201149D01*
X93551608Y-74223391D01*
X93525005Y-74243121D01*
X93496596Y-74260148D01*
X93466656Y-74274309D01*
X93435471Y-74285467D01*
X93403343Y-74293515D01*
X93370581Y-74298375D01*
X93337500Y-74300000D01*
X92662500Y-74300000D01*
X92629419Y-74298375D01*
X92596657Y-74293515D01*
X92564529Y-74285467D01*
X92533344Y-74274309D01*
X92503404Y-74260148D01*
X92474995Y-74243121D01*
X92448392Y-74223391D01*
X92423851Y-74201149D01*
X92401609Y-74176608D01*
X92381879Y-74150005D01*
X92364852Y-74121596D01*
X92350691Y-74091656D01*
X92339533Y-74060471D01*
X92331485Y-74028343D01*
X92326625Y-73995581D01*
X92325000Y-73962500D01*
X92325000Y-73187500D01*
X92326625Y-73154419D01*
X92331485Y-73121657D01*
X92339533Y-73089529D01*
X92350691Y-73058344D01*
X92364852Y-73028404D01*
X92381879Y-72999995D01*
X92401609Y-72973392D01*
X92423851Y-72948851D01*
X92448392Y-72926609D01*
X92474995Y-72906879D01*
X92503404Y-72889852D01*
X92533344Y-72875691D01*
X92564529Y-72864533D01*
X92596657Y-72856485D01*
X92629419Y-72851625D01*
X92662500Y-72850000D01*
X93337500Y-72850000D01*
X93370581Y-72851625D01*
X93370581Y-72851625D01*
G37*
D29*
X93000000Y-73575000D03*
D27*
G36*
X93370581Y-71101625D02*
X93403343Y-71106485D01*
X93435471Y-71114533D01*
X93466656Y-71125691D01*
X93496596Y-71139852D01*
X93525005Y-71156879D01*
X93551608Y-71176609D01*
X93576149Y-71198851D01*
X93598391Y-71223392D01*
X93618121Y-71249995D01*
X93635148Y-71278404D01*
X93649309Y-71308344D01*
X93660467Y-71339529D01*
X93668515Y-71371657D01*
X93673375Y-71404419D01*
X93675000Y-71437500D01*
X93675000Y-72212500D01*
X93673375Y-72245581D01*
X93668515Y-72278343D01*
X93660467Y-72310471D01*
X93649309Y-72341656D01*
X93635148Y-72371596D01*
X93618121Y-72400005D01*
X93598391Y-72426608D01*
X93576149Y-72451149D01*
X93551608Y-72473391D01*
X93525005Y-72493121D01*
X93496596Y-72510148D01*
X93466656Y-72524309D01*
X93435471Y-72535467D01*
X93403343Y-72543515D01*
X93370581Y-72548375D01*
X93337500Y-72550000D01*
X92662500Y-72550000D01*
X92629419Y-72548375D01*
X92596657Y-72543515D01*
X92564529Y-72535467D01*
X92533344Y-72524309D01*
X92503404Y-72510148D01*
X92474995Y-72493121D01*
X92448392Y-72473391D01*
X92423851Y-72451149D01*
X92401609Y-72426608D01*
X92381879Y-72400005D01*
X92364852Y-72371596D01*
X92350691Y-72341656D01*
X92339533Y-72310471D01*
X92331485Y-72278343D01*
X92326625Y-72245581D01*
X92325000Y-72212500D01*
X92325000Y-71437500D01*
X92326625Y-71404419D01*
X92331485Y-71371657D01*
X92339533Y-71339529D01*
X92350691Y-71308344D01*
X92364852Y-71278404D01*
X92381879Y-71249995D01*
X92401609Y-71223392D01*
X92423851Y-71198851D01*
X92448392Y-71176609D01*
X92474995Y-71156879D01*
X92503404Y-71139852D01*
X92533344Y-71125691D01*
X92564529Y-71114533D01*
X92596657Y-71106485D01*
X92629419Y-71101625D01*
X92662500Y-71100000D01*
X93337500Y-71100000D01*
X93370581Y-71101625D01*
X93370581Y-71101625D01*
G37*
D29*
X93000000Y-71825000D03*
G04 #@! TD*
M02*
