G04 #@! TF.GenerationSoftware,KiCad,Pcbnew,(5.0.0)*
G04 #@! TF.CreationDate,2018-08-14T00:58:01+01:00*
G04 #@! TF.ProjectId,distboard,64697374626F6172642E6B696361645F,rev?*
G04 #@! TF.SameCoordinates,Original*
G04 #@! TF.FileFunction,Legend,Bot*
G04 #@! TF.FilePolarity,Positive*
%FSLAX46Y46*%
G04 Gerber Fmt 4.6, Leading zero omitted, Abs format (unit mm)*
G04 Created by KiCad (PCBNEW (5.0.0)) date 08/14/18 00:58:01*
%MOMM*%
%LPD*%
G01*
G04 APERTURE LIST*
%ADD10C,0.120000*%
%ADD11C,0.150000*%
G04 APERTURE END LIST*
D10*
G04 #@! TO.C,C1*
X99490000Y-40750000D02*
X99490000Y-36365000D01*
X99490000Y-36365000D02*
X102510000Y-36365000D01*
X102510000Y-36365000D02*
X102510000Y-40750000D01*
G04 #@! TO.C,C2*
X96490000Y-37828733D02*
X96490000Y-38171267D01*
X97510000Y-37828733D02*
X97510000Y-38171267D01*
G04 #@! TO.C,C1*
D11*
X99007142Y-38833333D02*
X99054761Y-38785714D01*
X99102380Y-38642857D01*
X99102380Y-38547619D01*
X99054761Y-38404761D01*
X98959523Y-38309523D01*
X98864285Y-38261904D01*
X98673809Y-38214285D01*
X98530952Y-38214285D01*
X98340476Y-38261904D01*
X98245238Y-38309523D01*
X98150000Y-38404761D01*
X98102380Y-38547619D01*
X98102380Y-38642857D01*
X98150000Y-38785714D01*
X98197619Y-38833333D01*
X99102380Y-39785714D02*
X99102380Y-39214285D01*
X99102380Y-39500000D02*
X98102380Y-39500000D01*
X98245238Y-39404761D01*
X98340476Y-39309523D01*
X98388095Y-39214285D01*
G04 #@! TO.C,C2*
X95927142Y-37833333D02*
X95974761Y-37785714D01*
X96022380Y-37642857D01*
X96022380Y-37547619D01*
X95974761Y-37404761D01*
X95879523Y-37309523D01*
X95784285Y-37261904D01*
X95593809Y-37214285D01*
X95450952Y-37214285D01*
X95260476Y-37261904D01*
X95165238Y-37309523D01*
X95070000Y-37404761D01*
X95022380Y-37547619D01*
X95022380Y-37642857D01*
X95070000Y-37785714D01*
X95117619Y-37833333D01*
X95117619Y-38214285D02*
X95070000Y-38261904D01*
X95022380Y-38357142D01*
X95022380Y-38595238D01*
X95070000Y-38690476D01*
X95117619Y-38738095D01*
X95212857Y-38785714D01*
X95308095Y-38785714D01*
X95450952Y-38738095D01*
X96022380Y-38166666D01*
X96022380Y-38785714D01*
G04 #@! TD*
M02*
