M48
;DRILL file {KiCad (5.0.0)} date 08/14/18 00:58:03
;FORMAT={-:-/ absolute / inch / decimal}
FMAT,2
INCH,TZ
T1C0.0197
T2C0.0350
T3C0.0362
T4C0.0394
T5C0.0433
T6C0.0472
T7C0.0630
T8C0.0787
T9C0.0906
T10C0.1260
%
G90
G05
M72
T1
X7.Y-1.378
X7.0277Y-1.3111
X7.0277Y-1.4448
X7.0945Y-1.2835
X7.0945Y-1.4724
X7.1613Y-1.3111
X7.1613Y-1.4448
X7.189Y-1.378
X3.252Y-1.378
X3.2796Y-1.3111
X3.2796Y-1.4448
X3.3465Y-1.2835
X3.3465Y-1.4724
X3.4133Y-1.3111
X3.4133Y-1.4448
X3.4409Y-1.378
X6.9921Y-2.9528
X7.0198Y-2.8859
X7.0198Y-3.0196
X7.0866Y-2.8583
X7.0866Y-3.0472
X7.1534Y-2.8859
X7.1534Y-3.0196
X7.1811Y-2.9528
X3.252Y-2.9528
X3.2796Y-2.8859
X3.2796Y-3.0196
X3.3465Y-2.8583
X3.3465Y-3.0472
X3.4133Y-2.8859
X3.4133Y-3.0196
X3.4409Y-2.9528
T2
X6.39Y-1.8953
X6.44Y-1.7953
X6.49Y-1.8953
X6.54Y-1.7953
X6.59Y-1.8953
X6.64Y-1.7953
X6.69Y-1.8953
X6.74Y-1.7953
X6.3801Y-2.5059
X6.4301Y-2.4059
X6.4801Y-2.5059
X6.5301Y-2.4059
X6.5801Y-2.5059
X6.6301Y-2.4059
X6.6801Y-2.5059
X6.7301Y-2.4059
X4.9825Y-1.8953
X5.0325Y-1.7953
X5.0825Y-1.8953
X5.1325Y-1.7953
X5.1825Y-1.8953
X5.2325Y-1.7953
X5.2825Y-1.8953
X5.3325Y-1.7953
X5.6813Y-1.8953
X5.7313Y-1.7953
X5.7813Y-1.8953
X5.8313Y-1.7953
X5.8813Y-1.8953
X5.9313Y-1.7953
X5.9813Y-1.8953
X6.0313Y-1.7953
X4.2738Y-1.8953
X4.3238Y-1.7953
X4.3738Y-1.8953
X4.4238Y-1.7953
X4.4738Y-1.8953
X4.5238Y-1.7953
X4.5738Y-1.8953
X4.6238Y-1.7953
T3
X5.6693Y-2.5197
X5.6693Y-2.6228
X5.7677Y-2.5197
X5.7677Y-2.6228
X5.8465Y-2.5197
X5.8465Y-2.6228
X5.9449Y-2.5197
X5.9449Y-2.6228
X4.9803Y-2.5197
X4.9803Y-2.6228
X5.0787Y-2.5197
X5.0787Y-2.6228
X5.1575Y-2.5197
X5.1575Y-2.6228
X5.2559Y-2.5197
X5.2559Y-2.6228
X4.2913Y-2.5197
X4.2913Y-2.6228
X4.3898Y-2.5197
X4.3898Y-2.6228
X4.4685Y-2.5197
X4.4685Y-2.6228
X4.5669Y-2.5197
X4.5669Y-2.6228
T4
X3.5957Y-1.3173
X3.5957Y-1.9285
X3.9757Y-1.3185
X3.9757Y-1.9285
T5
X3.9764Y-2.0866
X3.9764Y-2.4866
T6
X3.8976Y-2.874
X3.9976Y-2.874
T7
X4.1537Y-1.4252
X4.7439Y-1.4252
X6.2699Y-1.4252
X6.86Y-1.4252
X6.26Y-2.876
X6.8502Y-2.876
X3.5433Y-2.4803
X3.5433Y-2.6181
X4.8624Y-1.4252
X5.4526Y-1.4252
X5.5612Y-1.4252
X6.1514Y-1.4252
T9
X5.5484Y-2.5059
X5.5484Y-2.7295
X6.0657Y-2.5059
X6.0657Y-2.7295
X4.8594Y-2.5059
X4.8594Y-2.7295
X5.3768Y-2.5059
X5.3768Y-2.7295
X4.1705Y-2.5059
X4.1705Y-2.7295
X4.6878Y-2.5059
X4.6878Y-2.7295
T10
X7.0945Y-1.378
X3.3465Y-1.378
X7.0866Y-2.9528
X3.3465Y-2.9528
T8
X3.3169Y-2.2047G85X3.376Y-2.2047
G05
X3.6319Y-2.2047G85X3.6909Y-2.2047
G05
T0
M30
